  0
SECTION
  2
HEADER
  9
$ANGBASE
  50
0.0
  9
$ANGDIR
  70
1
  9
$MEASUREMENT
  70
0
  0
ENDSEC
  0
SECTION
  2
TABLES
  0
TABLE
  2
LTYPE
  70
4
  0
LTYPE
  5
40F
  2
CONTINUOUS
  70
0
  3
Solid line
  72
65
  73
0
  40
0.0
  0
LTYPE
  5
410
  2
DASHDOT
 70
0
  3
Dash Dot ____ _ ____ _
 72
65
 73
4
 40
2.0
 49
1.25
 49
-0.25
 49
0.25
 49
-0.25
  0
LTYPE
  5
411
  2
DASHED
 70
0
  3
Dashed __ __ __ __ __
 72
65
 73
2
 40
0.75
 49
0.5
 49
-0.25
  0
LTYPE
  5
43B
  2
DOTTED
 70
0
  3
Dotted .  .  .  .
 72
65
 73
2
 40
0.2
 49
0.0
 49
-0.2
  0
ENDTAB
  0
TABLE
  2
STYLE
  70
4
  0
STYLE
  2
KICAD
  70
0
  40
0
  41
1
  42
1
  50
0
  71
0
  3
isocp.shx
  0
STYLE
  2
KICADB
  70
0
  40
0
  41
1
  42
1
  50
0
  71
0
  3
isocp.shx
  0
STYLE
  2
KICADI
  70
0
  40
0
  41
1
  42
1
  50
15
  71
0
  3
isocp.shx
  0
STYLE
  2
KICADBI
  70
0
  40
0
  41
1
  42
1
  50
15
  71
0
  3
isocp.shx
  0
ENDTAB
  0
TABLE
  2
LAYER
  70
1
  0
LAYER
  2
BLACK
  70
0
  62
7
  6
CONTINUOUS
  0
ENDTAB
  0
ENDSEC
  0
SECTION
  2
ENTITIES
0
LINE
8
BLACK
6
CONTINUOUS
10
9.54704
20
-4.53011
11
9.60758
21
-4.55519
0
LINE
8
BLACK
6
CONTINUOUS
10
9.60758
20
-4.55519
11
9.66207
21
-4.59159
0
LINE
8
BLACK
6
CONTINUOUS
10
9.66207
20
-4.59159
11
9.70841
21
-4.63793
0
LINE
8
BLACK
6
CONTINUOUS
10
9.70841
20
-4.63793
11
9.74481
21
-4.69242
0
LINE
8
BLACK
6
CONTINUOUS
10
9.74481
20
-4.69242
11
9.76989
21
-4.75296
0
LINE
8
BLACK
6
CONTINUOUS
10
9.76989
20
-4.75296
11
9.78268
21
-4.81723
0
LINE
8
BLACK
6
CONTINUOUS
10
9.78268
20
-4.81723
11
9.78268
21
-4.88277
0
LINE
8
BLACK
6
CONTINUOUS
10
9.78268
20
-4.88277
11
9.76989
21
-4.94704
0
LINE
8
BLACK
6
CONTINUOUS
10
9.76989
20
-4.94704
11
9.74481
21
-5.00758
0
LINE
8
BLACK
6
CONTINUOUS
10
9.74481
20
-5.00758
11
9.70841
21
-5.06207
0
LINE
8
BLACK
6
CONTINUOUS
10
9.70841
20
-5.06207
11
9.66207
21
-5.10841
0
LINE
8
BLACK
6
CONTINUOUS
10
9.66207
20
-5.10841
11
9.60758
21
-5.14481
0
LINE
8
BLACK
6
CONTINUOUS
10
9.60758
20
-5.14481
11
9.54704
21
-5.16989
0
LINE
8
BLACK
6
CONTINUOUS
10
9.54704
20
-5.16989
11
9.48277
21
-5.18268
0
LINE
8
BLACK
6
CONTINUOUS
10
9.48277
20
-5.18268
11
9.41723
21
-5.18268
0
LINE
8
BLACK
6
CONTINUOUS
10
9.41723
20
-5.18268
11
9.35296
21
-5.16989
0
LINE
8
BLACK
6
CONTINUOUS
10
9.35296
20
-5.16989
11
9.29242
21
-5.14481
0
LINE
8
BLACK
6
CONTINUOUS
10
9.29242
20
-5.14481
11
9.23793
21
-5.10841
0
LINE
8
BLACK
6
CONTINUOUS
10
9.23793
20
-5.10841
11
9.19159
21
-5.06207
0
LINE
8
BLACK
6
CONTINUOUS
10
9.19159
20
-5.06207
11
9.15519
21
-5.00758
0
LINE
8
BLACK
6
CONTINUOUS
10
9.15519
20
-5.00758
11
9.13011
21
-4.94704
0
LINE
8
BLACK
6
CONTINUOUS
10
9.13011
20
-4.94704
11
9.11732
21
-4.88277
0
LINE
8
BLACK
6
CONTINUOUS
10
9.11732
20
-4.88277
11
9.11732
21
-4.81723
0
LINE
8
BLACK
6
CONTINUOUS
10
9.11732
20
-4.81723
11
9.13011
21
-4.75296
0
LINE
8
BLACK
6
CONTINUOUS
10
9.13011
20
-4.75296
11
9.15519
21
-4.69242
0
LINE
8
BLACK
6
CONTINUOUS
10
9.15519
20
-4.69242
11
9.19159
21
-4.63793
0
LINE
8
BLACK
6
CONTINUOUS
10
9.19159
20
-4.63793
11
9.23793
21
-4.59159
0
LINE
8
BLACK
6
CONTINUOUS
10
9.23793
20
-4.59159
11
9.29242
21
-4.55519
0
LINE
8
BLACK
6
CONTINUOUS
10
9.29242
20
-4.55519
11
9.35296
21
-4.53011
0
LINE
8
BLACK
6
CONTINUOUS
10
9.35296
20
-4.53011
11
9.41723
21
-4.51732
0
LINE
8
BLACK
6
CONTINUOUS
10
9.41723
20
-4.51732
11
9.48277
21
-4.51732
0
LINE
8
BLACK
6
CONTINUOUS
10
9.48277
20
-4.51732
11
9.54704
21
-4.53011
0
LINE
8
BLACK
6
CONTINUOUS
10
1.11081
20
-5.03685
11
1.12407
21
-5.04234
0
LINE
8
BLACK
6
CONTINUOUS
10
1.12407
20
-5.04234
11
1.136
21
-5.05032
0
LINE
8
BLACK
6
CONTINUOUS
10
1.136
20
-5.05032
11
1.14614
21
-5.06046
0
LINE
8
BLACK
6
CONTINUOUS
10
1.14614
20
-5.06046
11
1.15411
21
-5.07239
0
LINE
8
BLACK
6
CONTINUOUS
10
1.15411
20
-5.07239
11
1.1596
21
-5.08564
0
LINE
8
BLACK
6
CONTINUOUS
10
1.1596
20
-5.08564
11
1.1624
21
-5.09972
0
LINE
8
BLACK
6
CONTINUOUS
10
1.1624
20
-5.09972
11
1.1624
21
-5.11406
0
LINE
8
BLACK
6
CONTINUOUS
10
1.1624
20
-5.11406
11
1.1596
21
-5.12813
0
LINE
8
BLACK
6
CONTINUOUS
10
1.1596
20
-5.12813
11
1.15411
21
-5.14139
0
LINE
8
BLACK
6
CONTINUOUS
10
1.15411
20
-5.14139
11
1.14614
21
-5.15332
0
LINE
8
BLACK
6
CONTINUOUS
10
1.14614
20
-5.15332
11
1.136
21
-5.16346
0
LINE
8
BLACK
6
CONTINUOUS
10
1.136
20
-5.16346
11
1.12407
21
-5.17143
0
LINE
8
BLACK
6
CONTINUOUS
10
1.12407
20
-5.17143
11
1.11081
21
-5.17693
0
LINE
8
BLACK
6
CONTINUOUS
10
1.11081
20
-5.17693
11
1.09674
21
-5.17972
0
LINE
8
BLACK
6
CONTINUOUS
10
1.09674
20
-5.17972
11
1.08239
21
-5.17972
0
LINE
8
BLACK
6
CONTINUOUS
10
1.08239
20
-5.17972
11
1.06832
21
-5.17693
0
LINE
8
BLACK
6
CONTINUOUS
10
1.06832
20
-5.17693
11
1.05507
21
-5.17143
0
LINE
8
BLACK
6
CONTINUOUS
10
1.05507
20
-5.17143
11
1.04314
21
-5.16346
0
LINE
8
BLACK
6
CONTINUOUS
10
1.04314
20
-5.16346
11
1.03299
21
-5.15332
0
LINE
8
BLACK
6
CONTINUOUS
10
1.03299
20
-5.15332
11
1.02502
21
-5.14139
0
LINE
8
BLACK
6
CONTINUOUS
10
1.02502
20
-5.14139
11
1.01953
21
-5.12813
0
LINE
8
BLACK
6
CONTINUOUS
10
1.01953
20
-5.12813
11
1.01673
21
-5.11406
0
LINE
8
BLACK
6
CONTINUOUS
10
1.01673
20
-5.11406
11
1.01673
21
-5.09972
0
LINE
8
BLACK
6
CONTINUOUS
10
1.01673
20
-5.09972
11
1.01953
21
-5.08564
0
LINE
8
BLACK
6
CONTINUOUS
10
1.01953
20
-5.08564
11
1.02502
21
-5.07239
0
LINE
8
BLACK
6
CONTINUOUS
10
1.02502
20
-5.07239
11
1.03299
21
-5.06046
0
LINE
8
BLACK
6
CONTINUOUS
10
1.03299
20
-5.06046
11
1.04314
21
-5.05032
0
LINE
8
BLACK
6
CONTINUOUS
10
1.04314
20
-5.05032
11
1.05507
21
-5.04234
0
LINE
8
BLACK
6
CONTINUOUS
10
1.05507
20
-5.04234
11
1.06832
21
-5.03685
0
LINE
8
BLACK
6
CONTINUOUS
10
1.06832
20
-5.03685
11
1.08239
21
-5.03406
0
LINE
8
BLACK
6
CONTINUOUS
10
1.08239
20
-5.03406
11
1.09674
21
-5.03406
0
LINE
8
BLACK
6
CONTINUOUS
10
1.09674
20
-5.03406
11
1.11081
21
-5.03685
0
LINE
8
BLACK
6
CONTINUOUS
10
1.78581
20
-5.03685
11
1.79907
21
-5.04234
0
LINE
8
BLACK
6
CONTINUOUS
10
1.79907
20
-5.04234
11
1.811
21
-5.05032
0
LINE
8
BLACK
6
CONTINUOUS
10
1.811
20
-5.05032
11
1.82114
21
-5.06046
0
LINE
8
BLACK
6
CONTINUOUS
10
1.82114
20
-5.06046
11
1.82911
21
-5.07239
0
LINE
8
BLACK
6
CONTINUOUS
10
1.82911
20
-5.07239
11
1.8346
21
-5.08564
0
LINE
8
BLACK
6
CONTINUOUS
10
1.8346
20
-5.08564
11
1.8374
21
-5.09972
0
LINE
8
BLACK
6
CONTINUOUS
10
1.8374
20
-5.09972
11
1.8374
21
-5.11406
0
LINE
8
BLACK
6
CONTINUOUS
10
1.8374
20
-5.11406
11
1.8346
21
-5.12813
0
LINE
8
BLACK
6
CONTINUOUS
10
1.8346
20
-5.12813
11
1.82911
21
-5.14139
0
LINE
8
BLACK
6
CONTINUOUS
10
1.82911
20
-5.14139
11
1.82114
21
-5.15332
0
LINE
8
BLACK
6
CONTINUOUS
10
1.82114
20
-5.15332
11
1.811
21
-5.16346
0
LINE
8
BLACK
6
CONTINUOUS
10
1.811
20
-5.16346
11
1.79907
21
-5.17143
0
LINE
8
BLACK
6
CONTINUOUS
10
1.79907
20
-5.17143
11
1.78581
21
-5.17693
0
LINE
8
BLACK
6
CONTINUOUS
10
1.78581
20
-5.17693
11
1.77174
21
-5.17972
0
LINE
8
BLACK
6
CONTINUOUS
10
1.77174
20
-5.17972
11
1.75739
21
-5.17972
0
LINE
8
BLACK
6
CONTINUOUS
10
1.75739
20
-5.17972
11
1.74332
21
-5.17693
0
LINE
8
BLACK
6
CONTINUOUS
10
1.74332
20
-5.17693
11
1.73007
21
-5.17143
0
LINE
8
BLACK
6
CONTINUOUS
10
1.73007
20
-5.17143
11
1.71814
21
-5.16346
0
LINE
8
BLACK
6
CONTINUOUS
10
1.71814
20
-5.16346
11
1.70799
21
-5.15332
0
LINE
8
BLACK
6
CONTINUOUS
10
1.70799
20
-5.15332
11
1.70002
21
-5.14139
0
LINE
8
BLACK
6
CONTINUOUS
10
1.70002
20
-5.14139
11
1.69453
21
-5.12813
0
LINE
8
BLACK
6
CONTINUOUS
10
1.69453
20
-5.12813
11
1.69173
21
-5.11406
0
LINE
8
BLACK
6
CONTINUOUS
10
1.69173
20
-5.11406
11
1.69173
21
-5.09972
0
LINE
8
BLACK
6
CONTINUOUS
10
1.69173
20
-5.09972
11
1.69453
21
-5.08564
0
LINE
8
BLACK
6
CONTINUOUS
10
1.69453
20
-5.08564
11
1.70002
21
-5.07239
0
LINE
8
BLACK
6
CONTINUOUS
10
1.70002
20
-5.07239
11
1.70799
21
-5.06046
0
LINE
8
BLACK
6
CONTINUOUS
10
1.70799
20
-5.06046
11
1.71814
21
-5.05032
0
LINE
8
BLACK
6
CONTINUOUS
10
1.71814
20
-5.05032
11
1.73007
21
-5.04234
0
LINE
8
BLACK
6
CONTINUOUS
10
1.73007
20
-5.04234
11
1.74332
21
-5.03685
0
LINE
8
BLACK
6
CONTINUOUS
10
1.74332
20
-5.03685
11
1.75739
21
-5.03406
0
LINE
8
BLACK
6
CONTINUOUS
10
1.75739
20
-5.03406
11
1.77174
21
-5.03406
0
LINE
8
BLACK
6
CONTINUOUS
10
1.77174
20
-5.03406
11
1.78581
21
-5.03685
0
LINE
8
BLACK
6
CONTINUOUS
10
2.46081
20
-5.03685
11
2.47407
21
-5.04234
0
LINE
8
BLACK
6
CONTINUOUS
10
2.47407
20
-5.04234
11
2.486
21
-5.05032
0
LINE
8
BLACK
6
CONTINUOUS
10
2.486
20
-5.05032
11
2.49614
21
-5.06046
0
LINE
8
BLACK
6
CONTINUOUS
10
2.49614
20
-5.06046
11
2.50411
21
-5.07239
0
LINE
8
BLACK
6
CONTINUOUS
10
2.50411
20
-5.07239
11
2.5096
21
-5.08564
0
LINE
8
BLACK
6
CONTINUOUS
10
2.5096
20
-5.08564
11
2.5124
21
-5.09972
0
LINE
8
BLACK
6
CONTINUOUS
10
2.5124
20
-5.09972
11
2.5124
21
-5.11406
0
LINE
8
BLACK
6
CONTINUOUS
10
2.5124
20
-5.11406
11
2.5096
21
-5.12813
0
LINE
8
BLACK
6
CONTINUOUS
10
2.5096
20
-5.12813
11
2.50411
21
-5.14139
0
LINE
8
BLACK
6
CONTINUOUS
10
2.50411
20
-5.14139
11
2.49614
21
-5.15332
0
LINE
8
BLACK
6
CONTINUOUS
10
2.49614
20
-5.15332
11
2.486
21
-5.16346
0
LINE
8
BLACK
6
CONTINUOUS
10
2.486
20
-5.16346
11
2.47407
21
-5.17143
0
LINE
8
BLACK
6
CONTINUOUS
10
2.47407
20
-5.17143
11
2.46081
21
-5.17693
0
LINE
8
BLACK
6
CONTINUOUS
10
2.46081
20
-5.17693
11
2.44674
21
-5.17972
0
LINE
8
BLACK
6
CONTINUOUS
10
2.44674
20
-5.17972
11
2.43239
21
-5.17972
0
LINE
8
BLACK
6
CONTINUOUS
10
2.43239
20
-5.17972
11
2.41832
21
-5.17693
0
LINE
8
BLACK
6
CONTINUOUS
10
2.41832
20
-5.17693
11
2.40507
21
-5.17143
0
LINE
8
BLACK
6
CONTINUOUS
10
2.40507
20
-5.17143
11
2.39314
21
-5.16346
0
LINE
8
BLACK
6
CONTINUOUS
10
2.39314
20
-5.16346
11
2.38299
21
-5.15332
0
LINE
8
BLACK
6
CONTINUOUS
10
2.38299
20
-5.15332
11
2.37502
21
-5.14139
0
LINE
8
BLACK
6
CONTINUOUS
10
2.37502
20
-5.14139
11
2.36953
21
-5.12813
0
LINE
8
BLACK
6
CONTINUOUS
10
2.36953
20
-5.12813
11
2.36673
21
-5.11406
0
LINE
8
BLACK
6
CONTINUOUS
10
2.36673
20
-5.11406
11
2.36673
21
-5.09972
0
LINE
8
BLACK
6
CONTINUOUS
10
2.36673
20
-5.09972
11
2.36953
21
-5.08564
0
LINE
8
BLACK
6
CONTINUOUS
10
2.36953
20
-5.08564
11
2.37502
21
-5.07239
0
LINE
8
BLACK
6
CONTINUOUS
10
2.37502
20
-5.07239
11
2.38299
21
-5.06046
0
LINE
8
BLACK
6
CONTINUOUS
10
2.38299
20
-5.06046
11
2.39314
21
-5.05032
0
LINE
8
BLACK
6
CONTINUOUS
10
2.39314
20
-5.05032
11
2.40507
21
-5.04234
0
LINE
8
BLACK
6
CONTINUOUS
10
2.40507
20
-5.04234
11
2.41832
21
-5.03685
0
LINE
8
BLACK
6
CONTINUOUS
10
2.41832
20
-5.03685
11
2.43239
21
-5.03406
0
LINE
8
BLACK
6
CONTINUOUS
10
2.43239
20
-5.03406
11
2.44674
21
-5.03406
0
LINE
8
BLACK
6
CONTINUOUS
10
2.44674
20
-5.03406
11
2.46081
21
-5.03685
0
LINE
8
BLACK
6
CONTINUOUS
10
3.13581
20
-5.03685
11
3.14907
21
-5.04234
0
LINE
8
BLACK
6
CONTINUOUS
10
3.14907
20
-5.04234
11
3.161
21
-5.05032
0
LINE
8
BLACK
6
CONTINUOUS
10
3.161
20
-5.05032
11
3.17114
21
-5.06046
0
LINE
8
BLACK
6
CONTINUOUS
10
3.17114
20
-5.06046
11
3.17911
21
-5.07239
0
LINE
8
BLACK
6
CONTINUOUS
10
3.17911
20
-5.07239
11
3.1846
21
-5.08564
0
LINE
8
BLACK
6
CONTINUOUS
10
3.1846
20
-5.08564
11
3.1874
21
-5.09972
0
LINE
8
BLACK
6
CONTINUOUS
10
3.1874
20
-5.09972
11
3.1874
21
-5.11406
0
LINE
8
BLACK
6
CONTINUOUS
10
3.1874
20
-5.11406
11
3.1846
21
-5.12813
0
LINE
8
BLACK
6
CONTINUOUS
10
3.1846
20
-5.12813
11
3.17911
21
-5.14139
0
LINE
8
BLACK
6
CONTINUOUS
10
3.17911
20
-5.14139
11
3.17114
21
-5.15332
0
LINE
8
BLACK
6
CONTINUOUS
10
3.17114
20
-5.15332
11
3.161
21
-5.16346
0
LINE
8
BLACK
6
CONTINUOUS
10
3.161
20
-5.16346
11
3.14907
21
-5.17143
0
LINE
8
BLACK
6
CONTINUOUS
10
3.14907
20
-5.17143
11
3.13581
21
-5.17693
0
LINE
8
BLACK
6
CONTINUOUS
10
3.13581
20
-5.17693
11
3.12174
21
-5.17972
0
LINE
8
BLACK
6
CONTINUOUS
10
3.12174
20
-5.17972
11
3.10739
21
-5.17972
0
LINE
8
BLACK
6
CONTINUOUS
10
3.10739
20
-5.17972
11
3.09332
21
-5.17693
0
LINE
8
BLACK
6
CONTINUOUS
10
3.09332
20
-5.17693
11
3.08007
21
-5.17143
0
LINE
8
BLACK
6
CONTINUOUS
10
3.08007
20
-5.17143
11
3.06814
21
-5.16346
0
LINE
8
BLACK
6
CONTINUOUS
10
3.06814
20
-5.16346
11
3.05799
21
-5.15332
0
LINE
8
BLACK
6
CONTINUOUS
10
3.05799
20
-5.15332
11
3.05002
21
-5.14139
0
LINE
8
BLACK
6
CONTINUOUS
10
3.05002
20
-5.14139
11
3.04453
21
-5.12813
0
LINE
8
BLACK
6
CONTINUOUS
10
3.04453
20
-5.12813
11
3.04173
21
-5.11406
0
LINE
8
BLACK
6
CONTINUOUS
10
3.04173
20
-5.11406
11
3.04173
21
-5.09972
0
LINE
8
BLACK
6
CONTINUOUS
10
3.04173
20
-5.09972
11
3.04453
21
-5.08564
0
LINE
8
BLACK
6
CONTINUOUS
10
3.04453
20
-5.08564
11
3.05002
21
-5.07239
0
LINE
8
BLACK
6
CONTINUOUS
10
3.05002
20
-5.07239
11
3.05799
21
-5.06046
0
LINE
8
BLACK
6
CONTINUOUS
10
3.05799
20
-5.06046
11
3.06814
21
-5.05032
0
LINE
8
BLACK
6
CONTINUOUS
10
3.06814
20
-5.05032
11
3.08007
21
-5.04234
0
LINE
8
BLACK
6
CONTINUOUS
10
3.08007
20
-5.04234
11
3.09332
21
-5.03685
0
LINE
8
BLACK
6
CONTINUOUS
10
3.09332
20
-5.03685
11
3.10739
21
-5.03406
0
LINE
8
BLACK
6
CONTINUOUS
10
3.10739
20
-5.03406
11
3.12174
21
-5.03406
0
LINE
8
BLACK
6
CONTINUOUS
10
3.12174
20
-5.03406
11
3.13581
21
-5.03685
0
LINE
8
BLACK
6
CONTINUOUS
10
3.81081
20
-5.03685
11
3.82407
21
-5.04234
0
LINE
8
BLACK
6
CONTINUOUS
10
3.82407
20
-5.04234
11
3.836
21
-5.05032
0
LINE
8
BLACK
6
CONTINUOUS
10
3.836
20
-5.05032
11
3.84614
21
-5.06046
0
LINE
8
BLACK
6
CONTINUOUS
10
3.84614
20
-5.06046
11
3.85411
21
-5.07239
0
LINE
8
BLACK
6
CONTINUOUS
10
3.85411
20
-5.07239
11
3.8596
21
-5.08564
0
LINE
8
BLACK
6
CONTINUOUS
10
3.8596
20
-5.08564
11
3.8624
21
-5.09972
0
LINE
8
BLACK
6
CONTINUOUS
10
3.8624
20
-5.09972
11
3.8624
21
-5.11406
0
LINE
8
BLACK
6
CONTINUOUS
10
3.8624
20
-5.11406
11
3.8596
21
-5.12813
0
LINE
8
BLACK
6
CONTINUOUS
10
3.8596
20
-5.12813
11
3.85411
21
-5.14139
0
LINE
8
BLACK
6
CONTINUOUS
10
3.85411
20
-5.14139
11
3.84614
21
-5.15332
0
LINE
8
BLACK
6
CONTINUOUS
10
3.84614
20
-5.15332
11
3.836
21
-5.16346
0
LINE
8
BLACK
6
CONTINUOUS
10
3.836
20
-5.16346
11
3.82407
21
-5.17143
0
LINE
8
BLACK
6
CONTINUOUS
10
3.82407
20
-5.17143
11
3.81081
21
-5.17693
0
LINE
8
BLACK
6
CONTINUOUS
10
3.81081
20
-5.17693
11
3.79674
21
-5.17972
0
LINE
8
BLACK
6
CONTINUOUS
10
3.79674
20
-5.17972
11
3.78239
21
-5.17972
0
LINE
8
BLACK
6
CONTINUOUS
10
3.78239
20
-5.17972
11
3.76832
21
-5.17693
0
LINE
8
BLACK
6
CONTINUOUS
10
3.76832
20
-5.17693
11
3.75507
21
-5.17143
0
LINE
8
BLACK
6
CONTINUOUS
10
3.75507
20
-5.17143
11
3.74314
21
-5.16346
0
LINE
8
BLACK
6
CONTINUOUS
10
3.74314
20
-5.16346
11
3.73299
21
-5.15332
0
LINE
8
BLACK
6
CONTINUOUS
10
3.73299
20
-5.15332
11
3.72502
21
-5.14139
0
LINE
8
BLACK
6
CONTINUOUS
10
3.72502
20
-5.14139
11
3.71953
21
-5.12813
0
LINE
8
BLACK
6
CONTINUOUS
10
3.71953
20
-5.12813
11
3.71673
21
-5.11406
0
LINE
8
BLACK
6
CONTINUOUS
10
3.71673
20
-5.11406
11
3.71673
21
-5.09972
0
LINE
8
BLACK
6
CONTINUOUS
10
3.71673
20
-5.09972
11
3.71953
21
-5.08564
0
LINE
8
BLACK
6
CONTINUOUS
10
3.71953
20
-5.08564
11
3.72502
21
-5.07239
0
LINE
8
BLACK
6
CONTINUOUS
10
3.72502
20
-5.07239
11
3.73299
21
-5.06046
0
LINE
8
BLACK
6
CONTINUOUS
10
3.73299
20
-5.06046
11
3.74314
21
-5.05032
0
LINE
8
BLACK
6
CONTINUOUS
10
3.74314
20
-5.05032
11
3.75507
21
-5.04234
0
LINE
8
BLACK
6
CONTINUOUS
10
3.75507
20
-5.04234
11
3.76832
21
-5.03685
0
LINE
8
BLACK
6
CONTINUOUS
10
3.76832
20
-5.03685
11
3.78239
21
-5.03406
0
LINE
8
BLACK
6
CONTINUOUS
10
3.78239
20
-5.03406
11
3.79674
21
-5.03406
0
LINE
8
BLACK
6
CONTINUOUS
10
3.79674
20
-5.03406
11
3.81081
21
-5.03685
0
LINE
8
BLACK
6
CONTINUOUS
10
4.48581
20
-5.03685
11
4.49907
21
-5.04234
0
LINE
8
BLACK
6
CONTINUOUS
10
4.49907
20
-5.04234
11
4.511
21
-5.05032
0
LINE
8
BLACK
6
CONTINUOUS
10
4.511
20
-5.05032
11
4.52114
21
-5.06046
0
LINE
8
BLACK
6
CONTINUOUS
10
4.52114
20
-5.06046
11
4.52911
21
-5.07239
0
LINE
8
BLACK
6
CONTINUOUS
10
4.52911
20
-5.07239
11
4.5346
21
-5.08564
0
LINE
8
BLACK
6
CONTINUOUS
10
4.5346
20
-5.08564
11
4.5374
21
-5.09972
0
LINE
8
BLACK
6
CONTINUOUS
10
4.5374
20
-5.09972
11
4.5374
21
-5.11406
0
LINE
8
BLACK
6
CONTINUOUS
10
4.5374
20
-5.11406
11
4.5346
21
-5.12813
0
LINE
8
BLACK
6
CONTINUOUS
10
4.5346
20
-5.12813
11
4.52911
21
-5.14139
0
LINE
8
BLACK
6
CONTINUOUS
10
4.52911
20
-5.14139
11
4.52114
21
-5.15332
0
LINE
8
BLACK
6
CONTINUOUS
10
4.52114
20
-5.15332
11
4.511
21
-5.16346
0
LINE
8
BLACK
6
CONTINUOUS
10
4.511
20
-5.16346
11
4.49907
21
-5.17143
0
LINE
8
BLACK
6
CONTINUOUS
10
4.49907
20
-5.17143
11
4.48581
21
-5.17693
0
LINE
8
BLACK
6
CONTINUOUS
10
4.48581
20
-5.17693
11
4.47174
21
-5.17972
0
LINE
8
BLACK
6
CONTINUOUS
10
4.47174
20
-5.17972
11
4.45739
21
-5.17972
0
LINE
8
BLACK
6
CONTINUOUS
10
4.45739
20
-5.17972
11
4.44332
21
-5.17693
0
LINE
8
BLACK
6
CONTINUOUS
10
4.44332
20
-5.17693
11
4.43007
21
-5.17143
0
LINE
8
BLACK
6
CONTINUOUS
10
4.43007
20
-5.17143
11
4.41814
21
-5.16346
0
LINE
8
BLACK
6
CONTINUOUS
10
4.41814
20
-5.16346
11
4.40799
21
-5.15332
0
LINE
8
BLACK
6
CONTINUOUS
10
4.40799
20
-5.15332
11
4.40002
21
-5.14139
0
LINE
8
BLACK
6
CONTINUOUS
10
4.40002
20
-5.14139
11
4.39453
21
-5.12813
0
LINE
8
BLACK
6
CONTINUOUS
10
4.39453
20
-5.12813
11
4.39173
21
-5.11406
0
LINE
8
BLACK
6
CONTINUOUS
10
4.39173
20
-5.11406
11
4.39173
21
-5.09972
0
LINE
8
BLACK
6
CONTINUOUS
10
4.39173
20
-5.09972
11
4.39453
21
-5.08564
0
LINE
8
BLACK
6
CONTINUOUS
10
4.39453
20
-5.08564
11
4.40002
21
-5.07239
0
LINE
8
BLACK
6
CONTINUOUS
10
4.40002
20
-5.07239
11
4.40799
21
-5.06046
0
LINE
8
BLACK
6
CONTINUOUS
10
4.40799
20
-5.06046
11
4.41814
21
-5.05032
0
LINE
8
BLACK
6
CONTINUOUS
10
4.41814
20
-5.05032
11
4.43007
21
-5.04234
0
LINE
8
BLACK
6
CONTINUOUS
10
4.43007
20
-5.04234
11
4.44332
21
-5.03685
0
LINE
8
BLACK
6
CONTINUOUS
10
4.44332
20
-5.03685
11
4.45739
21
-5.03406
0
LINE
8
BLACK
6
CONTINUOUS
10
4.45739
20
-5.03406
11
4.47174
21
-5.03406
0
LINE
8
BLACK
6
CONTINUOUS
10
4.47174
20
-5.03406
11
4.48581
21
-5.03685
0
LINE
8
BLACK
6
CONTINUOUS
10
5.16081
20
-5.03685
11
5.17407
21
-5.04234
0
LINE
8
BLACK
6
CONTINUOUS
10
5.17407
20
-5.04234
11
5.186
21
-5.05032
0
LINE
8
BLACK
6
CONTINUOUS
10
5.186
20
-5.05032
11
5.19614
21
-5.06046
0
LINE
8
BLACK
6
CONTINUOUS
10
5.19614
20
-5.06046
11
5.20411
21
-5.07239
0
LINE
8
BLACK
6
CONTINUOUS
10
5.20411
20
-5.07239
11
5.2096
21
-5.08564
0
LINE
8
BLACK
6
CONTINUOUS
10
5.2096
20
-5.08564
11
5.2124
21
-5.09972
0
LINE
8
BLACK
6
CONTINUOUS
10
5.2124
20
-5.09972
11
5.2124
21
-5.11406
0
LINE
8
BLACK
6
CONTINUOUS
10
5.2124
20
-5.11406
11
5.2096
21
-5.12813
0
LINE
8
BLACK
6
CONTINUOUS
10
5.2096
20
-5.12813
11
5.20411
21
-5.14139
0
LINE
8
BLACK
6
CONTINUOUS
10
5.20411
20
-5.14139
11
5.19614
21
-5.15332
0
LINE
8
BLACK
6
CONTINUOUS
10
5.19614
20
-5.15332
11
5.186
21
-5.16346
0
LINE
8
BLACK
6
CONTINUOUS
10
5.186
20
-5.16346
11
5.17407
21
-5.17143
0
LINE
8
BLACK
6
CONTINUOUS
10
5.17407
20
-5.17143
11
5.16081
21
-5.17693
0
LINE
8
BLACK
6
CONTINUOUS
10
5.16081
20
-5.17693
11
5.14674
21
-5.17972
0
LINE
8
BLACK
6
CONTINUOUS
10
5.14674
20
-5.17972
11
5.13239
21
-5.17972
0
LINE
8
BLACK
6
CONTINUOUS
10
5.13239
20
-5.17972
11
5.11832
21
-5.17693
0
LINE
8
BLACK
6
CONTINUOUS
10
5.11832
20
-5.17693
11
5.10507
21
-5.17143
0
LINE
8
BLACK
6
CONTINUOUS
10
5.10507
20
-5.17143
11
5.09314
21
-5.16346
0
LINE
8
BLACK
6
CONTINUOUS
10
5.09314
20
-5.16346
11
5.08299
21
-5.15332
0
LINE
8
BLACK
6
CONTINUOUS
10
5.08299
20
-5.15332
11
5.07502
21
-5.14139
0
LINE
8
BLACK
6
CONTINUOUS
10
5.07502
20
-5.14139
11
5.06953
21
-5.12813
0
LINE
8
BLACK
6
CONTINUOUS
10
5.06953
20
-5.12813
11
5.06673
21
-5.11406
0
LINE
8
BLACK
6
CONTINUOUS
10
5.06673
20
-5.11406
11
5.06673
21
-5.09972
0
LINE
8
BLACK
6
CONTINUOUS
10
5.06673
20
-5.09972
11
5.06953
21
-5.08564
0
LINE
8
BLACK
6
CONTINUOUS
10
5.06953
20
-5.08564
11
5.07502
21
-5.07239
0
LINE
8
BLACK
6
CONTINUOUS
10
5.07502
20
-5.07239
11
5.08299
21
-5.06046
0
LINE
8
BLACK
6
CONTINUOUS
10
5.08299
20
-5.06046
11
5.09314
21
-5.05032
0
LINE
8
BLACK
6
CONTINUOUS
10
5.09314
20
-5.05032
11
5.10507
21
-5.04234
0
LINE
8
BLACK
6
CONTINUOUS
10
5.10507
20
-5.04234
11
5.11832
21
-5.03685
0
LINE
8
BLACK
6
CONTINUOUS
10
5.11832
20
-5.03685
11
5.13239
21
-5.03406
0
LINE
8
BLACK
6
CONTINUOUS
10
5.13239
20
-5.03406
11
5.14674
21
-5.03406
0
LINE
8
BLACK
6
CONTINUOUS
10
5.14674
20
-5.03406
11
5.16081
21
-5.03685
0
LINE
8
BLACK
6
CONTINUOUS
10
5.83581
20
-5.03685
11
5.84907
21
-5.04234
0
LINE
8
BLACK
6
CONTINUOUS
10
5.84907
20
-5.04234
11
5.861
21
-5.05032
0
LINE
8
BLACK
6
CONTINUOUS
10
5.861
20
-5.05032
11
5.87114
21
-5.06046
0
LINE
8
BLACK
6
CONTINUOUS
10
5.87114
20
-5.06046
11
5.87911
21
-5.07239
0
LINE
8
BLACK
6
CONTINUOUS
10
5.87911
20
-5.07239
11
5.8846
21
-5.08564
0
LINE
8
BLACK
6
CONTINUOUS
10
5.8846
20
-5.08564
11
5.8874
21
-5.09972
0
LINE
8
BLACK
6
CONTINUOUS
10
5.8874
20
-5.09972
11
5.8874
21
-5.11406
0
LINE
8
BLACK
6
CONTINUOUS
10
5.8874
20
-5.11406
11
5.8846
21
-5.12813
0
LINE
8
BLACK
6
CONTINUOUS
10
5.8846
20
-5.12813
11
5.87911
21
-5.14139
0
LINE
8
BLACK
6
CONTINUOUS
10
5.87911
20
-5.14139
11
5.87114
21
-5.15332
0
LINE
8
BLACK
6
CONTINUOUS
10
5.87114
20
-5.15332
11
5.861
21
-5.16346
0
LINE
8
BLACK
6
CONTINUOUS
10
5.861
20
-5.16346
11
5.84907
21
-5.17143
0
LINE
8
BLACK
6
CONTINUOUS
10
5.84907
20
-5.17143
11
5.83581
21
-5.17693
0
LINE
8
BLACK
6
CONTINUOUS
10
5.83581
20
-5.17693
11
5.82174
21
-5.17972
0
LINE
8
BLACK
6
CONTINUOUS
10
5.82174
20
-5.17972
11
5.80739
21
-5.17972
0
LINE
8
BLACK
6
CONTINUOUS
10
5.80739
20
-5.17972
11
5.79332
21
-5.17693
0
LINE
8
BLACK
6
CONTINUOUS
10
5.79332
20
-5.17693
11
5.78007
21
-5.17143
0
LINE
8
BLACK
6
CONTINUOUS
10
5.78007
20
-5.17143
11
5.76814
21
-5.16346
0
LINE
8
BLACK
6
CONTINUOUS
10
5.76814
20
-5.16346
11
5.75799
21
-5.15332
0
LINE
8
BLACK
6
CONTINUOUS
10
5.75799
20
-5.15332
11
5.75002
21
-5.14139
0
LINE
8
BLACK
6
CONTINUOUS
10
5.75002
20
-5.14139
11
5.74453
21
-5.12813
0
LINE
8
BLACK
6
CONTINUOUS
10
5.74453
20
-5.12813
11
5.74173
21
-5.11406
0
LINE
8
BLACK
6
CONTINUOUS
10
5.74173
20
-5.11406
11
5.74173
21
-5.09972
0
LINE
8
BLACK
6
CONTINUOUS
10
5.74173
20
-5.09972
11
5.74453
21
-5.08564
0
LINE
8
BLACK
6
CONTINUOUS
10
5.74453
20
-5.08564
11
5.75002
21
-5.07239
0
LINE
8
BLACK
6
CONTINUOUS
10
5.75002
20
-5.07239
11
5.75799
21
-5.06046
0
LINE
8
BLACK
6
CONTINUOUS
10
5.75799
20
-5.06046
11
5.76814
21
-5.05032
0
LINE
8
BLACK
6
CONTINUOUS
10
5.76814
20
-5.05032
11
5.78007
21
-5.04234
0
LINE
8
BLACK
6
CONTINUOUS
10
5.78007
20
-5.04234
11
5.79332
21
-5.03685
0
LINE
8
BLACK
6
CONTINUOUS
10
5.79332
20
-5.03685
11
5.80739
21
-5.03406
0
LINE
8
BLACK
6
CONTINUOUS
10
5.80739
20
-5.03406
11
5.82174
21
-5.03406
0
LINE
8
BLACK
6
CONTINUOUS
10
5.82174
20
-5.03406
11
5.83581
21
-5.03685
0
LINE
8
BLACK
6
CONTINUOUS
10
6.51081
20
-5.03685
11
6.52407
21
-5.04234
0
LINE
8
BLACK
6
CONTINUOUS
10
6.52407
20
-5.04234
11
6.536
21
-5.05032
0
LINE
8
BLACK
6
CONTINUOUS
10
6.536
20
-5.05032
11
6.54614
21
-5.06046
0
LINE
8
BLACK
6
CONTINUOUS
10
6.54614
20
-5.06046
11
6.55411
21
-5.07239
0
LINE
8
BLACK
6
CONTINUOUS
10
6.55411
20
-5.07239
11
6.5596
21
-5.08564
0
LINE
8
BLACK
6
CONTINUOUS
10
6.5596
20
-5.08564
11
6.5624
21
-5.09972
0
LINE
8
BLACK
6
CONTINUOUS
10
6.5624
20
-5.09972
11
6.5624
21
-5.11406
0
LINE
8
BLACK
6
CONTINUOUS
10
6.5624
20
-5.11406
11
6.5596
21
-5.12813
0
LINE
8
BLACK
6
CONTINUOUS
10
6.5596
20
-5.12813
11
6.55411
21
-5.14139
0
LINE
8
BLACK
6
CONTINUOUS
10
6.55411
20
-5.14139
11
6.54614
21
-5.15332
0
LINE
8
BLACK
6
CONTINUOUS
10
6.54614
20
-5.15332
11
6.536
21
-5.16346
0
LINE
8
BLACK
6
CONTINUOUS
10
6.536
20
-5.16346
11
6.52407
21
-5.17143
0
LINE
8
BLACK
6
CONTINUOUS
10
6.52407
20
-5.17143
11
6.51081
21
-5.17693
0
LINE
8
BLACK
6
CONTINUOUS
10
6.51081
20
-5.17693
11
6.49674
21
-5.17972
0
LINE
8
BLACK
6
CONTINUOUS
10
6.49674
20
-5.17972
11
6.48239
21
-5.17972
0
LINE
8
BLACK
6
CONTINUOUS
10
6.48239
20
-5.17972
11
6.46832
21
-5.17693
0
LINE
8
BLACK
6
CONTINUOUS
10
6.46832
20
-5.17693
11
6.45507
21
-5.17143
0
LINE
8
BLACK
6
CONTINUOUS
10
6.45507
20
-5.17143
11
6.44314
21
-5.16346
0
LINE
8
BLACK
6
CONTINUOUS
10
6.44314
20
-5.16346
11
6.43299
21
-5.15332
0
LINE
8
BLACK
6
CONTINUOUS
10
6.43299
20
-5.15332
11
6.42502
21
-5.14139
0
LINE
8
BLACK
6
CONTINUOUS
10
6.42502
20
-5.14139
11
6.41953
21
-5.12813
0
LINE
8
BLACK
6
CONTINUOUS
10
6.41953
20
-5.12813
11
6.41673
21
-5.11406
0
LINE
8
BLACK
6
CONTINUOUS
10
6.41673
20
-5.11406
11
6.41673
21
-5.09972
0
LINE
8
BLACK
6
CONTINUOUS
10
6.41673
20
-5.09972
11
6.41953
21
-5.08564
0
LINE
8
BLACK
6
CONTINUOUS
10
6.41953
20
-5.08564
11
6.42502
21
-5.07239
0
LINE
8
BLACK
6
CONTINUOUS
10
6.42502
20
-5.07239
11
6.43299
21
-5.06046
0
LINE
8
BLACK
6
CONTINUOUS
10
6.43299
20
-5.06046
11
6.44314
21
-5.05032
0
LINE
8
BLACK
6
CONTINUOUS
10
6.44314
20
-5.05032
11
6.45507
21
-5.04234
0
LINE
8
BLACK
6
CONTINUOUS
10
6.45507
20
-5.04234
11
6.46832
21
-5.03685
0
LINE
8
BLACK
6
CONTINUOUS
10
6.46832
20
-5.03685
11
6.48239
21
-5.03406
0
LINE
8
BLACK
6
CONTINUOUS
10
6.48239
20
-5.03406
11
6.49674
21
-5.03406
0
LINE
8
BLACK
6
CONTINUOUS
10
6.49674
20
-5.03406
11
6.51081
21
-5.03685
0
LINE
8
BLACK
6
CONTINUOUS
10
7.18581
20
-5.03685
11
7.19907
21
-5.04234
0
LINE
8
BLACK
6
CONTINUOUS
10
7.19907
20
-5.04234
11
7.211
21
-5.05032
0
LINE
8
BLACK
6
CONTINUOUS
10
7.211
20
-5.05032
11
7.22114
21
-5.06046
0
LINE
8
BLACK
6
CONTINUOUS
10
7.22114
20
-5.06046
11
7.22911
21
-5.07239
0
LINE
8
BLACK
6
CONTINUOUS
10
7.22911
20
-5.07239
11
7.2346
21
-5.08564
0
LINE
8
BLACK
6
CONTINUOUS
10
7.2346
20
-5.08564
11
7.2374
21
-5.09972
0
LINE
8
BLACK
6
CONTINUOUS
10
7.2374
20
-5.09972
11
7.2374
21
-5.11406
0
LINE
8
BLACK
6
CONTINUOUS
10
7.2374
20
-5.11406
11
7.2346
21
-5.12813
0
LINE
8
BLACK
6
CONTINUOUS
10
7.2346
20
-5.12813
11
7.22911
21
-5.14139
0
LINE
8
BLACK
6
CONTINUOUS
10
7.22911
20
-5.14139
11
7.22114
21
-5.15332
0
LINE
8
BLACK
6
CONTINUOUS
10
7.22114
20
-5.15332
11
7.211
21
-5.16346
0
LINE
8
BLACK
6
CONTINUOUS
10
7.211
20
-5.16346
11
7.19907
21
-5.17143
0
LINE
8
BLACK
6
CONTINUOUS
10
7.19907
20
-5.17143
11
7.18581
21
-5.17693
0
LINE
8
BLACK
6
CONTINUOUS
10
7.18581
20
-5.17693
11
7.17174
21
-5.17972
0
LINE
8
BLACK
6
CONTINUOUS
10
7.17174
20
-5.17972
11
7.15739
21
-5.17972
0
LINE
8
BLACK
6
CONTINUOUS
10
7.15739
20
-5.17972
11
7.14332
21
-5.17693
0
LINE
8
BLACK
6
CONTINUOUS
10
7.14332
20
-5.17693
11
7.13007
21
-5.17143
0
LINE
8
BLACK
6
CONTINUOUS
10
7.13007
20
-5.17143
11
7.11814
21
-5.16346
0
LINE
8
BLACK
6
CONTINUOUS
10
7.11814
20
-5.16346
11
7.10799
21
-5.15332
0
LINE
8
BLACK
6
CONTINUOUS
10
7.10799
20
-5.15332
11
7.10002
21
-5.14139
0
LINE
8
BLACK
6
CONTINUOUS
10
7.10002
20
-5.14139
11
7.09453
21
-5.12813
0
LINE
8
BLACK
6
CONTINUOUS
10
7.09453
20
-5.12813
11
7.09173
21
-5.11406
0
LINE
8
BLACK
6
CONTINUOUS
10
7.09173
20
-5.11406
11
7.09173
21
-5.09972
0
LINE
8
BLACK
6
CONTINUOUS
10
7.09173
20
-5.09972
11
7.09453
21
-5.08564
0
LINE
8
BLACK
6
CONTINUOUS
10
7.09453
20
-5.08564
11
7.10002
21
-5.07239
0
LINE
8
BLACK
6
CONTINUOUS
10
7.10002
20
-5.07239
11
7.10799
21
-5.06046
0
LINE
8
BLACK
6
CONTINUOUS
10
7.10799
20
-5.06046
11
7.11814
21
-5.05032
0
LINE
8
BLACK
6
CONTINUOUS
10
7.11814
20
-5.05032
11
7.13007
21
-5.04234
0
LINE
8
BLACK
6
CONTINUOUS
10
7.13007
20
-5.04234
11
7.14332
21
-5.03685
0
LINE
8
BLACK
6
CONTINUOUS
10
7.14332
20
-5.03685
11
7.15739
21
-5.03406
0
LINE
8
BLACK
6
CONTINUOUS
10
7.15739
20
-5.03406
11
7.17174
21
-5.03406
0
LINE
8
BLACK
6
CONTINUOUS
10
7.17174
20
-5.03406
11
7.18581
21
-5.03685
0
LINE
8
BLACK
6
CONTINUOUS
10
7.86081
20
-5.03685
11
7.87407
21
-5.04234
0
LINE
8
BLACK
6
CONTINUOUS
10
7.87407
20
-5.04234
11
7.886
21
-5.05032
0
LINE
8
BLACK
6
CONTINUOUS
10
7.886
20
-5.05032
11
7.89614
21
-5.06046
0
LINE
8
BLACK
6
CONTINUOUS
10
7.89614
20
-5.06046
11
7.90411
21
-5.07239
0
LINE
8
BLACK
6
CONTINUOUS
10
7.90411
20
-5.07239
11
7.9096
21
-5.08564
0
LINE
8
BLACK
6
CONTINUOUS
10
7.9096
20
-5.08564
11
7.9124
21
-5.09972
0
LINE
8
BLACK
6
CONTINUOUS
10
7.9124
20
-5.09972
11
7.9124
21
-5.11406
0
LINE
8
BLACK
6
CONTINUOUS
10
7.9124
20
-5.11406
11
7.9096
21
-5.12813
0
LINE
8
BLACK
6
CONTINUOUS
10
7.9096
20
-5.12813
11
7.90411
21
-5.14139
0
LINE
8
BLACK
6
CONTINUOUS
10
7.90411
20
-5.14139
11
7.89614
21
-5.15332
0
LINE
8
BLACK
6
CONTINUOUS
10
7.89614
20
-5.15332
11
7.886
21
-5.16346
0
LINE
8
BLACK
6
CONTINUOUS
10
7.886
20
-5.16346
11
7.87407
21
-5.17143
0
LINE
8
BLACK
6
CONTINUOUS
10
7.87407
20
-5.17143
11
7.86081
21
-5.17693
0
LINE
8
BLACK
6
CONTINUOUS
10
7.86081
20
-5.17693
11
7.84674
21
-5.17972
0
LINE
8
BLACK
6
CONTINUOUS
10
7.84674
20
-5.17972
11
7.83239
21
-5.17972
0
LINE
8
BLACK
6
CONTINUOUS
10
7.83239
20
-5.17972
11
7.81832
21
-5.17693
0
LINE
8
BLACK
6
CONTINUOUS
10
7.81832
20
-5.17693
11
7.80507
21
-5.17143
0
LINE
8
BLACK
6
CONTINUOUS
10
7.80507
20
-5.17143
11
7.79314
21
-5.16346
0
LINE
8
BLACK
6
CONTINUOUS
10
7.79314
20
-5.16346
11
7.78299
21
-5.15332
0
LINE
8
BLACK
6
CONTINUOUS
10
7.78299
20
-5.15332
11
7.77502
21
-5.14139
0
LINE
8
BLACK
6
CONTINUOUS
10
7.77502
20
-5.14139
11
7.76953
21
-5.12813
0
LINE
8
BLACK
6
CONTINUOUS
10
7.76953
20
-5.12813
11
7.76673
21
-5.11406
0
LINE
8
BLACK
6
CONTINUOUS
10
7.76673
20
-5.11406
11
7.76673
21
-5.09972
0
LINE
8
BLACK
6
CONTINUOUS
10
7.76673
20
-5.09972
11
7.76953
21
-5.08564
0
LINE
8
BLACK
6
CONTINUOUS
10
7.76953
20
-5.08564
11
7.77502
21
-5.07239
0
LINE
8
BLACK
6
CONTINUOUS
10
7.77502
20
-5.07239
11
7.78299
21
-5.06046
0
LINE
8
BLACK
6
CONTINUOUS
10
7.78299
20
-5.06046
11
7.79314
21
-5.05032
0
LINE
8
BLACK
6
CONTINUOUS
10
7.79314
20
-5.05032
11
7.80507
21
-5.04234
0
LINE
8
BLACK
6
CONTINUOUS
10
7.80507
20
-5.04234
11
7.81832
21
-5.03685
0
LINE
8
BLACK
6
CONTINUOUS
10
7.81832
20
-5.03685
11
7.83239
21
-5.03406
0
LINE
8
BLACK
6
CONTINUOUS
10
7.83239
20
-5.03406
11
7.84674
21
-5.03406
0
LINE
8
BLACK
6
CONTINUOUS
10
7.84674
20
-5.03406
11
7.86081
21
-5.03685
0
LINE
8
BLACK
6
CONTINUOUS
10
8.53581
20
-5.03685
11
8.54907
21
-5.04234
0
LINE
8
BLACK
6
CONTINUOUS
10
8.54907
20
-5.04234
11
8.561
21
-5.05032
0
LINE
8
BLACK
6
CONTINUOUS
10
8.561
20
-5.05032
11
8.57114
21
-5.06046
0
LINE
8
BLACK
6
CONTINUOUS
10
8.57114
20
-5.06046
11
8.57911
21
-5.07239
0
LINE
8
BLACK
6
CONTINUOUS
10
8.57911
20
-5.07239
11
8.5846
21
-5.08564
0
LINE
8
BLACK
6
CONTINUOUS
10
8.5846
20
-5.08564
11
8.5874
21
-5.09972
0
LINE
8
BLACK
6
CONTINUOUS
10
8.5874
20
-5.09972
11
8.5874
21
-5.11406
0
LINE
8
BLACK
6
CONTINUOUS
10
8.5874
20
-5.11406
11
8.5846
21
-5.12813
0
LINE
8
BLACK
6
CONTINUOUS
10
8.5846
20
-5.12813
11
8.57911
21
-5.14139
0
LINE
8
BLACK
6
CONTINUOUS
10
8.57911
20
-5.14139
11
8.57114
21
-5.15332
0
LINE
8
BLACK
6
CONTINUOUS
10
8.57114
20
-5.15332
11
8.561
21
-5.16346
0
LINE
8
BLACK
6
CONTINUOUS
10
8.561
20
-5.16346
11
8.54907
21
-5.17143
0
LINE
8
BLACK
6
CONTINUOUS
10
8.54907
20
-5.17143
11
8.53581
21
-5.17693
0
LINE
8
BLACK
6
CONTINUOUS
10
8.53581
20
-5.17693
11
8.52174
21
-5.17972
0
LINE
8
BLACK
6
CONTINUOUS
10
8.52174
20
-5.17972
11
8.50739
21
-5.17972
0
LINE
8
BLACK
6
CONTINUOUS
10
8.50739
20
-5.17972
11
8.49332
21
-5.17693
0
LINE
8
BLACK
6
CONTINUOUS
10
8.49332
20
-5.17693
11
8.48007
21
-5.17143
0
LINE
8
BLACK
6
CONTINUOUS
10
8.48007
20
-5.17143
11
8.46814
21
-5.16346
0
LINE
8
BLACK
6
CONTINUOUS
10
8.46814
20
-5.16346
11
8.45799
21
-5.15332
0
LINE
8
BLACK
6
CONTINUOUS
10
8.45799
20
-5.15332
11
8.45002
21
-5.14139
0
LINE
8
BLACK
6
CONTINUOUS
10
8.45002
20
-5.14139
11
8.44453
21
-5.12813
0
LINE
8
BLACK
6
CONTINUOUS
10
8.44453
20
-5.12813
11
8.44173
21
-5.11406
0
LINE
8
BLACK
6
CONTINUOUS
10
8.44173
20
-5.11406
11
8.44173
21
-5.09972
0
LINE
8
BLACK
6
CONTINUOUS
10
8.44173
20
-5.09972
11
8.44453
21
-5.08564
0
LINE
8
BLACK
6
CONTINUOUS
10
8.44453
20
-5.08564
11
8.45002
21
-5.07239
0
LINE
8
BLACK
6
CONTINUOUS
10
8.45002
20
-5.07239
11
8.45799
21
-5.06046
0
LINE
8
BLACK
6
CONTINUOUS
10
8.45799
20
-5.06046
11
8.46814
21
-5.05032
0
LINE
8
BLACK
6
CONTINUOUS
10
8.46814
20
-5.05032
11
8.48007
21
-5.04234
0
LINE
8
BLACK
6
CONTINUOUS
10
8.48007
20
-5.04234
11
8.49332
21
-5.03685
0
LINE
8
BLACK
6
CONTINUOUS
10
8.49332
20
-5.03685
11
8.50739
21
-5.03406
0
LINE
8
BLACK
6
CONTINUOUS
10
8.50739
20
-5.03406
11
8.52174
21
-5.03406
0
LINE
8
BLACK
6
CONTINUOUS
10
8.52174
20
-5.03406
11
8.53581
21
-5.03685
0
LINE
8
BLACK
6
CONTINUOUS
10
7.8496
20
-4.23519
11
7.85925
21
-4.23812
0
LINE
8
BLACK
6
CONTINUOUS
10
7.85925
20
-4.23812
11
7.86814
21
-4.24287
0
LINE
8
BLACK
6
CONTINUOUS
10
7.86814
20
-4.24287
11
7.87593
21
-4.24926
0
LINE
8
BLACK
6
CONTINUOUS
10
7.87593
20
-4.24926
11
7.88233
21
-4.25706
0
LINE
8
BLACK
6
CONTINUOUS
10
7.88233
20
-4.25706
11
7.88708
21
-4.26595
0
LINE
8
BLACK
6
CONTINUOUS
10
7.88708
20
-4.26595
11
7.89001
21
-4.2756
0
LINE
8
BLACK
6
CONTINUOUS
10
7.89001
20
-4.2756
11
7.89075
21
-4.28312
0
LINE
8
BLACK
6
CONTINUOUS
10
7.89075
20
-4.28312
11
7.89075
21
-4.36688
0
LINE
8
BLACK
6
CONTINUOUS
10
7.89075
20
-4.36688
11
7.89001
21
-4.3744
0
LINE
8
BLACK
6
CONTINUOUS
10
7.89001
20
-4.3744
11
7.88708
21
-4.38405
0
LINE
8
BLACK
6
CONTINUOUS
10
7.88708
20
-4.38405
11
7.88233
21
-4.39294
0
LINE
8
BLACK
6
CONTINUOUS
10
7.88233
20
-4.39294
11
7.87593
21
-4.40074
0
LINE
8
BLACK
6
CONTINUOUS
10
7.87593
20
-4.40074
11
7.86814
21
-4.40713
0
LINE
8
BLACK
6
CONTINUOUS
10
7.86814
20
-4.40713
11
7.85925
21
-4.41188
0
LINE
8
BLACK
6
CONTINUOUS
10
7.85925
20
-4.41188
11
7.8496
21
-4.41481
0
LINE
8
BLACK
6
CONTINUOUS
10
7.8496
20
-4.41481
11
7.83957
21
-4.4158
0
LINE
8
BLACK
6
CONTINUOUS
10
7.83957
20
-4.4158
11
7.82953
21
-4.41481
0
LINE
8
BLACK
6
CONTINUOUS
10
7.82953
20
-4.41481
11
7.81989
21
-4.41188
0
LINE
8
BLACK
6
CONTINUOUS
10
7.81989
20
-4.41188
11
7.81099
21
-4.40713
0
LINE
8
BLACK
6
CONTINUOUS
10
7.81099
20
-4.40713
11
7.8032
21
-4.40074
0
LINE
8
BLACK
6
CONTINUOUS
10
7.8032
20
-4.40074
11
7.79681
21
-4.39294
0
LINE
8
BLACK
6
CONTINUOUS
10
7.79681
20
-4.39294
11
7.79205
21
-4.38405
0
LINE
8
BLACK
6
CONTINUOUS
10
7.79205
20
-4.38405
11
7.78913
21
-4.3744
0
LINE
8
BLACK
6
CONTINUOUS
10
7.78913
20
-4.3744
11
7.78839
21
-4.36688
0
LINE
8
BLACK
6
CONTINUOUS
10
7.78839
20
-4.36688
11
7.78839
21
-4.28312
0
LINE
8
BLACK
6
CONTINUOUS
10
7.78839
20
-4.28312
11
7.78913
21
-4.2756
0
LINE
8
BLACK
6
CONTINUOUS
10
7.78913
20
-4.2756
11
7.79205
21
-4.26595
0
LINE
8
BLACK
6
CONTINUOUS
10
7.79205
20
-4.26595
11
7.79681
21
-4.25706
0
LINE
8
BLACK
6
CONTINUOUS
10
7.79681
20
-4.25706
11
7.8032
21
-4.24926
0
LINE
8
BLACK
6
CONTINUOUS
10
7.8032
20
-4.24926
11
7.81099
21
-4.24287
0
LINE
8
BLACK
6
CONTINUOUS
10
7.81099
20
-4.24287
11
7.81989
21
-4.23812
0
LINE
8
BLACK
6
CONTINUOUS
10
7.81989
20
-4.23812
11
7.82953
21
-4.23519
0
LINE
8
BLACK
6
CONTINUOUS
10
7.82953
20
-4.23519
11
7.83957
21
-4.2342
0
LINE
8
BLACK
6
CONTINUOUS
10
7.83957
20
-4.2342
11
7.8496
21
-4.23519
0
LINE
8
BLACK
6
CONTINUOUS
10
2.4496
20
-4.23519
11
2.45925
21
-4.23812
0
LINE
8
BLACK
6
CONTINUOUS
10
2.45925
20
-4.23812
11
2.46814
21
-4.24287
0
LINE
8
BLACK
6
CONTINUOUS
10
2.46814
20
-4.24287
11
2.47593
21
-4.24926
0
LINE
8
BLACK
6
CONTINUOUS
10
2.47593
20
-4.24926
11
2.48233
21
-4.25706
0
LINE
8
BLACK
6
CONTINUOUS
10
2.48233
20
-4.25706
11
2.48708
21
-4.26595
0
LINE
8
BLACK
6
CONTINUOUS
10
2.48708
20
-4.26595
11
2.49001
21
-4.2756
0
LINE
8
BLACK
6
CONTINUOUS
10
2.49001
20
-4.2756
11
2.49075
21
-4.28312
0
LINE
8
BLACK
6
CONTINUOUS
10
2.49075
20
-4.28312
11
2.49075
21
-4.36688
0
LINE
8
BLACK
6
CONTINUOUS
10
2.49075
20
-4.36688
11
2.49001
21
-4.3744
0
LINE
8
BLACK
6
CONTINUOUS
10
2.49001
20
-4.3744
11
2.48708
21
-4.38405
0
LINE
8
BLACK
6
CONTINUOUS
10
2.48708
20
-4.38405
11
2.48233
21
-4.39294
0
LINE
8
BLACK
6
CONTINUOUS
10
2.48233
20
-4.39294
11
2.47593
21
-4.40074
0
LINE
8
BLACK
6
CONTINUOUS
10
2.47593
20
-4.40074
11
2.46814
21
-4.40713
0
LINE
8
BLACK
6
CONTINUOUS
10
2.46814
20
-4.40713
11
2.45925
21
-4.41188
0
LINE
8
BLACK
6
CONTINUOUS
10
2.45925
20
-4.41188
11
2.4496
21
-4.41481
0
LINE
8
BLACK
6
CONTINUOUS
10
2.4496
20
-4.41481
11
2.43957
21
-4.4158
0
LINE
8
BLACK
6
CONTINUOUS
10
2.43957
20
-4.4158
11
2.42953
21
-4.41481
0
LINE
8
BLACK
6
CONTINUOUS
10
2.42953
20
-4.41481
11
2.41989
21
-4.41188
0
LINE
8
BLACK
6
CONTINUOUS
10
2.41989
20
-4.41188
11
2.41099
21
-4.40713
0
LINE
8
BLACK
6
CONTINUOUS
10
2.41099
20
-4.40713
11
2.4032
21
-4.40074
0
LINE
8
BLACK
6
CONTINUOUS
10
2.4032
20
-4.40074
11
2.39681
21
-4.39294
0
LINE
8
BLACK
6
CONTINUOUS
10
2.39681
20
-4.39294
11
2.39205
21
-4.38405
0
LINE
8
BLACK
6
CONTINUOUS
10
2.39205
20
-4.38405
11
2.38913
21
-4.3744
0
LINE
8
BLACK
6
CONTINUOUS
10
2.38913
20
-4.3744
11
2.38839
21
-4.36688
0
LINE
8
BLACK
6
CONTINUOUS
10
2.38839
20
-4.36688
11
2.38839
21
-4.28312
0
LINE
8
BLACK
6
CONTINUOUS
10
2.38839
20
-4.28312
11
2.38913
21
-4.2756
0
LINE
8
BLACK
6
CONTINUOUS
10
2.38913
20
-4.2756
11
2.39205
21
-4.26595
0
LINE
8
BLACK
6
CONTINUOUS
10
2.39205
20
-4.26595
11
2.39681
21
-4.25706
0
LINE
8
BLACK
6
CONTINUOUS
10
2.39681
20
-4.25706
11
2.4032
21
-4.24926
0
LINE
8
BLACK
6
CONTINUOUS
10
2.4032
20
-4.24926
11
2.41099
21
-4.24287
0
LINE
8
BLACK
6
CONTINUOUS
10
2.41099
20
-4.24287
11
2.41989
21
-4.23812
0
LINE
8
BLACK
6
CONTINUOUS
10
2.41989
20
-4.23812
11
2.42953
21
-4.23519
0
LINE
8
BLACK
6
CONTINUOUS
10
2.42953
20
-4.23519
11
2.43957
21
-4.2342
0
LINE
8
BLACK
6
CONTINUOUS
10
2.43957
20
-4.2342
11
2.4496
21
-4.23519
0
LINE
8
BLACK
6
CONTINUOUS
10
2.66417
20
-4.23519
11
2.67381
21
-4.23812
0
LINE
8
BLACK
6
CONTINUOUS
10
2.67381
20
-4.23812
11
2.68271
21
-4.24287
0
LINE
8
BLACK
6
CONTINUOUS
10
2.68271
20
-4.24287
11
2.6905
21
-4.24926
0
LINE
8
BLACK
6
CONTINUOUS
10
2.6905
20
-4.24926
11
2.6969
21
-4.25706
0
LINE
8
BLACK
6
CONTINUOUS
10
2.6969
20
-4.25706
11
2.70165
21
-4.26595
0
LINE
8
BLACK
6
CONTINUOUS
10
2.70165
20
-4.26595
11
2.70457
21
-4.2756
0
LINE
8
BLACK
6
CONTINUOUS
10
2.70457
20
-4.2756
11
2.70531
21
-4.28312
0
LINE
8
BLACK
6
CONTINUOUS
10
2.70531
20
-4.28312
11
2.70531
21
-4.36688
0
LINE
8
BLACK
6
CONTINUOUS
10
2.70531
20
-4.36688
11
2.70457
21
-4.3744
0
LINE
8
BLACK
6
CONTINUOUS
10
2.70457
20
-4.3744
11
2.70165
21
-4.38405
0
LINE
8
BLACK
6
CONTINUOUS
10
2.70165
20
-4.38405
11
2.6969
21
-4.39294
0
LINE
8
BLACK
6
CONTINUOUS
10
2.6969
20
-4.39294
11
2.6905
21
-4.40074
0
LINE
8
BLACK
6
CONTINUOUS
10
2.6905
20
-4.40074
11
2.68271
21
-4.40713
0
LINE
8
BLACK
6
CONTINUOUS
10
2.68271
20
-4.40713
11
2.67381
21
-4.41188
0
LINE
8
BLACK
6
CONTINUOUS
10
2.67381
20
-4.41188
11
2.66417
21
-4.41481
0
LINE
8
BLACK
6
CONTINUOUS
10
2.66417
20
-4.41481
11
2.65413
21
-4.4158
0
LINE
8
BLACK
6
CONTINUOUS
10
2.65413
20
-4.4158
11
2.6441
21
-4.41481
0
LINE
8
BLACK
6
CONTINUOUS
10
2.6441
20
-4.41481
11
2.63445
21
-4.41188
0
LINE
8
BLACK
6
CONTINUOUS
10
2.63445
20
-4.41188
11
2.62556
21
-4.40713
0
LINE
8
BLACK
6
CONTINUOUS
10
2.62556
20
-4.40713
11
2.61777
21
-4.40074
0
LINE
8
BLACK
6
CONTINUOUS
10
2.61777
20
-4.40074
11
2.61137
21
-4.39294
0
LINE
8
BLACK
6
CONTINUOUS
10
2.61137
20
-4.39294
11
2.60662
21
-4.38405
0
LINE
8
BLACK
6
CONTINUOUS
10
2.60662
20
-4.38405
11
2.60369
21
-4.3744
0
LINE
8
BLACK
6
CONTINUOUS
10
2.60369
20
-4.3744
11
2.60295
21
-4.36688
0
LINE
8
BLACK
6
CONTINUOUS
10
2.60295
20
-4.36688
11
2.60295
21
-4.28312
0
LINE
8
BLACK
6
CONTINUOUS
10
2.60295
20
-4.28312
11
2.60369
21
-4.2756
0
LINE
8
BLACK
6
CONTINUOUS
10
2.60369
20
-4.2756
11
2.60662
21
-4.26595
0
LINE
8
BLACK
6
CONTINUOUS
10
2.60662
20
-4.26595
11
2.61137
21
-4.25706
0
LINE
8
BLACK
6
CONTINUOUS
10
2.61137
20
-4.25706
11
2.61777
21
-4.24926
0
LINE
8
BLACK
6
CONTINUOUS
10
2.61777
20
-4.24926
11
2.62556
21
-4.24287
0
LINE
8
BLACK
6
CONTINUOUS
10
2.62556
20
-4.24287
11
2.63445
21
-4.23812
0
LINE
8
BLACK
6
CONTINUOUS
10
2.63445
20
-4.23812
11
2.6441
21
-4.23519
0
LINE
8
BLACK
6
CONTINUOUS
10
2.6441
20
-4.23519
11
2.65413
21
-4.2342
0
LINE
8
BLACK
6
CONTINUOUS
10
2.65413
20
-4.2342
11
2.66417
21
-4.23519
0
LINE
8
BLACK
6
CONTINUOUS
10
8.5246
20
-4.23519
11
8.53425
21
-4.23812
0
LINE
8
BLACK
6
CONTINUOUS
10
8.53425
20
-4.23812
11
8.54314
21
-4.24287
0
LINE
8
BLACK
6
CONTINUOUS
10
8.54314
20
-4.24287
11
8.55093
21
-4.24926
0
LINE
8
BLACK
6
CONTINUOUS
10
8.55093
20
-4.24926
11
8.55733
21
-4.25706
0
LINE
8
BLACK
6
CONTINUOUS
10
8.55733
20
-4.25706
11
8.56208
21
-4.26595
0
LINE
8
BLACK
6
CONTINUOUS
10
8.56208
20
-4.26595
11
8.56501
21
-4.2756
0
LINE
8
BLACK
6
CONTINUOUS
10
8.56501
20
-4.2756
11
8.56575
21
-4.28312
0
LINE
8
BLACK
6
CONTINUOUS
10
8.56575
20
-4.28312
11
8.56575
21
-4.36688
0
LINE
8
BLACK
6
CONTINUOUS
10
8.56575
20
-4.36688
11
8.56501
21
-4.3744
0
LINE
8
BLACK
6
CONTINUOUS
10
8.56501
20
-4.3744
11
8.56208
21
-4.38405
0
LINE
8
BLACK
6
CONTINUOUS
10
8.56208
20
-4.38405
11
8.55733
21
-4.39294
0
LINE
8
BLACK
6
CONTINUOUS
10
8.55733
20
-4.39294
11
8.55093
21
-4.40074
0
LINE
8
BLACK
6
CONTINUOUS
10
8.55093
20
-4.40074
11
8.54314
21
-4.40713
0
LINE
8
BLACK
6
CONTINUOUS
10
8.54314
20
-4.40713
11
8.53425
21
-4.41188
0
LINE
8
BLACK
6
CONTINUOUS
10
8.53425
20
-4.41188
11
8.5246
21
-4.41481
0
LINE
8
BLACK
6
CONTINUOUS
10
8.5246
20
-4.41481
11
8.51457
21
-4.4158
0
LINE
8
BLACK
6
CONTINUOUS
10
8.51457
20
-4.4158
11
8.50453
21
-4.41481
0
LINE
8
BLACK
6
CONTINUOUS
10
8.50453
20
-4.41481
11
8.49489
21
-4.41188
0
LINE
8
BLACK
6
CONTINUOUS
10
8.49489
20
-4.41188
11
8.48599
21
-4.40713
0
LINE
8
BLACK
6
CONTINUOUS
10
8.48599
20
-4.40713
11
8.4782
21
-4.40074
0
LINE
8
BLACK
6
CONTINUOUS
10
8.4782
20
-4.40074
11
8.47181
21
-4.39294
0
LINE
8
BLACK
6
CONTINUOUS
10
8.47181
20
-4.39294
11
8.46705
21
-4.38405
0
LINE
8
BLACK
6
CONTINUOUS
10
8.46705
20
-4.38405
11
8.46413
21
-4.3744
0
LINE
8
BLACK
6
CONTINUOUS
10
8.46413
20
-4.3744
11
8.46339
21
-4.36688
0
LINE
8
BLACK
6
CONTINUOUS
10
8.46339
20
-4.36688
11
8.46339
21
-4.28312
0
LINE
8
BLACK
6
CONTINUOUS
10
8.46339
20
-4.28312
11
8.46413
21
-4.2756
0
LINE
8
BLACK
6
CONTINUOUS
10
8.46413
20
-4.2756
11
8.46705
21
-4.26595
0
LINE
8
BLACK
6
CONTINUOUS
10
8.46705
20
-4.26595
11
8.47181
21
-4.25706
0
LINE
8
BLACK
6
CONTINUOUS
10
8.47181
20
-4.25706
11
8.4782
21
-4.24926
0
LINE
8
BLACK
6
CONTINUOUS
10
8.4782
20
-4.24926
11
8.48599
21
-4.24287
0
LINE
8
BLACK
6
CONTINUOUS
10
8.48599
20
-4.24287
11
8.49489
21
-4.23812
0
LINE
8
BLACK
6
CONTINUOUS
10
8.49489
20
-4.23812
11
8.50453
21
-4.23519
0
LINE
8
BLACK
6
CONTINUOUS
10
8.50453
20
-4.23519
11
8.51457
21
-4.2342
0
LINE
8
BLACK
6
CONTINUOUS
10
8.51457
20
-4.2342
11
8.5246
21
-4.23519
0
LINE
8
BLACK
6
CONTINUOUS
10
1.98917
20
-4.23519
11
1.99881
21
-4.23812
0
LINE
8
BLACK
6
CONTINUOUS
10
1.99881
20
-4.23812
11
2.00771
21
-4.24287
0
LINE
8
BLACK
6
CONTINUOUS
10
2.00771
20
-4.24287
11
2.0155
21
-4.24926
0
LINE
8
BLACK
6
CONTINUOUS
10
2.0155
20
-4.24926
11
2.0219
21
-4.25706
0
LINE
8
BLACK
6
CONTINUOUS
10
2.0219
20
-4.25706
11
2.02665
21
-4.26595
0
LINE
8
BLACK
6
CONTINUOUS
10
2.02665
20
-4.26595
11
2.02957
21
-4.2756
0
LINE
8
BLACK
6
CONTINUOUS
10
2.02957
20
-4.2756
11
2.03031
21
-4.28312
0
LINE
8
BLACK
6
CONTINUOUS
10
2.03031
20
-4.28312
11
2.03031
21
-4.36688
0
LINE
8
BLACK
6
CONTINUOUS
10
2.03031
20
-4.36688
11
2.02957
21
-4.3744
0
LINE
8
BLACK
6
CONTINUOUS
10
2.02957
20
-4.3744
11
2.02665
21
-4.38405
0
LINE
8
BLACK
6
CONTINUOUS
10
2.02665
20
-4.38405
11
2.0219
21
-4.39294
0
LINE
8
BLACK
6
CONTINUOUS
10
2.0219
20
-4.39294
11
2.0155
21
-4.40074
0
LINE
8
BLACK
6
CONTINUOUS
10
2.0155
20
-4.40074
11
2.00771
21
-4.40713
0
LINE
8
BLACK
6
CONTINUOUS
10
2.00771
20
-4.40713
11
1.99881
21
-4.41188
0
LINE
8
BLACK
6
CONTINUOUS
10
1.99881
20
-4.41188
11
1.98917
21
-4.41481
0
LINE
8
BLACK
6
CONTINUOUS
10
1.98917
20
-4.41481
11
1.97913
21
-4.4158
0
LINE
8
BLACK
6
CONTINUOUS
10
1.97913
20
-4.4158
11
1.9691
21
-4.41481
0
LINE
8
BLACK
6
CONTINUOUS
10
1.9691
20
-4.41481
11
1.95945
21
-4.41188
0
LINE
8
BLACK
6
CONTINUOUS
10
1.95945
20
-4.41188
11
1.95056
21
-4.40713
0
LINE
8
BLACK
6
CONTINUOUS
10
1.95056
20
-4.40713
11
1.94277
21
-4.40074
0
LINE
8
BLACK
6
CONTINUOUS
10
1.94277
20
-4.40074
11
1.93637
21
-4.39294
0
LINE
8
BLACK
6
CONTINUOUS
10
1.93637
20
-4.39294
11
1.93162
21
-4.38405
0
LINE
8
BLACK
6
CONTINUOUS
10
1.93162
20
-4.38405
11
1.92869
21
-4.3744
0
LINE
8
BLACK
6
CONTINUOUS
10
1.92869
20
-4.3744
11
1.92795
21
-4.36688
0
LINE
8
BLACK
6
CONTINUOUS
10
1.92795
20
-4.36688
11
1.92795
21
-4.28312
0
LINE
8
BLACK
6
CONTINUOUS
10
1.92795
20
-4.28312
11
1.92869
21
-4.2756
0
LINE
8
BLACK
6
CONTINUOUS
10
1.92869
20
-4.2756
11
1.93162
21
-4.26595
0
LINE
8
BLACK
6
CONTINUOUS
10
1.93162
20
-4.26595
11
1.93637
21
-4.25706
0
LINE
8
BLACK
6
CONTINUOUS
10
1.93637
20
-4.25706
11
1.94277
21
-4.24926
0
LINE
8
BLACK
6
CONTINUOUS
10
1.94277
20
-4.24926
11
1.95056
21
-4.24287
0
LINE
8
BLACK
6
CONTINUOUS
10
1.95056
20
-4.24287
11
1.95945
21
-4.23812
0
LINE
8
BLACK
6
CONTINUOUS
10
1.95945
20
-4.23812
11
1.9691
21
-4.23519
0
LINE
8
BLACK
6
CONTINUOUS
10
1.9691
20
-4.23519
11
1.97913
21
-4.2342
0
LINE
8
BLACK
6
CONTINUOUS
10
1.97913
20
-4.2342
11
1.98917
21
-4.23519
0
LINE
8
BLACK
6
CONTINUOUS
10
3.1246
20
-4.23519
11
3.13425
21
-4.23812
0
LINE
8
BLACK
6
CONTINUOUS
10
3.13425
20
-4.23812
11
3.14314
21
-4.24287
0
LINE
8
BLACK
6
CONTINUOUS
10
3.14314
20
-4.24287
11
3.15093
21
-4.24926
0
LINE
8
BLACK
6
CONTINUOUS
10
3.15093
20
-4.24926
11
3.15733
21
-4.25706
0
LINE
8
BLACK
6
CONTINUOUS
10
3.15733
20
-4.25706
11
3.16208
21
-4.26595
0
LINE
8
BLACK
6
CONTINUOUS
10
3.16208
20
-4.26595
11
3.16501
21
-4.2756
0
LINE
8
BLACK
6
CONTINUOUS
10
3.16501
20
-4.2756
11
3.16575
21
-4.28312
0
LINE
8
BLACK
6
CONTINUOUS
10
3.16575
20
-4.28312
11
3.16575
21
-4.36688
0
LINE
8
BLACK
6
CONTINUOUS
10
3.16575
20
-4.36688
11
3.16501
21
-4.3744
0
LINE
8
BLACK
6
CONTINUOUS
10
3.16501
20
-4.3744
11
3.16208
21
-4.38405
0
LINE
8
BLACK
6
CONTINUOUS
10
3.16208
20
-4.38405
11
3.15733
21
-4.39294
0
LINE
8
BLACK
6
CONTINUOUS
10
3.15733
20
-4.39294
11
3.15093
21
-4.40074
0
LINE
8
BLACK
6
CONTINUOUS
10
3.15093
20
-4.40074
11
3.14314
21
-4.40713
0
LINE
8
BLACK
6
CONTINUOUS
10
3.14314
20
-4.40713
11
3.13425
21
-4.41188
0
LINE
8
BLACK
6
CONTINUOUS
10
3.13425
20
-4.41188
11
3.1246
21
-4.41481
0
LINE
8
BLACK
6
CONTINUOUS
10
3.1246
20
-4.41481
11
3.11457
21
-4.4158
0
LINE
8
BLACK
6
CONTINUOUS
10
3.11457
20
-4.4158
11
3.10453
21
-4.41481
0
LINE
8
BLACK
6
CONTINUOUS
10
3.10453
20
-4.41481
11
3.09489
21
-4.41188
0
LINE
8
BLACK
6
CONTINUOUS
10
3.09489
20
-4.41188
11
3.08599
21
-4.40713
0
LINE
8
BLACK
6
CONTINUOUS
10
3.08599
20
-4.40713
11
3.0782
21
-4.40074
0
LINE
8
BLACK
6
CONTINUOUS
10
3.0782
20
-4.40074
11
3.07181
21
-4.39294
0
LINE
8
BLACK
6
CONTINUOUS
10
3.07181
20
-4.39294
11
3.06705
21
-4.38405
0
LINE
8
BLACK
6
CONTINUOUS
10
3.06705
20
-4.38405
11
3.06413
21
-4.3744
0
LINE
8
BLACK
6
CONTINUOUS
10
3.06413
20
-4.3744
11
3.06339
21
-4.36688
0
LINE
8
BLACK
6
CONTINUOUS
10
3.06339
20
-4.36688
11
3.06339
21
-4.28312
0
LINE
8
BLACK
6
CONTINUOUS
10
3.06339
20
-4.28312
11
3.06413
21
-4.2756
0
LINE
8
BLACK
6
CONTINUOUS
10
3.06413
20
-4.2756
11
3.06705
21
-4.26595
0
LINE
8
BLACK
6
CONTINUOUS
10
3.06705
20
-4.26595
11
3.07181
21
-4.25706
0
LINE
8
BLACK
6
CONTINUOUS
10
3.07181
20
-4.25706
11
3.0782
21
-4.24926
0
LINE
8
BLACK
6
CONTINUOUS
10
3.0782
20
-4.24926
11
3.08599
21
-4.24287
0
LINE
8
BLACK
6
CONTINUOUS
10
3.08599
20
-4.24287
11
3.09489
21
-4.23812
0
LINE
8
BLACK
6
CONTINUOUS
10
3.09489
20
-4.23812
11
3.10453
21
-4.23519
0
LINE
8
BLACK
6
CONTINUOUS
10
3.10453
20
-4.23519
11
3.11457
21
-4.2342
0
LINE
8
BLACK
6
CONTINUOUS
10
3.11457
20
-4.2342
11
3.1246
21
-4.23519
0
LINE
8
BLACK
6
CONTINUOUS
10
3.33917
20
-4.23519
11
3.34881
21
-4.23812
0
LINE
8
BLACK
6
CONTINUOUS
10
3.34881
20
-4.23812
11
3.35771
21
-4.24287
0
LINE
8
BLACK
6
CONTINUOUS
10
3.35771
20
-4.24287
11
3.3655
21
-4.24926
0
LINE
8
BLACK
6
CONTINUOUS
10
3.3655
20
-4.24926
11
3.3719
21
-4.25706
0
LINE
8
BLACK
6
CONTINUOUS
10
3.3719
20
-4.25706
11
3.37665
21
-4.26595
0
LINE
8
BLACK
6
CONTINUOUS
10
3.37665
20
-4.26595
11
3.37957
21
-4.2756
0
LINE
8
BLACK
6
CONTINUOUS
10
3.37957
20
-4.2756
11
3.38031
21
-4.28312
0
LINE
8
BLACK
6
CONTINUOUS
10
3.38031
20
-4.28312
11
3.38031
21
-4.36688
0
LINE
8
BLACK
6
CONTINUOUS
10
3.38031
20
-4.36688
11
3.37957
21
-4.3744
0
LINE
8
BLACK
6
CONTINUOUS
10
3.37957
20
-4.3744
11
3.37665
21
-4.38405
0
LINE
8
BLACK
6
CONTINUOUS
10
3.37665
20
-4.38405
11
3.3719
21
-4.39294
0
LINE
8
BLACK
6
CONTINUOUS
10
3.3719
20
-4.39294
11
3.3655
21
-4.40074
0
LINE
8
BLACK
6
CONTINUOUS
10
3.3655
20
-4.40074
11
3.35771
21
-4.40713
0
LINE
8
BLACK
6
CONTINUOUS
10
3.35771
20
-4.40713
11
3.34881
21
-4.41188
0
LINE
8
BLACK
6
CONTINUOUS
10
3.34881
20
-4.41188
11
3.33917
21
-4.41481
0
LINE
8
BLACK
6
CONTINUOUS
10
3.33917
20
-4.41481
11
3.32913
21
-4.4158
0
LINE
8
BLACK
6
CONTINUOUS
10
3.32913
20
-4.4158
11
3.3191
21
-4.41481
0
LINE
8
BLACK
6
CONTINUOUS
10
3.3191
20
-4.41481
11
3.30945
21
-4.41188
0
LINE
8
BLACK
6
CONTINUOUS
10
3.30945
20
-4.41188
11
3.30056
21
-4.40713
0
LINE
8
BLACK
6
CONTINUOUS
10
3.30056
20
-4.40713
11
3.29277
21
-4.40074
0
LINE
8
BLACK
6
CONTINUOUS
10
3.29277
20
-4.40074
11
3.28637
21
-4.39294
0
LINE
8
BLACK
6
CONTINUOUS
10
3.28637
20
-4.39294
11
3.28162
21
-4.38405
0
LINE
8
BLACK
6
CONTINUOUS
10
3.28162
20
-4.38405
11
3.27869
21
-4.3744
0
LINE
8
BLACK
6
CONTINUOUS
10
3.27869
20
-4.3744
11
3.27795
21
-4.36688
0
LINE
8
BLACK
6
CONTINUOUS
10
3.27795
20
-4.36688
11
3.27795
21
-4.28312
0
LINE
8
BLACK
6
CONTINUOUS
10
3.27795
20
-4.28312
11
3.27869
21
-4.2756
0
LINE
8
BLACK
6
CONTINUOUS
10
3.27869
20
-4.2756
11
3.28162
21
-4.26595
0
LINE
8
BLACK
6
CONTINUOUS
10
3.28162
20
-4.26595
11
3.28637
21
-4.25706
0
LINE
8
BLACK
6
CONTINUOUS
10
3.28637
20
-4.25706
11
3.29277
21
-4.24926
0
LINE
8
BLACK
6
CONTINUOUS
10
3.29277
20
-4.24926
11
3.30056
21
-4.24287
0
LINE
8
BLACK
6
CONTINUOUS
10
3.30056
20
-4.24287
11
3.30945
21
-4.23812
0
LINE
8
BLACK
6
CONTINUOUS
10
3.30945
20
-4.23812
11
3.3191
21
-4.23519
0
LINE
8
BLACK
6
CONTINUOUS
10
3.3191
20
-4.23519
11
3.32913
21
-4.2342
0
LINE
8
BLACK
6
CONTINUOUS
10
3.32913
20
-4.2342
11
3.33917
21
-4.23519
0
LINE
8
BLACK
6
CONTINUOUS
10
1.7746
20
-4.23519
11
1.78425
21
-4.23812
0
LINE
8
BLACK
6
CONTINUOUS
10
1.78425
20
-4.23812
11
1.79314
21
-4.24287
0
LINE
8
BLACK
6
CONTINUOUS
10
1.79314
20
-4.24287
11
1.80093
21
-4.24926
0
LINE
8
BLACK
6
CONTINUOUS
10
1.80093
20
-4.24926
11
1.80733
21
-4.25706
0
LINE
8
BLACK
6
CONTINUOUS
10
1.80733
20
-4.25706
11
1.81208
21
-4.26595
0
LINE
8
BLACK
6
CONTINUOUS
10
1.81208
20
-4.26595
11
1.81501
21
-4.2756
0
LINE
8
BLACK
6
CONTINUOUS
10
1.81501
20
-4.2756
11
1.81575
21
-4.28312
0
LINE
8
BLACK
6
CONTINUOUS
10
1.81575
20
-4.28312
11
1.81575
21
-4.36688
0
LINE
8
BLACK
6
CONTINUOUS
10
1.81575
20
-4.36688
11
1.81501
21
-4.3744
0
LINE
8
BLACK
6
CONTINUOUS
10
1.81501
20
-4.3744
11
1.81208
21
-4.38405
0
LINE
8
BLACK
6
CONTINUOUS
10
1.81208
20
-4.38405
11
1.80733
21
-4.39294
0
LINE
8
BLACK
6
CONTINUOUS
10
1.80733
20
-4.39294
11
1.80093
21
-4.40074
0
LINE
8
BLACK
6
CONTINUOUS
10
1.80093
20
-4.40074
11
1.79314
21
-4.40713
0
LINE
8
BLACK
6
CONTINUOUS
10
1.79314
20
-4.40713
11
1.78425
21
-4.41188
0
LINE
8
BLACK
6
CONTINUOUS
10
1.78425
20
-4.41188
11
1.7746
21
-4.41481
0
LINE
8
BLACK
6
CONTINUOUS
10
1.7746
20
-4.41481
11
1.76457
21
-4.4158
0
LINE
8
BLACK
6
CONTINUOUS
10
1.76457
20
-4.4158
11
1.75453
21
-4.41481
0
LINE
8
BLACK
6
CONTINUOUS
10
1.75453
20
-4.41481
11
1.74489
21
-4.41188
0
LINE
8
BLACK
6
CONTINUOUS
10
1.74489
20
-4.41188
11
1.73599
21
-4.40713
0
LINE
8
BLACK
6
CONTINUOUS
10
1.73599
20
-4.40713
11
1.7282
21
-4.40074
0
LINE
8
BLACK
6
CONTINUOUS
10
1.7282
20
-4.40074
11
1.72181
21
-4.39294
0
LINE
8
BLACK
6
CONTINUOUS
10
1.72181
20
-4.39294
11
1.71705
21
-4.38405
0
LINE
8
BLACK
6
CONTINUOUS
10
1.71705
20
-4.38405
11
1.71413
21
-4.3744
0
LINE
8
BLACK
6
CONTINUOUS
10
1.71413
20
-4.3744
11
1.71339
21
-4.36688
0
LINE
8
BLACK
6
CONTINUOUS
10
1.71339
20
-4.36688
11
1.71339
21
-4.28312
0
LINE
8
BLACK
6
CONTINUOUS
10
1.71339
20
-4.28312
11
1.71413
21
-4.2756
0
LINE
8
BLACK
6
CONTINUOUS
10
1.71413
20
-4.2756
11
1.71705
21
-4.26595
0
LINE
8
BLACK
6
CONTINUOUS
10
1.71705
20
-4.26595
11
1.72181
21
-4.25706
0
LINE
8
BLACK
6
CONTINUOUS
10
1.72181
20
-4.25706
11
1.7282
21
-4.24926
0
LINE
8
BLACK
6
CONTINUOUS
10
1.7282
20
-4.24926
11
1.73599
21
-4.24287
0
LINE
8
BLACK
6
CONTINUOUS
10
1.73599
20
-4.24287
11
1.74489
21
-4.23812
0
LINE
8
BLACK
6
CONTINUOUS
10
1.74489
20
-4.23812
11
1.75453
21
-4.23519
0
LINE
8
BLACK
6
CONTINUOUS
10
1.75453
20
-4.23519
11
1.76457
21
-4.2342
0
LINE
8
BLACK
6
CONTINUOUS
10
1.76457
20
-4.2342
11
1.7746
21
-4.23519
0
LINE
8
BLACK
6
CONTINUOUS
10
3.7996
20
-4.23519
11
3.80925
21
-4.23812
0
LINE
8
BLACK
6
CONTINUOUS
10
3.80925
20
-4.23812
11
3.81814
21
-4.24287
0
LINE
8
BLACK
6
CONTINUOUS
10
3.81814
20
-4.24287
11
3.82593
21
-4.24926
0
LINE
8
BLACK
6
CONTINUOUS
10
3.82593
20
-4.24926
11
3.83233
21
-4.25706
0
LINE
8
BLACK
6
CONTINUOUS
10
3.83233
20
-4.25706
11
3.83708
21
-4.26595
0
LINE
8
BLACK
6
CONTINUOUS
10
3.83708
20
-4.26595
11
3.84001
21
-4.2756
0
LINE
8
BLACK
6
CONTINUOUS
10
3.84001
20
-4.2756
11
3.84075
21
-4.28312
0
LINE
8
BLACK
6
CONTINUOUS
10
3.84075
20
-4.28312
11
3.84075
21
-4.36688
0
LINE
8
BLACK
6
CONTINUOUS
10
3.84075
20
-4.36688
11
3.84001
21
-4.3744
0
LINE
8
BLACK
6
CONTINUOUS
10
3.84001
20
-4.3744
11
3.83708
21
-4.38405
0
LINE
8
BLACK
6
CONTINUOUS
10
3.83708
20
-4.38405
11
3.83233
21
-4.39294
0
LINE
8
BLACK
6
CONTINUOUS
10
3.83233
20
-4.39294
11
3.82593
21
-4.40074
0
LINE
8
BLACK
6
CONTINUOUS
10
3.82593
20
-4.40074
11
3.81814
21
-4.40713
0
LINE
8
BLACK
6
CONTINUOUS
10
3.81814
20
-4.40713
11
3.80925
21
-4.41188
0
LINE
8
BLACK
6
CONTINUOUS
10
3.80925
20
-4.41188
11
3.7996
21
-4.41481
0
LINE
8
BLACK
6
CONTINUOUS
10
3.7996
20
-4.41481
11
3.78957
21
-4.4158
0
LINE
8
BLACK
6
CONTINUOUS
10
3.78957
20
-4.4158
11
3.77953
21
-4.41481
0
LINE
8
BLACK
6
CONTINUOUS
10
3.77953
20
-4.41481
11
3.76989
21
-4.41188
0
LINE
8
BLACK
6
CONTINUOUS
10
3.76989
20
-4.41188
11
3.76099
21
-4.40713
0
LINE
8
BLACK
6
CONTINUOUS
10
3.76099
20
-4.40713
11
3.7532
21
-4.40074
0
LINE
8
BLACK
6
CONTINUOUS
10
3.7532
20
-4.40074
11
3.74681
21
-4.39294
0
LINE
8
BLACK
6
CONTINUOUS
10
3.74681
20
-4.39294
11
3.74205
21
-4.38405
0
LINE
8
BLACK
6
CONTINUOUS
10
3.74205
20
-4.38405
11
3.73913
21
-4.3744
0
LINE
8
BLACK
6
CONTINUOUS
10
3.73913
20
-4.3744
11
3.73839
21
-4.36688
0
LINE
8
BLACK
6
CONTINUOUS
10
3.73839
20
-4.36688
11
3.73839
21
-4.28312
0
LINE
8
BLACK
6
CONTINUOUS
10
3.73839
20
-4.28312
11
3.73913
21
-4.2756
0
LINE
8
BLACK
6
CONTINUOUS
10
3.73913
20
-4.2756
11
3.74205
21
-4.26595
0
LINE
8
BLACK
6
CONTINUOUS
10
3.74205
20
-4.26595
11
3.74681
21
-4.25706
0
LINE
8
BLACK
6
CONTINUOUS
10
3.74681
20
-4.25706
11
3.7532
21
-4.24926
0
LINE
8
BLACK
6
CONTINUOUS
10
3.7532
20
-4.24926
11
3.76099
21
-4.24287
0
LINE
8
BLACK
6
CONTINUOUS
10
3.76099
20
-4.24287
11
3.76989
21
-4.23812
0
LINE
8
BLACK
6
CONTINUOUS
10
3.76989
20
-4.23812
11
3.77953
21
-4.23519
0
LINE
8
BLACK
6
CONTINUOUS
10
3.77953
20
-4.23519
11
3.78957
21
-4.2342
0
LINE
8
BLACK
6
CONTINUOUS
10
3.78957
20
-4.2342
11
3.7996
21
-4.23519
0
LINE
8
BLACK
6
CONTINUOUS
10
4.01417
20
-4.23519
11
4.02381
21
-4.23812
0
LINE
8
BLACK
6
CONTINUOUS
10
4.02381
20
-4.23812
11
4.03271
21
-4.24287
0
LINE
8
BLACK
6
CONTINUOUS
10
4.03271
20
-4.24287
11
4.0405
21
-4.24926
0
LINE
8
BLACK
6
CONTINUOUS
10
4.0405
20
-4.24926
11
4.0469
21
-4.25706
0
LINE
8
BLACK
6
CONTINUOUS
10
4.0469
20
-4.25706
11
4.05165
21
-4.26595
0
LINE
8
BLACK
6
CONTINUOUS
10
4.05165
20
-4.26595
11
4.05457
21
-4.2756
0
LINE
8
BLACK
6
CONTINUOUS
10
4.05457
20
-4.2756
11
4.05531
21
-4.28312
0
LINE
8
BLACK
6
CONTINUOUS
10
4.05531
20
-4.28312
11
4.05531
21
-4.36688
0
LINE
8
BLACK
6
CONTINUOUS
10
4.05531
20
-4.36688
11
4.05457
21
-4.3744
0
LINE
8
BLACK
6
CONTINUOUS
10
4.05457
20
-4.3744
11
4.05165
21
-4.38405
0
LINE
8
BLACK
6
CONTINUOUS
10
4.05165
20
-4.38405
11
4.0469
21
-4.39294
0
LINE
8
BLACK
6
CONTINUOUS
10
4.0469
20
-4.39294
11
4.0405
21
-4.40074
0
LINE
8
BLACK
6
CONTINUOUS
10
4.0405
20
-4.40074
11
4.03271
21
-4.40713
0
LINE
8
BLACK
6
CONTINUOUS
10
4.03271
20
-4.40713
11
4.02381
21
-4.41188
0
LINE
8
BLACK
6
CONTINUOUS
10
4.02381
20
-4.41188
11
4.01417
21
-4.41481
0
LINE
8
BLACK
6
CONTINUOUS
10
4.01417
20
-4.41481
11
4.00413
21
-4.4158
0
LINE
8
BLACK
6
CONTINUOUS
10
4.00413
20
-4.4158
11
3.9941
21
-4.41481
0
LINE
8
BLACK
6
CONTINUOUS
10
3.9941
20
-4.41481
11
3.98445
21
-4.41188
0
LINE
8
BLACK
6
CONTINUOUS
10
3.98445
20
-4.41188
11
3.97556
21
-4.40713
0
LINE
8
BLACK
6
CONTINUOUS
10
3.97556
20
-4.40713
11
3.96777
21
-4.40074
0
LINE
8
BLACK
6
CONTINUOUS
10
3.96777
20
-4.40074
11
3.96137
21
-4.39294
0
LINE
8
BLACK
6
CONTINUOUS
10
3.96137
20
-4.39294
11
3.95662
21
-4.38405
0
LINE
8
BLACK
6
CONTINUOUS
10
3.95662
20
-4.38405
11
3.95369
21
-4.3744
0
LINE
8
BLACK
6
CONTINUOUS
10
3.95369
20
-4.3744
11
3.95295
21
-4.36688
0
LINE
8
BLACK
6
CONTINUOUS
10
3.95295
20
-4.36688
11
3.95295
21
-4.28312
0
LINE
8
BLACK
6
CONTINUOUS
10
3.95295
20
-4.28312
11
3.95369
21
-4.2756
0
LINE
8
BLACK
6
CONTINUOUS
10
3.95369
20
-4.2756
11
3.95662
21
-4.26595
0
LINE
8
BLACK
6
CONTINUOUS
10
3.95662
20
-4.26595
11
3.96137
21
-4.25706
0
LINE
8
BLACK
6
CONTINUOUS
10
3.96137
20
-4.25706
11
3.96777
21
-4.24926
0
LINE
8
BLACK
6
CONTINUOUS
10
3.96777
20
-4.24926
11
3.97556
21
-4.24287
0
LINE
8
BLACK
6
CONTINUOUS
10
3.97556
20
-4.24287
11
3.98445
21
-4.23812
0
LINE
8
BLACK
6
CONTINUOUS
10
3.98445
20
-4.23812
11
3.9941
21
-4.23519
0
LINE
8
BLACK
6
CONTINUOUS
10
3.9941
20
-4.23519
11
4.00413
21
-4.2342
0
LINE
8
BLACK
6
CONTINUOUS
10
4.00413
20
-4.2342
11
4.01417
21
-4.23519
0
LINE
8
BLACK
6
CONTINUOUS
10
8.06417
20
-4.23519
11
8.07381
21
-4.23812
0
LINE
8
BLACK
6
CONTINUOUS
10
8.07381
20
-4.23812
11
8.08271
21
-4.24287
0
LINE
8
BLACK
6
CONTINUOUS
10
8.08271
20
-4.24287
11
8.0905
21
-4.24926
0
LINE
8
BLACK
6
CONTINUOUS
10
8.0905
20
-4.24926
11
8.0969
21
-4.25706
0
LINE
8
BLACK
6
CONTINUOUS
10
8.0969
20
-4.25706
11
8.10165
21
-4.26595
0
LINE
8
BLACK
6
CONTINUOUS
10
8.10165
20
-4.26595
11
8.10457
21
-4.2756
0
LINE
8
BLACK
6
CONTINUOUS
10
8.10457
20
-4.2756
11
8.10531
21
-4.28312
0
LINE
8
BLACK
6
CONTINUOUS
10
8.10531
20
-4.28312
11
8.10531
21
-4.36688
0
LINE
8
BLACK
6
CONTINUOUS
10
8.10531
20
-4.36688
11
8.10457
21
-4.3744
0
LINE
8
BLACK
6
CONTINUOUS
10
8.10457
20
-4.3744
11
8.10165
21
-4.38405
0
LINE
8
BLACK
6
CONTINUOUS
10
8.10165
20
-4.38405
11
8.0969
21
-4.39294
0
LINE
8
BLACK
6
CONTINUOUS
10
8.0969
20
-4.39294
11
8.0905
21
-4.40074
0
LINE
8
BLACK
6
CONTINUOUS
10
8.0905
20
-4.40074
11
8.08271
21
-4.40713
0
LINE
8
BLACK
6
CONTINUOUS
10
8.08271
20
-4.40713
11
8.07381
21
-4.41188
0
LINE
8
BLACK
6
CONTINUOUS
10
8.07381
20
-4.41188
11
8.06417
21
-4.41481
0
LINE
8
BLACK
6
CONTINUOUS
10
8.06417
20
-4.41481
11
8.05413
21
-4.4158
0
LINE
8
BLACK
6
CONTINUOUS
10
8.05413
20
-4.4158
11
8.0441
21
-4.41481
0
LINE
8
BLACK
6
CONTINUOUS
10
8.0441
20
-4.41481
11
8.03445
21
-4.41188
0
LINE
8
BLACK
6
CONTINUOUS
10
8.03445
20
-4.41188
11
8.02556
21
-4.40713
0
LINE
8
BLACK
6
CONTINUOUS
10
8.02556
20
-4.40713
11
8.01777
21
-4.40074
0
LINE
8
BLACK
6
CONTINUOUS
10
8.01777
20
-4.40074
11
8.01137
21
-4.39294
0
LINE
8
BLACK
6
CONTINUOUS
10
8.01137
20
-4.39294
11
8.00662
21
-4.38405
0
LINE
8
BLACK
6
CONTINUOUS
10
8.00662
20
-4.38405
11
8.00369
21
-4.3744
0
LINE
8
BLACK
6
CONTINUOUS
10
8.00369
20
-4.3744
11
8.00295
21
-4.36688
0
LINE
8
BLACK
6
CONTINUOUS
10
8.00295
20
-4.36688
11
8.00295
21
-4.28312
0
LINE
8
BLACK
6
CONTINUOUS
10
8.00295
20
-4.28312
11
8.00369
21
-4.2756
0
LINE
8
BLACK
6
CONTINUOUS
10
8.00369
20
-4.2756
11
8.00662
21
-4.26595
0
LINE
8
BLACK
6
CONTINUOUS
10
8.00662
20
-4.26595
11
8.01137
21
-4.25706
0
LINE
8
BLACK
6
CONTINUOUS
10
8.01137
20
-4.25706
11
8.01777
21
-4.24926
0
LINE
8
BLACK
6
CONTINUOUS
10
8.01777
20
-4.24926
11
8.02556
21
-4.24287
0
LINE
8
BLACK
6
CONTINUOUS
10
8.02556
20
-4.24287
11
8.03445
21
-4.23812
0
LINE
8
BLACK
6
CONTINUOUS
10
8.03445
20
-4.23812
11
8.0441
21
-4.23519
0
LINE
8
BLACK
6
CONTINUOUS
10
8.0441
20
-4.23519
11
8.05413
21
-4.2342
0
LINE
8
BLACK
6
CONTINUOUS
10
8.05413
20
-4.2342
11
8.06417
21
-4.23519
0
LINE
8
BLACK
6
CONTINUOUS
10
4.4746
20
-4.23519
11
4.48425
21
-4.23812
0
LINE
8
BLACK
6
CONTINUOUS
10
4.48425
20
-4.23812
11
4.49314
21
-4.24287
0
LINE
8
BLACK
6
CONTINUOUS
10
4.49314
20
-4.24287
11
4.50093
21
-4.24926
0
LINE
8
BLACK
6
CONTINUOUS
10
4.50093
20
-4.24926
11
4.50733
21
-4.25706
0
LINE
8
BLACK
6
CONTINUOUS
10
4.50733
20
-4.25706
11
4.51208
21
-4.26595
0
LINE
8
BLACK
6
CONTINUOUS
10
4.51208
20
-4.26595
11
4.51501
21
-4.2756
0
LINE
8
BLACK
6
CONTINUOUS
10
4.51501
20
-4.2756
11
4.51575
21
-4.28312
0
LINE
8
BLACK
6
CONTINUOUS
10
4.51575
20
-4.28312
11
4.51575
21
-4.36688
0
LINE
8
BLACK
6
CONTINUOUS
10
4.51575
20
-4.36688
11
4.51501
21
-4.3744
0
LINE
8
BLACK
6
CONTINUOUS
10
4.51501
20
-4.3744
11
4.51208
21
-4.38405
0
LINE
8
BLACK
6
CONTINUOUS
10
4.51208
20
-4.38405
11
4.50733
21
-4.39294
0
LINE
8
BLACK
6
CONTINUOUS
10
4.50733
20
-4.39294
11
4.50093
21
-4.40074
0
LINE
8
BLACK
6
CONTINUOUS
10
4.50093
20
-4.40074
11
4.49314
21
-4.40713
0
LINE
8
BLACK
6
CONTINUOUS
10
4.49314
20
-4.40713
11
4.48425
21
-4.41188
0
LINE
8
BLACK
6
CONTINUOUS
10
4.48425
20
-4.41188
11
4.4746
21
-4.41481
0
LINE
8
BLACK
6
CONTINUOUS
10
4.4746
20
-4.41481
11
4.46457
21
-4.4158
0
LINE
8
BLACK
6
CONTINUOUS
10
4.46457
20
-4.4158
11
4.45453
21
-4.41481
0
LINE
8
BLACK
6
CONTINUOUS
10
4.45453
20
-4.41481
11
4.44489
21
-4.41188
0
LINE
8
BLACK
6
CONTINUOUS
10
4.44489
20
-4.41188
11
4.43599
21
-4.40713
0
LINE
8
BLACK
6
CONTINUOUS
10
4.43599
20
-4.40713
11
4.4282
21
-4.40074
0
LINE
8
BLACK
6
CONTINUOUS
10
4.4282
20
-4.40074
11
4.42181
21
-4.39294
0
LINE
8
BLACK
6
CONTINUOUS
10
4.42181
20
-4.39294
11
4.41705
21
-4.38405
0
LINE
8
BLACK
6
CONTINUOUS
10
4.41705
20
-4.38405
11
4.41413
21
-4.3744
0
LINE
8
BLACK
6
CONTINUOUS
10
4.41413
20
-4.3744
11
4.41339
21
-4.36688
0
LINE
8
BLACK
6
CONTINUOUS
10
4.41339
20
-4.36688
11
4.41339
21
-4.28312
0
LINE
8
BLACK
6
CONTINUOUS
10
4.41339
20
-4.28312
11
4.41413
21
-4.2756
0
LINE
8
BLACK
6
CONTINUOUS
10
4.41413
20
-4.2756
11
4.41705
21
-4.26595
0
LINE
8
BLACK
6
CONTINUOUS
10
4.41705
20
-4.26595
11
4.42181
21
-4.25706
0
LINE
8
BLACK
6
CONTINUOUS
10
4.42181
20
-4.25706
11
4.4282
21
-4.24926
0
LINE
8
BLACK
6
CONTINUOUS
10
4.4282
20
-4.24926
11
4.43599
21
-4.24287
0
LINE
8
BLACK
6
CONTINUOUS
10
4.43599
20
-4.24287
11
4.44489
21
-4.23812
0
LINE
8
BLACK
6
CONTINUOUS
10
4.44489
20
-4.23812
11
4.45453
21
-4.23519
0
LINE
8
BLACK
6
CONTINUOUS
10
4.45453
20
-4.23519
11
4.46457
21
-4.2342
0
LINE
8
BLACK
6
CONTINUOUS
10
4.46457
20
-4.2342
11
4.4746
21
-4.23519
0
LINE
8
BLACK
6
CONTINUOUS
10
4.68917
20
-4.23519
11
4.69881
21
-4.23812
0
LINE
8
BLACK
6
CONTINUOUS
10
4.69881
20
-4.23812
11
4.70771
21
-4.24287
0
LINE
8
BLACK
6
CONTINUOUS
10
4.70771
20
-4.24287
11
4.7155
21
-4.24926
0
LINE
8
BLACK
6
CONTINUOUS
10
4.7155
20
-4.24926
11
4.7219
21
-4.25706
0
LINE
8
BLACK
6
CONTINUOUS
10
4.7219
20
-4.25706
11
4.72665
21
-4.26595
0
LINE
8
BLACK
6
CONTINUOUS
10
4.72665
20
-4.26595
11
4.72957
21
-4.2756
0
LINE
8
BLACK
6
CONTINUOUS
10
4.72957
20
-4.2756
11
4.73031
21
-4.28312
0
LINE
8
BLACK
6
CONTINUOUS
10
4.73031
20
-4.28312
11
4.73031
21
-4.36688
0
LINE
8
BLACK
6
CONTINUOUS
10
4.73031
20
-4.36688
11
4.72957
21
-4.3744
0
LINE
8
BLACK
6
CONTINUOUS
10
4.72957
20
-4.3744
11
4.72665
21
-4.38405
0
LINE
8
BLACK
6
CONTINUOUS
10
4.72665
20
-4.38405
11
4.7219
21
-4.39294
0
LINE
8
BLACK
6
CONTINUOUS
10
4.7219
20
-4.39294
11
4.7155
21
-4.40074
0
LINE
8
BLACK
6
CONTINUOUS
10
4.7155
20
-4.40074
11
4.70771
21
-4.40713
0
LINE
8
BLACK
6
CONTINUOUS
10
4.70771
20
-4.40713
11
4.69881
21
-4.41188
0
LINE
8
BLACK
6
CONTINUOUS
10
4.69881
20
-4.41188
11
4.68917
21
-4.41481
0
LINE
8
BLACK
6
CONTINUOUS
10
4.68917
20
-4.41481
11
4.67913
21
-4.4158
0
LINE
8
BLACK
6
CONTINUOUS
10
4.67913
20
-4.4158
11
4.6691
21
-4.41481
0
LINE
8
BLACK
6
CONTINUOUS
10
4.6691
20
-4.41481
11
4.65945
21
-4.41188
0
LINE
8
BLACK
6
CONTINUOUS
10
4.65945
20
-4.41188
11
4.65056
21
-4.40713
0
LINE
8
BLACK
6
CONTINUOUS
10
4.65056
20
-4.40713
11
4.64277
21
-4.40074
0
LINE
8
BLACK
6
CONTINUOUS
10
4.64277
20
-4.40074
11
4.63637
21
-4.39294
0
LINE
8
BLACK
6
CONTINUOUS
10
4.63637
20
-4.39294
11
4.63162
21
-4.38405
0
LINE
8
BLACK
6
CONTINUOUS
10
4.63162
20
-4.38405
11
4.62869
21
-4.3744
0
LINE
8
BLACK
6
CONTINUOUS
10
4.62869
20
-4.3744
11
4.62795
21
-4.36688
0
LINE
8
BLACK
6
CONTINUOUS
10
4.62795
20
-4.36688
11
4.62795
21
-4.28312
0
LINE
8
BLACK
6
CONTINUOUS
10
4.62795
20
-4.28312
11
4.62869
21
-4.2756
0
LINE
8
BLACK
6
CONTINUOUS
10
4.62869
20
-4.2756
11
4.63162
21
-4.26595
0
LINE
8
BLACK
6
CONTINUOUS
10
4.63162
20
-4.26595
11
4.63637
21
-4.25706
0
LINE
8
BLACK
6
CONTINUOUS
10
4.63637
20
-4.25706
11
4.64277
21
-4.24926
0
LINE
8
BLACK
6
CONTINUOUS
10
4.64277
20
-4.24926
11
4.65056
21
-4.24287
0
LINE
8
BLACK
6
CONTINUOUS
10
4.65056
20
-4.24287
11
4.65945
21
-4.23812
0
LINE
8
BLACK
6
CONTINUOUS
10
4.65945
20
-4.23812
11
4.6691
21
-4.23519
0
LINE
8
BLACK
6
CONTINUOUS
10
4.6691
20
-4.23519
11
4.67913
21
-4.2342
0
LINE
8
BLACK
6
CONTINUOUS
10
4.67913
20
-4.2342
11
4.68917
21
-4.23519
0
LINE
8
BLACK
6
CONTINUOUS
10
8.73917
20
-4.23519
11
8.74881
21
-4.23812
0
LINE
8
BLACK
6
CONTINUOUS
10
8.74881
20
-4.23812
11
8.75771
21
-4.24287
0
LINE
8
BLACK
6
CONTINUOUS
10
8.75771
20
-4.24287
11
8.7655
21
-4.24926
0
LINE
8
BLACK
6
CONTINUOUS
10
8.7655
20
-4.24926
11
8.7719
21
-4.25706
0
LINE
8
BLACK
6
CONTINUOUS
10
8.7719
20
-4.25706
11
8.77665
21
-4.26595
0
LINE
8
BLACK
6
CONTINUOUS
10
8.77665
20
-4.26595
11
8.77957
21
-4.2756
0
LINE
8
BLACK
6
CONTINUOUS
10
8.77957
20
-4.2756
11
8.78031
21
-4.28312
0
LINE
8
BLACK
6
CONTINUOUS
10
8.78031
20
-4.28312
11
8.78031
21
-4.36688
0
LINE
8
BLACK
6
CONTINUOUS
10
8.78031
20
-4.36688
11
8.77957
21
-4.3744
0
LINE
8
BLACK
6
CONTINUOUS
10
8.77957
20
-4.3744
11
8.77665
21
-4.38405
0
LINE
8
BLACK
6
CONTINUOUS
10
8.77665
20
-4.38405
11
8.7719
21
-4.39294
0
LINE
8
BLACK
6
CONTINUOUS
10
8.7719
20
-4.39294
11
8.7655
21
-4.40074
0
LINE
8
BLACK
6
CONTINUOUS
10
8.7655
20
-4.40074
11
8.75771
21
-4.40713
0
LINE
8
BLACK
6
CONTINUOUS
10
8.75771
20
-4.40713
11
8.74881
21
-4.41188
0
LINE
8
BLACK
6
CONTINUOUS
10
8.74881
20
-4.41188
11
8.73917
21
-4.41481
0
LINE
8
BLACK
6
CONTINUOUS
10
8.73917
20
-4.41481
11
8.72913
21
-4.4158
0
LINE
8
BLACK
6
CONTINUOUS
10
8.72913
20
-4.4158
11
8.7191
21
-4.41481
0
LINE
8
BLACK
6
CONTINUOUS
10
8.7191
20
-4.41481
11
8.70945
21
-4.41188
0
LINE
8
BLACK
6
CONTINUOUS
10
8.70945
20
-4.41188
11
8.70056
21
-4.40713
0
LINE
8
BLACK
6
CONTINUOUS
10
8.70056
20
-4.40713
11
8.69277
21
-4.40074
0
LINE
8
BLACK
6
CONTINUOUS
10
8.69277
20
-4.40074
11
8.68637
21
-4.39294
0
LINE
8
BLACK
6
CONTINUOUS
10
8.68637
20
-4.39294
11
8.68162
21
-4.38405
0
LINE
8
BLACK
6
CONTINUOUS
10
8.68162
20
-4.38405
11
8.67869
21
-4.3744
0
LINE
8
BLACK
6
CONTINUOUS
10
8.67869
20
-4.3744
11
8.67795
21
-4.36688
0
LINE
8
BLACK
6
CONTINUOUS
10
8.67795
20
-4.36688
11
8.67795
21
-4.28312
0
LINE
8
BLACK
6
CONTINUOUS
10
8.67795
20
-4.28312
11
8.67869
21
-4.2756
0
LINE
8
BLACK
6
CONTINUOUS
10
8.67869
20
-4.2756
11
8.68162
21
-4.26595
0
LINE
8
BLACK
6
CONTINUOUS
10
8.68162
20
-4.26595
11
8.68637
21
-4.25706
0
LINE
8
BLACK
6
CONTINUOUS
10
8.68637
20
-4.25706
11
8.69277
21
-4.24926
0
LINE
8
BLACK
6
CONTINUOUS
10
8.69277
20
-4.24926
11
8.70056
21
-4.24287
0
LINE
8
BLACK
6
CONTINUOUS
10
8.70056
20
-4.24287
11
8.70945
21
-4.23812
0
LINE
8
BLACK
6
CONTINUOUS
10
8.70945
20
-4.23812
11
8.7191
21
-4.23519
0
LINE
8
BLACK
6
CONTINUOUS
10
8.7191
20
-4.23519
11
8.72913
21
-4.2342
0
LINE
8
BLACK
6
CONTINUOUS
10
8.72913
20
-4.2342
11
8.73917
21
-4.23519
0
LINE
8
BLACK
6
CONTINUOUS
10
5.1496
20
-4.23519
11
5.15925
21
-4.23812
0
LINE
8
BLACK
6
CONTINUOUS
10
5.15925
20
-4.23812
11
5.16814
21
-4.24287
0
LINE
8
BLACK
6
CONTINUOUS
10
5.16814
20
-4.24287
11
5.17593
21
-4.24926
0
LINE
8
BLACK
6
CONTINUOUS
10
5.17593
20
-4.24926
11
5.18233
21
-4.25706
0
LINE
8
BLACK
6
CONTINUOUS
10
5.18233
20
-4.25706
11
5.18708
21
-4.26595
0
LINE
8
BLACK
6
CONTINUOUS
10
5.18708
20
-4.26595
11
5.19001
21
-4.2756
0
LINE
8
BLACK
6
CONTINUOUS
10
5.19001
20
-4.2756
11
5.19075
21
-4.28312
0
LINE
8
BLACK
6
CONTINUOUS
10
5.19075
20
-4.28312
11
5.19075
21
-4.36688
0
LINE
8
BLACK
6
CONTINUOUS
10
5.19075
20
-4.36688
11
5.19001
21
-4.3744
0
LINE
8
BLACK
6
CONTINUOUS
10
5.19001
20
-4.3744
11
5.18708
21
-4.38405
0
LINE
8
BLACK
6
CONTINUOUS
10
5.18708
20
-4.38405
11
5.18233
21
-4.39294
0
LINE
8
BLACK
6
CONTINUOUS
10
5.18233
20
-4.39294
11
5.17593
21
-4.40074
0
LINE
8
BLACK
6
CONTINUOUS
10
5.17593
20
-4.40074
11
5.16814
21
-4.40713
0
LINE
8
BLACK
6
CONTINUOUS
10
5.16814
20
-4.40713
11
5.15925
21
-4.41188
0
LINE
8
BLACK
6
CONTINUOUS
10
5.15925
20
-4.41188
11
5.1496
21
-4.41481
0
LINE
8
BLACK
6
CONTINUOUS
10
5.1496
20
-4.41481
11
5.13957
21
-4.4158
0
LINE
8
BLACK
6
CONTINUOUS
10
5.13957
20
-4.4158
11
5.12953
21
-4.41481
0
LINE
8
BLACK
6
CONTINUOUS
10
5.12953
20
-4.41481
11
5.11989
21
-4.41188
0
LINE
8
BLACK
6
CONTINUOUS
10
5.11989
20
-4.41188
11
5.11099
21
-4.40713
0
LINE
8
BLACK
6
CONTINUOUS
10
5.11099
20
-4.40713
11
5.1032
21
-4.40074
0
LINE
8
BLACK
6
CONTINUOUS
10
5.1032
20
-4.40074
11
5.09681
21
-4.39294
0
LINE
8
BLACK
6
CONTINUOUS
10
5.09681
20
-4.39294
11
5.09205
21
-4.38405
0
LINE
8
BLACK
6
CONTINUOUS
10
5.09205
20
-4.38405
11
5.08913
21
-4.3744
0
LINE
8
BLACK
6
CONTINUOUS
10
5.08913
20
-4.3744
11
5.08839
21
-4.36688
0
LINE
8
BLACK
6
CONTINUOUS
10
5.08839
20
-4.36688
11
5.08839
21
-4.28312
0
LINE
8
BLACK
6
CONTINUOUS
10
5.08839
20
-4.28312
11
5.08913
21
-4.2756
0
LINE
8
BLACK
6
CONTINUOUS
10
5.08913
20
-4.2756
11
5.09205
21
-4.26595
0
LINE
8
BLACK
6
CONTINUOUS
10
5.09205
20
-4.26595
11
5.09681
21
-4.25706
0
LINE
8
BLACK
6
CONTINUOUS
10
5.09681
20
-4.25706
11
5.1032
21
-4.24926
0
LINE
8
BLACK
6
CONTINUOUS
10
5.1032
20
-4.24926
11
5.11099
21
-4.24287
0
LINE
8
BLACK
6
CONTINUOUS
10
5.11099
20
-4.24287
11
5.11989
21
-4.23812
0
LINE
8
BLACK
6
CONTINUOUS
10
5.11989
20
-4.23812
11
5.12953
21
-4.23519
0
LINE
8
BLACK
6
CONTINUOUS
10
5.12953
20
-4.23519
11
5.13957
21
-4.2342
0
LINE
8
BLACK
6
CONTINUOUS
10
5.13957
20
-4.2342
11
5.1496
21
-4.23519
0
LINE
8
BLACK
6
CONTINUOUS
10
5.36417
20
-4.23519
11
5.37381
21
-4.23812
0
LINE
8
BLACK
6
CONTINUOUS
10
5.37381
20
-4.23812
11
5.38271
21
-4.24287
0
LINE
8
BLACK
6
CONTINUOUS
10
5.38271
20
-4.24287
11
5.3905
21
-4.24926
0
LINE
8
BLACK
6
CONTINUOUS
10
5.3905
20
-4.24926
11
5.3969
21
-4.25706
0
LINE
8
BLACK
6
CONTINUOUS
10
5.3969
20
-4.25706
11
5.40165
21
-4.26595
0
LINE
8
BLACK
6
CONTINUOUS
10
5.40165
20
-4.26595
11
5.40457
21
-4.2756
0
LINE
8
BLACK
6
CONTINUOUS
10
5.40457
20
-4.2756
11
5.40531
21
-4.28312
0
LINE
8
BLACK
6
CONTINUOUS
10
5.40531
20
-4.28312
11
5.40531
21
-4.36688
0
LINE
8
BLACK
6
CONTINUOUS
10
5.40531
20
-4.36688
11
5.40457
21
-4.3744
0
LINE
8
BLACK
6
CONTINUOUS
10
5.40457
20
-4.3744
11
5.40165
21
-4.38405
0
LINE
8
BLACK
6
CONTINUOUS
10
5.40165
20
-4.38405
11
5.3969
21
-4.39294
0
LINE
8
BLACK
6
CONTINUOUS
10
5.3969
20
-4.39294
11
5.3905
21
-4.40074
0
LINE
8
BLACK
6
CONTINUOUS
10
5.3905
20
-4.40074
11
5.38271
21
-4.40713
0
LINE
8
BLACK
6
CONTINUOUS
10
5.38271
20
-4.40713
11
5.37381
21
-4.41188
0
LINE
8
BLACK
6
CONTINUOUS
10
5.37381
20
-4.41188
11
5.36417
21
-4.41481
0
LINE
8
BLACK
6
CONTINUOUS
10
5.36417
20
-4.41481
11
5.35413
21
-4.4158
0
LINE
8
BLACK
6
CONTINUOUS
10
5.35413
20
-4.4158
11
5.3441
21
-4.41481
0
LINE
8
BLACK
6
CONTINUOUS
10
5.3441
20
-4.41481
11
5.33445
21
-4.41188
0
LINE
8
BLACK
6
CONTINUOUS
10
5.33445
20
-4.41188
11
5.32556
21
-4.40713
0
LINE
8
BLACK
6
CONTINUOUS
10
5.32556
20
-4.40713
11
5.31777
21
-4.40074
0
LINE
8
BLACK
6
CONTINUOUS
10
5.31777
20
-4.40074
11
5.31137
21
-4.39294
0
LINE
8
BLACK
6
CONTINUOUS
10
5.31137
20
-4.39294
11
5.30662
21
-4.38405
0
LINE
8
BLACK
6
CONTINUOUS
10
5.30662
20
-4.38405
11
5.30369
21
-4.3744
0
LINE
8
BLACK
6
CONTINUOUS
10
5.30369
20
-4.3744
11
5.30295
21
-4.36688
0
LINE
8
BLACK
6
CONTINUOUS
10
5.30295
20
-4.36688
11
5.30295
21
-4.28312
0
LINE
8
BLACK
6
CONTINUOUS
10
5.30295
20
-4.28312
11
5.30369
21
-4.2756
0
LINE
8
BLACK
6
CONTINUOUS
10
5.30369
20
-4.2756
11
5.30662
21
-4.26595
0
LINE
8
BLACK
6
CONTINUOUS
10
5.30662
20
-4.26595
11
5.31137
21
-4.25706
0
LINE
8
BLACK
6
CONTINUOUS
10
5.31137
20
-4.25706
11
5.31777
21
-4.24926
0
LINE
8
BLACK
6
CONTINUOUS
10
5.31777
20
-4.24926
11
5.32556
21
-4.24287
0
LINE
8
BLACK
6
CONTINUOUS
10
5.32556
20
-4.24287
11
5.33445
21
-4.23812
0
LINE
8
BLACK
6
CONTINUOUS
10
5.33445
20
-4.23812
11
5.3441
21
-4.23519
0
LINE
8
BLACK
6
CONTINUOUS
10
5.3441
20
-4.23519
11
5.35413
21
-4.2342
0
LINE
8
BLACK
6
CONTINUOUS
10
5.35413
20
-4.2342
11
5.36417
21
-4.23519
0
LINE
8
BLACK
6
CONTINUOUS
10
1.31417
20
-4.23519
11
1.32381
21
-4.23812
0
LINE
8
BLACK
6
CONTINUOUS
10
1.32381
20
-4.23812
11
1.33271
21
-4.24287
0
LINE
8
BLACK
6
CONTINUOUS
10
1.33271
20
-4.24287
11
1.3405
21
-4.24926
0
LINE
8
BLACK
6
CONTINUOUS
10
1.3405
20
-4.24926
11
1.3469
21
-4.25706
0
LINE
8
BLACK
6
CONTINUOUS
10
1.3469
20
-4.25706
11
1.35165
21
-4.26595
0
LINE
8
BLACK
6
CONTINUOUS
10
1.35165
20
-4.26595
11
1.35457
21
-4.2756
0
LINE
8
BLACK
6
CONTINUOUS
10
1.35457
20
-4.2756
11
1.35531
21
-4.28312
0
LINE
8
BLACK
6
CONTINUOUS
10
1.35531
20
-4.28312
11
1.35531
21
-4.36688
0
LINE
8
BLACK
6
CONTINUOUS
10
1.35531
20
-4.36688
11
1.35457
21
-4.3744
0
LINE
8
BLACK
6
CONTINUOUS
10
1.35457
20
-4.3744
11
1.35165
21
-4.38405
0
LINE
8
BLACK
6
CONTINUOUS
10
1.35165
20
-4.38405
11
1.3469
21
-4.39294
0
LINE
8
BLACK
6
CONTINUOUS
10
1.3469
20
-4.39294
11
1.3405
21
-4.40074
0
LINE
8
BLACK
6
CONTINUOUS
10
1.3405
20
-4.40074
11
1.33271
21
-4.40713
0
LINE
8
BLACK
6
CONTINUOUS
10
1.33271
20
-4.40713
11
1.32381
21
-4.41188
0
LINE
8
BLACK
6
CONTINUOUS
10
1.32381
20
-4.41188
11
1.31417
21
-4.41481
0
LINE
8
BLACK
6
CONTINUOUS
10
1.31417
20
-4.41481
11
1.30413
21
-4.4158
0
LINE
8
BLACK
6
CONTINUOUS
10
1.30413
20
-4.4158
11
1.2941
21
-4.41481
0
LINE
8
BLACK
6
CONTINUOUS
10
1.2941
20
-4.41481
11
1.28445
21
-4.41188
0
LINE
8
BLACK
6
CONTINUOUS
10
1.28445
20
-4.41188
11
1.27556
21
-4.40713
0
LINE
8
BLACK
6
CONTINUOUS
10
1.27556
20
-4.40713
11
1.26777
21
-4.40074
0
LINE
8
BLACK
6
CONTINUOUS
10
1.26777
20
-4.40074
11
1.26137
21
-4.39294
0
LINE
8
BLACK
6
CONTINUOUS
10
1.26137
20
-4.39294
11
1.25662
21
-4.38405
0
LINE
8
BLACK
6
CONTINUOUS
10
1.25662
20
-4.38405
11
1.25369
21
-4.3744
0
LINE
8
BLACK
6
CONTINUOUS
10
1.25369
20
-4.3744
11
1.25295
21
-4.36688
0
LINE
8
BLACK
6
CONTINUOUS
10
1.25295
20
-4.36688
11
1.25295
21
-4.28312
0
LINE
8
BLACK
6
CONTINUOUS
10
1.25295
20
-4.28312
11
1.25369
21
-4.2756
0
LINE
8
BLACK
6
CONTINUOUS
10
1.25369
20
-4.2756
11
1.25662
21
-4.26595
0
LINE
8
BLACK
6
CONTINUOUS
10
1.25662
20
-4.26595
11
1.26137
21
-4.25706
0
LINE
8
BLACK
6
CONTINUOUS
10
1.26137
20
-4.25706
11
1.26777
21
-4.24926
0
LINE
8
BLACK
6
CONTINUOUS
10
1.26777
20
-4.24926
11
1.27556
21
-4.24287
0
LINE
8
BLACK
6
CONTINUOUS
10
1.27556
20
-4.24287
11
1.28445
21
-4.23812
0
LINE
8
BLACK
6
CONTINUOUS
10
1.28445
20
-4.23812
11
1.2941
21
-4.23519
0
LINE
8
BLACK
6
CONTINUOUS
10
1.2941
20
-4.23519
11
1.30413
21
-4.2342
0
LINE
8
BLACK
6
CONTINUOUS
10
1.30413
20
-4.2342
11
1.31417
21
-4.23519
0
LINE
8
BLACK
6
CONTINUOUS
10
1.0996
20
-4.23519
11
1.10925
21
-4.23812
0
LINE
8
BLACK
6
CONTINUOUS
10
1.10925
20
-4.23812
11
1.11814
21
-4.24287
0
LINE
8
BLACK
6
CONTINUOUS
10
1.11814
20
-4.24287
11
1.12593
21
-4.24926
0
LINE
8
BLACK
6
CONTINUOUS
10
1.12593
20
-4.24926
11
1.13233
21
-4.25706
0
LINE
8
BLACK
6
CONTINUOUS
10
1.13233
20
-4.25706
11
1.13708
21
-4.26595
0
LINE
8
BLACK
6
CONTINUOUS
10
1.13708
20
-4.26595
11
1.14001
21
-4.2756
0
LINE
8
BLACK
6
CONTINUOUS
10
1.14001
20
-4.2756
11
1.14075
21
-4.28312
0
LINE
8
BLACK
6
CONTINUOUS
10
1.14075
20
-4.28312
11
1.14075
21
-4.36688
0
LINE
8
BLACK
6
CONTINUOUS
10
1.14075
20
-4.36688
11
1.14001
21
-4.3744
0
LINE
8
BLACK
6
CONTINUOUS
10
1.14001
20
-4.3744
11
1.13708
21
-4.38405
0
LINE
8
BLACK
6
CONTINUOUS
10
1.13708
20
-4.38405
11
1.13233
21
-4.39294
0
LINE
8
BLACK
6
CONTINUOUS
10
1.13233
20
-4.39294
11
1.12593
21
-4.40074
0
LINE
8
BLACK
6
CONTINUOUS
10
1.12593
20
-4.40074
11
1.11814
21
-4.40713
0
LINE
8
BLACK
6
CONTINUOUS
10
1.11814
20
-4.40713
11
1.10925
21
-4.41188
0
LINE
8
BLACK
6
CONTINUOUS
10
1.10925
20
-4.41188
11
1.0996
21
-4.41481
0
LINE
8
BLACK
6
CONTINUOUS
10
1.0996
20
-4.41481
11
1.08957
21
-4.4158
0
LINE
8
BLACK
6
CONTINUOUS
10
1.08957
20
-4.4158
11
1.07953
21
-4.41481
0
LINE
8
BLACK
6
CONTINUOUS
10
1.07953
20
-4.41481
11
1.06989
21
-4.41188
0
LINE
8
BLACK
6
CONTINUOUS
10
1.06989
20
-4.41188
11
1.06099
21
-4.40713
0
LINE
8
BLACK
6
CONTINUOUS
10
1.06099
20
-4.40713
11
1.0532
21
-4.40074
0
LINE
8
BLACK
6
CONTINUOUS
10
1.0532
20
-4.40074
11
1.04681
21
-4.39294
0
LINE
8
BLACK
6
CONTINUOUS
10
1.04681
20
-4.39294
11
1.04205
21
-4.38405
0
LINE
8
BLACK
6
CONTINUOUS
10
1.04205
20
-4.38405
11
1.03913
21
-4.3744
0
LINE
8
BLACK
6
CONTINUOUS
10
1.03913
20
-4.3744
11
1.03839
21
-4.36688
0
LINE
8
BLACK
6
CONTINUOUS
10
1.03839
20
-4.36688
11
1.03839
21
-4.28312
0
LINE
8
BLACK
6
CONTINUOUS
10
1.03839
20
-4.28312
11
1.03913
21
-4.2756
0
LINE
8
BLACK
6
CONTINUOUS
10
1.03913
20
-4.2756
11
1.04205
21
-4.26595
0
LINE
8
BLACK
6
CONTINUOUS
10
1.04205
20
-4.26595
11
1.04681
21
-4.25706
0
LINE
8
BLACK
6
CONTINUOUS
10
1.04681
20
-4.25706
11
1.0532
21
-4.24926
0
LINE
8
BLACK
6
CONTINUOUS
10
1.0532
20
-4.24926
11
1.06099
21
-4.24287
0
LINE
8
BLACK
6
CONTINUOUS
10
1.06099
20
-4.24287
11
1.06989
21
-4.23812
0
LINE
8
BLACK
6
CONTINUOUS
10
1.06989
20
-4.23812
11
1.07953
21
-4.23519
0
LINE
8
BLACK
6
CONTINUOUS
10
1.07953
20
-4.23519
11
1.08957
21
-4.2342
0
LINE
8
BLACK
6
CONTINUOUS
10
1.08957
20
-4.2342
11
1.0996
21
-4.23519
0
LINE
8
BLACK
6
CONTINUOUS
10
5.8246
20
-4.23519
11
5.83425
21
-4.23812
0
LINE
8
BLACK
6
CONTINUOUS
10
5.83425
20
-4.23812
11
5.84314
21
-4.24287
0
LINE
8
BLACK
6
CONTINUOUS
10
5.84314
20
-4.24287
11
5.85093
21
-4.24926
0
LINE
8
BLACK
6
CONTINUOUS
10
5.85093
20
-4.24926
11
5.85733
21
-4.25706
0
LINE
8
BLACK
6
CONTINUOUS
10
5.85733
20
-4.25706
11
5.86208
21
-4.26595
0
LINE
8
BLACK
6
CONTINUOUS
10
5.86208
20
-4.26595
11
5.86501
21
-4.2756
0
LINE
8
BLACK
6
CONTINUOUS
10
5.86501
20
-4.2756
11
5.86575
21
-4.28312
0
LINE
8
BLACK
6
CONTINUOUS
10
5.86575
20
-4.28312
11
5.86575
21
-4.36688
0
LINE
8
BLACK
6
CONTINUOUS
10
5.86575
20
-4.36688
11
5.86501
21
-4.3744
0
LINE
8
BLACK
6
CONTINUOUS
10
5.86501
20
-4.3744
11
5.86208
21
-4.38405
0
LINE
8
BLACK
6
CONTINUOUS
10
5.86208
20
-4.38405
11
5.85733
21
-4.39294
0
LINE
8
BLACK
6
CONTINUOUS
10
5.85733
20
-4.39294
11
5.85093
21
-4.40074
0
LINE
8
BLACK
6
CONTINUOUS
10
5.85093
20
-4.40074
11
5.84314
21
-4.40713
0
LINE
8
BLACK
6
CONTINUOUS
10
5.84314
20
-4.40713
11
5.83425
21
-4.41188
0
LINE
8
BLACK
6
CONTINUOUS
10
5.83425
20
-4.41188
11
5.8246
21
-4.41481
0
LINE
8
BLACK
6
CONTINUOUS
10
5.8246
20
-4.41481
11
5.81457
21
-4.4158
0
LINE
8
BLACK
6
CONTINUOUS
10
5.81457
20
-4.4158
11
5.80453
21
-4.41481
0
LINE
8
BLACK
6
CONTINUOUS
10
5.80453
20
-4.41481
11
5.79489
21
-4.41188
0
LINE
8
BLACK
6
CONTINUOUS
10
5.79489
20
-4.41188
11
5.78599
21
-4.40713
0
LINE
8
BLACK
6
CONTINUOUS
10
5.78599
20
-4.40713
11
5.7782
21
-4.40074
0
LINE
8
BLACK
6
CONTINUOUS
10
5.7782
20
-4.40074
11
5.77181
21
-4.39294
0
LINE
8
BLACK
6
CONTINUOUS
10
5.77181
20
-4.39294
11
5.76705
21
-4.38405
0
LINE
8
BLACK
6
CONTINUOUS
10
5.76705
20
-4.38405
11
5.76413
21
-4.3744
0
LINE
8
BLACK
6
CONTINUOUS
10
5.76413
20
-4.3744
11
5.76339
21
-4.36688
0
LINE
8
BLACK
6
CONTINUOUS
10
5.76339
20
-4.36688
11
5.76339
21
-4.28312
0
LINE
8
BLACK
6
CONTINUOUS
10
5.76339
20
-4.28312
11
5.76413
21
-4.2756
0
LINE
8
BLACK
6
CONTINUOUS
10
5.76413
20
-4.2756
11
5.76705
21
-4.26595
0
LINE
8
BLACK
6
CONTINUOUS
10
5.76705
20
-4.26595
11
5.77181
21
-4.25706
0
LINE
8
BLACK
6
CONTINUOUS
10
5.77181
20
-4.25706
11
5.7782
21
-4.24926
0
LINE
8
BLACK
6
CONTINUOUS
10
5.7782
20
-4.24926
11
5.78599
21
-4.24287
0
LINE
8
BLACK
6
CONTINUOUS
10
5.78599
20
-4.24287
11
5.79489
21
-4.23812
0
LINE
8
BLACK
6
CONTINUOUS
10
5.79489
20
-4.23812
11
5.80453
21
-4.23519
0
LINE
8
BLACK
6
CONTINUOUS
10
5.80453
20
-4.23519
11
5.81457
21
-4.2342
0
LINE
8
BLACK
6
CONTINUOUS
10
5.81457
20
-4.2342
11
5.8246
21
-4.23519
0
LINE
8
BLACK
6
CONTINUOUS
10
6.03917
20
-4.23519
11
6.04881
21
-4.23812
0
LINE
8
BLACK
6
CONTINUOUS
10
6.04881
20
-4.23812
11
6.05771
21
-4.24287
0
LINE
8
BLACK
6
CONTINUOUS
10
6.05771
20
-4.24287
11
6.0655
21
-4.24926
0
LINE
8
BLACK
6
CONTINUOUS
10
6.0655
20
-4.24926
11
6.0719
21
-4.25706
0
LINE
8
BLACK
6
CONTINUOUS
10
6.0719
20
-4.25706
11
6.07665
21
-4.26595
0
LINE
8
BLACK
6
CONTINUOUS
10
6.07665
20
-4.26595
11
6.07957
21
-4.2756
0
LINE
8
BLACK
6
CONTINUOUS
10
6.07957
20
-4.2756
11
6.08031
21
-4.28312
0
LINE
8
BLACK
6
CONTINUOUS
10
6.08031
20
-4.28312
11
6.08031
21
-4.36688
0
LINE
8
BLACK
6
CONTINUOUS
10
6.08031
20
-4.36688
11
6.07957
21
-4.3744
0
LINE
8
BLACK
6
CONTINUOUS
10
6.07957
20
-4.3744
11
6.07665
21
-4.38405
0
LINE
8
BLACK
6
CONTINUOUS
10
6.07665
20
-4.38405
11
6.0719
21
-4.39294
0
LINE
8
BLACK
6
CONTINUOUS
10
6.0719
20
-4.39294
11
6.0655
21
-4.40074
0
LINE
8
BLACK
6
CONTINUOUS
10
6.0655
20
-4.40074
11
6.05771
21
-4.40713
0
LINE
8
BLACK
6
CONTINUOUS
10
6.05771
20
-4.40713
11
6.04881
21
-4.41188
0
LINE
8
BLACK
6
CONTINUOUS
10
6.04881
20
-4.41188
11
6.03917
21
-4.41481
0
LINE
8
BLACK
6
CONTINUOUS
10
6.03917
20
-4.41481
11
6.02913
21
-4.4158
0
LINE
8
BLACK
6
CONTINUOUS
10
6.02913
20
-4.4158
11
6.0191
21
-4.41481
0
LINE
8
BLACK
6
CONTINUOUS
10
6.0191
20
-4.41481
11
6.00945
21
-4.41188
0
LINE
8
BLACK
6
CONTINUOUS
10
6.00945
20
-4.41188
11
6.00056
21
-4.40713
0
LINE
8
BLACK
6
CONTINUOUS
10
6.00056
20
-4.40713
11
5.99277
21
-4.40074
0
LINE
8
BLACK
6
CONTINUOUS
10
5.99277
20
-4.40074
11
5.98637
21
-4.39294
0
LINE
8
BLACK
6
CONTINUOUS
10
5.98637
20
-4.39294
11
5.98162
21
-4.38405
0
LINE
8
BLACK
6
CONTINUOUS
10
5.98162
20
-4.38405
11
5.97869
21
-4.3744
0
LINE
8
BLACK
6
CONTINUOUS
10
5.97869
20
-4.3744
11
5.97795
21
-4.36688
0
LINE
8
BLACK
6
CONTINUOUS
10
5.97795
20
-4.36688
11
5.97795
21
-4.28312
0
LINE
8
BLACK
6
CONTINUOUS
10
5.97795
20
-4.28312
11
5.97869
21
-4.2756
0
LINE
8
BLACK
6
CONTINUOUS
10
5.97869
20
-4.2756
11
5.98162
21
-4.26595
0
LINE
8
BLACK
6
CONTINUOUS
10
5.98162
20
-4.26595
11
5.98637
21
-4.25706
0
LINE
8
BLACK
6
CONTINUOUS
10
5.98637
20
-4.25706
11
5.99277
21
-4.24926
0
LINE
8
BLACK
6
CONTINUOUS
10
5.99277
20
-4.24926
11
6.00056
21
-4.24287
0
LINE
8
BLACK
6
CONTINUOUS
10
6.00056
20
-4.24287
11
6.00945
21
-4.23812
0
LINE
8
BLACK
6
CONTINUOUS
10
6.00945
20
-4.23812
11
6.0191
21
-4.23519
0
LINE
8
BLACK
6
CONTINUOUS
10
6.0191
20
-4.23519
11
6.02913
21
-4.2342
0
LINE
8
BLACK
6
CONTINUOUS
10
6.02913
20
-4.2342
11
6.03917
21
-4.23519
0
LINE
8
BLACK
6
CONTINUOUS
10
6.4996
20
-4.23519
11
6.50925
21
-4.23812
0
LINE
8
BLACK
6
CONTINUOUS
10
6.50925
20
-4.23812
11
6.51814
21
-4.24287
0
LINE
8
BLACK
6
CONTINUOUS
10
6.51814
20
-4.24287
11
6.52593
21
-4.24926
0
LINE
8
BLACK
6
CONTINUOUS
10
6.52593
20
-4.24926
11
6.53233
21
-4.25706
0
LINE
8
BLACK
6
CONTINUOUS
10
6.53233
20
-4.25706
11
6.53708
21
-4.26595
0
LINE
8
BLACK
6
CONTINUOUS
10
6.53708
20
-4.26595
11
6.54001
21
-4.2756
0
LINE
8
BLACK
6
CONTINUOUS
10
6.54001
20
-4.2756
11
6.54075
21
-4.28312
0
LINE
8
BLACK
6
CONTINUOUS
10
6.54075
20
-4.28312
11
6.54075
21
-4.36688
0
LINE
8
BLACK
6
CONTINUOUS
10
6.54075
20
-4.36688
11
6.54001
21
-4.3744
0
LINE
8
BLACK
6
CONTINUOUS
10
6.54001
20
-4.3744
11
6.53708
21
-4.38405
0
LINE
8
BLACK
6
CONTINUOUS
10
6.53708
20
-4.38405
11
6.53233
21
-4.39294
0
LINE
8
BLACK
6
CONTINUOUS
10
6.53233
20
-4.39294
11
6.52593
21
-4.40074
0
LINE
8
BLACK
6
CONTINUOUS
10
6.52593
20
-4.40074
11
6.51814
21
-4.40713
0
LINE
8
BLACK
6
CONTINUOUS
10
6.51814
20
-4.40713
11
6.50925
21
-4.41188
0
LINE
8
BLACK
6
CONTINUOUS
10
6.50925
20
-4.41188
11
6.4996
21
-4.41481
0
LINE
8
BLACK
6
CONTINUOUS
10
6.4996
20
-4.41481
11
6.48957
21
-4.4158
0
LINE
8
BLACK
6
CONTINUOUS
10
6.48957
20
-4.4158
11
6.47953
21
-4.41481
0
LINE
8
BLACK
6
CONTINUOUS
10
6.47953
20
-4.41481
11
6.46989
21
-4.41188
0
LINE
8
BLACK
6
CONTINUOUS
10
6.46989
20
-4.41188
11
6.46099
21
-4.40713
0
LINE
8
BLACK
6
CONTINUOUS
10
6.46099
20
-4.40713
11
6.4532
21
-4.40074
0
LINE
8
BLACK
6
CONTINUOUS
10
6.4532
20
-4.40074
11
6.44681
21
-4.39294
0
LINE
8
BLACK
6
CONTINUOUS
10
6.44681
20
-4.39294
11
6.44205
21
-4.38405
0
LINE
8
BLACK
6
CONTINUOUS
10
6.44205
20
-4.38405
11
6.43913
21
-4.3744
0
LINE
8
BLACK
6
CONTINUOUS
10
6.43913
20
-4.3744
11
6.43839
21
-4.36688
0
LINE
8
BLACK
6
CONTINUOUS
10
6.43839
20
-4.36688
11
6.43839
21
-4.28312
0
LINE
8
BLACK
6
CONTINUOUS
10
6.43839
20
-4.28312
11
6.43913
21
-4.2756
0
LINE
8
BLACK
6
CONTINUOUS
10
6.43913
20
-4.2756
11
6.44205
21
-4.26595
0
LINE
8
BLACK
6
CONTINUOUS
10
6.44205
20
-4.26595
11
6.44681
21
-4.25706
0
LINE
8
BLACK
6
CONTINUOUS
10
6.44681
20
-4.25706
11
6.4532
21
-4.24926
0
LINE
8
BLACK
6
CONTINUOUS
10
6.4532
20
-4.24926
11
6.46099
21
-4.24287
0
LINE
8
BLACK
6
CONTINUOUS
10
6.46099
20
-4.24287
11
6.46989
21
-4.23812
0
LINE
8
BLACK
6
CONTINUOUS
10
6.46989
20
-4.23812
11
6.47953
21
-4.23519
0
LINE
8
BLACK
6
CONTINUOUS
10
6.47953
20
-4.23519
11
6.48957
21
-4.2342
0
LINE
8
BLACK
6
CONTINUOUS
10
6.48957
20
-4.2342
11
6.4996
21
-4.23519
0
LINE
8
BLACK
6
CONTINUOUS
10
6.71417
20
-4.23519
11
6.72381
21
-4.23812
0
LINE
8
BLACK
6
CONTINUOUS
10
6.72381
20
-4.23812
11
6.73271
21
-4.24287
0
LINE
8
BLACK
6
CONTINUOUS
10
6.73271
20
-4.24287
11
6.7405
21
-4.24926
0
LINE
8
BLACK
6
CONTINUOUS
10
6.7405
20
-4.24926
11
6.7469
21
-4.25706
0
LINE
8
BLACK
6
CONTINUOUS
10
6.7469
20
-4.25706
11
6.75165
21
-4.26595
0
LINE
8
BLACK
6
CONTINUOUS
10
6.75165
20
-4.26595
11
6.75457
21
-4.2756
0
LINE
8
BLACK
6
CONTINUOUS
10
6.75457
20
-4.2756
11
6.75531
21
-4.28312
0
LINE
8
BLACK
6
CONTINUOUS
10
6.75531
20
-4.28312
11
6.75531
21
-4.36688
0
LINE
8
BLACK
6
CONTINUOUS
10
6.75531
20
-4.36688
11
6.75457
21
-4.3744
0
LINE
8
BLACK
6
CONTINUOUS
10
6.75457
20
-4.3744
11
6.75165
21
-4.38405
0
LINE
8
BLACK
6
CONTINUOUS
10
6.75165
20
-4.38405
11
6.7469
21
-4.39294
0
LINE
8
BLACK
6
CONTINUOUS
10
6.7469
20
-4.39294
11
6.7405
21
-4.40074
0
LINE
8
BLACK
6
CONTINUOUS
10
6.7405
20
-4.40074
11
6.73271
21
-4.40713
0
LINE
8
BLACK
6
CONTINUOUS
10
6.73271
20
-4.40713
11
6.72381
21
-4.41188
0
LINE
8
BLACK
6
CONTINUOUS
10
6.72381
20
-4.41188
11
6.71417
21
-4.41481
0
LINE
8
BLACK
6
CONTINUOUS
10
6.71417
20
-4.41481
11
6.70413
21
-4.4158
0
LINE
8
BLACK
6
CONTINUOUS
10
6.70413
20
-4.4158
11
6.6941
21
-4.41481
0
LINE
8
BLACK
6
CONTINUOUS
10
6.6941
20
-4.41481
11
6.68445
21
-4.41188
0
LINE
8
BLACK
6
CONTINUOUS
10
6.68445
20
-4.41188
11
6.67556
21
-4.40713
0
LINE
8
BLACK
6
CONTINUOUS
10
6.67556
20
-4.40713
11
6.66777
21
-4.40074
0
LINE
8
BLACK
6
CONTINUOUS
10
6.66777
20
-4.40074
11
6.66137
21
-4.39294
0
LINE
8
BLACK
6
CONTINUOUS
10
6.66137
20
-4.39294
11
6.65662
21
-4.38405
0
LINE
8
BLACK
6
CONTINUOUS
10
6.65662
20
-4.38405
11
6.65369
21
-4.3744
0
LINE
8
BLACK
6
CONTINUOUS
10
6.65369
20
-4.3744
11
6.65295
21
-4.36688
0
LINE
8
BLACK
6
CONTINUOUS
10
6.65295
20
-4.36688
11
6.65295
21
-4.28312
0
LINE
8
BLACK
6
CONTINUOUS
10
6.65295
20
-4.28312
11
6.65369
21
-4.2756
0
LINE
8
BLACK
6
CONTINUOUS
10
6.65369
20
-4.2756
11
6.65662
21
-4.26595
0
LINE
8
BLACK
6
CONTINUOUS
10
6.65662
20
-4.26595
11
6.66137
21
-4.25706
0
LINE
8
BLACK
6
CONTINUOUS
10
6.66137
20
-4.25706
11
6.66777
21
-4.24926
0
LINE
8
BLACK
6
CONTINUOUS
10
6.66777
20
-4.24926
11
6.67556
21
-4.24287
0
LINE
8
BLACK
6
CONTINUOUS
10
6.67556
20
-4.24287
11
6.68445
21
-4.23812
0
LINE
8
BLACK
6
CONTINUOUS
10
6.68445
20
-4.23812
11
6.6941
21
-4.23519
0
LINE
8
BLACK
6
CONTINUOUS
10
6.6941
20
-4.23519
11
6.70413
21
-4.2342
0
LINE
8
BLACK
6
CONTINUOUS
10
6.70413
20
-4.2342
11
6.71417
21
-4.23519
0
LINE
8
BLACK
6
CONTINUOUS
10
7.38917
20
-4.23519
11
7.39881
21
-4.23812
0
LINE
8
BLACK
6
CONTINUOUS
10
7.39881
20
-4.23812
11
7.40771
21
-4.24287
0
LINE
8
BLACK
6
CONTINUOUS
10
7.40771
20
-4.24287
11
7.4155
21
-4.24926
0
LINE
8
BLACK
6
CONTINUOUS
10
7.4155
20
-4.24926
11
7.4219
21
-4.25706
0
LINE
8
BLACK
6
CONTINUOUS
10
7.4219
20
-4.25706
11
7.42665
21
-4.26595
0
LINE
8
BLACK
6
CONTINUOUS
10
7.42665
20
-4.26595
11
7.42957
21
-4.2756
0
LINE
8
BLACK
6
CONTINUOUS
10
7.42957
20
-4.2756
11
7.43031
21
-4.28312
0
LINE
8
BLACK
6
CONTINUOUS
10
7.43031
20
-4.28312
11
7.43031
21
-4.36688
0
LINE
8
BLACK
6
CONTINUOUS
10
7.43031
20
-4.36688
11
7.42957
21
-4.3744
0
LINE
8
BLACK
6
CONTINUOUS
10
7.42957
20
-4.3744
11
7.42665
21
-4.38405
0
LINE
8
BLACK
6
CONTINUOUS
10
7.42665
20
-4.38405
11
7.4219
21
-4.39294
0
LINE
8
BLACK
6
CONTINUOUS
10
7.4219
20
-4.39294
11
7.4155
21
-4.40074
0
LINE
8
BLACK
6
CONTINUOUS
10
7.4155
20
-4.40074
11
7.40771
21
-4.40713
0
LINE
8
BLACK
6
CONTINUOUS
10
7.40771
20
-4.40713
11
7.39881
21
-4.41188
0
LINE
8
BLACK
6
CONTINUOUS
10
7.39881
20
-4.41188
11
7.38917
21
-4.41481
0
LINE
8
BLACK
6
CONTINUOUS
10
7.38917
20
-4.41481
11
7.37913
21
-4.4158
0
LINE
8
BLACK
6
CONTINUOUS
10
7.37913
20
-4.4158
11
7.3691
21
-4.41481
0
LINE
8
BLACK
6
CONTINUOUS
10
7.3691
20
-4.41481
11
7.35945
21
-4.41188
0
LINE
8
BLACK
6
CONTINUOUS
10
7.35945
20
-4.41188
11
7.35056
21
-4.40713
0
LINE
8
BLACK
6
CONTINUOUS
10
7.35056
20
-4.40713
11
7.34277
21
-4.40074
0
LINE
8
BLACK
6
CONTINUOUS
10
7.34277
20
-4.40074
11
7.33637
21
-4.39294
0
LINE
8
BLACK
6
CONTINUOUS
10
7.33637
20
-4.39294
11
7.33162
21
-4.38405
0
LINE
8
BLACK
6
CONTINUOUS
10
7.33162
20
-4.38405
11
7.32869
21
-4.3744
0
LINE
8
BLACK
6
CONTINUOUS
10
7.32869
20
-4.3744
11
7.32795
21
-4.36688
0
LINE
8
BLACK
6
CONTINUOUS
10
7.32795
20
-4.36688
11
7.32795
21
-4.28312
0
LINE
8
BLACK
6
CONTINUOUS
10
7.32795
20
-4.28312
11
7.32869
21
-4.2756
0
LINE
8
BLACK
6
CONTINUOUS
10
7.32869
20
-4.2756
11
7.33162
21
-4.26595
0
LINE
8
BLACK
6
CONTINUOUS
10
7.33162
20
-4.26595
11
7.33637
21
-4.25706
0
LINE
8
BLACK
6
CONTINUOUS
10
7.33637
20
-4.25706
11
7.34277
21
-4.24926
0
LINE
8
BLACK
6
CONTINUOUS
10
7.34277
20
-4.24926
11
7.35056
21
-4.24287
0
LINE
8
BLACK
6
CONTINUOUS
10
7.35056
20
-4.24287
11
7.35945
21
-4.23812
0
LINE
8
BLACK
6
CONTINUOUS
10
7.35945
20
-4.23812
11
7.3691
21
-4.23519
0
LINE
8
BLACK
6
CONTINUOUS
10
7.3691
20
-4.23519
11
7.37913
21
-4.2342
0
LINE
8
BLACK
6
CONTINUOUS
10
7.37913
20
-4.2342
11
7.38917
21
-4.23519
0
LINE
8
BLACK
6
CONTINUOUS
10
7.1746
20
-4.23519
11
7.18425
21
-4.23812
0
LINE
8
BLACK
6
CONTINUOUS
10
7.18425
20
-4.23812
11
7.19314
21
-4.24287
0
LINE
8
BLACK
6
CONTINUOUS
10
7.19314
20
-4.24287
11
7.20093
21
-4.24926
0
LINE
8
BLACK
6
CONTINUOUS
10
7.20093
20
-4.24926
11
7.20733
21
-4.25706
0
LINE
8
BLACK
6
CONTINUOUS
10
7.20733
20
-4.25706
11
7.21208
21
-4.26595
0
LINE
8
BLACK
6
CONTINUOUS
10
7.21208
20
-4.26595
11
7.21501
21
-4.2756
0
LINE
8
BLACK
6
CONTINUOUS
10
7.21501
20
-4.2756
11
7.21575
21
-4.28312
0
LINE
8
BLACK
6
CONTINUOUS
10
7.21575
20
-4.28312
11
7.21575
21
-4.36688
0
LINE
8
BLACK
6
CONTINUOUS
10
7.21575
20
-4.36688
11
7.21501
21
-4.3744
0
LINE
8
BLACK
6
CONTINUOUS
10
7.21501
20
-4.3744
11
7.21208
21
-4.38405
0
LINE
8
BLACK
6
CONTINUOUS
10
7.21208
20
-4.38405
11
7.20733
21
-4.39294
0
LINE
8
BLACK
6
CONTINUOUS
10
7.20733
20
-4.39294
11
7.20093
21
-4.40074
0
LINE
8
BLACK
6
CONTINUOUS
10
7.20093
20
-4.40074
11
7.19314
21
-4.40713
0
LINE
8
BLACK
6
CONTINUOUS
10
7.19314
20
-4.40713
11
7.18425
21
-4.41188
0
LINE
8
BLACK
6
CONTINUOUS
10
7.18425
20
-4.41188
11
7.1746
21
-4.41481
0
LINE
8
BLACK
6
CONTINUOUS
10
7.1746
20
-4.41481
11
7.16457
21
-4.4158
0
LINE
8
BLACK
6
CONTINUOUS
10
7.16457
20
-4.4158
11
7.15453
21
-4.41481
0
LINE
8
BLACK
6
CONTINUOUS
10
7.15453
20
-4.41481
11
7.14489
21
-4.41188
0
LINE
8
BLACK
6
CONTINUOUS
10
7.14489
20
-4.41188
11
7.13599
21
-4.40713
0
LINE
8
BLACK
6
CONTINUOUS
10
7.13599
20
-4.40713
11
7.1282
21
-4.40074
0
LINE
8
BLACK
6
CONTINUOUS
10
7.1282
20
-4.40074
11
7.12181
21
-4.39294
0
LINE
8
BLACK
6
CONTINUOUS
10
7.12181
20
-4.39294
11
7.11705
21
-4.38405
0
LINE
8
BLACK
6
CONTINUOUS
10
7.11705
20
-4.38405
11
7.11413
21
-4.3744
0
LINE
8
BLACK
6
CONTINUOUS
10
7.11413
20
-4.3744
11
7.11339
21
-4.36688
0
LINE
8
BLACK
6
CONTINUOUS
10
7.11339
20
-4.36688
11
7.11339
21
-4.28312
0
LINE
8
BLACK
6
CONTINUOUS
10
7.11339
20
-4.28312
11
7.11413
21
-4.2756
0
LINE
8
BLACK
6
CONTINUOUS
10
7.11413
20
-4.2756
11
7.11705
21
-4.26595
0
LINE
8
BLACK
6
CONTINUOUS
10
7.11705
20
-4.26595
11
7.12181
21
-4.25706
0
LINE
8
BLACK
6
CONTINUOUS
10
7.12181
20
-4.25706
11
7.1282
21
-4.24926
0
LINE
8
BLACK
6
CONTINUOUS
10
7.1282
20
-4.24926
11
7.13599
21
-4.24287
0
LINE
8
BLACK
6
CONTINUOUS
10
7.13599
20
-4.24287
11
7.14489
21
-4.23812
0
LINE
8
BLACK
6
CONTINUOUS
10
7.14489
20
-4.23812
11
7.15453
21
-4.23519
0
LINE
8
BLACK
6
CONTINUOUS
10
7.15453
20
-4.23519
11
7.16457
21
-4.2342
0
LINE
8
BLACK
6
CONTINUOUS
10
7.16457
20
-4.2342
11
7.1746
21
-4.23519
0
LINE
8
BLACK
6
CONTINUOUS
10
7.00118
20
-4.41555
11
6.89882
21
-4.41555
0
LINE
8
BLACK
6
CONTINUOUS
10
6.89882
20
-4.41555
11
6.89882
21
-4.23445
0
LINE
8
BLACK
6
CONTINUOUS
10
6.89882
20
-4.23445
11
7.00118
21
-4.23445
0
LINE
8
BLACK
6
CONTINUOUS
10
7.00118
20
-4.23445
11
7.00118
21
-4.41555
0
LINE
8
BLACK
6
CONTINUOUS
10
1.60118
20
-4.41555
11
1.49882
21
-4.41555
0
LINE
8
BLACK
6
CONTINUOUS
10
1.49882
20
-4.41555
11
1.49882
21
-4.23445
0
LINE
8
BLACK
6
CONTINUOUS
10
1.49882
20
-4.23445
11
1.60118
21
-4.23445
0
LINE
8
BLACK
6
CONTINUOUS
10
1.60118
20
-4.23445
11
1.60118
21
-4.41555
0
LINE
8
BLACK
6
CONTINUOUS
10
0.926181
20
-4.41555
11
0.823819
21
-4.41555
0
LINE
8
BLACK
6
CONTINUOUS
10
0.823819
20
-4.41555
11
0.823819
21
-4.23445
0
LINE
8
BLACK
6
CONTINUOUS
10
0.823819
20
-4.23445
11
0.926181
21
-4.23445
0
LINE
8
BLACK
6
CONTINUOUS
10
0.926181
20
-4.23445
11
0.926181
21
-4.41555
0
LINE
8
BLACK
6
CONTINUOUS
10
8.35118
20
-4.41555
11
8.24882
21
-4.41555
0
LINE
8
BLACK
6
CONTINUOUS
10
8.24882
20
-4.41555
11
8.24882
21
-4.23445
0
LINE
8
BLACK
6
CONTINUOUS
10
8.24882
20
-4.23445
11
8.35118
21
-4.23445
0
LINE
8
BLACK
6
CONTINUOUS
10
8.35118
20
-4.23445
11
8.35118
21
-4.41555
0
LINE
8
BLACK
6
CONTINUOUS
10
2.27618
20
-4.41555
11
2.17382
21
-4.41555
0
LINE
8
BLACK
6
CONTINUOUS
10
2.17382
20
-4.41555
11
2.17382
21
-4.23445
0
LINE
8
BLACK
6
CONTINUOUS
10
2.17382
20
-4.23445
11
2.27618
21
-4.23445
0
LINE
8
BLACK
6
CONTINUOUS
10
2.27618
20
-4.23445
11
2.27618
21
-4.41555
0
LINE
8
BLACK
6
CONTINUOUS
10
6.32618
20
-4.41555
11
6.22382
21
-4.41555
0
LINE
8
BLACK
6
CONTINUOUS
10
6.22382
20
-4.41555
11
6.22382
21
-4.23445
0
LINE
8
BLACK
6
CONTINUOUS
10
6.22382
20
-4.23445
11
6.32618
21
-4.23445
0
LINE
8
BLACK
6
CONTINUOUS
10
6.32618
20
-4.23445
11
6.32618
21
-4.41555
0
LINE
8
BLACK
6
CONTINUOUS
10
5.65118
20
-4.41555
11
5.54882
21
-4.41555
0
LINE
8
BLACK
6
CONTINUOUS
10
5.54882
20
-4.41555
11
5.54882
21
-4.23445
0
LINE
8
BLACK
6
CONTINUOUS
10
5.54882
20
-4.23445
11
5.65118
21
-4.23445
0
LINE
8
BLACK
6
CONTINUOUS
10
5.65118
20
-4.23445
11
5.65118
21
-4.41555
0
LINE
8
BLACK
6
CONTINUOUS
10
7.67618
20
-4.41555
11
7.57382
21
-4.41555
0
LINE
8
BLACK
6
CONTINUOUS
10
7.57382
20
-4.41555
11
7.57382
21
-4.23445
0
LINE
8
BLACK
6
CONTINUOUS
10
7.57382
20
-4.23445
11
7.67618
21
-4.23445
0
LINE
8
BLACK
6
CONTINUOUS
10
7.67618
20
-4.23445
11
7.67618
21
-4.41555
0
LINE
8
BLACK
6
CONTINUOUS
10
4.97618
20
-4.41555
11
4.87382
21
-4.41555
0
LINE
8
BLACK
6
CONTINUOUS
10
4.87382
20
-4.41555
11
4.87382
21
-4.23445
0
LINE
8
BLACK
6
CONTINUOUS
10
4.87382
20
-4.23445
11
4.97618
21
-4.23445
0
LINE
8
BLACK
6
CONTINUOUS
10
4.97618
20
-4.23445
11
4.97618
21
-4.41555
0
LINE
8
BLACK
6
CONTINUOUS
10
4.30118
20
-4.41555
11
4.19882
21
-4.41555
0
LINE
8
BLACK
6
CONTINUOUS
10
4.19882
20
-4.41555
11
4.19882
21
-4.23445
0
LINE
8
BLACK
6
CONTINUOUS
10
4.19882
20
-4.23445
11
4.30118
21
-4.23445
0
LINE
8
BLACK
6
CONTINUOUS
10
4.30118
20
-4.23445
11
4.30118
21
-4.41555
0
LINE
8
BLACK
6
CONTINUOUS
10
3.62618
20
-4.41555
11
3.52382
21
-4.41555
0
LINE
8
BLACK
6
CONTINUOUS
10
3.52382
20
-4.41555
11
3.52382
21
-4.23445
0
LINE
8
BLACK
6
CONTINUOUS
10
3.52382
20
-4.23445
11
3.62618
21
-4.23445
0
LINE
8
BLACK
6
CONTINUOUS
10
3.62618
20
-4.23445
11
3.62618
21
-4.41555
0
LINE
8
BLACK
6
CONTINUOUS
10
2.95118
20
-4.41555
11
2.84882
21
-4.41555
0
LINE
8
BLACK
6
CONTINUOUS
10
2.84882
20
-4.41555
11
2.84882
21
-4.23445
0
LINE
8
BLACK
6
CONTINUOUS
10
2.84882
20
-4.23445
11
2.95118
21
-4.23445
0
LINE
8
BLACK
6
CONTINUOUS
10
2.95118
20
-4.23445
11
2.95118
21
-4.41555
0
LINE
8
BLACK
6
CONTINUOUS
10
5.6059
20
-3.18519
11
5.61555
21
-3.18812
0
LINE
8
BLACK
6
CONTINUOUS
10
5.61555
20
-3.18812
11
5.62444
21
-3.19287
0
LINE
8
BLACK
6
CONTINUOUS
10
5.62444
20
-3.19287
11
5.63223
21
-3.19926
0
LINE
8
BLACK
6
CONTINUOUS
10
5.63223
20
-3.19926
11
5.63863
21
-3.20706
0
LINE
8
BLACK
6
CONTINUOUS
10
5.63863
20
-3.20706
11
5.64338
21
-3.21595
0
LINE
8
BLACK
6
CONTINUOUS
10
5.64338
20
-3.21595
11
5.64631
21
-3.2256
0
LINE
8
BLACK
6
CONTINUOUS
10
5.64631
20
-3.2256
11
5.64705
21
-3.23312
0
LINE
8
BLACK
6
CONTINUOUS
10
5.64705
20
-3.23312
11
5.64705
21
-3.31688
0
LINE
8
BLACK
6
CONTINUOUS
10
5.64705
20
-3.31688
11
5.64631
21
-3.3244
0
LINE
8
BLACK
6
CONTINUOUS
10
5.64631
20
-3.3244
11
5.64338
21
-3.33405
0
LINE
8
BLACK
6
CONTINUOUS
10
5.64338
20
-3.33405
11
5.63863
21
-3.34294
0
LINE
8
BLACK
6
CONTINUOUS
10
5.63863
20
-3.34294
11
5.63223
21
-3.35074
0
LINE
8
BLACK
6
CONTINUOUS
10
5.63223
20
-3.35074
11
5.62444
21
-3.35713
0
LINE
8
BLACK
6
CONTINUOUS
10
5.62444
20
-3.35713
11
5.61555
21
-3.36188
0
LINE
8
BLACK
6
CONTINUOUS
10
5.61555
20
-3.36188
11
5.6059
21
-3.36481
0
LINE
8
BLACK
6
CONTINUOUS
10
5.6059
20
-3.36481
11
5.59587
21
-3.3658
0
LINE
8
BLACK
6
CONTINUOUS
10
5.59587
20
-3.3658
11
5.58583
21
-3.36481
0
LINE
8
BLACK
6
CONTINUOUS
10
5.58583
20
-3.36481
11
5.57619
21
-3.36188
0
LINE
8
BLACK
6
CONTINUOUS
10
5.57619
20
-3.36188
11
5.56729
21
-3.35713
0
LINE
8
BLACK
6
CONTINUOUS
10
5.56729
20
-3.35713
11
5.5595
21
-3.35074
0
LINE
8
BLACK
6
CONTINUOUS
10
5.5595
20
-3.35074
11
5.5531
21
-3.34294
0
LINE
8
BLACK
6
CONTINUOUS
10
5.5531
20
-3.34294
11
5.54835
21
-3.33405
0
LINE
8
BLACK
6
CONTINUOUS
10
5.54835
20
-3.33405
11
5.54543
21
-3.3244
0
LINE
8
BLACK
6
CONTINUOUS
10
5.54543
20
-3.3244
11
5.54469
21
-3.31688
0
LINE
8
BLACK
6
CONTINUOUS
10
5.54469
20
-3.31688
11
5.54469
21
-3.23312
0
LINE
8
BLACK
6
CONTINUOUS
10
5.54469
20
-3.23312
11
5.54543
21
-3.2256
0
LINE
8
BLACK
6
CONTINUOUS
10
5.54543
20
-3.2256
11
5.54835
21
-3.21595
0
LINE
8
BLACK
6
CONTINUOUS
10
5.54835
20
-3.21595
11
5.5531
21
-3.20706
0
LINE
8
BLACK
6
CONTINUOUS
10
5.5531
20
-3.20706
11
5.5595
21
-3.19926
0
LINE
8
BLACK
6
CONTINUOUS
10
5.5595
20
-3.19926
11
5.56729
21
-3.19287
0
LINE
8
BLACK
6
CONTINUOUS
10
5.56729
20
-3.19287
11
5.57619
21
-3.18812
0
LINE
8
BLACK
6
CONTINUOUS
10
5.57619
20
-3.18812
11
5.58583
21
-3.18519
0
LINE
8
BLACK
6
CONTINUOUS
10
5.58583
20
-3.18519
11
5.59587
21
-3.1842
0
LINE
8
BLACK
6
CONTINUOUS
10
5.59587
20
-3.1842
11
5.6059
21
-3.18519
0
LINE
8
BLACK
6
CONTINUOUS
10
5.82047
20
-3.18519
11
5.83011
21
-3.18812
0
LINE
8
BLACK
6
CONTINUOUS
10
5.83011
20
-3.18812
11
5.83901
21
-3.19287
0
LINE
8
BLACK
6
CONTINUOUS
10
5.83901
20
-3.19287
11
5.8468
21
-3.19926
0
LINE
8
BLACK
6
CONTINUOUS
10
5.8468
20
-3.19926
11
5.85319
21
-3.20706
0
LINE
8
BLACK
6
CONTINUOUS
10
5.85319
20
-3.20706
11
5.85795
21
-3.21595
0
LINE
8
BLACK
6
CONTINUOUS
10
5.85795
20
-3.21595
11
5.86087
21
-3.2256
0
LINE
8
BLACK
6
CONTINUOUS
10
5.86087
20
-3.2256
11
5.86161
21
-3.23312
0
LINE
8
BLACK
6
CONTINUOUS
10
5.86161
20
-3.23312
11
5.86161
21
-3.31688
0
LINE
8
BLACK
6
CONTINUOUS
10
5.86161
20
-3.31688
11
5.86087
21
-3.3244
0
LINE
8
BLACK
6
CONTINUOUS
10
5.86087
20
-3.3244
11
5.85795
21
-3.33405
0
LINE
8
BLACK
6
CONTINUOUS
10
5.85795
20
-3.33405
11
5.85319
21
-3.34294
0
LINE
8
BLACK
6
CONTINUOUS
10
5.85319
20
-3.34294
11
5.8468
21
-3.35074
0
LINE
8
BLACK
6
CONTINUOUS
10
5.8468
20
-3.35074
11
5.83901
21
-3.35713
0
LINE
8
BLACK
6
CONTINUOUS
10
5.83901
20
-3.35713
11
5.83011
21
-3.36188
0
LINE
8
BLACK
6
CONTINUOUS
10
5.83011
20
-3.36188
11
5.82047
21
-3.36481
0
LINE
8
BLACK
6
CONTINUOUS
10
5.82047
20
-3.36481
11
5.81043
21
-3.3658
0
LINE
8
BLACK
6
CONTINUOUS
10
5.81043
20
-3.3658
11
5.8004
21
-3.36481
0
LINE
8
BLACK
6
CONTINUOUS
10
5.8004
20
-3.36481
11
5.79075
21
-3.36188
0
LINE
8
BLACK
6
CONTINUOUS
10
5.79075
20
-3.36188
11
5.78186
21
-3.35713
0
LINE
8
BLACK
6
CONTINUOUS
10
5.78186
20
-3.35713
11
5.77407
21
-3.35074
0
LINE
8
BLACK
6
CONTINUOUS
10
5.77407
20
-3.35074
11
5.76767
21
-3.34294
0
LINE
8
BLACK
6
CONTINUOUS
10
5.76767
20
-3.34294
11
5.76292
21
-3.33405
0
LINE
8
BLACK
6
CONTINUOUS
10
5.76292
20
-3.33405
11
5.75999
21
-3.3244
0
LINE
8
BLACK
6
CONTINUOUS
10
5.75999
20
-3.3244
11
5.75925
21
-3.31688
0
LINE
8
BLACK
6
CONTINUOUS
10
5.75925
20
-3.31688
11
5.75925
21
-3.23312
0
LINE
8
BLACK
6
CONTINUOUS
10
5.75925
20
-3.23312
11
5.75999
21
-3.2256
0
LINE
8
BLACK
6
CONTINUOUS
10
5.75999
20
-3.2256
11
5.76292
21
-3.21595
0
LINE
8
BLACK
6
CONTINUOUS
10
5.76292
20
-3.21595
11
5.76767
21
-3.20706
0
LINE
8
BLACK
6
CONTINUOUS
10
5.76767
20
-3.20706
11
5.77407
21
-3.19926
0
LINE
8
BLACK
6
CONTINUOUS
10
5.77407
20
-3.19926
11
5.78186
21
-3.19287
0
LINE
8
BLACK
6
CONTINUOUS
10
5.78186
20
-3.19287
11
5.79075
21
-3.18812
0
LINE
8
BLACK
6
CONTINUOUS
10
5.79075
20
-3.18812
11
5.8004
21
-3.18519
0
LINE
8
BLACK
6
CONTINUOUS
10
5.8004
20
-3.18519
11
5.81043
21
-3.1842
0
LINE
8
BLACK
6
CONTINUOUS
10
5.81043
20
-3.1842
11
5.82047
21
-3.18519
0
LINE
8
BLACK
6
CONTINUOUS
10
4.9309
20
-3.18519
11
4.94055
21
-3.18812
0
LINE
8
BLACK
6
CONTINUOUS
10
4.94055
20
-3.18812
11
4.94944
21
-3.19287
0
LINE
8
BLACK
6
CONTINUOUS
10
4.94944
20
-3.19287
11
4.95723
21
-3.19926
0
LINE
8
BLACK
6
CONTINUOUS
10
4.95723
20
-3.19926
11
4.96363
21
-3.20706
0
LINE
8
BLACK
6
CONTINUOUS
10
4.96363
20
-3.20706
11
4.96838
21
-3.21595
0
LINE
8
BLACK
6
CONTINUOUS
10
4.96838
20
-3.21595
11
4.97131
21
-3.2256
0
LINE
8
BLACK
6
CONTINUOUS
10
4.97131
20
-3.2256
11
4.97205
21
-3.23312
0
LINE
8
BLACK
6
CONTINUOUS
10
4.97205
20
-3.23312
11
4.97205
21
-3.31688
0
LINE
8
BLACK
6
CONTINUOUS
10
4.97205
20
-3.31688
11
4.97131
21
-3.3244
0
LINE
8
BLACK
6
CONTINUOUS
10
4.97131
20
-3.3244
11
4.96838
21
-3.33405
0
LINE
8
BLACK
6
CONTINUOUS
10
4.96838
20
-3.33405
11
4.96363
21
-3.34294
0
LINE
8
BLACK
6
CONTINUOUS
10
4.96363
20
-3.34294
11
4.95723
21
-3.35074
0
LINE
8
BLACK
6
CONTINUOUS
10
4.95723
20
-3.35074
11
4.94944
21
-3.35713
0
LINE
8
BLACK
6
CONTINUOUS
10
4.94944
20
-3.35713
11
4.94055
21
-3.36188
0
LINE
8
BLACK
6
CONTINUOUS
10
4.94055
20
-3.36188
11
4.9309
21
-3.36481
0
LINE
8
BLACK
6
CONTINUOUS
10
4.9309
20
-3.36481
11
4.92087
21
-3.3658
0
LINE
8
BLACK
6
CONTINUOUS
10
4.92087
20
-3.3658
11
4.91083
21
-3.36481
0
LINE
8
BLACK
6
CONTINUOUS
10
4.91083
20
-3.36481
11
4.90119
21
-3.36188
0
LINE
8
BLACK
6
CONTINUOUS
10
4.90119
20
-3.36188
11
4.89229
21
-3.35713
0
LINE
8
BLACK
6
CONTINUOUS
10
4.89229
20
-3.35713
11
4.8845
21
-3.35074
0
LINE
8
BLACK
6
CONTINUOUS
10
4.8845
20
-3.35074
11
4.8781
21
-3.34294
0
LINE
8
BLACK
6
CONTINUOUS
10
4.8781
20
-3.34294
11
4.87335
21
-3.33405
0
LINE
8
BLACK
6
CONTINUOUS
10
4.87335
20
-3.33405
11
4.87043
21
-3.3244
0
LINE
8
BLACK
6
CONTINUOUS
10
4.87043
20
-3.3244
11
4.86969
21
-3.31688
0
LINE
8
BLACK
6
CONTINUOUS
10
4.86969
20
-3.31688
11
4.86969
21
-3.23312
0
LINE
8
BLACK
6
CONTINUOUS
10
4.86969
20
-3.23312
11
4.87043
21
-3.2256
0
LINE
8
BLACK
6
CONTINUOUS
10
4.87043
20
-3.2256
11
4.87335
21
-3.21595
0
LINE
8
BLACK
6
CONTINUOUS
10
4.87335
20
-3.21595
11
4.8781
21
-3.20706
0
LINE
8
BLACK
6
CONTINUOUS
10
4.8781
20
-3.20706
11
4.8845
21
-3.19926
0
LINE
8
BLACK
6
CONTINUOUS
10
4.8845
20
-3.19926
11
4.89229
21
-3.19287
0
LINE
8
BLACK
6
CONTINUOUS
10
4.89229
20
-3.19287
11
4.90119
21
-3.18812
0
LINE
8
BLACK
6
CONTINUOUS
10
4.90119
20
-3.18812
11
4.91083
21
-3.18519
0
LINE
8
BLACK
6
CONTINUOUS
10
4.91083
20
-3.18519
11
4.92087
21
-3.1842
0
LINE
8
BLACK
6
CONTINUOUS
10
4.92087
20
-3.1842
11
4.9309
21
-3.18519
0
LINE
8
BLACK
6
CONTINUOUS
10
5.14547
20
-3.18519
11
5.15511
21
-3.18812
0
LINE
8
BLACK
6
CONTINUOUS
10
5.15511
20
-3.18812
11
5.16401
21
-3.19287
0
LINE
8
BLACK
6
CONTINUOUS
10
5.16401
20
-3.19287
11
5.1718
21
-3.19926
0
LINE
8
BLACK
6
CONTINUOUS
10
5.1718
20
-3.19926
11
5.17819
21
-3.20706
0
LINE
8
BLACK
6
CONTINUOUS
10
5.17819
20
-3.20706
11
5.18295
21
-3.21595
0
LINE
8
BLACK
6
CONTINUOUS
10
5.18295
20
-3.21595
11
5.18587
21
-3.2256
0
LINE
8
BLACK
6
CONTINUOUS
10
5.18587
20
-3.2256
11
5.18661
21
-3.23312
0
LINE
8
BLACK
6
CONTINUOUS
10
5.18661
20
-3.23312
11
5.18661
21
-3.31688
0
LINE
8
BLACK
6
CONTINUOUS
10
5.18661
20
-3.31688
11
5.18587
21
-3.3244
0
LINE
8
BLACK
6
CONTINUOUS
10
5.18587
20
-3.3244
11
5.18295
21
-3.33405
0
LINE
8
BLACK
6
CONTINUOUS
10
5.18295
20
-3.33405
11
5.17819
21
-3.34294
0
LINE
8
BLACK
6
CONTINUOUS
10
5.17819
20
-3.34294
11
5.1718
21
-3.35074
0
LINE
8
BLACK
6
CONTINUOUS
10
5.1718
20
-3.35074
11
5.16401
21
-3.35713
0
LINE
8
BLACK
6
CONTINUOUS
10
5.16401
20
-3.35713
11
5.15511
21
-3.36188
0
LINE
8
BLACK
6
CONTINUOUS
10
5.15511
20
-3.36188
11
5.14547
21
-3.36481
0
LINE
8
BLACK
6
CONTINUOUS
10
5.14547
20
-3.36481
11
5.13543
21
-3.3658
0
LINE
8
BLACK
6
CONTINUOUS
10
5.13543
20
-3.3658
11
5.1254
21
-3.36481
0
LINE
8
BLACK
6
CONTINUOUS
10
5.1254
20
-3.36481
11
5.11575
21
-3.36188
0
LINE
8
BLACK
6
CONTINUOUS
10
5.11575
20
-3.36188
11
5.10686
21
-3.35713
0
LINE
8
BLACK
6
CONTINUOUS
10
5.10686
20
-3.35713
11
5.09907
21
-3.35074
0
LINE
8
BLACK
6
CONTINUOUS
10
5.09907
20
-3.35074
11
5.09267
21
-3.34294
0
LINE
8
BLACK
6
CONTINUOUS
10
5.09267
20
-3.34294
11
5.08792
21
-3.33405
0
LINE
8
BLACK
6
CONTINUOUS
10
5.08792
20
-3.33405
11
5.08499
21
-3.3244
0
LINE
8
BLACK
6
CONTINUOUS
10
5.08499
20
-3.3244
11
5.08425
21
-3.31688
0
LINE
8
BLACK
6
CONTINUOUS
10
5.08425
20
-3.31688
11
5.08425
21
-3.23312
0
LINE
8
BLACK
6
CONTINUOUS
10
5.08425
20
-3.23312
11
5.08499
21
-3.2256
0
LINE
8
BLACK
6
CONTINUOUS
10
5.08499
20
-3.2256
11
5.08792
21
-3.21595
0
LINE
8
BLACK
6
CONTINUOUS
10
5.08792
20
-3.21595
11
5.09267
21
-3.20706
0
LINE
8
BLACK
6
CONTINUOUS
10
5.09267
20
-3.20706
11
5.09907
21
-3.19926
0
LINE
8
BLACK
6
CONTINUOUS
10
5.09907
20
-3.19926
11
5.10686
21
-3.19287
0
LINE
8
BLACK
6
CONTINUOUS
10
5.10686
20
-3.19287
11
5.11575
21
-3.18812
0
LINE
8
BLACK
6
CONTINUOUS
10
5.11575
20
-3.18812
11
5.1254
21
-3.18519
0
LINE
8
BLACK
6
CONTINUOUS
10
5.1254
20
-3.18519
11
5.13543
21
-3.1842
0
LINE
8
BLACK
6
CONTINUOUS
10
5.13543
20
-3.1842
11
5.14547
21
-3.18519
0
LINE
8
BLACK
6
CONTINUOUS
10
4.2559
20
-3.18519
11
4.26555
21
-3.18812
0
LINE
8
BLACK
6
CONTINUOUS
10
4.26555
20
-3.18812
11
4.27444
21
-3.19287
0
LINE
8
BLACK
6
CONTINUOUS
10
4.27444
20
-3.19287
11
4.28223
21
-3.19926
0
LINE
8
BLACK
6
CONTINUOUS
10
4.28223
20
-3.19926
11
4.28863
21
-3.20706
0
LINE
8
BLACK
6
CONTINUOUS
10
4.28863
20
-3.20706
11
4.29338
21
-3.21595
0
LINE
8
BLACK
6
CONTINUOUS
10
4.29338
20
-3.21595
11
4.29631
21
-3.2256
0
LINE
8
BLACK
6
CONTINUOUS
10
4.29631
20
-3.2256
11
4.29705
21
-3.23312
0
LINE
8
BLACK
6
CONTINUOUS
10
4.29705
20
-3.23312
11
4.29705
21
-3.31688
0
LINE
8
BLACK
6
CONTINUOUS
10
4.29705
20
-3.31688
11
4.29631
21
-3.3244
0
LINE
8
BLACK
6
CONTINUOUS
10
4.29631
20
-3.3244
11
4.29338
21
-3.33405
0
LINE
8
BLACK
6
CONTINUOUS
10
4.29338
20
-3.33405
11
4.28863
21
-3.34294
0
LINE
8
BLACK
6
CONTINUOUS
10
4.28863
20
-3.34294
11
4.28223
21
-3.35074
0
LINE
8
BLACK
6
CONTINUOUS
10
4.28223
20
-3.35074
11
4.27444
21
-3.35713
0
LINE
8
BLACK
6
CONTINUOUS
10
4.27444
20
-3.35713
11
4.26555
21
-3.36188
0
LINE
8
BLACK
6
CONTINUOUS
10
4.26555
20
-3.36188
11
4.2559
21
-3.36481
0
LINE
8
BLACK
6
CONTINUOUS
10
4.2559
20
-3.36481
11
4.24587
21
-3.3658
0
LINE
8
BLACK
6
CONTINUOUS
10
4.24587
20
-3.3658
11
4.23583
21
-3.36481
0
LINE
8
BLACK
6
CONTINUOUS
10
4.23583
20
-3.36481
11
4.22619
21
-3.36188
0
LINE
8
BLACK
6
CONTINUOUS
10
4.22619
20
-3.36188
11
4.21729
21
-3.35713
0
LINE
8
BLACK
6
CONTINUOUS
10
4.21729
20
-3.35713
11
4.2095
21
-3.35074
0
LINE
8
BLACK
6
CONTINUOUS
10
4.2095
20
-3.35074
11
4.2031
21
-3.34294
0
LINE
8
BLACK
6
CONTINUOUS
10
4.2031
20
-3.34294
11
4.19835
21
-3.33405
0
LINE
8
BLACK
6
CONTINUOUS
10
4.19835
20
-3.33405
11
4.19543
21
-3.3244
0
LINE
8
BLACK
6
CONTINUOUS
10
4.19543
20
-3.3244
11
4.19469
21
-3.31688
0
LINE
8
BLACK
6
CONTINUOUS
10
4.19469
20
-3.31688
11
4.19469
21
-3.23312
0
LINE
8
BLACK
6
CONTINUOUS
10
4.19469
20
-3.23312
11
4.19543
21
-3.2256
0
LINE
8
BLACK
6
CONTINUOUS
10
4.19543
20
-3.2256
11
4.19835
21
-3.21595
0
LINE
8
BLACK
6
CONTINUOUS
10
4.19835
20
-3.21595
11
4.2031
21
-3.20706
0
LINE
8
BLACK
6
CONTINUOUS
10
4.2031
20
-3.20706
11
4.2095
21
-3.19926
0
LINE
8
BLACK
6
CONTINUOUS
10
4.2095
20
-3.19926
11
4.21729
21
-3.19287
0
LINE
8
BLACK
6
CONTINUOUS
10
4.21729
20
-3.19287
11
4.22619
21
-3.18812
0
LINE
8
BLACK
6
CONTINUOUS
10
4.22619
20
-3.18812
11
4.23583
21
-3.18519
0
LINE
8
BLACK
6
CONTINUOUS
10
4.23583
20
-3.18519
11
4.24587
21
-3.1842
0
LINE
8
BLACK
6
CONTINUOUS
10
4.24587
20
-3.1842
11
4.2559
21
-3.18519
0
LINE
8
BLACK
6
CONTINUOUS
10
4.47047
20
-3.18519
11
4.48011
21
-3.18812
0
LINE
8
BLACK
6
CONTINUOUS
10
4.48011
20
-3.18812
11
4.48901
21
-3.19287
0
LINE
8
BLACK
6
CONTINUOUS
10
4.48901
20
-3.19287
11
4.4968
21
-3.19926
0
LINE
8
BLACK
6
CONTINUOUS
10
4.4968
20
-3.19926
11
4.50319
21
-3.20706
0
LINE
8
BLACK
6
CONTINUOUS
10
4.50319
20
-3.20706
11
4.50795
21
-3.21595
0
LINE
8
BLACK
6
CONTINUOUS
10
4.50795
20
-3.21595
11
4.51087
21
-3.2256
0
LINE
8
BLACK
6
CONTINUOUS
10
4.51087
20
-3.2256
11
4.51161
21
-3.23312
0
LINE
8
BLACK
6
CONTINUOUS
10
4.51161
20
-3.23312
11
4.51161
21
-3.31688
0
LINE
8
BLACK
6
CONTINUOUS
10
4.51161
20
-3.31688
11
4.51087
21
-3.3244
0
LINE
8
BLACK
6
CONTINUOUS
10
4.51087
20
-3.3244
11
4.50795
21
-3.33405
0
LINE
8
BLACK
6
CONTINUOUS
10
4.50795
20
-3.33405
11
4.50319
21
-3.34294
0
LINE
8
BLACK
6
CONTINUOUS
10
4.50319
20
-3.34294
11
4.4968
21
-3.35074
0
LINE
8
BLACK
6
CONTINUOUS
10
4.4968
20
-3.35074
11
4.48901
21
-3.35713
0
LINE
8
BLACK
6
CONTINUOUS
10
4.48901
20
-3.35713
11
4.48011
21
-3.36188
0
LINE
8
BLACK
6
CONTINUOUS
10
4.48011
20
-3.36188
11
4.47047
21
-3.36481
0
LINE
8
BLACK
6
CONTINUOUS
10
4.47047
20
-3.36481
11
4.46043
21
-3.3658
0
LINE
8
BLACK
6
CONTINUOUS
10
4.46043
20
-3.3658
11
4.4504
21
-3.36481
0
LINE
8
BLACK
6
CONTINUOUS
10
4.4504
20
-3.36481
11
4.44075
21
-3.36188
0
LINE
8
BLACK
6
CONTINUOUS
10
4.44075
20
-3.36188
11
4.43186
21
-3.35713
0
LINE
8
BLACK
6
CONTINUOUS
10
4.43186
20
-3.35713
11
4.42407
21
-3.35074
0
LINE
8
BLACK
6
CONTINUOUS
10
4.42407
20
-3.35074
11
4.41767
21
-3.34294
0
LINE
8
BLACK
6
CONTINUOUS
10
4.41767
20
-3.34294
11
4.41292
21
-3.33405
0
LINE
8
BLACK
6
CONTINUOUS
10
4.41292
20
-3.33405
11
4.40999
21
-3.3244
0
LINE
8
BLACK
6
CONTINUOUS
10
4.40999
20
-3.3244
11
4.40925
21
-3.31688
0
LINE
8
BLACK
6
CONTINUOUS
10
4.40925
20
-3.31688
11
4.40925
21
-3.23312
0
LINE
8
BLACK
6
CONTINUOUS
10
4.40925
20
-3.23312
11
4.40999
21
-3.2256
0
LINE
8
BLACK
6
CONTINUOUS
10
4.40999
20
-3.2256
11
4.41292
21
-3.21595
0
LINE
8
BLACK
6
CONTINUOUS
10
4.41292
20
-3.21595
11
4.41767
21
-3.20706
0
LINE
8
BLACK
6
CONTINUOUS
10
4.41767
20
-3.20706
11
4.42407
21
-3.19926
0
LINE
8
BLACK
6
CONTINUOUS
10
4.42407
20
-3.19926
11
4.43186
21
-3.19287
0
LINE
8
BLACK
6
CONTINUOUS
10
4.43186
20
-3.19287
11
4.44075
21
-3.18812
0
LINE
8
BLACK
6
CONTINUOUS
10
4.44075
20
-3.18812
11
4.4504
21
-3.18519
0
LINE
8
BLACK
6
CONTINUOUS
10
4.4504
20
-3.18519
11
4.46043
21
-3.1842
0
LINE
8
BLACK
6
CONTINUOUS
10
4.46043
20
-3.1842
11
4.47047
21
-3.18519
0
LINE
8
BLACK
6
CONTINUOUS
10
3.5809
20
-3.18519
11
3.59055
21
-3.18812
0
LINE
8
BLACK
6
CONTINUOUS
10
3.59055
20
-3.18812
11
3.59944
21
-3.19287
0
LINE
8
BLACK
6
CONTINUOUS
10
3.59944
20
-3.19287
11
3.60723
21
-3.19926
0
LINE
8
BLACK
6
CONTINUOUS
10
3.60723
20
-3.19926
11
3.61363
21
-3.20706
0
LINE
8
BLACK
6
CONTINUOUS
10
3.61363
20
-3.20706
11
3.61838
21
-3.21595
0
LINE
8
BLACK
6
CONTINUOUS
10
3.61838
20
-3.21595
11
3.62131
21
-3.2256
0
LINE
8
BLACK
6
CONTINUOUS
10
3.62131
20
-3.2256
11
3.62205
21
-3.23312
0
LINE
8
BLACK
6
CONTINUOUS
10
3.62205
20
-3.23312
11
3.62205
21
-3.31688
0
LINE
8
BLACK
6
CONTINUOUS
10
3.62205
20
-3.31688
11
3.62131
21
-3.3244
0
LINE
8
BLACK
6
CONTINUOUS
10
3.62131
20
-3.3244
11
3.61838
21
-3.33405
0
LINE
8
BLACK
6
CONTINUOUS
10
3.61838
20
-3.33405
11
3.61363
21
-3.34294
0
LINE
8
BLACK
6
CONTINUOUS
10
3.61363
20
-3.34294
11
3.60723
21
-3.35074
0
LINE
8
BLACK
6
CONTINUOUS
10
3.60723
20
-3.35074
11
3.59944
21
-3.35713
0
LINE
8
BLACK
6
CONTINUOUS
10
3.59944
20
-3.35713
11
3.59055
21
-3.36188
0
LINE
8
BLACK
6
CONTINUOUS
10
3.59055
20
-3.36188
11
3.5809
21
-3.36481
0
LINE
8
BLACK
6
CONTINUOUS
10
3.5809
20
-3.36481
11
3.57087
21
-3.3658
0
LINE
8
BLACK
6
CONTINUOUS
10
3.57087
20
-3.3658
11
3.56083
21
-3.36481
0
LINE
8
BLACK
6
CONTINUOUS
10
3.56083
20
-3.36481
11
3.55119
21
-3.36188
0
LINE
8
BLACK
6
CONTINUOUS
10
3.55119
20
-3.36188
11
3.54229
21
-3.35713
0
LINE
8
BLACK
6
CONTINUOUS
10
3.54229
20
-3.35713
11
3.5345
21
-3.35074
0
LINE
8
BLACK
6
CONTINUOUS
10
3.5345
20
-3.35074
11
3.5281
21
-3.34294
0
LINE
8
BLACK
6
CONTINUOUS
10
3.5281
20
-3.34294
11
3.52335
21
-3.33405
0
LINE
8
BLACK
6
CONTINUOUS
10
3.52335
20
-3.33405
11
3.52043
21
-3.3244
0
LINE
8
BLACK
6
CONTINUOUS
10
3.52043
20
-3.3244
11
3.51969
21
-3.31688
0
LINE
8
BLACK
6
CONTINUOUS
10
3.51969
20
-3.31688
11
3.51969
21
-3.23312
0
LINE
8
BLACK
6
CONTINUOUS
10
3.51969
20
-3.23312
11
3.52043
21
-3.2256
0
LINE
8
BLACK
6
CONTINUOUS
10
3.52043
20
-3.2256
11
3.52335
21
-3.21595
0
LINE
8
BLACK
6
CONTINUOUS
10
3.52335
20
-3.21595
11
3.5281
21
-3.20706
0
LINE
8
BLACK
6
CONTINUOUS
10
3.5281
20
-3.20706
11
3.5345
21
-3.19926
0
LINE
8
BLACK
6
CONTINUOUS
10
3.5345
20
-3.19926
11
3.54229
21
-3.19287
0
LINE
8
BLACK
6
CONTINUOUS
10
3.54229
20
-3.19287
11
3.55119
21
-3.18812
0
LINE
8
BLACK
6
CONTINUOUS
10
3.55119
20
-3.18812
11
3.56083
21
-3.18519
0
LINE
8
BLACK
6
CONTINUOUS
10
3.56083
20
-3.18519
11
3.57087
21
-3.1842
0
LINE
8
BLACK
6
CONTINUOUS
10
3.57087
20
-3.1842
11
3.5809
21
-3.18519
0
LINE
8
BLACK
6
CONTINUOUS
10
3.79547
20
-3.18519
11
3.80511
21
-3.18812
0
LINE
8
BLACK
6
CONTINUOUS
10
3.80511
20
-3.18812
11
3.81401
21
-3.19287
0
LINE
8
BLACK
6
CONTINUOUS
10
3.81401
20
-3.19287
11
3.8218
21
-3.19926
0
LINE
8
BLACK
6
CONTINUOUS
10
3.8218
20
-3.19926
11
3.82819
21
-3.20706
0
LINE
8
BLACK
6
CONTINUOUS
10
3.82819
20
-3.20706
11
3.83295
21
-3.21595
0
LINE
8
BLACK
6
CONTINUOUS
10
3.83295
20
-3.21595
11
3.83587
21
-3.2256
0
LINE
8
BLACK
6
CONTINUOUS
10
3.83587
20
-3.2256
11
3.83661
21
-3.23312
0
LINE
8
BLACK
6
CONTINUOUS
10
3.83661
20
-3.23312
11
3.83661
21
-3.31688
0
LINE
8
BLACK
6
CONTINUOUS
10
3.83661
20
-3.31688
11
3.83587
21
-3.3244
0
LINE
8
BLACK
6
CONTINUOUS
10
3.83587
20
-3.3244
11
3.83295
21
-3.33405
0
LINE
8
BLACK
6
CONTINUOUS
10
3.83295
20
-3.33405
11
3.82819
21
-3.34294
0
LINE
8
BLACK
6
CONTINUOUS
10
3.82819
20
-3.34294
11
3.8218
21
-3.35074
0
LINE
8
BLACK
6
CONTINUOUS
10
3.8218
20
-3.35074
11
3.81401
21
-3.35713
0
LINE
8
BLACK
6
CONTINUOUS
10
3.81401
20
-3.35713
11
3.80511
21
-3.36188
0
LINE
8
BLACK
6
CONTINUOUS
10
3.80511
20
-3.36188
11
3.79547
21
-3.36481
0
LINE
8
BLACK
6
CONTINUOUS
10
3.79547
20
-3.36481
11
3.78543
21
-3.3658
0
LINE
8
BLACK
6
CONTINUOUS
10
3.78543
20
-3.3658
11
3.7754
21
-3.36481
0
LINE
8
BLACK
6
CONTINUOUS
10
3.7754
20
-3.36481
11
3.76575
21
-3.36188
0
LINE
8
BLACK
6
CONTINUOUS
10
3.76575
20
-3.36188
11
3.75686
21
-3.35713
0
LINE
8
BLACK
6
CONTINUOUS
10
3.75686
20
-3.35713
11
3.74907
21
-3.35074
0
LINE
8
BLACK
6
CONTINUOUS
10
3.74907
20
-3.35074
11
3.74267
21
-3.34294
0
LINE
8
BLACK
6
CONTINUOUS
10
3.74267
20
-3.34294
11
3.73792
21
-3.33405
0
LINE
8
BLACK
6
CONTINUOUS
10
3.73792
20
-3.33405
11
3.73499
21
-3.3244
0
LINE
8
BLACK
6
CONTINUOUS
10
3.73499
20
-3.3244
11
3.73425
21
-3.31688
0
LINE
8
BLACK
6
CONTINUOUS
10
3.73425
20
-3.31688
11
3.73425
21
-3.23312
0
LINE
8
BLACK
6
CONTINUOUS
10
3.73425
20
-3.23312
11
3.73499
21
-3.2256
0
LINE
8
BLACK
6
CONTINUOUS
10
3.73499
20
-3.2256
11
3.73792
21
-3.21595
0
LINE
8
BLACK
6
CONTINUOUS
10
3.73792
20
-3.21595
11
3.74267
21
-3.20706
0
LINE
8
BLACK
6
CONTINUOUS
10
3.74267
20
-3.20706
11
3.74907
21
-3.19926
0
LINE
8
BLACK
6
CONTINUOUS
10
3.74907
20
-3.19926
11
3.75686
21
-3.19287
0
LINE
8
BLACK
6
CONTINUOUS
10
3.75686
20
-3.19287
11
3.76575
21
-3.18812
0
LINE
8
BLACK
6
CONTINUOUS
10
3.76575
20
-3.18812
11
3.7754
21
-3.18519
0
LINE
8
BLACK
6
CONTINUOUS
10
3.7754
20
-3.18519
11
3.78543
21
-3.1842
0
LINE
8
BLACK
6
CONTINUOUS
10
3.78543
20
-3.1842
11
3.79547
21
-3.18519
0
LINE
8
BLACK
6
CONTINUOUS
10
2.9059
20
-3.18519
11
2.91555
21
-3.18812
0
LINE
8
BLACK
6
CONTINUOUS
10
2.91555
20
-3.18812
11
2.92444
21
-3.19287
0
LINE
8
BLACK
6
CONTINUOUS
10
2.92444
20
-3.19287
11
2.93223
21
-3.19926
0
LINE
8
BLACK
6
CONTINUOUS
10
2.93223
20
-3.19926
11
2.93863
21
-3.20706
0
LINE
8
BLACK
6
CONTINUOUS
10
2.93863
20
-3.20706
11
2.94338
21
-3.21595
0
LINE
8
BLACK
6
CONTINUOUS
10
2.94338
20
-3.21595
11
2.94631
21
-3.2256
0
LINE
8
BLACK
6
CONTINUOUS
10
2.94631
20
-3.2256
11
2.94705
21
-3.23312
0
LINE
8
BLACK
6
CONTINUOUS
10
2.94705
20
-3.23312
11
2.94705
21
-3.31688
0
LINE
8
BLACK
6
CONTINUOUS
10
2.94705
20
-3.31688
11
2.94631
21
-3.3244
0
LINE
8
BLACK
6
CONTINUOUS
10
2.94631
20
-3.3244
11
2.94338
21
-3.33405
0
LINE
8
BLACK
6
CONTINUOUS
10
2.94338
20
-3.33405
11
2.93863
21
-3.34294
0
LINE
8
BLACK
6
CONTINUOUS
10
2.93863
20
-3.34294
11
2.93223
21
-3.35074
0
LINE
8
BLACK
6
CONTINUOUS
10
2.93223
20
-3.35074
11
2.92444
21
-3.35713
0
LINE
8
BLACK
6
CONTINUOUS
10
2.92444
20
-3.35713
11
2.91555
21
-3.36188
0
LINE
8
BLACK
6
CONTINUOUS
10
2.91555
20
-3.36188
11
2.9059
21
-3.36481
0
LINE
8
BLACK
6
CONTINUOUS
10
2.9059
20
-3.36481
11
2.89587
21
-3.3658
0
LINE
8
BLACK
6
CONTINUOUS
10
2.89587
20
-3.3658
11
2.88583
21
-3.36481
0
LINE
8
BLACK
6
CONTINUOUS
10
2.88583
20
-3.36481
11
2.87619
21
-3.36188
0
LINE
8
BLACK
6
CONTINUOUS
10
2.87619
20
-3.36188
11
2.86729
21
-3.35713
0
LINE
8
BLACK
6
CONTINUOUS
10
2.86729
20
-3.35713
11
2.8595
21
-3.35074
0
LINE
8
BLACK
6
CONTINUOUS
10
2.8595
20
-3.35074
11
2.8531
21
-3.34294
0
LINE
8
BLACK
6
CONTINUOUS
10
2.8531
20
-3.34294
11
2.84835
21
-3.33405
0
LINE
8
BLACK
6
CONTINUOUS
10
2.84835
20
-3.33405
11
2.84543
21
-3.3244
0
LINE
8
BLACK
6
CONTINUOUS
10
2.84543
20
-3.3244
11
2.84469
21
-3.31688
0
LINE
8
BLACK
6
CONTINUOUS
10
2.84469
20
-3.31688
11
2.84469
21
-3.23312
0
LINE
8
BLACK
6
CONTINUOUS
10
2.84469
20
-3.23312
11
2.84543
21
-3.2256
0
LINE
8
BLACK
6
CONTINUOUS
10
2.84543
20
-3.2256
11
2.84835
21
-3.21595
0
LINE
8
BLACK
6
CONTINUOUS
10
2.84835
20
-3.21595
11
2.8531
21
-3.20706
0
LINE
8
BLACK
6
CONTINUOUS
10
2.8531
20
-3.20706
11
2.8595
21
-3.19926
0
LINE
8
BLACK
6
CONTINUOUS
10
2.8595
20
-3.19926
11
2.86729
21
-3.19287
0
LINE
8
BLACK
6
CONTINUOUS
10
2.86729
20
-3.19287
11
2.87619
21
-3.18812
0
LINE
8
BLACK
6
CONTINUOUS
10
2.87619
20
-3.18812
11
2.88583
21
-3.18519
0
LINE
8
BLACK
6
CONTINUOUS
10
2.88583
20
-3.18519
11
2.89587
21
-3.1842
0
LINE
8
BLACK
6
CONTINUOUS
10
2.89587
20
-3.1842
11
2.9059
21
-3.18519
0
LINE
8
BLACK
6
CONTINUOUS
10
3.12047
20
-3.18519
11
3.13011
21
-3.18812
0
LINE
8
BLACK
6
CONTINUOUS
10
3.13011
20
-3.18812
11
3.13901
21
-3.19287
0
LINE
8
BLACK
6
CONTINUOUS
10
3.13901
20
-3.19287
11
3.1468
21
-3.19926
0
LINE
8
BLACK
6
CONTINUOUS
10
3.1468
20
-3.19926
11
3.15319
21
-3.20706
0
LINE
8
BLACK
6
CONTINUOUS
10
3.15319
20
-3.20706
11
3.15795
21
-3.21595
0
LINE
8
BLACK
6
CONTINUOUS
10
3.15795
20
-3.21595
11
3.16087
21
-3.2256
0
LINE
8
BLACK
6
CONTINUOUS
10
3.16087
20
-3.2256
11
3.16161
21
-3.23312
0
LINE
8
BLACK
6
CONTINUOUS
10
3.16161
20
-3.23312
11
3.16161
21
-3.31688
0
LINE
8
BLACK
6
CONTINUOUS
10
3.16161
20
-3.31688
11
3.16087
21
-3.3244
0
LINE
8
BLACK
6
CONTINUOUS
10
3.16087
20
-3.3244
11
3.15795
21
-3.33405
0
LINE
8
BLACK
6
CONTINUOUS
10
3.15795
20
-3.33405
11
3.15319
21
-3.34294
0
LINE
8
BLACK
6
CONTINUOUS
10
3.15319
20
-3.34294
11
3.1468
21
-3.35074
0
LINE
8
BLACK
6
CONTINUOUS
10
3.1468
20
-3.35074
11
3.13901
21
-3.35713
0
LINE
8
BLACK
6
CONTINUOUS
10
3.13901
20
-3.35713
11
3.13011
21
-3.36188
0
LINE
8
BLACK
6
CONTINUOUS
10
3.13011
20
-3.36188
11
3.12047
21
-3.36481
0
LINE
8
BLACK
6
CONTINUOUS
10
3.12047
20
-3.36481
11
3.11043
21
-3.3658
0
LINE
8
BLACK
6
CONTINUOUS
10
3.11043
20
-3.3658
11
3.1004
21
-3.36481
0
LINE
8
BLACK
6
CONTINUOUS
10
3.1004
20
-3.36481
11
3.09075
21
-3.36188
0
LINE
8
BLACK
6
CONTINUOUS
10
3.09075
20
-3.36188
11
3.08186
21
-3.35713
0
LINE
8
BLACK
6
CONTINUOUS
10
3.08186
20
-3.35713
11
3.07407
21
-3.35074
0
LINE
8
BLACK
6
CONTINUOUS
10
3.07407
20
-3.35074
11
3.06767
21
-3.34294
0
LINE
8
BLACK
6
CONTINUOUS
10
3.06767
20
-3.34294
11
3.06292
21
-3.33405
0
LINE
8
BLACK
6
CONTINUOUS
10
3.06292
20
-3.33405
11
3.05999
21
-3.3244
0
LINE
8
BLACK
6
CONTINUOUS
10
3.05999
20
-3.3244
11
3.05925
21
-3.31688
0
LINE
8
BLACK
6
CONTINUOUS
10
3.05925
20
-3.31688
11
3.05925
21
-3.23312
0
LINE
8
BLACK
6
CONTINUOUS
10
3.05925
20
-3.23312
11
3.05999
21
-3.2256
0
LINE
8
BLACK
6
CONTINUOUS
10
3.05999
20
-3.2256
11
3.06292
21
-3.21595
0
LINE
8
BLACK
6
CONTINUOUS
10
3.06292
20
-3.21595
11
3.06767
21
-3.20706
0
LINE
8
BLACK
6
CONTINUOUS
10
3.06767
20
-3.20706
11
3.07407
21
-3.19926
0
LINE
8
BLACK
6
CONTINUOUS
10
3.07407
20
-3.19926
11
3.08186
21
-3.19287
0
LINE
8
BLACK
6
CONTINUOUS
10
3.08186
20
-3.19287
11
3.09075
21
-3.18812
0
LINE
8
BLACK
6
CONTINUOUS
10
3.09075
20
-3.18812
11
3.1004
21
-3.18519
0
LINE
8
BLACK
6
CONTINUOUS
10
3.1004
20
-3.18519
11
3.11043
21
-3.1842
0
LINE
8
BLACK
6
CONTINUOUS
10
3.11043
20
-3.1842
11
3.12047
21
-3.18519
0
LINE
8
BLACK
6
CONTINUOUS
10
2.2309
20
-3.18519
11
2.24055
21
-3.18812
0
LINE
8
BLACK
6
CONTINUOUS
10
2.24055
20
-3.18812
11
2.24944
21
-3.19287
0
LINE
8
BLACK
6
CONTINUOUS
10
2.24944
20
-3.19287
11
2.25723
21
-3.19926
0
LINE
8
BLACK
6
CONTINUOUS
10
2.25723
20
-3.19926
11
2.26363
21
-3.20706
0
LINE
8
BLACK
6
CONTINUOUS
10
2.26363
20
-3.20706
11
2.26838
21
-3.21595
0
LINE
8
BLACK
6
CONTINUOUS
10
2.26838
20
-3.21595
11
2.27131
21
-3.2256
0
LINE
8
BLACK
6
CONTINUOUS
10
2.27131
20
-3.2256
11
2.27205
21
-3.23312
0
LINE
8
BLACK
6
CONTINUOUS
10
2.27205
20
-3.23312
11
2.27205
21
-3.31688
0
LINE
8
BLACK
6
CONTINUOUS
10
2.27205
20
-3.31688
11
2.27131
21
-3.3244
0
LINE
8
BLACK
6
CONTINUOUS
10
2.27131
20
-3.3244
11
2.26838
21
-3.33405
0
LINE
8
BLACK
6
CONTINUOUS
10
2.26838
20
-3.33405
11
2.26363
21
-3.34294
0
LINE
8
BLACK
6
CONTINUOUS
10
2.26363
20
-3.34294
11
2.25723
21
-3.35074
0
LINE
8
BLACK
6
CONTINUOUS
10
2.25723
20
-3.35074
11
2.24944
21
-3.35713
0
LINE
8
BLACK
6
CONTINUOUS
10
2.24944
20
-3.35713
11
2.24055
21
-3.36188
0
LINE
8
BLACK
6
CONTINUOUS
10
2.24055
20
-3.36188
11
2.2309
21
-3.36481
0
LINE
8
BLACK
6
CONTINUOUS
10
2.2309
20
-3.36481
11
2.22087
21
-3.3658
0
LINE
8
BLACK
6
CONTINUOUS
10
2.22087
20
-3.3658
11
2.21083
21
-3.36481
0
LINE
8
BLACK
6
CONTINUOUS
10
2.21083
20
-3.36481
11
2.20119
21
-3.36188
0
LINE
8
BLACK
6
CONTINUOUS
10
2.20119
20
-3.36188
11
2.19229
21
-3.35713
0
LINE
8
BLACK
6
CONTINUOUS
10
2.19229
20
-3.35713
11
2.1845
21
-3.35074
0
LINE
8
BLACK
6
CONTINUOUS
10
2.1845
20
-3.35074
11
2.1781
21
-3.34294
0
LINE
8
BLACK
6
CONTINUOUS
10
2.1781
20
-3.34294
11
2.17335
21
-3.33405
0
LINE
8
BLACK
6
CONTINUOUS
10
2.17335
20
-3.33405
11
2.17043
21
-3.3244
0
LINE
8
BLACK
6
CONTINUOUS
10
2.17043
20
-3.3244
11
2.16969
21
-3.31688
0
LINE
8
BLACK
6
CONTINUOUS
10
2.16969
20
-3.31688
11
2.16969
21
-3.23312
0
LINE
8
BLACK
6
CONTINUOUS
10
2.16969
20
-3.23312
11
2.17043
21
-3.2256
0
LINE
8
BLACK
6
CONTINUOUS
10
2.17043
20
-3.2256
11
2.17335
21
-3.21595
0
LINE
8
BLACK
6
CONTINUOUS
10
2.17335
20
-3.21595
11
2.1781
21
-3.20706
0
LINE
8
BLACK
6
CONTINUOUS
10
2.1781
20
-3.20706
11
2.1845
21
-3.19926
0
LINE
8
BLACK
6
CONTINUOUS
10
2.1845
20
-3.19926
11
2.19229
21
-3.19287
0
LINE
8
BLACK
6
CONTINUOUS
10
2.19229
20
-3.19287
11
2.20119
21
-3.18812
0
LINE
8
BLACK
6
CONTINUOUS
10
2.20119
20
-3.18812
11
2.21083
21
-3.18519
0
LINE
8
BLACK
6
CONTINUOUS
10
2.21083
20
-3.18519
11
2.22087
21
-3.1842
0
LINE
8
BLACK
6
CONTINUOUS
10
2.22087
20
-3.1842
11
2.2309
21
-3.18519
0
LINE
8
BLACK
6
CONTINUOUS
10
7.6309
20
-3.18519
11
7.64055
21
-3.18812
0
LINE
8
BLACK
6
CONTINUOUS
10
7.64055
20
-3.18812
11
7.64944
21
-3.19287
0
LINE
8
BLACK
6
CONTINUOUS
10
7.64944
20
-3.19287
11
7.65723
21
-3.19926
0
LINE
8
BLACK
6
CONTINUOUS
10
7.65723
20
-3.19926
11
7.66363
21
-3.20706
0
LINE
8
BLACK
6
CONTINUOUS
10
7.66363
20
-3.20706
11
7.66838
21
-3.21595
0
LINE
8
BLACK
6
CONTINUOUS
10
7.66838
20
-3.21595
11
7.67131
21
-3.2256
0
LINE
8
BLACK
6
CONTINUOUS
10
7.67131
20
-3.2256
11
7.67205
21
-3.23312
0
LINE
8
BLACK
6
CONTINUOUS
10
7.67205
20
-3.23312
11
7.67205
21
-3.31688
0
LINE
8
BLACK
6
CONTINUOUS
10
7.67205
20
-3.31688
11
7.67131
21
-3.3244
0
LINE
8
BLACK
6
CONTINUOUS
10
7.67131
20
-3.3244
11
7.66838
21
-3.33405
0
LINE
8
BLACK
6
CONTINUOUS
10
7.66838
20
-3.33405
11
7.66363
21
-3.34294
0
LINE
8
BLACK
6
CONTINUOUS
10
7.66363
20
-3.34294
11
7.65723
21
-3.35074
0
LINE
8
BLACK
6
CONTINUOUS
10
7.65723
20
-3.35074
11
7.64944
21
-3.35713
0
LINE
8
BLACK
6
CONTINUOUS
10
7.64944
20
-3.35713
11
7.64055
21
-3.36188
0
LINE
8
BLACK
6
CONTINUOUS
10
7.64055
20
-3.36188
11
7.6309
21
-3.36481
0
LINE
8
BLACK
6
CONTINUOUS
10
7.6309
20
-3.36481
11
7.62087
21
-3.3658
0
LINE
8
BLACK
6
CONTINUOUS
10
7.62087
20
-3.3658
11
7.61083
21
-3.36481
0
LINE
8
BLACK
6
CONTINUOUS
10
7.61083
20
-3.36481
11
7.60119
21
-3.36188
0
LINE
8
BLACK
6
CONTINUOUS
10
7.60119
20
-3.36188
11
7.59229
21
-3.35713
0
LINE
8
BLACK
6
CONTINUOUS
10
7.59229
20
-3.35713
11
7.5845
21
-3.35074
0
LINE
8
BLACK
6
CONTINUOUS
10
7.5845
20
-3.35074
11
7.5781
21
-3.34294
0
LINE
8
BLACK
6
CONTINUOUS
10
7.5781
20
-3.34294
11
7.57335
21
-3.33405
0
LINE
8
BLACK
6
CONTINUOUS
10
7.57335
20
-3.33405
11
7.57043
21
-3.3244
0
LINE
8
BLACK
6
CONTINUOUS
10
7.57043
20
-3.3244
11
7.56969
21
-3.31688
0
LINE
8
BLACK
6
CONTINUOUS
10
7.56969
20
-3.31688
11
7.56969
21
-3.23312
0
LINE
8
BLACK
6
CONTINUOUS
10
7.56969
20
-3.23312
11
7.57043
21
-3.2256
0
LINE
8
BLACK
6
CONTINUOUS
10
7.57043
20
-3.2256
11
7.57335
21
-3.21595
0
LINE
8
BLACK
6
CONTINUOUS
10
7.57335
20
-3.21595
11
7.5781
21
-3.20706
0
LINE
8
BLACK
6
CONTINUOUS
10
7.5781
20
-3.20706
11
7.5845
21
-3.19926
0
LINE
8
BLACK
6
CONTINUOUS
10
7.5845
20
-3.19926
11
7.59229
21
-3.19287
0
LINE
8
BLACK
6
CONTINUOUS
10
7.59229
20
-3.19287
11
7.60119
21
-3.18812
0
LINE
8
BLACK
6
CONTINUOUS
10
7.60119
20
-3.18812
11
7.61083
21
-3.18519
0
LINE
8
BLACK
6
CONTINUOUS
10
7.61083
20
-3.18519
11
7.62087
21
-3.1842
0
LINE
8
BLACK
6
CONTINUOUS
10
7.62087
20
-3.1842
11
7.6309
21
-3.18519
0
LINE
8
BLACK
6
CONTINUOUS
10
2.44547
20
-3.18519
11
2.45511
21
-3.18812
0
LINE
8
BLACK
6
CONTINUOUS
10
2.45511
20
-3.18812
11
2.46401
21
-3.19287
0
LINE
8
BLACK
6
CONTINUOUS
10
2.46401
20
-3.19287
11
2.4718
21
-3.19926
0
LINE
8
BLACK
6
CONTINUOUS
10
2.4718
20
-3.19926
11
2.47819
21
-3.20706
0
LINE
8
BLACK
6
CONTINUOUS
10
2.47819
20
-3.20706
11
2.48295
21
-3.21595
0
LINE
8
BLACK
6
CONTINUOUS
10
2.48295
20
-3.21595
11
2.48587
21
-3.2256
0
LINE
8
BLACK
6
CONTINUOUS
10
2.48587
20
-3.2256
11
2.48661
21
-3.23312
0
LINE
8
BLACK
6
CONTINUOUS
10
2.48661
20
-3.23312
11
2.48661
21
-3.31688
0
LINE
8
BLACK
6
CONTINUOUS
10
2.48661
20
-3.31688
11
2.48587
21
-3.3244
0
LINE
8
BLACK
6
CONTINUOUS
10
2.48587
20
-3.3244
11
2.48295
21
-3.33405
0
LINE
8
BLACK
6
CONTINUOUS
10
2.48295
20
-3.33405
11
2.47819
21
-3.34294
0
LINE
8
BLACK
6
CONTINUOUS
10
2.47819
20
-3.34294
11
2.4718
21
-3.35074
0
LINE
8
BLACK
6
CONTINUOUS
10
2.4718
20
-3.35074
11
2.46401
21
-3.35713
0
LINE
8
BLACK
6
CONTINUOUS
10
2.46401
20
-3.35713
11
2.45511
21
-3.36188
0
LINE
8
BLACK
6
CONTINUOUS
10
2.45511
20
-3.36188
11
2.44547
21
-3.36481
0
LINE
8
BLACK
6
CONTINUOUS
10
2.44547
20
-3.36481
11
2.43543
21
-3.3658
0
LINE
8
BLACK
6
CONTINUOUS
10
2.43543
20
-3.3658
11
2.4254
21
-3.36481
0
LINE
8
BLACK
6
CONTINUOUS
10
2.4254
20
-3.36481
11
2.41575
21
-3.36188
0
LINE
8
BLACK
6
CONTINUOUS
10
2.41575
20
-3.36188
11
2.40686
21
-3.35713
0
LINE
8
BLACK
6
CONTINUOUS
10
2.40686
20
-3.35713
11
2.39907
21
-3.35074
0
LINE
8
BLACK
6
CONTINUOUS
10
2.39907
20
-3.35074
11
2.39267
21
-3.34294
0
LINE
8
BLACK
6
CONTINUOUS
10
2.39267
20
-3.34294
11
2.38792
21
-3.33405
0
LINE
8
BLACK
6
CONTINUOUS
10
2.38792
20
-3.33405
11
2.38499
21
-3.3244
0
LINE
8
BLACK
6
CONTINUOUS
10
2.38499
20
-3.3244
11
2.38425
21
-3.31688
0
LINE
8
BLACK
6
CONTINUOUS
10
2.38425
20
-3.31688
11
2.38425
21
-3.23312
0
LINE
8
BLACK
6
CONTINUOUS
10
2.38425
20
-3.23312
11
2.38499
21
-3.2256
0
LINE
8
BLACK
6
CONTINUOUS
10
2.38499
20
-3.2256
11
2.38792
21
-3.21595
0
LINE
8
BLACK
6
CONTINUOUS
10
2.38792
20
-3.21595
11
2.39267
21
-3.20706
0
LINE
8
BLACK
6
CONTINUOUS
10
2.39267
20
-3.20706
11
2.39907
21
-3.19926
0
LINE
8
BLACK
6
CONTINUOUS
10
2.39907
20
-3.19926
11
2.40686
21
-3.19287
0
LINE
8
BLACK
6
CONTINUOUS
10
2.40686
20
-3.19287
11
2.41575
21
-3.18812
0
LINE
8
BLACK
6
CONTINUOUS
10
2.41575
20
-3.18812
11
2.4254
21
-3.18519
0
LINE
8
BLACK
6
CONTINUOUS
10
2.4254
20
-3.18519
11
2.43543
21
-3.1842
0
LINE
8
BLACK
6
CONTINUOUS
10
2.43543
20
-3.1842
11
2.44547
21
-3.18519
0
LINE
8
BLACK
6
CONTINUOUS
10
1.5559
20
-3.18519
11
1.56555
21
-3.18812
0
LINE
8
BLACK
6
CONTINUOUS
10
1.56555
20
-3.18812
11
1.57444
21
-3.19287
0
LINE
8
BLACK
6
CONTINUOUS
10
1.57444
20
-3.19287
11
1.58223
21
-3.19926
0
LINE
8
BLACK
6
CONTINUOUS
10
1.58223
20
-3.19926
11
1.58863
21
-3.20706
0
LINE
8
BLACK
6
CONTINUOUS
10
1.58863
20
-3.20706
11
1.59338
21
-3.21595
0
LINE
8
BLACK
6
CONTINUOUS
10
1.59338
20
-3.21595
11
1.59631
21
-3.2256
0
LINE
8
BLACK
6
CONTINUOUS
10
1.59631
20
-3.2256
11
1.59705
21
-3.23312
0
LINE
8
BLACK
6
CONTINUOUS
10
1.59705
20
-3.23312
11
1.59705
21
-3.31688
0
LINE
8
BLACK
6
CONTINUOUS
10
1.59705
20
-3.31688
11
1.59631
21
-3.3244
0
LINE
8
BLACK
6
CONTINUOUS
10
1.59631
20
-3.3244
11
1.59338
21
-3.33405
0
LINE
8
BLACK
6
CONTINUOUS
10
1.59338
20
-3.33405
11
1.58863
21
-3.34294
0
LINE
8
BLACK
6
CONTINUOUS
10
1.58863
20
-3.34294
11
1.58223
21
-3.35074
0
LINE
8
BLACK
6
CONTINUOUS
10
1.58223
20
-3.35074
11
1.57444
21
-3.35713
0
LINE
8
BLACK
6
CONTINUOUS
10
1.57444
20
-3.35713
11
1.56555
21
-3.36188
0
LINE
8
BLACK
6
CONTINUOUS
10
1.56555
20
-3.36188
11
1.5559
21
-3.36481
0
LINE
8
BLACK
6
CONTINUOUS
10
1.5559
20
-3.36481
11
1.54587
21
-3.3658
0
LINE
8
BLACK
6
CONTINUOUS
10
1.54587
20
-3.3658
11
1.53583
21
-3.36481
0
LINE
8
BLACK
6
CONTINUOUS
10
1.53583
20
-3.36481
11
1.52619
21
-3.36188
0
LINE
8
BLACK
6
CONTINUOUS
10
1.52619
20
-3.36188
11
1.51729
21
-3.35713
0
LINE
8
BLACK
6
CONTINUOUS
10
1.51729
20
-3.35713
11
1.5095
21
-3.35074
0
LINE
8
BLACK
6
CONTINUOUS
10
1.5095
20
-3.35074
11
1.5031
21
-3.34294
0
LINE
8
BLACK
6
CONTINUOUS
10
1.5031
20
-3.34294
11
1.49835
21
-3.33405
0
LINE
8
BLACK
6
CONTINUOUS
10
1.49835
20
-3.33405
11
1.49543
21
-3.3244
0
LINE
8
BLACK
6
CONTINUOUS
10
1.49543
20
-3.3244
11
1.49469
21
-3.31688
0
LINE
8
BLACK
6
CONTINUOUS
10
1.49469
20
-3.31688
11
1.49469
21
-3.23312
0
LINE
8
BLACK
6
CONTINUOUS
10
1.49469
20
-3.23312
11
1.49543
21
-3.2256
0
LINE
8
BLACK
6
CONTINUOUS
10
1.49543
20
-3.2256
11
1.49835
21
-3.21595
0
LINE
8
BLACK
6
CONTINUOUS
10
1.49835
20
-3.21595
11
1.5031
21
-3.20706
0
LINE
8
BLACK
6
CONTINUOUS
10
1.5031
20
-3.20706
11
1.5095
21
-3.19926
0
LINE
8
BLACK
6
CONTINUOUS
10
1.5095
20
-3.19926
11
1.51729
21
-3.19287
0
LINE
8
BLACK
6
CONTINUOUS
10
1.51729
20
-3.19287
11
1.52619
21
-3.18812
0
LINE
8
BLACK
6
CONTINUOUS
10
1.52619
20
-3.18812
11
1.53583
21
-3.18519
0
LINE
8
BLACK
6
CONTINUOUS
10
1.53583
20
-3.18519
11
1.54587
21
-3.1842
0
LINE
8
BLACK
6
CONTINUOUS
10
1.54587
20
-3.1842
11
1.5559
21
-3.18519
0
LINE
8
BLACK
6
CONTINUOUS
10
1.77047
20
-3.18519
11
1.78011
21
-3.18812
0
LINE
8
BLACK
6
CONTINUOUS
10
1.78011
20
-3.18812
11
1.78901
21
-3.19287
0
LINE
8
BLACK
6
CONTINUOUS
10
1.78901
20
-3.19287
11
1.7968
21
-3.19926
0
LINE
8
BLACK
6
CONTINUOUS
10
1.7968
20
-3.19926
11
1.80319
21
-3.20706
0
LINE
8
BLACK
6
CONTINUOUS
10
1.80319
20
-3.20706
11
1.80795
21
-3.21595
0
LINE
8
BLACK
6
CONTINUOUS
10
1.80795
20
-3.21595
11
1.81087
21
-3.2256
0
LINE
8
BLACK
6
CONTINUOUS
10
1.81087
20
-3.2256
11
1.81161
21
-3.23312
0
LINE
8
BLACK
6
CONTINUOUS
10
1.81161
20
-3.23312
11
1.81161
21
-3.31688
0
LINE
8
BLACK
6
CONTINUOUS
10
1.81161
20
-3.31688
11
1.81087
21
-3.3244
0
LINE
8
BLACK
6
CONTINUOUS
10
1.81087
20
-3.3244
11
1.80795
21
-3.33405
0
LINE
8
BLACK
6
CONTINUOUS
10
1.80795
20
-3.33405
11
1.80319
21
-3.34294
0
LINE
8
BLACK
6
CONTINUOUS
10
1.80319
20
-3.34294
11
1.7968
21
-3.35074
0
LINE
8
BLACK
6
CONTINUOUS
10
1.7968
20
-3.35074
11
1.78901
21
-3.35713
0
LINE
8
BLACK
6
CONTINUOUS
10
1.78901
20
-3.35713
11
1.78011
21
-3.36188
0
LINE
8
BLACK
6
CONTINUOUS
10
1.78011
20
-3.36188
11
1.77047
21
-3.36481
0
LINE
8
BLACK
6
CONTINUOUS
10
1.77047
20
-3.36481
11
1.76043
21
-3.3658
0
LINE
8
BLACK
6
CONTINUOUS
10
1.76043
20
-3.3658
11
1.7504
21
-3.36481
0
LINE
8
BLACK
6
CONTINUOUS
10
1.7504
20
-3.36481
11
1.74075
21
-3.36188
0
LINE
8
BLACK
6
CONTINUOUS
10
1.74075
20
-3.36188
11
1.73186
21
-3.35713
0
LINE
8
BLACK
6
CONTINUOUS
10
1.73186
20
-3.35713
11
1.72407
21
-3.35074
0
LINE
8
BLACK
6
CONTINUOUS
10
1.72407
20
-3.35074
11
1.71767
21
-3.34294
0
LINE
8
BLACK
6
CONTINUOUS
10
1.71767
20
-3.34294
11
1.71292
21
-3.33405
0
LINE
8
BLACK
6
CONTINUOUS
10
1.71292
20
-3.33405
11
1.70999
21
-3.3244
0
LINE
8
BLACK
6
CONTINUOUS
10
1.70999
20
-3.3244
11
1.70925
21
-3.31688
0
LINE
8
BLACK
6
CONTINUOUS
10
1.70925
20
-3.31688
11
1.70925
21
-3.23312
0
LINE
8
BLACK
6
CONTINUOUS
10
1.70925
20
-3.23312
11
1.70999
21
-3.2256
0
LINE
8
BLACK
6
CONTINUOUS
10
1.70999
20
-3.2256
11
1.71292
21
-3.21595
0
LINE
8
BLACK
6
CONTINUOUS
10
1.71292
20
-3.21595
11
1.71767
21
-3.20706
0
LINE
8
BLACK
6
CONTINUOUS
10
1.71767
20
-3.20706
11
1.72407
21
-3.19926
0
LINE
8
BLACK
6
CONTINUOUS
10
1.72407
20
-3.19926
11
1.73186
21
-3.19287
0
LINE
8
BLACK
6
CONTINUOUS
10
1.73186
20
-3.19287
11
1.74075
21
-3.18812
0
LINE
8
BLACK
6
CONTINUOUS
10
1.74075
20
-3.18812
11
1.7504
21
-3.18519
0
LINE
8
BLACK
6
CONTINUOUS
10
1.7504
20
-3.18519
11
1.76043
21
-3.1842
0
LINE
8
BLACK
6
CONTINUOUS
10
1.76043
20
-3.1842
11
1.77047
21
-3.18519
0
LINE
8
BLACK
6
CONTINUOUS
10
0.880899
20
-3.18519
11
0.890547
21
-3.18812
0
LINE
8
BLACK
6
CONTINUOUS
10
0.890547
20
-3.18812
11
0.899438
21
-3.19287
0
LINE
8
BLACK
6
CONTINUOUS
10
0.899438
20
-3.19287
11
0.907232
21
-3.19926
0
LINE
8
BLACK
6
CONTINUOUS
10
0.907232
20
-3.19926
11
0.913628
21
-3.20706
0
LINE
8
BLACK
6
CONTINUOUS
10
0.913628
20
-3.20706
11
0.91838
21
-3.21595
0
LINE
8
BLACK
6
CONTINUOUS
10
0.91838
20
-3.21595
11
0.921307
21
-3.2256
0
LINE
8
BLACK
6
CONTINUOUS
10
0.921307
20
-3.2256
11
0.922047
21
-3.23312
0
LINE
8
BLACK
6
CONTINUOUS
10
0.922047
20
-3.23312
11
0.922047
21
-3.31688
0
LINE
8
BLACK
6
CONTINUOUS
10
0.922047
20
-3.31688
11
0.921307
21
-3.3244
0
LINE
8
BLACK
6
CONTINUOUS
10
0.921307
20
-3.3244
11
0.91838
21
-3.33405
0
LINE
8
BLACK
6
CONTINUOUS
10
0.91838
20
-3.33405
11
0.913628
21
-3.34294
0
LINE
8
BLACK
6
CONTINUOUS
10
0.913628
20
-3.34294
11
0.907232
21
-3.35074
0
LINE
8
BLACK
6
CONTINUOUS
10
0.907232
20
-3.35074
11
0.899438
21
-3.35713
0
LINE
8
BLACK
6
CONTINUOUS
10
0.899438
20
-3.35713
11
0.890547
21
-3.36188
0
LINE
8
BLACK
6
CONTINUOUS
10
0.890547
20
-3.36188
11
0.880899
21
-3.36481
0
LINE
8
BLACK
6
CONTINUOUS
10
0.880899
20
-3.36481
11
0.870866
21
-3.3658
0
LINE
8
BLACK
6
CONTINUOUS
10
0.870866
20
-3.3658
11
0.860833
21
-3.36481
0
LINE
8
BLACK
6
CONTINUOUS
10
0.860833
20
-3.36481
11
0.851185
21
-3.36188
0
LINE
8
BLACK
6
CONTINUOUS
10
0.851185
20
-3.36188
11
0.842294
21
-3.35713
0
LINE
8
BLACK
6
CONTINUOUS
10
0.842294
20
-3.35713
11
0.834501
21
-3.35074
0
LINE
8
BLACK
6
CONTINUOUS
10
0.834501
20
-3.35074
11
0.828105
21
-3.34294
0
LINE
8
BLACK
6
CONTINUOUS
10
0.828105
20
-3.34294
11
0.823352
21
-3.33405
0
LINE
8
BLACK
6
CONTINUOUS
10
0.823352
20
-3.33405
11
0.820426
21
-3.3244
0
LINE
8
BLACK
6
CONTINUOUS
10
0.820426
20
-3.3244
11
0.819685
21
-3.31688
0
LINE
8
BLACK
6
CONTINUOUS
10
0.819685
20
-3.31688
11
0.819685
21
-3.23312
0
LINE
8
BLACK
6
CONTINUOUS
10
0.819685
20
-3.23312
11
0.820426
21
-3.2256
0
LINE
8
BLACK
6
CONTINUOUS
10
0.820426
20
-3.2256
11
0.823352
21
-3.21595
0
LINE
8
BLACK
6
CONTINUOUS
10
0.823352
20
-3.21595
11
0.828105
21
-3.20706
0
LINE
8
BLACK
6
CONTINUOUS
10
0.828105
20
-3.20706
11
0.834501
21
-3.19926
0
LINE
8
BLACK
6
CONTINUOUS
10
0.834501
20
-3.19926
11
0.842294
21
-3.19287
0
LINE
8
BLACK
6
CONTINUOUS
10
0.842294
20
-3.19287
11
0.851185
21
-3.18812
0
LINE
8
BLACK
6
CONTINUOUS
10
0.851185
20
-3.18812
11
0.860833
21
-3.18519
0
LINE
8
BLACK
6
CONTINUOUS
10
0.860833
20
-3.18519
11
0.870866
21
-3.1842
0
LINE
8
BLACK
6
CONTINUOUS
10
0.870866
20
-3.1842
11
0.880899
21
-3.18519
0
LINE
8
BLACK
6
CONTINUOUS
10
1.09547
20
-3.18519
11
1.10511
21
-3.18812
0
LINE
8
BLACK
6
CONTINUOUS
10
1.10511
20
-3.18812
11
1.11401
21
-3.19287
0
LINE
8
BLACK
6
CONTINUOUS
10
1.11401
20
-3.19287
11
1.1218
21
-3.19926
0
LINE
8
BLACK
6
CONTINUOUS
10
1.1218
20
-3.19926
11
1.12819
21
-3.20706
0
LINE
8
BLACK
6
CONTINUOUS
10
1.12819
20
-3.20706
11
1.13295
21
-3.21595
0
LINE
8
BLACK
6
CONTINUOUS
10
1.13295
20
-3.21595
11
1.13587
21
-3.2256
0
LINE
8
BLACK
6
CONTINUOUS
10
1.13587
20
-3.2256
11
1.13661
21
-3.23312
0
LINE
8
BLACK
6
CONTINUOUS
10
1.13661
20
-3.23312
11
1.13661
21
-3.31688
0
LINE
8
BLACK
6
CONTINUOUS
10
1.13661
20
-3.31688
11
1.13587
21
-3.3244
0
LINE
8
BLACK
6
CONTINUOUS
10
1.13587
20
-3.3244
11
1.13295
21
-3.33405
0
LINE
8
BLACK
6
CONTINUOUS
10
1.13295
20
-3.33405
11
1.12819
21
-3.34294
0
LINE
8
BLACK
6
CONTINUOUS
10
1.12819
20
-3.34294
11
1.1218
21
-3.35074
0
LINE
8
BLACK
6
CONTINUOUS
10
1.1218
20
-3.35074
11
1.11401
21
-3.35713
0
LINE
8
BLACK
6
CONTINUOUS
10
1.11401
20
-3.35713
11
1.10511
21
-3.36188
0
LINE
8
BLACK
6
CONTINUOUS
10
1.10511
20
-3.36188
11
1.09547
21
-3.36481
0
LINE
8
BLACK
6
CONTINUOUS
10
1.09547
20
-3.36481
11
1.08543
21
-3.3658
0
LINE
8
BLACK
6
CONTINUOUS
10
1.08543
20
-3.3658
11
1.0754
21
-3.36481
0
LINE
8
BLACK
6
CONTINUOUS
10
1.0754
20
-3.36481
11
1.06575
21
-3.36188
0
LINE
8
BLACK
6
CONTINUOUS
10
1.06575
20
-3.36188
11
1.05686
21
-3.35713
0
LINE
8
BLACK
6
CONTINUOUS
10
1.05686
20
-3.35713
11
1.04907
21
-3.35074
0
LINE
8
BLACK
6
CONTINUOUS
10
1.04907
20
-3.35074
11
1.04267
21
-3.34294
0
LINE
8
BLACK
6
CONTINUOUS
10
1.04267
20
-3.34294
11
1.03792
21
-3.33405
0
LINE
8
BLACK
6
CONTINUOUS
10
1.03792
20
-3.33405
11
1.03499
21
-3.3244
0
LINE
8
BLACK
6
CONTINUOUS
10
1.03499
20
-3.3244
11
1.03425
21
-3.31688
0
LINE
8
BLACK
6
CONTINUOUS
10
1.03425
20
-3.31688
11
1.03425
21
-3.23312
0
LINE
8
BLACK
6
CONTINUOUS
10
1.03425
20
-3.23312
11
1.03499
21
-3.2256
0
LINE
8
BLACK
6
CONTINUOUS
10
1.03499
20
-3.2256
11
1.03792
21
-3.21595
0
LINE
8
BLACK
6
CONTINUOUS
10
1.03792
20
-3.21595
11
1.04267
21
-3.20706
0
LINE
8
BLACK
6
CONTINUOUS
10
1.04267
20
-3.20706
11
1.04907
21
-3.19926
0
LINE
8
BLACK
6
CONTINUOUS
10
1.04907
20
-3.19926
11
1.05686
21
-3.19287
0
LINE
8
BLACK
6
CONTINUOUS
10
1.05686
20
-3.19287
11
1.06575
21
-3.18812
0
LINE
8
BLACK
6
CONTINUOUS
10
1.06575
20
-3.18812
11
1.0754
21
-3.18519
0
LINE
8
BLACK
6
CONTINUOUS
10
1.0754
20
-3.18519
11
1.08543
21
-3.1842
0
LINE
8
BLACK
6
CONTINUOUS
10
1.08543
20
-3.1842
11
1.09547
21
-3.18519
0
LINE
8
BLACK
6
CONTINUOUS
10
7.84547
20
-3.18519
11
7.85511
21
-3.18812
0
LINE
8
BLACK
6
CONTINUOUS
10
7.85511
20
-3.18812
11
7.86401
21
-3.19287
0
LINE
8
BLACK
6
CONTINUOUS
10
7.86401
20
-3.19287
11
7.8718
21
-3.19926
0
LINE
8
BLACK
6
CONTINUOUS
10
7.8718
20
-3.19926
11
7.87819
21
-3.20706
0
LINE
8
BLACK
6
CONTINUOUS
10
7.87819
20
-3.20706
11
7.88295
21
-3.21595
0
LINE
8
BLACK
6
CONTINUOUS
10
7.88295
20
-3.21595
11
7.88587
21
-3.2256
0
LINE
8
BLACK
6
CONTINUOUS
10
7.88587
20
-3.2256
11
7.88661
21
-3.23312
0
LINE
8
BLACK
6
CONTINUOUS
10
7.88661
20
-3.23312
11
7.88661
21
-3.31688
0
LINE
8
BLACK
6
CONTINUOUS
10
7.88661
20
-3.31688
11
7.88587
21
-3.3244
0
LINE
8
BLACK
6
CONTINUOUS
10
7.88587
20
-3.3244
11
7.88295
21
-3.33405
0
LINE
8
BLACK
6
CONTINUOUS
10
7.88295
20
-3.33405
11
7.87819
21
-3.34294
0
LINE
8
BLACK
6
CONTINUOUS
10
7.87819
20
-3.34294
11
7.8718
21
-3.35074
0
LINE
8
BLACK
6
CONTINUOUS
10
7.8718
20
-3.35074
11
7.86401
21
-3.35713
0
LINE
8
BLACK
6
CONTINUOUS
10
7.86401
20
-3.35713
11
7.85511
21
-3.36188
0
LINE
8
BLACK
6
CONTINUOUS
10
7.85511
20
-3.36188
11
7.84547
21
-3.36481
0
LINE
8
BLACK
6
CONTINUOUS
10
7.84547
20
-3.36481
11
7.83543
21
-3.3658
0
LINE
8
BLACK
6
CONTINUOUS
10
7.83543
20
-3.3658
11
7.8254
21
-3.36481
0
LINE
8
BLACK
6
CONTINUOUS
10
7.8254
20
-3.36481
11
7.81575
21
-3.36188
0
LINE
8
BLACK
6
CONTINUOUS
10
7.81575
20
-3.36188
11
7.80686
21
-3.35713
0
LINE
8
BLACK
6
CONTINUOUS
10
7.80686
20
-3.35713
11
7.79907
21
-3.35074
0
LINE
8
BLACK
6
CONTINUOUS
10
7.79907
20
-3.35074
11
7.79267
21
-3.34294
0
LINE
8
BLACK
6
CONTINUOUS
10
7.79267
20
-3.34294
11
7.78792
21
-3.33405
0
LINE
8
BLACK
6
CONTINUOUS
10
7.78792
20
-3.33405
11
7.78499
21
-3.3244
0
LINE
8
BLACK
6
CONTINUOUS
10
7.78499
20
-3.3244
11
7.78425
21
-3.31688
0
LINE
8
BLACK
6
CONTINUOUS
10
7.78425
20
-3.31688
11
7.78425
21
-3.23312
0
LINE
8
BLACK
6
CONTINUOUS
10
7.78425
20
-3.23312
11
7.78499
21
-3.2256
0
LINE
8
BLACK
6
CONTINUOUS
10
7.78499
20
-3.2256
11
7.78792
21
-3.21595
0
LINE
8
BLACK
6
CONTINUOUS
10
7.78792
20
-3.21595
11
7.79267
21
-3.20706
0
LINE
8
BLACK
6
CONTINUOUS
10
7.79267
20
-3.20706
11
7.79907
21
-3.19926
0
LINE
8
BLACK
6
CONTINUOUS
10
7.79907
20
-3.19926
11
7.80686
21
-3.19287
0
LINE
8
BLACK
6
CONTINUOUS
10
7.80686
20
-3.19287
11
7.81575
21
-3.18812
0
LINE
8
BLACK
6
CONTINUOUS
10
7.81575
20
-3.18812
11
7.8254
21
-3.18519
0
LINE
8
BLACK
6
CONTINUOUS
10
7.8254
20
-3.18519
11
7.83543
21
-3.1842
0
LINE
8
BLACK
6
CONTINUOUS
10
7.83543
20
-3.1842
11
7.84547
21
-3.18519
0
LINE
8
BLACK
6
CONTINUOUS
10
8.52047
20
-3.18519
11
8.53011
21
-3.18812
0
LINE
8
BLACK
6
CONTINUOUS
10
8.53011
20
-3.18812
11
8.53901
21
-3.19287
0
LINE
8
BLACK
6
CONTINUOUS
10
8.53901
20
-3.19287
11
8.5468
21
-3.19926
0
LINE
8
BLACK
6
CONTINUOUS
10
8.5468
20
-3.19926
11
8.55319
21
-3.20706
0
LINE
8
BLACK
6
CONTINUOUS
10
8.55319
20
-3.20706
11
8.55795
21
-3.21595
0
LINE
8
BLACK
6
CONTINUOUS
10
8.55795
20
-3.21595
11
8.56087
21
-3.2256
0
LINE
8
BLACK
6
CONTINUOUS
10
8.56087
20
-3.2256
11
8.56161
21
-3.23312
0
LINE
8
BLACK
6
CONTINUOUS
10
8.56161
20
-3.23312
11
8.56161
21
-3.31688
0
LINE
8
BLACK
6
CONTINUOUS
10
8.56161
20
-3.31688
11
8.56087
21
-3.3244
0
LINE
8
BLACK
6
CONTINUOUS
10
8.56087
20
-3.3244
11
8.55795
21
-3.33405
0
LINE
8
BLACK
6
CONTINUOUS
10
8.55795
20
-3.33405
11
8.55319
21
-3.34294
0
LINE
8
BLACK
6
CONTINUOUS
10
8.55319
20
-3.34294
11
8.5468
21
-3.35074
0
LINE
8
BLACK
6
CONTINUOUS
10
8.5468
20
-3.35074
11
8.53901
21
-3.35713
0
LINE
8
BLACK
6
CONTINUOUS
10
8.53901
20
-3.35713
11
8.53011
21
-3.36188
0
LINE
8
BLACK
6
CONTINUOUS
10
8.53011
20
-3.36188
11
8.52047
21
-3.36481
0
LINE
8
BLACK
6
CONTINUOUS
10
8.52047
20
-3.36481
11
8.51043
21
-3.3658
0
LINE
8
BLACK
6
CONTINUOUS
10
8.51043
20
-3.3658
11
8.5004
21
-3.36481
0
LINE
8
BLACK
6
CONTINUOUS
10
8.5004
20
-3.36481
11
8.49075
21
-3.36188
0
LINE
8
BLACK
6
CONTINUOUS
10
8.49075
20
-3.36188
11
8.48186
21
-3.35713
0
LINE
8
BLACK
6
CONTINUOUS
10
8.48186
20
-3.35713
11
8.47407
21
-3.35074
0
LINE
8
BLACK
6
CONTINUOUS
10
8.47407
20
-3.35074
11
8.46767
21
-3.34294
0
LINE
8
BLACK
6
CONTINUOUS
10
8.46767
20
-3.34294
11
8.46292
21
-3.33405
0
LINE
8
BLACK
6
CONTINUOUS
10
8.46292
20
-3.33405
11
8.45999
21
-3.3244
0
LINE
8
BLACK
6
CONTINUOUS
10
8.45999
20
-3.3244
11
8.45925
21
-3.31688
0
LINE
8
BLACK
6
CONTINUOUS
10
8.45925
20
-3.31688
11
8.45925
21
-3.23312
0
LINE
8
BLACK
6
CONTINUOUS
10
8.45925
20
-3.23312
11
8.45999
21
-3.2256
0
LINE
8
BLACK
6
CONTINUOUS
10
8.45999
20
-3.2256
11
8.46292
21
-3.21595
0
LINE
8
BLACK
6
CONTINUOUS
10
8.46292
20
-3.21595
11
8.46767
21
-3.20706
0
LINE
8
BLACK
6
CONTINUOUS
10
8.46767
20
-3.20706
11
8.47407
21
-3.19926
0
LINE
8
BLACK
6
CONTINUOUS
10
8.47407
20
-3.19926
11
8.48186
21
-3.19287
0
LINE
8
BLACK
6
CONTINUOUS
10
8.48186
20
-3.19287
11
8.49075
21
-3.18812
0
LINE
8
BLACK
6
CONTINUOUS
10
8.49075
20
-3.18812
11
8.5004
21
-3.18519
0
LINE
8
BLACK
6
CONTINUOUS
10
8.5004
20
-3.18519
11
8.51043
21
-3.1842
0
LINE
8
BLACK
6
CONTINUOUS
10
8.51043
20
-3.1842
11
8.52047
21
-3.18519
0
LINE
8
BLACK
6
CONTINUOUS
10
6.49547
20
-3.18519
11
6.50511
21
-3.18812
0
LINE
8
BLACK
6
CONTINUOUS
10
6.50511
20
-3.18812
11
6.51401
21
-3.19287
0
LINE
8
BLACK
6
CONTINUOUS
10
6.51401
20
-3.19287
11
6.5218
21
-3.19926
0
LINE
8
BLACK
6
CONTINUOUS
10
6.5218
20
-3.19926
11
6.52819
21
-3.20706
0
LINE
8
BLACK
6
CONTINUOUS
10
6.52819
20
-3.20706
11
6.53295
21
-3.21595
0
LINE
8
BLACK
6
CONTINUOUS
10
6.53295
20
-3.21595
11
6.53587
21
-3.2256
0
LINE
8
BLACK
6
CONTINUOUS
10
6.53587
20
-3.2256
11
6.53661
21
-3.23312
0
LINE
8
BLACK
6
CONTINUOUS
10
6.53661
20
-3.23312
11
6.53661
21
-3.31688
0
LINE
8
BLACK
6
CONTINUOUS
10
6.53661
20
-3.31688
11
6.53587
21
-3.3244
0
LINE
8
BLACK
6
CONTINUOUS
10
6.53587
20
-3.3244
11
6.53295
21
-3.33405
0
LINE
8
BLACK
6
CONTINUOUS
10
6.53295
20
-3.33405
11
6.52819
21
-3.34294
0
LINE
8
BLACK
6
CONTINUOUS
10
6.52819
20
-3.34294
11
6.5218
21
-3.35074
0
LINE
8
BLACK
6
CONTINUOUS
10
6.5218
20
-3.35074
11
6.51401
21
-3.35713
0
LINE
8
BLACK
6
CONTINUOUS
10
6.51401
20
-3.35713
11
6.50511
21
-3.36188
0
LINE
8
BLACK
6
CONTINUOUS
10
6.50511
20
-3.36188
11
6.49547
21
-3.36481
0
LINE
8
BLACK
6
CONTINUOUS
10
6.49547
20
-3.36481
11
6.48543
21
-3.3658
0
LINE
8
BLACK
6
CONTINUOUS
10
6.48543
20
-3.3658
11
6.4754
21
-3.36481
0
LINE
8
BLACK
6
CONTINUOUS
10
6.4754
20
-3.36481
11
6.46575
21
-3.36188
0
LINE
8
BLACK
6
CONTINUOUS
10
6.46575
20
-3.36188
11
6.45686
21
-3.35713
0
LINE
8
BLACK
6
CONTINUOUS
10
6.45686
20
-3.35713
11
6.44907
21
-3.35074
0
LINE
8
BLACK
6
CONTINUOUS
10
6.44907
20
-3.35074
11
6.44267
21
-3.34294
0
LINE
8
BLACK
6
CONTINUOUS
10
6.44267
20
-3.34294
11
6.43792
21
-3.33405
0
LINE
8
BLACK
6
CONTINUOUS
10
6.43792
20
-3.33405
11
6.43499
21
-3.3244
0
LINE
8
BLACK
6
CONTINUOUS
10
6.43499
20
-3.3244
11
6.43425
21
-3.31688
0
LINE
8
BLACK
6
CONTINUOUS
10
6.43425
20
-3.31688
11
6.43425
21
-3.23312
0
LINE
8
BLACK
6
CONTINUOUS
10
6.43425
20
-3.23312
11
6.43499
21
-3.2256
0
LINE
8
BLACK
6
CONTINUOUS
10
6.43499
20
-3.2256
11
6.43792
21
-3.21595
0
LINE
8
BLACK
6
CONTINUOUS
10
6.43792
20
-3.21595
11
6.44267
21
-3.20706
0
LINE
8
BLACK
6
CONTINUOUS
10
6.44267
20
-3.20706
11
6.44907
21
-3.19926
0
LINE
8
BLACK
6
CONTINUOUS
10
6.44907
20
-3.19926
11
6.45686
21
-3.19287
0
LINE
8
BLACK
6
CONTINUOUS
10
6.45686
20
-3.19287
11
6.46575
21
-3.18812
0
LINE
8
BLACK
6
CONTINUOUS
10
6.46575
20
-3.18812
11
6.4754
21
-3.18519
0
LINE
8
BLACK
6
CONTINUOUS
10
6.4754
20
-3.18519
11
6.48543
21
-3.1842
0
LINE
8
BLACK
6
CONTINUOUS
10
6.48543
20
-3.1842
11
6.49547
21
-3.18519
0
LINE
8
BLACK
6
CONTINUOUS
10
6.2809
20
-3.18519
11
6.29055
21
-3.18812
0
LINE
8
BLACK
6
CONTINUOUS
10
6.29055
20
-3.18812
11
6.29944
21
-3.19287
0
LINE
8
BLACK
6
CONTINUOUS
10
6.29944
20
-3.19287
11
6.30723
21
-3.19926
0
LINE
8
BLACK
6
CONTINUOUS
10
6.30723
20
-3.19926
11
6.31363
21
-3.20706
0
LINE
8
BLACK
6
CONTINUOUS
10
6.31363
20
-3.20706
11
6.31838
21
-3.21595
0
LINE
8
BLACK
6
CONTINUOUS
10
6.31838
20
-3.21595
11
6.32131
21
-3.2256
0
LINE
8
BLACK
6
CONTINUOUS
10
6.32131
20
-3.2256
11
6.32205
21
-3.23312
0
LINE
8
BLACK
6
CONTINUOUS
10
6.32205
20
-3.23312
11
6.32205
21
-3.31688
0
LINE
8
BLACK
6
CONTINUOUS
10
6.32205
20
-3.31688
11
6.32131
21
-3.3244
0
LINE
8
BLACK
6
CONTINUOUS
10
6.32131
20
-3.3244
11
6.31838
21
-3.33405
0
LINE
8
BLACK
6
CONTINUOUS
10
6.31838
20
-3.33405
11
6.31363
21
-3.34294
0
LINE
8
BLACK
6
CONTINUOUS
10
6.31363
20
-3.34294
11
6.30723
21
-3.35074
0
LINE
8
BLACK
6
CONTINUOUS
10
6.30723
20
-3.35074
11
6.29944
21
-3.35713
0
LINE
8
BLACK
6
CONTINUOUS
10
6.29944
20
-3.35713
11
6.29055
21
-3.36188
0
LINE
8
BLACK
6
CONTINUOUS
10
6.29055
20
-3.36188
11
6.2809
21
-3.36481
0
LINE
8
BLACK
6
CONTINUOUS
10
6.2809
20
-3.36481
11
6.27087
21
-3.3658
0
LINE
8
BLACK
6
CONTINUOUS
10
6.27087
20
-3.3658
11
6.26083
21
-3.36481
0
LINE
8
BLACK
6
CONTINUOUS
10
6.26083
20
-3.36481
11
6.25119
21
-3.36188
0
LINE
8
BLACK
6
CONTINUOUS
10
6.25119
20
-3.36188
11
6.24229
21
-3.35713
0
LINE
8
BLACK
6
CONTINUOUS
10
6.24229
20
-3.35713
11
6.2345
21
-3.35074
0
LINE
8
BLACK
6
CONTINUOUS
10
6.2345
20
-3.35074
11
6.2281
21
-3.34294
0
LINE
8
BLACK
6
CONTINUOUS
10
6.2281
20
-3.34294
11
6.22335
21
-3.33405
0
LINE
8
BLACK
6
CONTINUOUS
10
6.22335
20
-3.33405
11
6.22043
21
-3.3244
0
LINE
8
BLACK
6
CONTINUOUS
10
6.22043
20
-3.3244
11
6.21969
21
-3.31688
0
LINE
8
BLACK
6
CONTINUOUS
10
6.21969
20
-3.31688
11
6.21969
21
-3.23312
0
LINE
8
BLACK
6
CONTINUOUS
10
6.21969
20
-3.23312
11
6.22043
21
-3.2256
0
LINE
8
BLACK
6
CONTINUOUS
10
6.22043
20
-3.2256
11
6.22335
21
-3.21595
0
LINE
8
BLACK
6
CONTINUOUS
10
6.22335
20
-3.21595
11
6.2281
21
-3.20706
0
LINE
8
BLACK
6
CONTINUOUS
10
6.2281
20
-3.20706
11
6.2345
21
-3.19926
0
LINE
8
BLACK
6
CONTINUOUS
10
6.2345
20
-3.19926
11
6.24229
21
-3.19287
0
LINE
8
BLACK
6
CONTINUOUS
10
6.24229
20
-3.19287
11
6.25119
21
-3.18812
0
LINE
8
BLACK
6
CONTINUOUS
10
6.25119
20
-3.18812
11
6.26083
21
-3.18519
0
LINE
8
BLACK
6
CONTINUOUS
10
6.26083
20
-3.18519
11
6.27087
21
-3.1842
0
LINE
8
BLACK
6
CONTINUOUS
10
6.27087
20
-3.1842
11
6.2809
21
-3.18519
0
LINE
8
BLACK
6
CONTINUOUS
10
6.9559
20
-3.18519
11
6.96555
21
-3.18812
0
LINE
8
BLACK
6
CONTINUOUS
10
6.96555
20
-3.18812
11
6.97444
21
-3.19287
0
LINE
8
BLACK
6
CONTINUOUS
10
6.97444
20
-3.19287
11
6.98223
21
-3.19926
0
LINE
8
BLACK
6
CONTINUOUS
10
6.98223
20
-3.19926
11
6.98863
21
-3.20706
0
LINE
8
BLACK
6
CONTINUOUS
10
6.98863
20
-3.20706
11
6.99338
21
-3.21595
0
LINE
8
BLACK
6
CONTINUOUS
10
6.99338
20
-3.21595
11
6.99631
21
-3.2256
0
LINE
8
BLACK
6
CONTINUOUS
10
6.99631
20
-3.2256
11
6.99705
21
-3.23312
0
LINE
8
BLACK
6
CONTINUOUS
10
6.99705
20
-3.23312
11
6.99705
21
-3.31688
0
LINE
8
BLACK
6
CONTINUOUS
10
6.99705
20
-3.31688
11
6.99631
21
-3.3244
0
LINE
8
BLACK
6
CONTINUOUS
10
6.99631
20
-3.3244
11
6.99338
21
-3.33405
0
LINE
8
BLACK
6
CONTINUOUS
10
6.99338
20
-3.33405
11
6.98863
21
-3.34294
0
LINE
8
BLACK
6
CONTINUOUS
10
6.98863
20
-3.34294
11
6.98223
21
-3.35074
0
LINE
8
BLACK
6
CONTINUOUS
10
6.98223
20
-3.35074
11
6.97444
21
-3.35713
0
LINE
8
BLACK
6
CONTINUOUS
10
6.97444
20
-3.35713
11
6.96555
21
-3.36188
0
LINE
8
BLACK
6
CONTINUOUS
10
6.96555
20
-3.36188
11
6.9559
21
-3.36481
0
LINE
8
BLACK
6
CONTINUOUS
10
6.9559
20
-3.36481
11
6.94587
21
-3.3658
0
LINE
8
BLACK
6
CONTINUOUS
10
6.94587
20
-3.3658
11
6.93583
21
-3.36481
0
LINE
8
BLACK
6
CONTINUOUS
10
6.93583
20
-3.36481
11
6.92619
21
-3.36188
0
LINE
8
BLACK
6
CONTINUOUS
10
6.92619
20
-3.36188
11
6.91729
21
-3.35713
0
LINE
8
BLACK
6
CONTINUOUS
10
6.91729
20
-3.35713
11
6.9095
21
-3.35074
0
LINE
8
BLACK
6
CONTINUOUS
10
6.9095
20
-3.35074
11
6.9031
21
-3.34294
0
LINE
8
BLACK
6
CONTINUOUS
10
6.9031
20
-3.34294
11
6.89835
21
-3.33405
0
LINE
8
BLACK
6
CONTINUOUS
10
6.89835
20
-3.33405
11
6.89543
21
-3.3244
0
LINE
8
BLACK
6
CONTINUOUS
10
6.89543
20
-3.3244
11
6.89469
21
-3.31688
0
LINE
8
BLACK
6
CONTINUOUS
10
6.89469
20
-3.31688
11
6.89469
21
-3.23312
0
LINE
8
BLACK
6
CONTINUOUS
10
6.89469
20
-3.23312
11
6.89543
21
-3.2256
0
LINE
8
BLACK
6
CONTINUOUS
10
6.89543
20
-3.2256
11
6.89835
21
-3.21595
0
LINE
8
BLACK
6
CONTINUOUS
10
6.89835
20
-3.21595
11
6.9031
21
-3.20706
0
LINE
8
BLACK
6
CONTINUOUS
10
6.9031
20
-3.20706
11
6.9095
21
-3.19926
0
LINE
8
BLACK
6
CONTINUOUS
10
6.9095
20
-3.19926
11
6.91729
21
-3.19287
0
LINE
8
BLACK
6
CONTINUOUS
10
6.91729
20
-3.19287
11
6.92619
21
-3.18812
0
LINE
8
BLACK
6
CONTINUOUS
10
6.92619
20
-3.18812
11
6.93583
21
-3.18519
0
LINE
8
BLACK
6
CONTINUOUS
10
6.93583
20
-3.18519
11
6.94587
21
-3.1842
0
LINE
8
BLACK
6
CONTINUOUS
10
6.94587
20
-3.1842
11
6.9559
21
-3.18519
0
LINE
8
BLACK
6
CONTINUOUS
10
8.3059
20
-3.18519
11
8.31555
21
-3.18812
0
LINE
8
BLACK
6
CONTINUOUS
10
8.31555
20
-3.18812
11
8.32444
21
-3.19287
0
LINE
8
BLACK
6
CONTINUOUS
10
8.32444
20
-3.19287
11
8.33223
21
-3.19926
0
LINE
8
BLACK
6
CONTINUOUS
10
8.33223
20
-3.19926
11
8.33863
21
-3.20706
0
LINE
8
BLACK
6
CONTINUOUS
10
8.33863
20
-3.20706
11
8.34338
21
-3.21595
0
LINE
8
BLACK
6
CONTINUOUS
10
8.34338
20
-3.21595
11
8.34631
21
-3.2256
0
LINE
8
BLACK
6
CONTINUOUS
10
8.34631
20
-3.2256
11
8.34705
21
-3.23312
0
LINE
8
BLACK
6
CONTINUOUS
10
8.34705
20
-3.23312
11
8.34705
21
-3.31688
0
LINE
8
BLACK
6
CONTINUOUS
10
8.34705
20
-3.31688
11
8.34631
21
-3.3244
0
LINE
8
BLACK
6
CONTINUOUS
10
8.34631
20
-3.3244
11
8.34338
21
-3.33405
0
LINE
8
BLACK
6
CONTINUOUS
10
8.34338
20
-3.33405
11
8.33863
21
-3.34294
0
LINE
8
BLACK
6
CONTINUOUS
10
8.33863
20
-3.34294
11
8.33223
21
-3.35074
0
LINE
8
BLACK
6
CONTINUOUS
10
8.33223
20
-3.35074
11
8.32444
21
-3.35713
0
LINE
8
BLACK
6
CONTINUOUS
10
8.32444
20
-3.35713
11
8.31555
21
-3.36188
0
LINE
8
BLACK
6
CONTINUOUS
10
8.31555
20
-3.36188
11
8.3059
21
-3.36481
0
LINE
8
BLACK
6
CONTINUOUS
10
8.3059
20
-3.36481
11
8.29587
21
-3.3658
0
LINE
8
BLACK
6
CONTINUOUS
10
8.29587
20
-3.3658
11
8.28583
21
-3.36481
0
LINE
8
BLACK
6
CONTINUOUS
10
8.28583
20
-3.36481
11
8.27619
21
-3.36188
0
LINE
8
BLACK
6
CONTINUOUS
10
8.27619
20
-3.36188
11
8.26729
21
-3.35713
0
LINE
8
BLACK
6
CONTINUOUS
10
8.26729
20
-3.35713
11
8.2595
21
-3.35074
0
LINE
8
BLACK
6
CONTINUOUS
10
8.2595
20
-3.35074
11
8.2531
21
-3.34294
0
LINE
8
BLACK
6
CONTINUOUS
10
8.2531
20
-3.34294
11
8.24835
21
-3.33405
0
LINE
8
BLACK
6
CONTINUOUS
10
8.24835
20
-3.33405
11
8.24543
21
-3.3244
0
LINE
8
BLACK
6
CONTINUOUS
10
8.24543
20
-3.3244
11
8.24469
21
-3.31688
0
LINE
8
BLACK
6
CONTINUOUS
10
8.24469
20
-3.31688
11
8.24469
21
-3.23312
0
LINE
8
BLACK
6
CONTINUOUS
10
8.24469
20
-3.23312
11
8.24543
21
-3.2256
0
LINE
8
BLACK
6
CONTINUOUS
10
8.24543
20
-3.2256
11
8.24835
21
-3.21595
0
LINE
8
BLACK
6
CONTINUOUS
10
8.24835
20
-3.21595
11
8.2531
21
-3.20706
0
LINE
8
BLACK
6
CONTINUOUS
10
8.2531
20
-3.20706
11
8.2595
21
-3.19926
0
LINE
8
BLACK
6
CONTINUOUS
10
8.2595
20
-3.19926
11
8.26729
21
-3.19287
0
LINE
8
BLACK
6
CONTINUOUS
10
8.26729
20
-3.19287
11
8.27619
21
-3.18812
0
LINE
8
BLACK
6
CONTINUOUS
10
8.27619
20
-3.18812
11
8.28583
21
-3.18519
0
LINE
8
BLACK
6
CONTINUOUS
10
8.28583
20
-3.18519
11
8.29587
21
-3.1842
0
LINE
8
BLACK
6
CONTINUOUS
10
8.29587
20
-3.1842
11
8.3059
21
-3.18519
0
LINE
8
BLACK
6
CONTINUOUS
10
7.17047
20
-3.18519
11
7.18011
21
-3.18812
0
LINE
8
BLACK
6
CONTINUOUS
10
7.18011
20
-3.18812
11
7.18901
21
-3.19287
0
LINE
8
BLACK
6
CONTINUOUS
10
7.18901
20
-3.19287
11
7.1968
21
-3.19926
0
LINE
8
BLACK
6
CONTINUOUS
10
7.1968
20
-3.19926
11
7.20319
21
-3.20706
0
LINE
8
BLACK
6
CONTINUOUS
10
7.20319
20
-3.20706
11
7.20795
21
-3.21595
0
LINE
8
BLACK
6
CONTINUOUS
10
7.20795
20
-3.21595
11
7.21087
21
-3.2256
0
LINE
8
BLACK
6
CONTINUOUS
10
7.21087
20
-3.2256
11
7.21161
21
-3.23312
0
LINE
8
BLACK
6
CONTINUOUS
10
7.21161
20
-3.23312
11
7.21161
21
-3.31688
0
LINE
8
BLACK
6
CONTINUOUS
10
7.21161
20
-3.31688
11
7.21087
21
-3.3244
0
LINE
8
BLACK
6
CONTINUOUS
10
7.21087
20
-3.3244
11
7.20795
21
-3.33405
0
LINE
8
BLACK
6
CONTINUOUS
10
7.20795
20
-3.33405
11
7.20319
21
-3.34294
0
LINE
8
BLACK
6
CONTINUOUS
10
7.20319
20
-3.34294
11
7.1968
21
-3.35074
0
LINE
8
BLACK
6
CONTINUOUS
10
7.1968
20
-3.35074
11
7.18901
21
-3.35713
0
LINE
8
BLACK
6
CONTINUOUS
10
7.18901
20
-3.35713
11
7.18011
21
-3.36188
0
LINE
8
BLACK
6
CONTINUOUS
10
7.18011
20
-3.36188
11
7.17047
21
-3.36481
0
LINE
8
BLACK
6
CONTINUOUS
10
7.17047
20
-3.36481
11
7.16043
21
-3.3658
0
LINE
8
BLACK
6
CONTINUOUS
10
7.16043
20
-3.3658
11
7.1504
21
-3.36481
0
LINE
8
BLACK
6
CONTINUOUS
10
7.1504
20
-3.36481
11
7.14075
21
-3.36188
0
LINE
8
BLACK
6
CONTINUOUS
10
7.14075
20
-3.36188
11
7.13186
21
-3.35713
0
LINE
8
BLACK
6
CONTINUOUS
10
7.13186
20
-3.35713
11
7.12407
21
-3.35074
0
LINE
8
BLACK
6
CONTINUOUS
10
7.12407
20
-3.35074
11
7.11767
21
-3.34294
0
LINE
8
BLACK
6
CONTINUOUS
10
7.11767
20
-3.34294
11
7.11292
21
-3.33405
0
LINE
8
BLACK
6
CONTINUOUS
10
7.11292
20
-3.33405
11
7.10999
21
-3.3244
0
LINE
8
BLACK
6
CONTINUOUS
10
7.10999
20
-3.3244
11
7.10925
21
-3.31688
0
LINE
8
BLACK
6
CONTINUOUS
10
7.10925
20
-3.31688
11
7.10925
21
-3.23312
0
LINE
8
BLACK
6
CONTINUOUS
10
7.10925
20
-3.23312
11
7.10999
21
-3.2256
0
LINE
8
BLACK
6
CONTINUOUS
10
7.10999
20
-3.2256
11
7.11292
21
-3.21595
0
LINE
8
BLACK
6
CONTINUOUS
10
7.11292
20
-3.21595
11
7.11767
21
-3.20706
0
LINE
8
BLACK
6
CONTINUOUS
10
7.11767
20
-3.20706
11
7.12407
21
-3.19926
0
LINE
8
BLACK
6
CONTINUOUS
10
7.12407
20
-3.19926
11
7.13186
21
-3.19287
0
LINE
8
BLACK
6
CONTINUOUS
10
7.13186
20
-3.19287
11
7.14075
21
-3.18812
0
LINE
8
BLACK
6
CONTINUOUS
10
7.14075
20
-3.18812
11
7.1504
21
-3.18519
0
LINE
8
BLACK
6
CONTINUOUS
10
7.1504
20
-3.18519
11
7.16043
21
-3.1842
0
LINE
8
BLACK
6
CONTINUOUS
10
7.16043
20
-3.1842
11
7.17047
21
-3.18519
0
LINE
8
BLACK
6
CONTINUOUS
10
2.70118
20
-3.36555
11
2.59882
21
-3.36555
0
LINE
8
BLACK
6
CONTINUOUS
10
2.59882
20
-3.36555
11
2.59882
21
-3.18445
0
LINE
8
BLACK
6
CONTINUOUS
10
2.59882
20
-3.18445
11
2.70118
21
-3.18445
0
LINE
8
BLACK
6
CONTINUOUS
10
2.70118
20
-3.18445
11
2.70118
21
-3.36555
0
LINE
8
BLACK
6
CONTINUOUS
10
8.77618
20
-3.36555
11
8.67382
21
-3.36555
0
LINE
8
BLACK
6
CONTINUOUS
10
8.67382
20
-3.36555
11
8.67382
21
-3.18445
0
LINE
8
BLACK
6
CONTINUOUS
10
8.67382
20
-3.18445
11
8.77618
21
-3.18445
0
LINE
8
BLACK
6
CONTINUOUS
10
8.77618
20
-3.18445
11
8.77618
21
-3.36555
0
LINE
8
BLACK
6
CONTINUOUS
10
3.37618
20
-3.36555
11
3.27382
21
-3.36555
0
LINE
8
BLACK
6
CONTINUOUS
10
3.27382
20
-3.36555
11
3.27382
21
-3.18445
0
LINE
8
BLACK
6
CONTINUOUS
10
3.27382
20
-3.18445
11
3.37618
21
-3.18445
0
LINE
8
BLACK
6
CONTINUOUS
10
3.37618
20
-3.18445
11
3.37618
21
-3.36555
0
LINE
8
BLACK
6
CONTINUOUS
10
8.10118
20
-3.36555
11
7.99882
21
-3.36555
0
LINE
8
BLACK
6
CONTINUOUS
10
7.99882
20
-3.36555
11
7.99882
21
-3.18445
0
LINE
8
BLACK
6
CONTINUOUS
10
7.99882
20
-3.18445
11
8.10118
21
-3.18445
0
LINE
8
BLACK
6
CONTINUOUS
10
8.10118
20
-3.18445
11
8.10118
21
-3.36555
0
LINE
8
BLACK
6
CONTINUOUS
10
2.02618
20
-3.36555
11
1.92382
21
-3.36555
0
LINE
8
BLACK
6
CONTINUOUS
10
1.92382
20
-3.36555
11
1.92382
21
-3.18445
0
LINE
8
BLACK
6
CONTINUOUS
10
1.92382
20
-3.18445
11
2.02618
21
-3.18445
0
LINE
8
BLACK
6
CONTINUOUS
10
2.02618
20
-3.18445
11
2.02618
21
-3.36555
0
LINE
8
BLACK
6
CONTINUOUS
10
4.05118
20
-3.36555
11
3.94882
21
-3.36555
0
LINE
8
BLACK
6
CONTINUOUS
10
3.94882
20
-3.36555
11
3.94882
21
-3.18445
0
LINE
8
BLACK
6
CONTINUOUS
10
3.94882
20
-3.18445
11
4.05118
21
-3.18445
0
LINE
8
BLACK
6
CONTINUOUS
10
4.05118
20
-3.18445
11
4.05118
21
-3.36555
0
LINE
8
BLACK
6
CONTINUOUS
10
4.72618
20
-3.36555
11
4.62382
21
-3.36555
0
LINE
8
BLACK
6
CONTINUOUS
10
4.62382
20
-3.36555
11
4.62382
21
-3.18445
0
LINE
8
BLACK
6
CONTINUOUS
10
4.62382
20
-3.18445
11
4.72618
21
-3.18445
0
LINE
8
BLACK
6
CONTINUOUS
10
4.72618
20
-3.18445
11
4.72618
21
-3.36555
0
LINE
8
BLACK
6
CONTINUOUS
10
7.42618
20
-3.36555
11
7.32382
21
-3.36555
0
LINE
8
BLACK
6
CONTINUOUS
10
7.32382
20
-3.36555
11
7.32382
21
-3.18445
0
LINE
8
BLACK
6
CONTINUOUS
10
7.32382
20
-3.18445
11
7.42618
21
-3.18445
0
LINE
8
BLACK
6
CONTINUOUS
10
7.42618
20
-3.18445
11
7.42618
21
-3.36555
0
LINE
8
BLACK
6
CONTINUOUS
10
1.35118
20
-3.36555
11
1.24882
21
-3.36555
0
LINE
8
BLACK
6
CONTINUOUS
10
1.24882
20
-3.36555
11
1.24882
21
-3.18445
0
LINE
8
BLACK
6
CONTINUOUS
10
1.24882
20
-3.18445
11
1.35118
21
-3.18445
0
LINE
8
BLACK
6
CONTINUOUS
10
1.35118
20
-3.18445
11
1.35118
21
-3.36555
0
LINE
8
BLACK
6
CONTINUOUS
10
5.40118
20
-3.36555
11
5.29882
21
-3.36555
0
LINE
8
BLACK
6
CONTINUOUS
10
5.29882
20
-3.36555
11
5.29882
21
-3.18445
0
LINE
8
BLACK
6
CONTINUOUS
10
5.29882
20
-3.18445
11
5.40118
21
-3.18445
0
LINE
8
BLACK
6
CONTINUOUS
10
5.40118
20
-3.18445
11
5.40118
21
-3.36555
0
LINE
8
BLACK
6
CONTINUOUS
10
6.07618
20
-3.36555
11
5.97382
21
-3.36555
0
LINE
8
BLACK
6
CONTINUOUS
10
5.97382
20
-3.36555
11
5.97382
21
-3.18445
0
LINE
8
BLACK
6
CONTINUOUS
10
5.97382
20
-3.18445
11
6.07618
21
-3.18445
0
LINE
8
BLACK
6
CONTINUOUS
10
6.07618
20
-3.18445
11
6.07618
21
-3.36555
0
LINE
8
BLACK
6
CONTINUOUS
10
6.75118
20
-3.36555
11
6.64882
21
-3.36555
0
LINE
8
BLACK
6
CONTINUOUS
10
6.64882
20
-3.36555
11
6.64882
21
-3.18445
0
LINE
8
BLACK
6
CONTINUOUS
10
6.64882
20
-3.18445
11
6.75118
21
-3.18445
0
LINE
8
BLACK
6
CONTINUOUS
10
6.75118
20
-3.18445
11
6.75118
21
-3.36555
0
LINE
8
BLACK
6
CONTINUOUS
10
9.54704
20
-2.43011
11
9.60758
21
-2.45519
0
LINE
8
BLACK
6
CONTINUOUS
10
9.60758
20
-2.45519
11
9.66207
21
-2.49159
0
LINE
8
BLACK
6
CONTINUOUS
10
9.66207
20
-2.49159
11
9.70841
21
-2.53793
0
LINE
8
BLACK
6
CONTINUOUS
10
9.70841
20
-2.53793
11
9.74481
21
-2.59242
0
LINE
8
BLACK
6
CONTINUOUS
10
9.74481
20
-2.59242
11
9.76989
21
-2.65296
0
LINE
8
BLACK
6
CONTINUOUS
10
9.76989
20
-2.65296
11
9.78268
21
-2.71723
0
LINE
8
BLACK
6
CONTINUOUS
10
9.78268
20
-2.71723
11
9.78268
21
-2.78277
0
LINE
8
BLACK
6
CONTINUOUS
10
9.78268
20
-2.78277
11
9.76989
21
-2.84704
0
LINE
8
BLACK
6
CONTINUOUS
10
9.76989
20
-2.84704
11
9.74481
21
-2.90758
0
LINE
8
BLACK
6
CONTINUOUS
10
9.74481
20
-2.90758
11
9.70841
21
-2.96207
0
LINE
8
BLACK
6
CONTINUOUS
10
9.70841
20
-2.96207
11
9.66207
21
-3.00841
0
LINE
8
BLACK
6
CONTINUOUS
10
9.66207
20
-3.00841
11
9.60758
21
-3.04481
0
LINE
8
BLACK
6
CONTINUOUS
10
9.60758
20
-3.04481
11
9.54704
21
-3.06989
0
LINE
8
BLACK
6
CONTINUOUS
10
9.54704
20
-3.06989
11
9.48277
21
-3.08268
0
LINE
8
BLACK
6
CONTINUOUS
10
9.48277
20
-3.08268
11
9.41723
21
-3.08268
0
LINE
8
BLACK
6
CONTINUOUS
10
9.41723
20
-3.08268
11
9.35296
21
-3.06989
0
LINE
8
BLACK
6
CONTINUOUS
10
9.35296
20
-3.06989
11
9.29242
21
-3.04481
0
LINE
8
BLACK
6
CONTINUOUS
10
9.29242
20
-3.04481
11
9.23793
21
-3.00841
0
LINE
8
BLACK
6
CONTINUOUS
10
9.23793
20
-3.00841
11
9.19159
21
-2.96207
0
LINE
8
BLACK
6
CONTINUOUS
10
9.19159
20
-2.96207
11
9.15519
21
-2.90758
0
LINE
8
BLACK
6
CONTINUOUS
10
9.15519
20
-2.90758
11
9.13011
21
-2.84704
0
LINE
8
BLACK
6
CONTINUOUS
10
9.13011
20
-2.84704
11
9.11732
21
-2.78277
0
LINE
8
BLACK
6
CONTINUOUS
10
9.11732
20
-2.78277
11
9.11732
21
-2.71723
0
LINE
8
BLACK
6
CONTINUOUS
10
9.11732
20
-2.71723
11
9.13011
21
-2.65296
0
LINE
8
BLACK
6
CONTINUOUS
10
9.13011
20
-2.65296
11
9.15519
21
-2.59242
0
LINE
8
BLACK
6
CONTINUOUS
10
9.15519
20
-2.59242
11
9.19159
21
-2.53793
0
LINE
8
BLACK
6
CONTINUOUS
10
9.19159
20
-2.53793
11
9.23793
21
-2.49159
0
LINE
8
BLACK
6
CONTINUOUS
10
9.23793
20
-2.49159
11
9.29242
21
-2.45519
0
LINE
8
BLACK
6
CONTINUOUS
10
9.29242
20
-2.45519
11
9.35296
21
-2.43011
0
LINE
8
BLACK
6
CONTINUOUS
10
9.35296
20
-2.43011
11
9.41723
21
-2.41732
0
LINE
8
BLACK
6
CONTINUOUS
10
9.41723
20
-2.41732
11
9.48277
21
-2.41732
0
LINE
8
BLACK
6
CONTINUOUS
10
9.48277
20
-2.41732
11
9.54704
21
-2.43011
0
LINE
8
BLACK
6
CONTINUOUS
10
1.78168
20
-2.42307
11
1.79493
21
-2.42857
0
LINE
8
BLACK
6
CONTINUOUS
10
1.79493
20
-2.42857
11
1.80686
21
-2.43654
0
LINE
8
BLACK
6
CONTINUOUS
10
1.80686
20
-2.43654
11
1.81701
21
-2.44668
0
LINE
8
BLACK
6
CONTINUOUS
10
1.81701
20
-2.44668
11
1.82498
21
-2.45861
0
LINE
8
BLACK
6
CONTINUOUS
10
1.82498
20
-2.45861
11
1.83047
21
-2.47187
0
LINE
8
BLACK
6
CONTINUOUS
10
1.83047
20
-2.47187
11
1.83327
21
-2.48594
0
LINE
8
BLACK
6
CONTINUOUS
10
1.83327
20
-2.48594
11
1.83327
21
-2.50028
0
LINE
8
BLACK
6
CONTINUOUS
10
1.83327
20
-2.50028
11
1.83047
21
-2.51436
0
LINE
8
BLACK
6
CONTINUOUS
10
1.83047
20
-2.51436
11
1.82498
21
-2.52761
0
LINE
8
BLACK
6
CONTINUOUS
10
1.82498
20
-2.52761
11
1.81701
21
-2.53954
0
LINE
8
BLACK
6
CONTINUOUS
10
1.81701
20
-2.53954
11
1.80686
21
-2.54968
0
LINE
8
BLACK
6
CONTINUOUS
10
1.80686
20
-2.54968
11
1.79493
21
-2.55766
0
LINE
8
BLACK
6
CONTINUOUS
10
1.79493
20
-2.55766
11
1.78168
21
-2.56315
0
LINE
8
BLACK
6
CONTINUOUS
10
1.78168
20
-2.56315
11
1.76761
21
-2.56594
0
LINE
8
BLACK
6
CONTINUOUS
10
1.76761
20
-2.56594
11
1.75326
21
-2.56594
0
LINE
8
BLACK
6
CONTINUOUS
10
1.75326
20
-2.56594
11
1.73919
21
-2.56315
0
LINE
8
BLACK
6
CONTINUOUS
10
1.73919
20
-2.56315
11
1.72593
21
-2.55766
0
LINE
8
BLACK
6
CONTINUOUS
10
1.72593
20
-2.55766
11
1.714
21
-2.54968
0
LINE
8
BLACK
6
CONTINUOUS
10
1.714
20
-2.54968
11
1.70386
21
-2.53954
0
LINE
8
BLACK
6
CONTINUOUS
10
1.70386
20
-2.53954
11
1.69589
21
-2.52761
0
LINE
8
BLACK
6
CONTINUOUS
10
1.69589
20
-2.52761
11
1.6904
21
-2.51436
0
LINE
8
BLACK
6
CONTINUOUS
10
1.6904
20
-2.51436
11
1.6876
21
-2.50028
0
LINE
8
BLACK
6
CONTINUOUS
10
1.6876
20
-2.50028
11
1.6876
21
-2.48594
0
LINE
8
BLACK
6
CONTINUOUS
10
1.6876
20
-2.48594
11
1.6904
21
-2.47187
0
LINE
8
BLACK
6
CONTINUOUS
10
1.6904
20
-2.47187
11
1.69589
21
-2.45861
0
LINE
8
BLACK
6
CONTINUOUS
10
1.69589
20
-2.45861
11
1.70386
21
-2.44668
0
LINE
8
BLACK
6
CONTINUOUS
10
1.70386
20
-2.44668
11
1.714
21
-2.43654
0
LINE
8
BLACK
6
CONTINUOUS
10
1.714
20
-2.43654
11
1.72593
21
-2.42857
0
LINE
8
BLACK
6
CONTINUOUS
10
1.72593
20
-2.42857
11
1.73919
21
-2.42307
0
LINE
8
BLACK
6
CONTINUOUS
10
1.73919
20
-2.42307
11
1.75326
21
-2.42028
0
LINE
8
BLACK
6
CONTINUOUS
10
1.75326
20
-2.42028
11
1.76761
21
-2.42028
0
LINE
8
BLACK
6
CONTINUOUS
10
1.76761
20
-2.42028
11
1.78168
21
-2.42307
0
LINE
8
BLACK
6
CONTINUOUS
10
6.50668
20
-2.42307
11
6.51993
21
-2.42857
0
LINE
8
BLACK
6
CONTINUOUS
10
6.51993
20
-2.42857
11
6.53186
21
-2.43654
0
LINE
8
BLACK
6
CONTINUOUS
10
6.53186
20
-2.43654
11
6.54201
21
-2.44668
0
LINE
8
BLACK
6
CONTINUOUS
10
6.54201
20
-2.44668
11
6.54998
21
-2.45861
0
LINE
8
BLACK
6
CONTINUOUS
10
6.54998
20
-2.45861
11
6.55547
21
-2.47187
0
LINE
8
BLACK
6
CONTINUOUS
10
6.55547
20
-2.47187
11
6.55827
21
-2.48594
0
LINE
8
BLACK
6
CONTINUOUS
10
6.55827
20
-2.48594
11
6.55827
21
-2.50028
0
LINE
8
BLACK
6
CONTINUOUS
10
6.55827
20
-2.50028
11
6.55547
21
-2.51436
0
LINE
8
BLACK
6
CONTINUOUS
10
6.55547
20
-2.51436
11
6.54998
21
-2.52761
0
LINE
8
BLACK
6
CONTINUOUS
10
6.54998
20
-2.52761
11
6.54201
21
-2.53954
0
LINE
8
BLACK
6
CONTINUOUS
10
6.54201
20
-2.53954
11
6.53186
21
-2.54968
0
LINE
8
BLACK
6
CONTINUOUS
10
6.53186
20
-2.54968
11
6.51993
21
-2.55766
0
LINE
8
BLACK
6
CONTINUOUS
10
6.51993
20
-2.55766
11
6.50668
21
-2.56315
0
LINE
8
BLACK
6
CONTINUOUS
10
6.50668
20
-2.56315
11
6.49261
21
-2.56594
0
LINE
8
BLACK
6
CONTINUOUS
10
6.49261
20
-2.56594
11
6.47826
21
-2.56594
0
LINE
8
BLACK
6
CONTINUOUS
10
6.47826
20
-2.56594
11
6.46419
21
-2.56315
0
LINE
8
BLACK
6
CONTINUOUS
10
6.46419
20
-2.56315
11
6.45093
21
-2.55766
0
LINE
8
BLACK
6
CONTINUOUS
10
6.45093
20
-2.55766
11
6.439
21
-2.54968
0
LINE
8
BLACK
6
CONTINUOUS
10
6.439
20
-2.54968
11
6.42886
21
-2.53954
0
LINE
8
BLACK
6
CONTINUOUS
10
6.42886
20
-2.53954
11
6.42089
21
-2.52761
0
LINE
8
BLACK
6
CONTINUOUS
10
6.42089
20
-2.52761
11
6.4154
21
-2.51436
0
LINE
8
BLACK
6
CONTINUOUS
10
6.4154
20
-2.51436
11
6.4126
21
-2.50028
0
LINE
8
BLACK
6
CONTINUOUS
10
6.4126
20
-2.50028
11
6.4126
21
-2.48594
0
LINE
8
BLACK
6
CONTINUOUS
10
6.4126
20
-2.48594
11
6.4154
21
-2.47187
0
LINE
8
BLACK
6
CONTINUOUS
10
6.4154
20
-2.47187
11
6.42089
21
-2.45861
0
LINE
8
BLACK
6
CONTINUOUS
10
6.42089
20
-2.45861
11
6.42886
21
-2.44668
0
LINE
8
BLACK
6
CONTINUOUS
10
6.42886
20
-2.44668
11
6.439
21
-2.43654
0
LINE
8
BLACK
6
CONTINUOUS
10
6.439
20
-2.43654
11
6.45093
21
-2.42857
0
LINE
8
BLACK
6
CONTINUOUS
10
6.45093
20
-2.42857
11
6.46419
21
-2.42307
0
LINE
8
BLACK
6
CONTINUOUS
10
6.46419
20
-2.42307
11
6.47826
21
-2.42028
0
LINE
8
BLACK
6
CONTINUOUS
10
6.47826
20
-2.42028
11
6.49261
21
-2.42028
0
LINE
8
BLACK
6
CONTINUOUS
10
6.49261
20
-2.42028
11
6.50668
21
-2.42307
0
LINE
8
BLACK
6
CONTINUOUS
10
1.10668
20
-2.42307
11
1.11993
21
-2.42857
0
LINE
8
BLACK
6
CONTINUOUS
10
1.11993
20
-2.42857
11
1.13186
21
-2.43654
0
LINE
8
BLACK
6
CONTINUOUS
10
1.13186
20
-2.43654
11
1.14201
21
-2.44668
0
LINE
8
BLACK
6
CONTINUOUS
10
1.14201
20
-2.44668
11
1.14998
21
-2.45861
0
LINE
8
BLACK
6
CONTINUOUS
10
1.14998
20
-2.45861
11
1.15547
21
-2.47187
0
LINE
8
BLACK
6
CONTINUOUS
10
1.15547
20
-2.47187
11
1.15827
21
-2.48594
0
LINE
8
BLACK
6
CONTINUOUS
10
1.15827
20
-2.48594
11
1.15827
21
-2.50028
0
LINE
8
BLACK
6
CONTINUOUS
10
1.15827
20
-2.50028
11
1.15547
21
-2.51436
0
LINE
8
BLACK
6
CONTINUOUS
10
1.15547
20
-2.51436
11
1.14998
21
-2.52761
0
LINE
8
BLACK
6
CONTINUOUS
10
1.14998
20
-2.52761
11
1.14201
21
-2.53954
0
LINE
8
BLACK
6
CONTINUOUS
10
1.14201
20
-2.53954
11
1.13186
21
-2.54968
0
LINE
8
BLACK
6
CONTINUOUS
10
1.13186
20
-2.54968
11
1.11993
21
-2.55766
0
LINE
8
BLACK
6
CONTINUOUS
10
1.11993
20
-2.55766
11
1.10668
21
-2.56315
0
LINE
8
BLACK
6
CONTINUOUS
10
1.10668
20
-2.56315
11
1.09261
21
-2.56594
0
LINE
8
BLACK
6
CONTINUOUS
10
1.09261
20
-2.56594
11
1.07826
21
-2.56594
0
LINE
8
BLACK
6
CONTINUOUS
10
1.07826
20
-2.56594
11
1.06419
21
-2.56315
0
LINE
8
BLACK
6
CONTINUOUS
10
1.06419
20
-2.56315
11
1.05093
21
-2.55766
0
LINE
8
BLACK
6
CONTINUOUS
10
1.05093
20
-2.55766
11
1.039
21
-2.54968
0
LINE
8
BLACK
6
CONTINUOUS
10
1.039
20
-2.54968
11
1.02886
21
-2.53954
0
LINE
8
BLACK
6
CONTINUOUS
10
1.02886
20
-2.53954
11
1.02089
21
-2.52761
0
LINE
8
BLACK
6
CONTINUOUS
10
1.02089
20
-2.52761
11
1.0154
21
-2.51436
0
LINE
8
BLACK
6
CONTINUOUS
10
1.0154
20
-2.51436
11
1.0126
21
-2.50028
0
LINE
8
BLACK
6
CONTINUOUS
10
1.0126
20
-2.50028
11
1.0126
21
-2.48594
0
LINE
8
BLACK
6
CONTINUOUS
10
1.0126
20
-2.48594
11
1.0154
21
-2.47187
0
LINE
8
BLACK
6
CONTINUOUS
10
1.0154
20
-2.47187
11
1.02089
21
-2.45861
0
LINE
8
BLACK
6
CONTINUOUS
10
1.02089
20
-2.45861
11
1.02886
21
-2.44668
0
LINE
8
BLACK
6
CONTINUOUS
10
1.02886
20
-2.44668
11
1.039
21
-2.43654
0
LINE
8
BLACK
6
CONTINUOUS
10
1.039
20
-2.43654
11
1.05093
21
-2.42857
0
LINE
8
BLACK
6
CONTINUOUS
10
1.05093
20
-2.42857
11
1.06419
21
-2.42307
0
LINE
8
BLACK
6
CONTINUOUS
10
1.06419
20
-2.42307
11
1.07826
21
-2.42028
0
LINE
8
BLACK
6
CONTINUOUS
10
1.07826
20
-2.42028
11
1.09261
21
-2.42028
0
LINE
8
BLACK
6
CONTINUOUS
10
1.09261
20
-2.42028
11
1.10668
21
-2.42307
0
LINE
8
BLACK
6
CONTINUOUS
10
2.45668
20
-2.42307
11
2.46993
21
-2.42857
0
LINE
8
BLACK
6
CONTINUOUS
10
2.46993
20
-2.42857
11
2.48186
21
-2.43654
0
LINE
8
BLACK
6
CONTINUOUS
10
2.48186
20
-2.43654
11
2.49201
21
-2.44668
0
LINE
8
BLACK
6
CONTINUOUS
10
2.49201
20
-2.44668
11
2.49998
21
-2.45861
0
LINE
8
BLACK
6
CONTINUOUS
10
2.49998
20
-2.45861
11
2.50547
21
-2.47187
0
LINE
8
BLACK
6
CONTINUOUS
10
2.50547
20
-2.47187
11
2.50827
21
-2.48594
0
LINE
8
BLACK
6
CONTINUOUS
10
2.50827
20
-2.48594
11
2.50827
21
-2.50028
0
LINE
8
BLACK
6
CONTINUOUS
10
2.50827
20
-2.50028
11
2.50547
21
-2.51436
0
LINE
8
BLACK
6
CONTINUOUS
10
2.50547
20
-2.51436
11
2.49998
21
-2.52761
0
LINE
8
BLACK
6
CONTINUOUS
10
2.49998
20
-2.52761
11
2.49201
21
-2.53954
0
LINE
8
BLACK
6
CONTINUOUS
10
2.49201
20
-2.53954
11
2.48186
21
-2.54968
0
LINE
8
BLACK
6
CONTINUOUS
10
2.48186
20
-2.54968
11
2.46993
21
-2.55766
0
LINE
8
BLACK
6
CONTINUOUS
10
2.46993
20
-2.55766
11
2.45668
21
-2.56315
0
LINE
8
BLACK
6
CONTINUOUS
10
2.45668
20
-2.56315
11
2.44261
21
-2.56594
0
LINE
8
BLACK
6
CONTINUOUS
10
2.44261
20
-2.56594
11
2.42826
21
-2.56594
0
LINE
8
BLACK
6
CONTINUOUS
10
2.42826
20
-2.56594
11
2.41419
21
-2.56315
0
LINE
8
BLACK
6
CONTINUOUS
10
2.41419
20
-2.56315
11
2.40093
21
-2.55766
0
LINE
8
BLACK
6
CONTINUOUS
10
2.40093
20
-2.55766
11
2.389
21
-2.54968
0
LINE
8
BLACK
6
CONTINUOUS
10
2.389
20
-2.54968
11
2.37886
21
-2.53954
0
LINE
8
BLACK
6
CONTINUOUS
10
2.37886
20
-2.53954
11
2.37089
21
-2.52761
0
LINE
8
BLACK
6
CONTINUOUS
10
2.37089
20
-2.52761
11
2.3654
21
-2.51436
0
LINE
8
BLACK
6
CONTINUOUS
10
2.3654
20
-2.51436
11
2.3626
21
-2.50028
0
LINE
8
BLACK
6
CONTINUOUS
10
2.3626
20
-2.50028
11
2.3626
21
-2.48594
0
LINE
8
BLACK
6
CONTINUOUS
10
2.3626
20
-2.48594
11
2.3654
21
-2.47187
0
LINE
8
BLACK
6
CONTINUOUS
10
2.3654
20
-2.47187
11
2.37089
21
-2.45861
0
LINE
8
BLACK
6
CONTINUOUS
10
2.37089
20
-2.45861
11
2.37886
21
-2.44668
0
LINE
8
BLACK
6
CONTINUOUS
10
2.37886
20
-2.44668
11
2.389
21
-2.43654
0
LINE
8
BLACK
6
CONTINUOUS
10
2.389
20
-2.43654
11
2.40093
21
-2.42857
0
LINE
8
BLACK
6
CONTINUOUS
10
2.40093
20
-2.42857
11
2.41419
21
-2.42307
0
LINE
8
BLACK
6
CONTINUOUS
10
2.41419
20
-2.42307
11
2.42826
21
-2.42028
0
LINE
8
BLACK
6
CONTINUOUS
10
2.42826
20
-2.42028
11
2.44261
21
-2.42028
0
LINE
8
BLACK
6
CONTINUOUS
10
2.44261
20
-2.42028
11
2.45668
21
-2.42307
0
LINE
8
BLACK
6
CONTINUOUS
10
8.53168
20
-2.42307
11
8.54493
21
-2.42857
0
LINE
8
BLACK
6
CONTINUOUS
10
8.54493
20
-2.42857
11
8.55686
21
-2.43654
0
LINE
8
BLACK
6
CONTINUOUS
10
8.55686
20
-2.43654
11
8.56701
21
-2.44668
0
LINE
8
BLACK
6
CONTINUOUS
10
8.56701
20
-2.44668
11
8.57498
21
-2.45861
0
LINE
8
BLACK
6
CONTINUOUS
10
8.57498
20
-2.45861
11
8.58047
21
-2.47187
0
LINE
8
BLACK
6
CONTINUOUS
10
8.58047
20
-2.47187
11
8.58327
21
-2.48594
0
LINE
8
BLACK
6
CONTINUOUS
10
8.58327
20
-2.48594
11
8.58327
21
-2.50028
0
LINE
8
BLACK
6
CONTINUOUS
10
8.58327
20
-2.50028
11
8.58047
21
-2.51436
0
LINE
8
BLACK
6
CONTINUOUS
10
8.58047
20
-2.51436
11
8.57498
21
-2.52761
0
LINE
8
BLACK
6
CONTINUOUS
10
8.57498
20
-2.52761
11
8.56701
21
-2.53954
0
LINE
8
BLACK
6
CONTINUOUS
10
8.56701
20
-2.53954
11
8.55686
21
-2.54968
0
LINE
8
BLACK
6
CONTINUOUS
10
8.55686
20
-2.54968
11
8.54493
21
-2.55766
0
LINE
8
BLACK
6
CONTINUOUS
10
8.54493
20
-2.55766
11
8.53168
21
-2.56315
0
LINE
8
BLACK
6
CONTINUOUS
10
8.53168
20
-2.56315
11
8.51761
21
-2.56594
0
LINE
8
BLACK
6
CONTINUOUS
10
8.51761
20
-2.56594
11
8.50326
21
-2.56594
0
LINE
8
BLACK
6
CONTINUOUS
10
8.50326
20
-2.56594
11
8.48919
21
-2.56315
0
LINE
8
BLACK
6
CONTINUOUS
10
8.48919
20
-2.56315
11
8.47593
21
-2.55766
0
LINE
8
BLACK
6
CONTINUOUS
10
8.47593
20
-2.55766
11
8.464
21
-2.54968
0
LINE
8
BLACK
6
CONTINUOUS
10
8.464
20
-2.54968
11
8.45386
21
-2.53954
0
LINE
8
BLACK
6
CONTINUOUS
10
8.45386
20
-2.53954
11
8.44589
21
-2.52761
0
LINE
8
BLACK
6
CONTINUOUS
10
8.44589
20
-2.52761
11
8.4404
21
-2.51436
0
LINE
8
BLACK
6
CONTINUOUS
10
8.4404
20
-2.51436
11
8.4376
21
-2.50028
0
LINE
8
BLACK
6
CONTINUOUS
10
8.4376
20
-2.50028
11
8.4376
21
-2.48594
0
LINE
8
BLACK
6
CONTINUOUS
10
8.4376
20
-2.48594
11
8.4404
21
-2.47187
0
LINE
8
BLACK
6
CONTINUOUS
10
8.4404
20
-2.47187
11
8.44589
21
-2.45861
0
LINE
8
BLACK
6
CONTINUOUS
10
8.44589
20
-2.45861
11
8.45386
21
-2.44668
0
LINE
8
BLACK
6
CONTINUOUS
10
8.45386
20
-2.44668
11
8.464
21
-2.43654
0
LINE
8
BLACK
6
CONTINUOUS
10
8.464
20
-2.43654
11
8.47593
21
-2.42857
0
LINE
8
BLACK
6
CONTINUOUS
10
8.47593
20
-2.42857
11
8.48919
21
-2.42307
0
LINE
8
BLACK
6
CONTINUOUS
10
8.48919
20
-2.42307
11
8.50326
21
-2.42028
0
LINE
8
BLACK
6
CONTINUOUS
10
8.50326
20
-2.42028
11
8.51761
21
-2.42028
0
LINE
8
BLACK
6
CONTINUOUS
10
8.51761
20
-2.42028
11
8.53168
21
-2.42307
0
LINE
8
BLACK
6
CONTINUOUS
10
3.13168
20
-2.42307
11
3.14493
21
-2.42857
0
LINE
8
BLACK
6
CONTINUOUS
10
3.14493
20
-2.42857
11
3.15686
21
-2.43654
0
LINE
8
BLACK
6
CONTINUOUS
10
3.15686
20
-2.43654
11
3.16701
21
-2.44668
0
LINE
8
BLACK
6
CONTINUOUS
10
3.16701
20
-2.44668
11
3.17498
21
-2.45861
0
LINE
8
BLACK
6
CONTINUOUS
10
3.17498
20
-2.45861
11
3.18047
21
-2.47187
0
LINE
8
BLACK
6
CONTINUOUS
10
3.18047
20
-2.47187
11
3.18327
21
-2.48594
0
LINE
8
BLACK
6
CONTINUOUS
10
3.18327
20
-2.48594
11
3.18327
21
-2.50028
0
LINE
8
BLACK
6
CONTINUOUS
10
3.18327
20
-2.50028
11
3.18047
21
-2.51436
0
LINE
8
BLACK
6
CONTINUOUS
10
3.18047
20
-2.51436
11
3.17498
21
-2.52761
0
LINE
8
BLACK
6
CONTINUOUS
10
3.17498
20
-2.52761
11
3.16701
21
-2.53954
0
LINE
8
BLACK
6
CONTINUOUS
10
3.16701
20
-2.53954
11
3.15686
21
-2.54968
0
LINE
8
BLACK
6
CONTINUOUS
10
3.15686
20
-2.54968
11
3.14493
21
-2.55766
0
LINE
8
BLACK
6
CONTINUOUS
10
3.14493
20
-2.55766
11
3.13168
21
-2.56315
0
LINE
8
BLACK
6
CONTINUOUS
10
3.13168
20
-2.56315
11
3.11761
21
-2.56594
0
LINE
8
BLACK
6
CONTINUOUS
10
3.11761
20
-2.56594
11
3.10326
21
-2.56594
0
LINE
8
BLACK
6
CONTINUOUS
10
3.10326
20
-2.56594
11
3.08919
21
-2.56315
0
LINE
8
BLACK
6
CONTINUOUS
10
3.08919
20
-2.56315
11
3.07593
21
-2.55766
0
LINE
8
BLACK
6
CONTINUOUS
10
3.07593
20
-2.55766
11
3.064
21
-2.54968
0
LINE
8
BLACK
6
CONTINUOUS
10
3.064
20
-2.54968
11
3.05386
21
-2.53954
0
LINE
8
BLACK
6
CONTINUOUS
10
3.05386
20
-2.53954
11
3.04589
21
-2.52761
0
LINE
8
BLACK
6
CONTINUOUS
10
3.04589
20
-2.52761
11
3.0404
21
-2.51436
0
LINE
8
BLACK
6
CONTINUOUS
10
3.0404
20
-2.51436
11
3.0376
21
-2.50028
0
LINE
8
BLACK
6
CONTINUOUS
10
3.0376
20
-2.50028
11
3.0376
21
-2.48594
0
LINE
8
BLACK
6
CONTINUOUS
10
3.0376
20
-2.48594
11
3.0404
21
-2.47187
0
LINE
8
BLACK
6
CONTINUOUS
10
3.0404
20
-2.47187
11
3.04589
21
-2.45861
0
LINE
8
BLACK
6
CONTINUOUS
10
3.04589
20
-2.45861
11
3.05386
21
-2.44668
0
LINE
8
BLACK
6
CONTINUOUS
10
3.05386
20
-2.44668
11
3.064
21
-2.43654
0
LINE
8
BLACK
6
CONTINUOUS
10
3.064
20
-2.43654
11
3.07593
21
-2.42857
0
LINE
8
BLACK
6
CONTINUOUS
10
3.07593
20
-2.42857
11
3.08919
21
-2.42307
0
LINE
8
BLACK
6
CONTINUOUS
10
3.08919
20
-2.42307
11
3.10326
21
-2.42028
0
LINE
8
BLACK
6
CONTINUOUS
10
3.10326
20
-2.42028
11
3.11761
21
-2.42028
0
LINE
8
BLACK
6
CONTINUOUS
10
3.11761
20
-2.42028
11
3.13168
21
-2.42307
0
LINE
8
BLACK
6
CONTINUOUS
10
7.85668
20
-2.42307
11
7.86993
21
-2.42857
0
LINE
8
BLACK
6
CONTINUOUS
10
7.86993
20
-2.42857
11
7.88186
21
-2.43654
0
LINE
8
BLACK
6
CONTINUOUS
10
7.88186
20
-2.43654
11
7.89201
21
-2.44668
0
LINE
8
BLACK
6
CONTINUOUS
10
7.89201
20
-2.44668
11
7.89998
21
-2.45861
0
LINE
8
BLACK
6
CONTINUOUS
10
7.89998
20
-2.45861
11
7.90547
21
-2.47187
0
LINE
8
BLACK
6
CONTINUOUS
10
7.90547
20
-2.47187
11
7.90827
21
-2.48594
0
LINE
8
BLACK
6
CONTINUOUS
10
7.90827
20
-2.48594
11
7.90827
21
-2.50028
0
LINE
8
BLACK
6
CONTINUOUS
10
7.90827
20
-2.50028
11
7.90547
21
-2.51436
0
LINE
8
BLACK
6
CONTINUOUS
10
7.90547
20
-2.51436
11
7.89998
21
-2.52761
0
LINE
8
BLACK
6
CONTINUOUS
10
7.89998
20
-2.52761
11
7.89201
21
-2.53954
0
LINE
8
BLACK
6
CONTINUOUS
10
7.89201
20
-2.53954
11
7.88186
21
-2.54968
0
LINE
8
BLACK
6
CONTINUOUS
10
7.88186
20
-2.54968
11
7.86993
21
-2.55766
0
LINE
8
BLACK
6
CONTINUOUS
10
7.86993
20
-2.55766
11
7.85668
21
-2.56315
0
LINE
8
BLACK
6
CONTINUOUS
10
7.85668
20
-2.56315
11
7.84261
21
-2.56594
0
LINE
8
BLACK
6
CONTINUOUS
10
7.84261
20
-2.56594
11
7.82826
21
-2.56594
0
LINE
8
BLACK
6
CONTINUOUS
10
7.82826
20
-2.56594
11
7.81419
21
-2.56315
0
LINE
8
BLACK
6
CONTINUOUS
10
7.81419
20
-2.56315
11
7.80093
21
-2.55766
0
LINE
8
BLACK
6
CONTINUOUS
10
7.80093
20
-2.55766
11
7.789
21
-2.54968
0
LINE
8
BLACK
6
CONTINUOUS
10
7.789
20
-2.54968
11
7.77886
21
-2.53954
0
LINE
8
BLACK
6
CONTINUOUS
10
7.77886
20
-2.53954
11
7.77089
21
-2.52761
0
LINE
8
BLACK
6
CONTINUOUS
10
7.77089
20
-2.52761
11
7.7654
21
-2.51436
0
LINE
8
BLACK
6
CONTINUOUS
10
7.7654
20
-2.51436
11
7.7626
21
-2.50028
0
LINE
8
BLACK
6
CONTINUOUS
10
7.7626
20
-2.50028
11
7.7626
21
-2.48594
0
LINE
8
BLACK
6
CONTINUOUS
10
7.7626
20
-2.48594
11
7.7654
21
-2.47187
0
LINE
8
BLACK
6
CONTINUOUS
10
7.7654
20
-2.47187
11
7.77089
21
-2.45861
0
LINE
8
BLACK
6
CONTINUOUS
10
7.77089
20
-2.45861
11
7.77886
21
-2.44668
0
LINE
8
BLACK
6
CONTINUOUS
10
7.77886
20
-2.44668
11
7.789
21
-2.43654
0
LINE
8
BLACK
6
CONTINUOUS
10
7.789
20
-2.43654
11
7.80093
21
-2.42857
0
LINE
8
BLACK
6
CONTINUOUS
10
7.80093
20
-2.42857
11
7.81419
21
-2.42307
0
LINE
8
BLACK
6
CONTINUOUS
10
7.81419
20
-2.42307
11
7.82826
21
-2.42028
0
LINE
8
BLACK
6
CONTINUOUS
10
7.82826
20
-2.42028
11
7.84261
21
-2.42028
0
LINE
8
BLACK
6
CONTINUOUS
10
7.84261
20
-2.42028
11
7.85668
21
-2.42307
0
LINE
8
BLACK
6
CONTINUOUS
10
3.80668
20
-2.42307
11
3.81993
21
-2.42857
0
LINE
8
BLACK
6
CONTINUOUS
10
3.81993
20
-2.42857
11
3.83186
21
-2.43654
0
LINE
8
BLACK
6
CONTINUOUS
10
3.83186
20
-2.43654
11
3.84201
21
-2.44668
0
LINE
8
BLACK
6
CONTINUOUS
10
3.84201
20
-2.44668
11
3.84998
21
-2.45861
0
LINE
8
BLACK
6
CONTINUOUS
10
3.84998
20
-2.45861
11
3.85547
21
-2.47187
0
LINE
8
BLACK
6
CONTINUOUS
10
3.85547
20
-2.47187
11
3.85827
21
-2.48594
0
LINE
8
BLACK
6
CONTINUOUS
10
3.85827
20
-2.48594
11
3.85827
21
-2.50028
0
LINE
8
BLACK
6
CONTINUOUS
10
3.85827
20
-2.50028
11
3.85547
21
-2.51436
0
LINE
8
BLACK
6
CONTINUOUS
10
3.85547
20
-2.51436
11
3.84998
21
-2.52761
0
LINE
8
BLACK
6
CONTINUOUS
10
3.84998
20
-2.52761
11
3.84201
21
-2.53954
0
LINE
8
BLACK
6
CONTINUOUS
10
3.84201
20
-2.53954
11
3.83186
21
-2.54968
0
LINE
8
BLACK
6
CONTINUOUS
10
3.83186
20
-2.54968
11
3.81993
21
-2.55766
0
LINE
8
BLACK
6
CONTINUOUS
10
3.81993
20
-2.55766
11
3.80668
21
-2.56315
0
LINE
8
BLACK
6
CONTINUOUS
10
3.80668
20
-2.56315
11
3.79261
21
-2.56594
0
LINE
8
BLACK
6
CONTINUOUS
10
3.79261
20
-2.56594
11
3.77826
21
-2.56594
0
LINE
8
BLACK
6
CONTINUOUS
10
3.77826
20
-2.56594
11
3.76419
21
-2.56315
0
LINE
8
BLACK
6
CONTINUOUS
10
3.76419
20
-2.56315
11
3.75093
21
-2.55766
0
LINE
8
BLACK
6
CONTINUOUS
10
3.75093
20
-2.55766
11
3.739
21
-2.54968
0
LINE
8
BLACK
6
CONTINUOUS
10
3.739
20
-2.54968
11
3.72886
21
-2.53954
0
LINE
8
BLACK
6
CONTINUOUS
10
3.72886
20
-2.53954
11
3.72089
21
-2.52761
0
LINE
8
BLACK
6
CONTINUOUS
10
3.72089
20
-2.52761
11
3.7154
21
-2.51436
0
LINE
8
BLACK
6
CONTINUOUS
10
3.7154
20
-2.51436
11
3.7126
21
-2.50028
0
LINE
8
BLACK
6
CONTINUOUS
10
3.7126
20
-2.50028
11
3.7126
21
-2.48594
0
LINE
8
BLACK
6
CONTINUOUS
10
3.7126
20
-2.48594
11
3.7154
21
-2.47187
0
LINE
8
BLACK
6
CONTINUOUS
10
3.7154
20
-2.47187
11
3.72089
21
-2.45861
0
LINE
8
BLACK
6
CONTINUOUS
10
3.72089
20
-2.45861
11
3.72886
21
-2.44668
0
LINE
8
BLACK
6
CONTINUOUS
10
3.72886
20
-2.44668
11
3.739
21
-2.43654
0
LINE
8
BLACK
6
CONTINUOUS
10
3.739
20
-2.43654
11
3.75093
21
-2.42857
0
LINE
8
BLACK
6
CONTINUOUS
10
3.75093
20
-2.42857
11
3.76419
21
-2.42307
0
LINE
8
BLACK
6
CONTINUOUS
10
3.76419
20
-2.42307
11
3.77826
21
-2.42028
0
LINE
8
BLACK
6
CONTINUOUS
10
3.77826
20
-2.42028
11
3.79261
21
-2.42028
0
LINE
8
BLACK
6
CONTINUOUS
10
3.79261
20
-2.42028
11
3.80668
21
-2.42307
0
LINE
8
BLACK
6
CONTINUOUS
10
4.48168
20
-2.42307
11
4.49493
21
-2.42857
0
LINE
8
BLACK
6
CONTINUOUS
10
4.49493
20
-2.42857
11
4.50686
21
-2.43654
0
LINE
8
BLACK
6
CONTINUOUS
10
4.50686
20
-2.43654
11
4.51701
21
-2.44668
0
LINE
8
BLACK
6
CONTINUOUS
10
4.51701
20
-2.44668
11
4.52498
21
-2.45861
0
LINE
8
BLACK
6
CONTINUOUS
10
4.52498
20
-2.45861
11
4.53047
21
-2.47187
0
LINE
8
BLACK
6
CONTINUOUS
10
4.53047
20
-2.47187
11
4.53327
21
-2.48594
0
LINE
8
BLACK
6
CONTINUOUS
10
4.53327
20
-2.48594
11
4.53327
21
-2.50028
0
LINE
8
BLACK
6
CONTINUOUS
10
4.53327
20
-2.50028
11
4.53047
21
-2.51436
0
LINE
8
BLACK
6
CONTINUOUS
10
4.53047
20
-2.51436
11
4.52498
21
-2.52761
0
LINE
8
BLACK
6
CONTINUOUS
10
4.52498
20
-2.52761
11
4.51701
21
-2.53954
0
LINE
8
BLACK
6
CONTINUOUS
10
4.51701
20
-2.53954
11
4.50686
21
-2.54968
0
LINE
8
BLACK
6
CONTINUOUS
10
4.50686
20
-2.54968
11
4.49493
21
-2.55766
0
LINE
8
BLACK
6
CONTINUOUS
10
4.49493
20
-2.55766
11
4.48168
21
-2.56315
0
LINE
8
BLACK
6
CONTINUOUS
10
4.48168
20
-2.56315
11
4.46761
21
-2.56594
0
LINE
8
BLACK
6
CONTINUOUS
10
4.46761
20
-2.56594
11
4.45326
21
-2.56594
0
LINE
8
BLACK
6
CONTINUOUS
10
4.45326
20
-2.56594
11
4.43919
21
-2.56315
0
LINE
8
BLACK
6
CONTINUOUS
10
4.43919
20
-2.56315
11
4.42593
21
-2.55766
0
LINE
8
BLACK
6
CONTINUOUS
10
4.42593
20
-2.55766
11
4.414
21
-2.54968
0
LINE
8
BLACK
6
CONTINUOUS
10
4.414
20
-2.54968
11
4.40386
21
-2.53954
0
LINE
8
BLACK
6
CONTINUOUS
10
4.40386
20
-2.53954
11
4.39589
21
-2.52761
0
LINE
8
BLACK
6
CONTINUOUS
10
4.39589
20
-2.52761
11
4.3904
21
-2.51436
0
LINE
8
BLACK
6
CONTINUOUS
10
4.3904
20
-2.51436
11
4.3876
21
-2.50028
0
LINE
8
BLACK
6
CONTINUOUS
10
4.3876
20
-2.50028
11
4.3876
21
-2.48594
0
LINE
8
BLACK
6
CONTINUOUS
10
4.3876
20
-2.48594
11
4.3904
21
-2.47187
0
LINE
8
BLACK
6
CONTINUOUS
10
4.3904
20
-2.47187
11
4.39589
21
-2.45861
0
LINE
8
BLACK
6
CONTINUOUS
10
4.39589
20
-2.45861
11
4.40386
21
-2.44668
0
LINE
8
BLACK
6
CONTINUOUS
10
4.40386
20
-2.44668
11
4.414
21
-2.43654
0
LINE
8
BLACK
6
CONTINUOUS
10
4.414
20
-2.43654
11
4.42593
21
-2.42857
0
LINE
8
BLACK
6
CONTINUOUS
10
4.42593
20
-2.42857
11
4.43919
21
-2.42307
0
LINE
8
BLACK
6
CONTINUOUS
10
4.43919
20
-2.42307
11
4.45326
21
-2.42028
0
LINE
8
BLACK
6
CONTINUOUS
10
4.45326
20
-2.42028
11
4.46761
21
-2.42028
0
LINE
8
BLACK
6
CONTINUOUS
10
4.46761
20
-2.42028
11
4.48168
21
-2.42307
0
LINE
8
BLACK
6
CONTINUOUS
10
7.18168
20
-2.42307
11
7.19493
21
-2.42857
0
LINE
8
BLACK
6
CONTINUOUS
10
7.19493
20
-2.42857
11
7.20686
21
-2.43654
0
LINE
8
BLACK
6
CONTINUOUS
10
7.20686
20
-2.43654
11
7.21701
21
-2.44668
0
LINE
8
BLACK
6
CONTINUOUS
10
7.21701
20
-2.44668
11
7.22498
21
-2.45861
0
LINE
8
BLACK
6
CONTINUOUS
10
7.22498
20
-2.45861
11
7.23047
21
-2.47187
0
LINE
8
BLACK
6
CONTINUOUS
10
7.23047
20
-2.47187
11
7.23327
21
-2.48594
0
LINE
8
BLACK
6
CONTINUOUS
10
7.23327
20
-2.48594
11
7.23327
21
-2.50028
0
LINE
8
BLACK
6
CONTINUOUS
10
7.23327
20
-2.50028
11
7.23047
21
-2.51436
0
LINE
8
BLACK
6
CONTINUOUS
10
7.23047
20
-2.51436
11
7.22498
21
-2.52761
0
LINE
8
BLACK
6
CONTINUOUS
10
7.22498
20
-2.52761
11
7.21701
21
-2.53954
0
LINE
8
BLACK
6
CONTINUOUS
10
7.21701
20
-2.53954
11
7.20686
21
-2.54968
0
LINE
8
BLACK
6
CONTINUOUS
10
7.20686
20
-2.54968
11
7.19493
21
-2.55766
0
LINE
8
BLACK
6
CONTINUOUS
10
7.19493
20
-2.55766
11
7.18168
21
-2.56315
0
LINE
8
BLACK
6
CONTINUOUS
10
7.18168
20
-2.56315
11
7.16761
21
-2.56594
0
LINE
8
BLACK
6
CONTINUOUS
10
7.16761
20
-2.56594
11
7.15326
21
-2.56594
0
LINE
8
BLACK
6
CONTINUOUS
10
7.15326
20
-2.56594
11
7.13919
21
-2.56315
0
LINE
8
BLACK
6
CONTINUOUS
10
7.13919
20
-2.56315
11
7.12593
21
-2.55766
0
LINE
8
BLACK
6
CONTINUOUS
10
7.12593
20
-2.55766
11
7.114
21
-2.54968
0
LINE
8
BLACK
6
CONTINUOUS
10
7.114
20
-2.54968
11
7.10386
21
-2.53954
0
LINE
8
BLACK
6
CONTINUOUS
10
7.10386
20
-2.53954
11
7.09589
21
-2.52761
0
LINE
8
BLACK
6
CONTINUOUS
10
7.09589
20
-2.52761
11
7.0904
21
-2.51436
0
LINE
8
BLACK
6
CONTINUOUS
10
7.0904
20
-2.51436
11
7.0876
21
-2.50028
0
LINE
8
BLACK
6
CONTINUOUS
10
7.0876
20
-2.50028
11
7.0876
21
-2.48594
0
LINE
8
BLACK
6
CONTINUOUS
10
7.0876
20
-2.48594
11
7.0904
21
-2.47187
0
LINE
8
BLACK
6
CONTINUOUS
10
7.0904
20
-2.47187
11
7.09589
21
-2.45861
0
LINE
8
BLACK
6
CONTINUOUS
10
7.09589
20
-2.45861
11
7.10386
21
-2.44668
0
LINE
8
BLACK
6
CONTINUOUS
10
7.10386
20
-2.44668
11
7.114
21
-2.43654
0
LINE
8
BLACK
6
CONTINUOUS
10
7.114
20
-2.43654
11
7.12593
21
-2.42857
0
LINE
8
BLACK
6
CONTINUOUS
10
7.12593
20
-2.42857
11
7.13919
21
-2.42307
0
LINE
8
BLACK
6
CONTINUOUS
10
7.13919
20
-2.42307
11
7.15326
21
-2.42028
0
LINE
8
BLACK
6
CONTINUOUS
10
7.15326
20
-2.42028
11
7.16761
21
-2.42028
0
LINE
8
BLACK
6
CONTINUOUS
10
7.16761
20
-2.42028
11
7.18168
21
-2.42307
0
LINE
8
BLACK
6
CONTINUOUS
10
5.15668
20
-2.42307
11
5.16993
21
-2.42857
0
LINE
8
BLACK
6
CONTINUOUS
10
5.16993
20
-2.42857
11
5.18186
21
-2.43654
0
LINE
8
BLACK
6
CONTINUOUS
10
5.18186
20
-2.43654
11
5.19201
21
-2.44668
0
LINE
8
BLACK
6
CONTINUOUS
10
5.19201
20
-2.44668
11
5.19998
21
-2.45861
0
LINE
8
BLACK
6
CONTINUOUS
10
5.19998
20
-2.45861
11
5.20547
21
-2.47187
0
LINE
8
BLACK
6
CONTINUOUS
10
5.20547
20
-2.47187
11
5.20827
21
-2.48594
0
LINE
8
BLACK
6
CONTINUOUS
10
5.20827
20
-2.48594
11
5.20827
21
-2.50028
0
LINE
8
BLACK
6
CONTINUOUS
10
5.20827
20
-2.50028
11
5.20547
21
-2.51436
0
LINE
8
BLACK
6
CONTINUOUS
10
5.20547
20
-2.51436
11
5.19998
21
-2.52761
0
LINE
8
BLACK
6
CONTINUOUS
10
5.19998
20
-2.52761
11
5.19201
21
-2.53954
0
LINE
8
BLACK
6
CONTINUOUS
10
5.19201
20
-2.53954
11
5.18186
21
-2.54968
0
LINE
8
BLACK
6
CONTINUOUS
10
5.18186
20
-2.54968
11
5.16993
21
-2.55766
0
LINE
8
BLACK
6
CONTINUOUS
10
5.16993
20
-2.55766
11
5.15668
21
-2.56315
0
LINE
8
BLACK
6
CONTINUOUS
10
5.15668
20
-2.56315
11
5.14261
21
-2.56594
0
LINE
8
BLACK
6
CONTINUOUS
10
5.14261
20
-2.56594
11
5.12826
21
-2.56594
0
LINE
8
BLACK
6
CONTINUOUS
10
5.12826
20
-2.56594
11
5.11419
21
-2.56315
0
LINE
8
BLACK
6
CONTINUOUS
10
5.11419
20
-2.56315
11
5.10093
21
-2.55766
0
LINE
8
BLACK
6
CONTINUOUS
10
5.10093
20
-2.55766
11
5.089
21
-2.54968
0
LINE
8
BLACK
6
CONTINUOUS
10
5.089
20
-2.54968
11
5.07886
21
-2.53954
0
LINE
8
BLACK
6
CONTINUOUS
10
5.07886
20
-2.53954
11
5.07089
21
-2.52761
0
LINE
8
BLACK
6
CONTINUOUS
10
5.07089
20
-2.52761
11
5.0654
21
-2.51436
0
LINE
8
BLACK
6
CONTINUOUS
10
5.0654
20
-2.51436
11
5.0626
21
-2.50028
0
LINE
8
BLACK
6
CONTINUOUS
10
5.0626
20
-2.50028
11
5.0626
21
-2.48594
0
LINE
8
BLACK
6
CONTINUOUS
10
5.0626
20
-2.48594
11
5.0654
21
-2.47187
0
LINE
8
BLACK
6
CONTINUOUS
10
5.0654
20
-2.47187
11
5.07089
21
-2.45861
0
LINE
8
BLACK
6
CONTINUOUS
10
5.07089
20
-2.45861
11
5.07886
21
-2.44668
0
LINE
8
BLACK
6
CONTINUOUS
10
5.07886
20
-2.44668
11
5.089
21
-2.43654
0
LINE
8
BLACK
6
CONTINUOUS
10
5.089
20
-2.43654
11
5.10093
21
-2.42857
0
LINE
8
BLACK
6
CONTINUOUS
10
5.10093
20
-2.42857
11
5.11419
21
-2.42307
0
LINE
8
BLACK
6
CONTINUOUS
10
5.11419
20
-2.42307
11
5.12826
21
-2.42028
0
LINE
8
BLACK
6
CONTINUOUS
10
5.12826
20
-2.42028
11
5.14261
21
-2.42028
0
LINE
8
BLACK
6
CONTINUOUS
10
5.14261
20
-2.42028
11
5.15668
21
-2.42307
0
LINE
8
BLACK
6
CONTINUOUS
10
5.83168
20
-2.42307
11
5.84493
21
-2.42857
0
LINE
8
BLACK
6
CONTINUOUS
10
5.84493
20
-2.42857
11
5.85686
21
-2.43654
0
LINE
8
BLACK
6
CONTINUOUS
10
5.85686
20
-2.43654
11
5.86701
21
-2.44668
0
LINE
8
BLACK
6
CONTINUOUS
10
5.86701
20
-2.44668
11
5.87498
21
-2.45861
0
LINE
8
BLACK
6
CONTINUOUS
10
5.87498
20
-2.45861
11
5.88047
21
-2.47187
0
LINE
8
BLACK
6
CONTINUOUS
10
5.88047
20
-2.47187
11
5.88327
21
-2.48594
0
LINE
8
BLACK
6
CONTINUOUS
10
5.88327
20
-2.48594
11
5.88327
21
-2.50028
0
LINE
8
BLACK
6
CONTINUOUS
10
5.88327
20
-2.50028
11
5.88047
21
-2.51436
0
LINE
8
BLACK
6
CONTINUOUS
10
5.88047
20
-2.51436
11
5.87498
21
-2.52761
0
LINE
8
BLACK
6
CONTINUOUS
10
5.87498
20
-2.52761
11
5.86701
21
-2.53954
0
LINE
8
BLACK
6
CONTINUOUS
10
5.86701
20
-2.53954
11
5.85686
21
-2.54968
0
LINE
8
BLACK
6
CONTINUOUS
10
5.85686
20
-2.54968
11
5.84493
21
-2.55766
0
LINE
8
BLACK
6
CONTINUOUS
10
5.84493
20
-2.55766
11
5.83168
21
-2.56315
0
LINE
8
BLACK
6
CONTINUOUS
10
5.83168
20
-2.56315
11
5.81761
21
-2.56594
0
LINE
8
BLACK
6
CONTINUOUS
10
5.81761
20
-2.56594
11
5.80326
21
-2.56594
0
LINE
8
BLACK
6
CONTINUOUS
10
5.80326
20
-2.56594
11
5.78919
21
-2.56315
0
LINE
8
BLACK
6
CONTINUOUS
10
5.78919
20
-2.56315
11
5.77593
21
-2.55766
0
LINE
8
BLACK
6
CONTINUOUS
10
5.77593
20
-2.55766
11
5.764
21
-2.54968
0
LINE
8
BLACK
6
CONTINUOUS
10
5.764
20
-2.54968
11
5.75386
21
-2.53954
0
LINE
8
BLACK
6
CONTINUOUS
10
5.75386
20
-2.53954
11
5.74589
21
-2.52761
0
LINE
8
BLACK
6
CONTINUOUS
10
5.74589
20
-2.52761
11
5.7404
21
-2.51436
0
LINE
8
BLACK
6
CONTINUOUS
10
5.7404
20
-2.51436
11
5.7376
21
-2.50028
0
LINE
8
BLACK
6
CONTINUOUS
10
5.7376
20
-2.50028
11
5.7376
21
-2.48594
0
LINE
8
BLACK
6
CONTINUOUS
10
5.7376
20
-2.48594
11
5.7404
21
-2.47187
0
LINE
8
BLACK
6
CONTINUOUS
10
5.7404
20
-2.47187
11
5.74589
21
-2.45861
0
LINE
8
BLACK
6
CONTINUOUS
10
5.74589
20
-2.45861
11
5.75386
21
-2.44668
0
LINE
8
BLACK
6
CONTINUOUS
10
5.75386
20
-2.44668
11
5.764
21
-2.43654
0
LINE
8
BLACK
6
CONTINUOUS
10
5.764
20
-2.43654
11
5.77593
21
-2.42857
0
LINE
8
BLACK
6
CONTINUOUS
10
5.77593
20
-2.42857
11
5.78919
21
-2.42307
0
LINE
8
BLACK
6
CONTINUOUS
10
5.78919
20
-2.42307
11
5.80326
21
-2.42028
0
LINE
8
BLACK
6
CONTINUOUS
10
5.80326
20
-2.42028
11
5.81761
21
-2.42028
0
LINE
8
BLACK
6
CONTINUOUS
10
5.81761
20
-2.42028
11
5.83168
21
-2.42307
  0
ENDSEC
  0
EOF
