  0
SECTION
  2
HEADER
  9
$ANGBASE
  50
0.0
  9
$ANGDIR
  70
1
  9
$MEASUREMENT
  70
0
  0
ENDSEC
  0
SECTION
  2
TABLES
  0
TABLE
  2
LTYPE
  70
4
  0
LTYPE
  5
40F
  2
CONTINUOUS
  70
0
  3
Solid line
  72
65
  73
0
  40
0.0
  0
LTYPE
  5
410
  2
DASHDOT
 70
0
  3
Dash Dot ____ _ ____ _
 72
65
 73
4
 40
2.0
 49
1.25
 49
-0.25
 49
0.25
 49
-0.25
  0
LTYPE
  5
411
  2
DASHED
 70
0
  3
Dashed __ __ __ __ __
 72
65
 73
2
 40
0.75
 49
0.5
 49
-0.25
  0
LTYPE
  5
43B
  2
DOTTED
 70
0
  3
Dotted .  .  .  .
 72
65
 73
2
 40
0.2
 49
0.0
 49
-0.2
  0
ENDTAB
  0
TABLE
  2
STYLE
  70
4
  0
STYLE
  2
KICAD
  70
0
  40
0
  41
1
  42
1
  50
0
  71
0
  3
isocp.shx
  0
STYLE
  2
KICADB
  70
0
  40
0
  41
1
  42
1
  50
0
  71
0
  3
isocp.shx
  0
STYLE
  2
KICADI
  70
0
  40
0
  41
1
  42
1
  50
15
  71
0
  3
isocp.shx
  0
STYLE
  2
KICADBI
  70
0
  40
0
  41
1
  42
1
  50
15
  71
0
  3
isocp.shx
  0
ENDTAB
  0
TABLE
  2
LAYER
  70
1
  0
LAYER
  2
BLACK
  70
0
  62
7
  6
CONTINUOUS
  0
ENDTAB
  0
ENDSEC
  0
SECTION
  2
ENTITIES
0
CIRCLE
8
BLACK
10
9.45
20
-2.75
40
0.165354
0
CIRCLE
8
BLACK
10
9.45
20
-4.85
40
0.165354
0
CIRCLE
8
BLACK
10
8.72913
20
-4.325
40
0.0295276
0
CIRCLE
8
BLACK
10
8.51457
20
-4.325
40
0.0295276
0
CIRCLE
8
BLACK
10
8.3
20
-4.325
40
0.0295276
0
CIRCLE
8
BLACK
10
8.51457
20
-5.10689
40
0.0708661
0
CIRCLE
8
BLACK
10
8.05413
20
-4.325
40
0.0295276
0
CIRCLE
8
BLACK
10
7.83957
20
-4.325
40
0.0295276
0
CIRCLE
8
BLACK
10
7.625
20
-4.325
40
0.0295276
0
CIRCLE
8
BLACK
10
7.83957
20
-5.10689
40
0.0708661
0
CIRCLE
8
BLACK
10
7.37913
20
-4.325
40
0.0295276
0
CIRCLE
8
BLACK
10
7.16457
20
-4.325
40
0.0295276
0
CIRCLE
8
BLACK
10
6.95
20
-4.325
40
0.0295276
0
CIRCLE
8
BLACK
10
7.16457
20
-5.10689
40
0.0708661
0
CIRCLE
8
BLACK
10
6.70413
20
-4.325
40
0.0295276
0
CIRCLE
8
BLACK
10
6.48957
20
-4.325
40
0.0295276
0
CIRCLE
8
BLACK
10
6.275
20
-4.325
40
0.0295276
0
CIRCLE
8
BLACK
10
6.48957
20
-5.10689
40
0.0708661
0
CIRCLE
8
BLACK
10
6.02913
20
-4.325
40
0.0295276
0
CIRCLE
8
BLACK
10
5.81457
20
-4.325
40
0.0295276
0
CIRCLE
8
BLACK
10
5.6
20
-4.325
40
0.0295276
0
CIRCLE
8
BLACK
10
5.81457
20
-5.10689
40
0.0708661
0
CIRCLE
8
BLACK
10
5.35413
20
-4.325
40
0.0295276
0
CIRCLE
8
BLACK
10
5.13957
20
-4.325
40
0.0295276
0
CIRCLE
8
BLACK
10
4.925
20
-4.325
40
0.0295276
0
CIRCLE
8
BLACK
10
5.13957
20
-5.10689
40
0.0708661
0
CIRCLE
8
BLACK
10
4.67913
20
-4.325
40
0.0295276
0
CIRCLE
8
BLACK
10
4.46457
20
-4.325
40
0.0295276
0
CIRCLE
8
BLACK
10
4.25
20
-4.325
40
0.0295276
0
CIRCLE
8
BLACK
10
4.46457
20
-5.10689
40
0.0708661
0
CIRCLE
8
BLACK
10
4.00413
20
-4.325
40
0.0295276
0
CIRCLE
8
BLACK
10
3.78957
20
-4.325
40
0.0295276
0
CIRCLE
8
BLACK
10
3.575
20
-4.325
40
0.0295276
0
CIRCLE
8
BLACK
10
3.78957
20
-5.10689
40
0.0708661
0
CIRCLE
8
BLACK
10
3.32913
20
-4.325
40
0.0295276
0
CIRCLE
8
BLACK
10
3.11457
20
-4.325
40
0.0295276
0
CIRCLE
8
BLACK
10
2.9
20
-4.325
40
0.0295276
0
CIRCLE
8
BLACK
10
3.11457
20
-5.10689
40
0.0708661
0
CIRCLE
8
BLACK
10
2.65413
20
-4.325
40
0.0295276
0
CIRCLE
8
BLACK
10
2.43957
20
-4.325
40
0.0295276
0
CIRCLE
8
BLACK
10
2.225
20
-4.325
40
0.0295276
0
CIRCLE
8
BLACK
10
2.43957
20
-5.10689
40
0.0708661
0
CIRCLE
8
BLACK
10
1.97913
20
-4.325
40
0.0295276
0
CIRCLE
8
BLACK
10
1.76457
20
-4.325
40
0.0295276
0
CIRCLE
8
BLACK
10
1.55
20
-4.325
40
0.0295276
0
CIRCLE
8
BLACK
10
1.76457
20
-5.10689
40
0.0708661
0
CIRCLE
8
BLACK
10
1.30413
20
-4.325
40
0.0295276
0
CIRCLE
8
BLACK
10
1.08957
20
-4.325
40
0.0295276
0
CIRCLE
8
BLACK
10
0.875
20
-4.325
40
0.0295276
0
CIRCLE
8
BLACK
10
1.08957
20
-5.10689
40
0.0708661
0
CIRCLE
8
BLACK
10
8.29587
20
-3.275
40
0.0295276
0
CIRCLE
8
BLACK
10
8.51043
20
-3.275
40
0.0295276
0
CIRCLE
8
BLACK
10
8.725
20
-3.275
40
0.0295276
0
CIRCLE
8
BLACK
10
8.51043
20
-2.49311
40
0.0708661
0
CIRCLE
8
BLACK
10
7.62087
20
-3.275
40
0.0295276
0
CIRCLE
8
BLACK
10
7.83543
20
-3.275
40
0.0295276
0
CIRCLE
8
BLACK
10
8.05
20
-3.275
40
0.0295276
0
CIRCLE
8
BLACK
10
7.83543
20
-2.49311
40
0.0708661
0
CIRCLE
8
BLACK
10
6.94587
20
-3.275
40
0.0295276
0
CIRCLE
8
BLACK
10
7.16043
20
-3.275
40
0.0295276
0
CIRCLE
8
BLACK
10
7.375
20
-3.275
40
0.0295276
0
CIRCLE
8
BLACK
10
7.16043
20
-2.49311
40
0.0708661
0
CIRCLE
8
BLACK
10
6.27087
20
-3.275
40
0.0295276
0
CIRCLE
8
BLACK
10
6.48543
20
-3.275
40
0.0295276
0
CIRCLE
8
BLACK
10
6.7
20
-3.275
40
0.0295276
0
CIRCLE
8
BLACK
10
6.48543
20
-2.49311
40
0.0708661
0
CIRCLE
8
BLACK
10
5.59587
20
-3.275
40
0.0295276
0
CIRCLE
8
BLACK
10
5.81043
20
-3.275
40
0.0295276
0
CIRCLE
8
BLACK
10
6.025
20
-3.275
40
0.0295276
0
CIRCLE
8
BLACK
10
5.81043
20
-2.49311
40
0.0708661
0
CIRCLE
8
BLACK
10
4.92087
20
-3.275
40
0.0295276
0
CIRCLE
8
BLACK
10
5.13543
20
-3.275
40
0.0295276
0
CIRCLE
8
BLACK
10
5.35
20
-3.275
40
0.0295276
0
CIRCLE
8
BLACK
10
5.13543
20
-2.49311
40
0.0708661
0
CIRCLE
8
BLACK
10
4.24587
20
-3.275
40
0.0295276
0
CIRCLE
8
BLACK
10
4.46043
20
-3.275
40
0.0295276
0
CIRCLE
8
BLACK
10
4.675
20
-3.275
40
0.0295276
0
CIRCLE
8
BLACK
10
4.46043
20
-2.49311
40
0.0708661
0
CIRCLE
8
BLACK
10
3.57087
20
-3.275
40
0.0295276
0
CIRCLE
8
BLACK
10
3.78543
20
-3.275
40
0.0295276
0
CIRCLE
8
BLACK
10
4
20
-3.275
40
0.0295276
0
CIRCLE
8
BLACK
10
3.78543
20
-2.49311
40
0.0708661
0
CIRCLE
8
BLACK
10
2.89587
20
-3.275
40
0.0295276
0
CIRCLE
8
BLACK
10
3.11043
20
-3.275
40
0.0295276
0
CIRCLE
8
BLACK
10
3.325
20
-3.275
40
0.0295276
0
CIRCLE
8
BLACK
10
3.11043
20
-2.49311
40
0.0708661
0
CIRCLE
8
BLACK
10
2.22087
20
-3.275
40
0.0295276
0
CIRCLE
8
BLACK
10
2.43543
20
-3.275
40
0.0295276
0
CIRCLE
8
BLACK
10
2.65
20
-3.275
40
0.0295276
0
CIRCLE
8
BLACK
10
2.43543
20
-2.49311
40
0.0708661
0
CIRCLE
8
BLACK
10
1.54587
20
-3.275
40
0.0295276
0
CIRCLE
8
BLACK
10
1.76043
20
-3.275
40
0.0295276
0
CIRCLE
8
BLACK
10
1.975
20
-3.275
40
0.0295276
0
CIRCLE
8
BLACK
10
1.76043
20
-2.49311
40
0.0708661
0
CIRCLE
8
BLACK
10
0.870866
20
-3.275
40
0.0295276
0
CIRCLE
8
BLACK
10
1.08543
20
-3.275
40
0.0295276
0
CIRCLE
8
BLACK
10
1.3
20
-3.275
40
0.0295276
0
CIRCLE
8
BLACK
10
1.08543
20
-2.49311
40
0.0708661
  0
ENDSEC
  0
EOF
