  0
SECTION
  2
HEADER
  9
$ANGBASE
  50
0.0
  9
$ANGDIR
  70
1
  9
$MEASUREMENT
  70
0
  0
ENDSEC
  0
SECTION
  2
TABLES
  0
TABLE
  2
LTYPE
  70
4
  0
LTYPE
  5
40F
  2
CONTINUOUS
  70
0
  3
Solid line
  72
65
  73
0
  40
0.0
  0
LTYPE
  5
410
  2
DASHDOT
 70
0
  3
Dash Dot ____ _ ____ _
 72
65
 73
4
 40
2.0
 49
1.25
 49
-0.25
 49
0.25
 49
-0.25
  0
LTYPE
  5
411
  2
DASHED
 70
0
  3
Dashed __ __ __ __ __
 72
65
 73
2
 40
0.75
 49
0.5
 49
-0.25
  0
LTYPE
  5
43B
  2
DOTTED
 70
0
  3
Dotted .  .  .  .
 72
65
 73
2
 40
0.2
 49
0.0
 49
-0.2
  0
ENDTAB
  0
TABLE
  2
STYLE
  70
4
  0
STYLE
  2
KICAD
  70
0
  40
0
  41
1
  42
1
  50
0
  71
0
  3
isocp.shx
  0
STYLE
  2
KICADB
  70
0
  40
0
  41
1
  42
1
  50
0
  71
0
  3
isocp.shx
  0
STYLE
  2
KICADI
  70
0
  40
0
  41
1
  42
1
  50
15
  71
0
  3
isocp.shx
  0
STYLE
  2
KICADBI
  70
0
  40
0
  41
1
  42
1
  50
15
  71
0
  3
isocp.shx
  0
ENDTAB
  0
TABLE
  2
LAYER
  70
1
  0
LAYER
  2
BLACK
  70
0
  62
7
  6
CONTINUOUS
  0
ENDTAB
  0
ENDSEC
  0
SECTION
  2
ENTITIES
0
LINE
8
BLACK
6
CONTINUOUS
10
9.54646
20
-4.532
11
9.60665
21
-4.55693
0
LINE
8
BLACK
6
CONTINUOUS
10
9.60665
20
-4.55693
11
9.66081
21
-4.59312
0
LINE
8
BLACK
6
CONTINUOUS
10
9.66081
20
-4.59312
11
9.70688
21
-4.63919
0
LINE
8
BLACK
6
CONTINUOUS
10
9.70688
20
-4.63919
11
9.74307
21
-4.69335
0
LINE
8
BLACK
6
CONTINUOUS
10
9.74307
20
-4.69335
11
9.768
21
-4.75354
0
LINE
8
BLACK
6
CONTINUOUS
10
9.768
20
-4.75354
11
9.78071
21
-4.81743
0
LINE
8
BLACK
6
CONTINUOUS
10
9.78071
20
-4.81743
11
9.78071
21
-4.88257
0
LINE
8
BLACK
6
CONTINUOUS
10
9.78071
20
-4.88257
11
9.768
21
-4.94646
0
LINE
8
BLACK
6
CONTINUOUS
10
9.768
20
-4.94646
11
9.74307
21
-5.00665
0
LINE
8
BLACK
6
CONTINUOUS
10
9.74307
20
-5.00665
11
9.70688
21
-5.06081
0
LINE
8
BLACK
6
CONTINUOUS
10
9.70688
20
-5.06081
11
9.66081
21
-5.10688
0
LINE
8
BLACK
6
CONTINUOUS
10
9.66081
20
-5.10688
11
9.60665
21
-5.14307
0
LINE
8
BLACK
6
CONTINUOUS
10
9.60665
20
-5.14307
11
9.54646
21
-5.168
0
LINE
8
BLACK
6
CONTINUOUS
10
9.54646
20
-5.168
11
9.48257
21
-5.18071
0
LINE
8
BLACK
6
CONTINUOUS
10
9.48257
20
-5.18071
11
9.41743
21
-5.18071
0
LINE
8
BLACK
6
CONTINUOUS
10
9.41743
20
-5.18071
11
9.35354
21
-5.168
0
LINE
8
BLACK
6
CONTINUOUS
10
9.35354
20
-5.168
11
9.29335
21
-5.14307
0
LINE
8
BLACK
6
CONTINUOUS
10
9.29335
20
-5.14307
11
9.23919
21
-5.10688
0
LINE
8
BLACK
6
CONTINUOUS
10
9.23919
20
-5.10688
11
9.19312
21
-5.06081
0
LINE
8
BLACK
6
CONTINUOUS
10
9.19312
20
-5.06081
11
9.15693
21
-5.00665
0
LINE
8
BLACK
6
CONTINUOUS
10
9.15693
20
-5.00665
11
9.132
21
-4.94646
0
LINE
8
BLACK
6
CONTINUOUS
10
9.132
20
-4.94646
11
9.11929
21
-4.88257
0
LINE
8
BLACK
6
CONTINUOUS
10
9.11929
20
-4.88257
11
9.11929
21
-4.81743
0
LINE
8
BLACK
6
CONTINUOUS
10
9.11929
20
-4.81743
11
9.132
21
-4.75354
0
LINE
8
BLACK
6
CONTINUOUS
10
9.132
20
-4.75354
11
9.15693
21
-4.69335
0
LINE
8
BLACK
6
CONTINUOUS
10
9.15693
20
-4.69335
11
9.19312
21
-4.63919
0
LINE
8
BLACK
6
CONTINUOUS
10
9.19312
20
-4.63919
11
9.23919
21
-4.59312
0
LINE
8
BLACK
6
CONTINUOUS
10
9.23919
20
-4.59312
11
9.29335
21
-4.55693
0
LINE
8
BLACK
6
CONTINUOUS
10
9.29335
20
-4.55693
11
9.35354
21
-4.532
0
LINE
8
BLACK
6
CONTINUOUS
10
9.35354
20
-4.532
11
9.41743
21
-4.51929
0
LINE
8
BLACK
6
CONTINUOUS
10
9.41743
20
-4.51929
11
9.48257
21
-4.51929
0
LINE
8
BLACK
6
CONTINUOUS
10
9.48257
20
-4.51929
11
9.54646
21
-4.532
0
LINE
8
BLACK
6
CONTINUOUS
10
1.11024
20
-5.03875
11
1.12313
21
-5.04409
0
LINE
8
BLACK
6
CONTINUOUS
10
1.12313
20
-5.04409
11
1.13474
21
-5.05184
0
LINE
8
BLACK
6
CONTINUOUS
10
1.13474
20
-5.05184
11
1.14461
21
-5.06172
0
LINE
8
BLACK
6
CONTINUOUS
10
1.14461
20
-5.06172
11
1.15237
21
-5.07332
0
LINE
8
BLACK
6
CONTINUOUS
10
1.15237
20
-5.07332
11
1.15771
21
-5.08622
0
LINE
8
BLACK
6
CONTINUOUS
10
1.15771
20
-5.08622
11
1.16043
21
-5.09991
0
LINE
8
BLACK
6
CONTINUOUS
10
1.16043
20
-5.09991
11
1.16043
21
-5.11387
0
LINE
8
BLACK
6
CONTINUOUS
10
1.16043
20
-5.11387
11
1.15771
21
-5.12756
0
LINE
8
BLACK
6
CONTINUOUS
10
1.15771
20
-5.12756
11
1.15237
21
-5.14046
0
LINE
8
BLACK
6
CONTINUOUS
10
1.15237
20
-5.14046
11
1.14461
21
-5.15206
0
LINE
8
BLACK
6
CONTINUOUS
10
1.14461
20
-5.15206
11
1.13474
21
-5.16194
0
LINE
8
BLACK
6
CONTINUOUS
10
1.13474
20
-5.16194
11
1.12313
21
-5.16969
0
LINE
8
BLACK
6
CONTINUOUS
10
1.12313
20
-5.16969
11
1.11024
21
-5.17503
0
LINE
8
BLACK
6
CONTINUOUS
10
1.11024
20
-5.17503
11
1.09655
21
-5.17776
0
LINE
8
BLACK
6
CONTINUOUS
10
1.09655
20
-5.17776
11
1.08259
21
-5.17776
0
LINE
8
BLACK
6
CONTINUOUS
10
1.08259
20
-5.17776
11
1.0689
21
-5.17503
0
LINE
8
BLACK
6
CONTINUOUS
10
1.0689
20
-5.17503
11
1.056
21
-5.16969
0
LINE
8
BLACK
6
CONTINUOUS
10
1.056
20
-5.16969
11
1.04439
21
-5.16194
0
LINE
8
BLACK
6
CONTINUOUS
10
1.04439
20
-5.16194
11
1.03452
21
-5.15206
0
LINE
8
BLACK
6
CONTINUOUS
10
1.03452
20
-5.15206
11
1.02677
21
-5.14046
0
LINE
8
BLACK
6
CONTINUOUS
10
1.02677
20
-5.14046
11
1.02142
21
-5.12756
0
LINE
8
BLACK
6
CONTINUOUS
10
1.02142
20
-5.12756
11
1.0187
21
-5.11387
0
LINE
8
BLACK
6
CONTINUOUS
10
1.0187
20
-5.11387
11
1.0187
21
-5.09991
0
LINE
8
BLACK
6
CONTINUOUS
10
1.0187
20
-5.09991
11
1.02142
21
-5.08622
0
LINE
8
BLACK
6
CONTINUOUS
10
1.02142
20
-5.08622
11
1.02677
21
-5.07332
0
LINE
8
BLACK
6
CONTINUOUS
10
1.02677
20
-5.07332
11
1.03452
21
-5.06172
0
LINE
8
BLACK
6
CONTINUOUS
10
1.03452
20
-5.06172
11
1.04439
21
-5.05184
0
LINE
8
BLACK
6
CONTINUOUS
10
1.04439
20
-5.05184
11
1.056
21
-5.04409
0
LINE
8
BLACK
6
CONTINUOUS
10
1.056
20
-5.04409
11
1.0689
21
-5.03875
0
LINE
8
BLACK
6
CONTINUOUS
10
1.0689
20
-5.03875
11
1.08259
21
-5.03602
0
LINE
8
BLACK
6
CONTINUOUS
10
1.08259
20
-5.03602
11
1.09655
21
-5.03602
0
LINE
8
BLACK
6
CONTINUOUS
10
1.09655
20
-5.03602
11
1.11024
21
-5.03875
0
LINE
8
BLACK
6
CONTINUOUS
10
1.78524
20
-5.03875
11
1.79813
21
-5.04409
0
LINE
8
BLACK
6
CONTINUOUS
10
1.79813
20
-5.04409
11
1.80974
21
-5.05184
0
LINE
8
BLACK
6
CONTINUOUS
10
1.80974
20
-5.05184
11
1.81961
21
-5.06172
0
LINE
8
BLACK
6
CONTINUOUS
10
1.81961
20
-5.06172
11
1.82737
21
-5.07332
0
LINE
8
BLACK
6
CONTINUOUS
10
1.82737
20
-5.07332
11
1.83271
21
-5.08622
0
LINE
8
BLACK
6
CONTINUOUS
10
1.83271
20
-5.08622
11
1.83543
21
-5.09991
0
LINE
8
BLACK
6
CONTINUOUS
10
1.83543
20
-5.09991
11
1.83543
21
-5.11387
0
LINE
8
BLACK
6
CONTINUOUS
10
1.83543
20
-5.11387
11
1.83271
21
-5.12756
0
LINE
8
BLACK
6
CONTINUOUS
10
1.83271
20
-5.12756
11
1.82737
21
-5.14046
0
LINE
8
BLACK
6
CONTINUOUS
10
1.82737
20
-5.14046
11
1.81961
21
-5.15206
0
LINE
8
BLACK
6
CONTINUOUS
10
1.81961
20
-5.15206
11
1.80974
21
-5.16194
0
LINE
8
BLACK
6
CONTINUOUS
10
1.80974
20
-5.16194
11
1.79813
21
-5.16969
0
LINE
8
BLACK
6
CONTINUOUS
10
1.79813
20
-5.16969
11
1.78524
21
-5.17503
0
LINE
8
BLACK
6
CONTINUOUS
10
1.78524
20
-5.17503
11
1.77155
21
-5.17776
0
LINE
8
BLACK
6
CONTINUOUS
10
1.77155
20
-5.17776
11
1.75759
21
-5.17776
0
LINE
8
BLACK
6
CONTINUOUS
10
1.75759
20
-5.17776
11
1.7439
21
-5.17503
0
LINE
8
BLACK
6
CONTINUOUS
10
1.7439
20
-5.17503
11
1.731
21
-5.16969
0
LINE
8
BLACK
6
CONTINUOUS
10
1.731
20
-5.16969
11
1.71939
21
-5.16194
0
LINE
8
BLACK
6
CONTINUOUS
10
1.71939
20
-5.16194
11
1.70952
21
-5.15206
0
LINE
8
BLACK
6
CONTINUOUS
10
1.70952
20
-5.15206
11
1.70177
21
-5.14046
0
LINE
8
BLACK
6
CONTINUOUS
10
1.70177
20
-5.14046
11
1.69642
21
-5.12756
0
LINE
8
BLACK
6
CONTINUOUS
10
1.69642
20
-5.12756
11
1.6937
21
-5.11387
0
LINE
8
BLACK
6
CONTINUOUS
10
1.6937
20
-5.11387
11
1.6937
21
-5.09991
0
LINE
8
BLACK
6
CONTINUOUS
10
1.6937
20
-5.09991
11
1.69642
21
-5.08622
0
LINE
8
BLACK
6
CONTINUOUS
10
1.69642
20
-5.08622
11
1.70177
21
-5.07332
0
LINE
8
BLACK
6
CONTINUOUS
10
1.70177
20
-5.07332
11
1.70952
21
-5.06172
0
LINE
8
BLACK
6
CONTINUOUS
10
1.70952
20
-5.06172
11
1.71939
21
-5.05184
0
LINE
8
BLACK
6
CONTINUOUS
10
1.71939
20
-5.05184
11
1.731
21
-5.04409
0
LINE
8
BLACK
6
CONTINUOUS
10
1.731
20
-5.04409
11
1.7439
21
-5.03875
0
LINE
8
BLACK
6
CONTINUOUS
10
1.7439
20
-5.03875
11
1.75759
21
-5.03602
0
LINE
8
BLACK
6
CONTINUOUS
10
1.75759
20
-5.03602
11
1.77155
21
-5.03602
0
LINE
8
BLACK
6
CONTINUOUS
10
1.77155
20
-5.03602
11
1.78524
21
-5.03875
0
LINE
8
BLACK
6
CONTINUOUS
10
2.46024
20
-5.03875
11
2.47313
21
-5.04409
0
LINE
8
BLACK
6
CONTINUOUS
10
2.47313
20
-5.04409
11
2.48474
21
-5.05184
0
LINE
8
BLACK
6
CONTINUOUS
10
2.48474
20
-5.05184
11
2.49461
21
-5.06172
0
LINE
8
BLACK
6
CONTINUOUS
10
2.49461
20
-5.06172
11
2.50237
21
-5.07332
0
LINE
8
BLACK
6
CONTINUOUS
10
2.50237
20
-5.07332
11
2.50771
21
-5.08622
0
LINE
8
BLACK
6
CONTINUOUS
10
2.50771
20
-5.08622
11
2.51043
21
-5.09991
0
LINE
8
BLACK
6
CONTINUOUS
10
2.51043
20
-5.09991
11
2.51043
21
-5.11387
0
LINE
8
BLACK
6
CONTINUOUS
10
2.51043
20
-5.11387
11
2.50771
21
-5.12756
0
LINE
8
BLACK
6
CONTINUOUS
10
2.50771
20
-5.12756
11
2.50237
21
-5.14046
0
LINE
8
BLACK
6
CONTINUOUS
10
2.50237
20
-5.14046
11
2.49461
21
-5.15206
0
LINE
8
BLACK
6
CONTINUOUS
10
2.49461
20
-5.15206
11
2.48474
21
-5.16194
0
LINE
8
BLACK
6
CONTINUOUS
10
2.48474
20
-5.16194
11
2.47313
21
-5.16969
0
LINE
8
BLACK
6
CONTINUOUS
10
2.47313
20
-5.16969
11
2.46024
21
-5.17503
0
LINE
8
BLACK
6
CONTINUOUS
10
2.46024
20
-5.17503
11
2.44655
21
-5.17776
0
LINE
8
BLACK
6
CONTINUOUS
10
2.44655
20
-5.17776
11
2.43259
21
-5.17776
0
LINE
8
BLACK
6
CONTINUOUS
10
2.43259
20
-5.17776
11
2.4189
21
-5.17503
0
LINE
8
BLACK
6
CONTINUOUS
10
2.4189
20
-5.17503
11
2.406
21
-5.16969
0
LINE
8
BLACK
6
CONTINUOUS
10
2.406
20
-5.16969
11
2.39439
21
-5.16194
0
LINE
8
BLACK
6
CONTINUOUS
10
2.39439
20
-5.16194
11
2.38452
21
-5.15206
0
LINE
8
BLACK
6
CONTINUOUS
10
2.38452
20
-5.15206
11
2.37677
21
-5.14046
0
LINE
8
BLACK
6
CONTINUOUS
10
2.37677
20
-5.14046
11
2.37142
21
-5.12756
0
LINE
8
BLACK
6
CONTINUOUS
10
2.37142
20
-5.12756
11
2.3687
21
-5.11387
0
LINE
8
BLACK
6
CONTINUOUS
10
2.3687
20
-5.11387
11
2.3687
21
-5.09991
0
LINE
8
BLACK
6
CONTINUOUS
10
2.3687
20
-5.09991
11
2.37142
21
-5.08622
0
LINE
8
BLACK
6
CONTINUOUS
10
2.37142
20
-5.08622
11
2.37677
21
-5.07332
0
LINE
8
BLACK
6
CONTINUOUS
10
2.37677
20
-5.07332
11
2.38452
21
-5.06172
0
LINE
8
BLACK
6
CONTINUOUS
10
2.38452
20
-5.06172
11
2.39439
21
-5.05184
0
LINE
8
BLACK
6
CONTINUOUS
10
2.39439
20
-5.05184
11
2.406
21
-5.04409
0
LINE
8
BLACK
6
CONTINUOUS
10
2.406
20
-5.04409
11
2.4189
21
-5.03875
0
LINE
8
BLACK
6
CONTINUOUS
10
2.4189
20
-5.03875
11
2.43259
21
-5.03602
0
LINE
8
BLACK
6
CONTINUOUS
10
2.43259
20
-5.03602
11
2.44655
21
-5.03602
0
LINE
8
BLACK
6
CONTINUOUS
10
2.44655
20
-5.03602
11
2.46024
21
-5.03875
0
LINE
8
BLACK
6
CONTINUOUS
10
3.13524
20
-5.03875
11
3.14813
21
-5.04409
0
LINE
8
BLACK
6
CONTINUOUS
10
3.14813
20
-5.04409
11
3.15974
21
-5.05184
0
LINE
8
BLACK
6
CONTINUOUS
10
3.15974
20
-5.05184
11
3.16961
21
-5.06172
0
LINE
8
BLACK
6
CONTINUOUS
10
3.16961
20
-5.06172
11
3.17737
21
-5.07332
0
LINE
8
BLACK
6
CONTINUOUS
10
3.17737
20
-5.07332
11
3.18271
21
-5.08622
0
LINE
8
BLACK
6
CONTINUOUS
10
3.18271
20
-5.08622
11
3.18543
21
-5.09991
0
LINE
8
BLACK
6
CONTINUOUS
10
3.18543
20
-5.09991
11
3.18543
21
-5.11387
0
LINE
8
BLACK
6
CONTINUOUS
10
3.18543
20
-5.11387
11
3.18271
21
-5.12756
0
LINE
8
BLACK
6
CONTINUOUS
10
3.18271
20
-5.12756
11
3.17737
21
-5.14046
0
LINE
8
BLACK
6
CONTINUOUS
10
3.17737
20
-5.14046
11
3.16961
21
-5.15206
0
LINE
8
BLACK
6
CONTINUOUS
10
3.16961
20
-5.15206
11
3.15974
21
-5.16194
0
LINE
8
BLACK
6
CONTINUOUS
10
3.15974
20
-5.16194
11
3.14813
21
-5.16969
0
LINE
8
BLACK
6
CONTINUOUS
10
3.14813
20
-5.16969
11
3.13524
21
-5.17503
0
LINE
8
BLACK
6
CONTINUOUS
10
3.13524
20
-5.17503
11
3.12155
21
-5.17776
0
LINE
8
BLACK
6
CONTINUOUS
10
3.12155
20
-5.17776
11
3.10759
21
-5.17776
0
LINE
8
BLACK
6
CONTINUOUS
10
3.10759
20
-5.17776
11
3.0939
21
-5.17503
0
LINE
8
BLACK
6
CONTINUOUS
10
3.0939
20
-5.17503
11
3.081
21
-5.16969
0
LINE
8
BLACK
6
CONTINUOUS
10
3.081
20
-5.16969
11
3.06939
21
-5.16194
0
LINE
8
BLACK
6
CONTINUOUS
10
3.06939
20
-5.16194
11
3.05952
21
-5.15206
0
LINE
8
BLACK
6
CONTINUOUS
10
3.05952
20
-5.15206
11
3.05177
21
-5.14046
0
LINE
8
BLACK
6
CONTINUOUS
10
3.05177
20
-5.14046
11
3.04642
21
-5.12756
0
LINE
8
BLACK
6
CONTINUOUS
10
3.04642
20
-5.12756
11
3.0437
21
-5.11387
0
LINE
8
BLACK
6
CONTINUOUS
10
3.0437
20
-5.11387
11
3.0437
21
-5.09991
0
LINE
8
BLACK
6
CONTINUOUS
10
3.0437
20
-5.09991
11
3.04642
21
-5.08622
0
LINE
8
BLACK
6
CONTINUOUS
10
3.04642
20
-5.08622
11
3.05177
21
-5.07332
0
LINE
8
BLACK
6
CONTINUOUS
10
3.05177
20
-5.07332
11
3.05952
21
-5.06172
0
LINE
8
BLACK
6
CONTINUOUS
10
3.05952
20
-5.06172
11
3.06939
21
-5.05184
0
LINE
8
BLACK
6
CONTINUOUS
10
3.06939
20
-5.05184
11
3.081
21
-5.04409
0
LINE
8
BLACK
6
CONTINUOUS
10
3.081
20
-5.04409
11
3.0939
21
-5.03875
0
LINE
8
BLACK
6
CONTINUOUS
10
3.0939
20
-5.03875
11
3.10759
21
-5.03602
0
LINE
8
BLACK
6
CONTINUOUS
10
3.10759
20
-5.03602
11
3.12155
21
-5.03602
0
LINE
8
BLACK
6
CONTINUOUS
10
3.12155
20
-5.03602
11
3.13524
21
-5.03875
0
LINE
8
BLACK
6
CONTINUOUS
10
3.81024
20
-5.03875
11
3.82313
21
-5.04409
0
LINE
8
BLACK
6
CONTINUOUS
10
3.82313
20
-5.04409
11
3.83474
21
-5.05184
0
LINE
8
BLACK
6
CONTINUOUS
10
3.83474
20
-5.05184
11
3.84461
21
-5.06172
0
LINE
8
BLACK
6
CONTINUOUS
10
3.84461
20
-5.06172
11
3.85237
21
-5.07332
0
LINE
8
BLACK
6
CONTINUOUS
10
3.85237
20
-5.07332
11
3.85771
21
-5.08622
0
LINE
8
BLACK
6
CONTINUOUS
10
3.85771
20
-5.08622
11
3.86043
21
-5.09991
0
LINE
8
BLACK
6
CONTINUOUS
10
3.86043
20
-5.09991
11
3.86043
21
-5.11387
0
LINE
8
BLACK
6
CONTINUOUS
10
3.86043
20
-5.11387
11
3.85771
21
-5.12756
0
LINE
8
BLACK
6
CONTINUOUS
10
3.85771
20
-5.12756
11
3.85237
21
-5.14046
0
LINE
8
BLACK
6
CONTINUOUS
10
3.85237
20
-5.14046
11
3.84461
21
-5.15206
0
LINE
8
BLACK
6
CONTINUOUS
10
3.84461
20
-5.15206
11
3.83474
21
-5.16194
0
LINE
8
BLACK
6
CONTINUOUS
10
3.83474
20
-5.16194
11
3.82313
21
-5.16969
0
LINE
8
BLACK
6
CONTINUOUS
10
3.82313
20
-5.16969
11
3.81024
21
-5.17503
0
LINE
8
BLACK
6
CONTINUOUS
10
3.81024
20
-5.17503
11
3.79655
21
-5.17776
0
LINE
8
BLACK
6
CONTINUOUS
10
3.79655
20
-5.17776
11
3.78259
21
-5.17776
0
LINE
8
BLACK
6
CONTINUOUS
10
3.78259
20
-5.17776
11
3.7689
21
-5.17503
0
LINE
8
BLACK
6
CONTINUOUS
10
3.7689
20
-5.17503
11
3.756
21
-5.16969
0
LINE
8
BLACK
6
CONTINUOUS
10
3.756
20
-5.16969
11
3.74439
21
-5.16194
0
LINE
8
BLACK
6
CONTINUOUS
10
3.74439
20
-5.16194
11
3.73452
21
-5.15206
0
LINE
8
BLACK
6
CONTINUOUS
10
3.73452
20
-5.15206
11
3.72677
21
-5.14046
0
LINE
8
BLACK
6
CONTINUOUS
10
3.72677
20
-5.14046
11
3.72142
21
-5.12756
0
LINE
8
BLACK
6
CONTINUOUS
10
3.72142
20
-5.12756
11
3.7187
21
-5.11387
0
LINE
8
BLACK
6
CONTINUOUS
10
3.7187
20
-5.11387
11
3.7187
21
-5.09991
0
LINE
8
BLACK
6
CONTINUOUS
10
3.7187
20
-5.09991
11
3.72142
21
-5.08622
0
LINE
8
BLACK
6
CONTINUOUS
10
3.72142
20
-5.08622
11
3.72677
21
-5.07332
0
LINE
8
BLACK
6
CONTINUOUS
10
3.72677
20
-5.07332
11
3.73452
21
-5.06172
0
LINE
8
BLACK
6
CONTINUOUS
10
3.73452
20
-5.06172
11
3.74439
21
-5.05184
0
LINE
8
BLACK
6
CONTINUOUS
10
3.74439
20
-5.05184
11
3.756
21
-5.04409
0
LINE
8
BLACK
6
CONTINUOUS
10
3.756
20
-5.04409
11
3.7689
21
-5.03875
0
LINE
8
BLACK
6
CONTINUOUS
10
3.7689
20
-5.03875
11
3.78259
21
-5.03602
0
LINE
8
BLACK
6
CONTINUOUS
10
3.78259
20
-5.03602
11
3.79655
21
-5.03602
0
LINE
8
BLACK
6
CONTINUOUS
10
3.79655
20
-5.03602
11
3.81024
21
-5.03875
0
LINE
8
BLACK
6
CONTINUOUS
10
4.48524
20
-5.03875
11
4.49813
21
-5.04409
0
LINE
8
BLACK
6
CONTINUOUS
10
4.49813
20
-5.04409
11
4.50974
21
-5.05184
0
LINE
8
BLACK
6
CONTINUOUS
10
4.50974
20
-5.05184
11
4.51961
21
-5.06172
0
LINE
8
BLACK
6
CONTINUOUS
10
4.51961
20
-5.06172
11
4.52737
21
-5.07332
0
LINE
8
BLACK
6
CONTINUOUS
10
4.52737
20
-5.07332
11
4.53271
21
-5.08622
0
LINE
8
BLACK
6
CONTINUOUS
10
4.53271
20
-5.08622
11
4.53543
21
-5.09991
0
LINE
8
BLACK
6
CONTINUOUS
10
4.53543
20
-5.09991
11
4.53543
21
-5.11387
0
LINE
8
BLACK
6
CONTINUOUS
10
4.53543
20
-5.11387
11
4.53271
21
-5.12756
0
LINE
8
BLACK
6
CONTINUOUS
10
4.53271
20
-5.12756
11
4.52737
21
-5.14046
0
LINE
8
BLACK
6
CONTINUOUS
10
4.52737
20
-5.14046
11
4.51961
21
-5.15206
0
LINE
8
BLACK
6
CONTINUOUS
10
4.51961
20
-5.15206
11
4.50974
21
-5.16194
0
LINE
8
BLACK
6
CONTINUOUS
10
4.50974
20
-5.16194
11
4.49813
21
-5.16969
0
LINE
8
BLACK
6
CONTINUOUS
10
4.49813
20
-5.16969
11
4.48524
21
-5.17503
0
LINE
8
BLACK
6
CONTINUOUS
10
4.48524
20
-5.17503
11
4.47155
21
-5.17776
0
LINE
8
BLACK
6
CONTINUOUS
10
4.47155
20
-5.17776
11
4.45759
21
-5.17776
0
LINE
8
BLACK
6
CONTINUOUS
10
4.45759
20
-5.17776
11
4.4439
21
-5.17503
0
LINE
8
BLACK
6
CONTINUOUS
10
4.4439
20
-5.17503
11
4.431
21
-5.16969
0
LINE
8
BLACK
6
CONTINUOUS
10
4.431
20
-5.16969
11
4.41939
21
-5.16194
0
LINE
8
BLACK
6
CONTINUOUS
10
4.41939
20
-5.16194
11
4.40952
21
-5.15206
0
LINE
8
BLACK
6
CONTINUOUS
10
4.40952
20
-5.15206
11
4.40177
21
-5.14046
0
LINE
8
BLACK
6
CONTINUOUS
10
4.40177
20
-5.14046
11
4.39642
21
-5.12756
0
LINE
8
BLACK
6
CONTINUOUS
10
4.39642
20
-5.12756
11
4.3937
21
-5.11387
0
LINE
8
BLACK
6
CONTINUOUS
10
4.3937
20
-5.11387
11
4.3937
21
-5.09991
0
LINE
8
BLACK
6
CONTINUOUS
10
4.3937
20
-5.09991
11
4.39642
21
-5.08622
0
LINE
8
BLACK
6
CONTINUOUS
10
4.39642
20
-5.08622
11
4.40177
21
-5.07332
0
LINE
8
BLACK
6
CONTINUOUS
10
4.40177
20
-5.07332
11
4.40952
21
-5.06172
0
LINE
8
BLACK
6
CONTINUOUS
10
4.40952
20
-5.06172
11
4.41939
21
-5.05184
0
LINE
8
BLACK
6
CONTINUOUS
10
4.41939
20
-5.05184
11
4.431
21
-5.04409
0
LINE
8
BLACK
6
CONTINUOUS
10
4.431
20
-5.04409
11
4.4439
21
-5.03875
0
LINE
8
BLACK
6
CONTINUOUS
10
4.4439
20
-5.03875
11
4.45759
21
-5.03602
0
LINE
8
BLACK
6
CONTINUOUS
10
4.45759
20
-5.03602
11
4.47155
21
-5.03602
0
LINE
8
BLACK
6
CONTINUOUS
10
4.47155
20
-5.03602
11
4.48524
21
-5.03875
0
LINE
8
BLACK
6
CONTINUOUS
10
5.16024
20
-5.03875
11
5.17313
21
-5.04409
0
LINE
8
BLACK
6
CONTINUOUS
10
5.17313
20
-5.04409
11
5.18474
21
-5.05184
0
LINE
8
BLACK
6
CONTINUOUS
10
5.18474
20
-5.05184
11
5.19461
21
-5.06172
0
LINE
8
BLACK
6
CONTINUOUS
10
5.19461
20
-5.06172
11
5.20237
21
-5.07332
0
LINE
8
BLACK
6
CONTINUOUS
10
5.20237
20
-5.07332
11
5.20771
21
-5.08622
0
LINE
8
BLACK
6
CONTINUOUS
10
5.20771
20
-5.08622
11
5.21043
21
-5.09991
0
LINE
8
BLACK
6
CONTINUOUS
10
5.21043
20
-5.09991
11
5.21043
21
-5.11387
0
LINE
8
BLACK
6
CONTINUOUS
10
5.21043
20
-5.11387
11
5.20771
21
-5.12756
0
LINE
8
BLACK
6
CONTINUOUS
10
5.20771
20
-5.12756
11
5.20237
21
-5.14046
0
LINE
8
BLACK
6
CONTINUOUS
10
5.20237
20
-5.14046
11
5.19461
21
-5.15206
0
LINE
8
BLACK
6
CONTINUOUS
10
5.19461
20
-5.15206
11
5.18474
21
-5.16194
0
LINE
8
BLACK
6
CONTINUOUS
10
5.18474
20
-5.16194
11
5.17313
21
-5.16969
0
LINE
8
BLACK
6
CONTINUOUS
10
5.17313
20
-5.16969
11
5.16024
21
-5.17503
0
LINE
8
BLACK
6
CONTINUOUS
10
5.16024
20
-5.17503
11
5.14655
21
-5.17776
0
LINE
8
BLACK
6
CONTINUOUS
10
5.14655
20
-5.17776
11
5.13259
21
-5.17776
0
LINE
8
BLACK
6
CONTINUOUS
10
5.13259
20
-5.17776
11
5.1189
21
-5.17503
0
LINE
8
BLACK
6
CONTINUOUS
10
5.1189
20
-5.17503
11
5.106
21
-5.16969
0
LINE
8
BLACK
6
CONTINUOUS
10
5.106
20
-5.16969
11
5.09439
21
-5.16194
0
LINE
8
BLACK
6
CONTINUOUS
10
5.09439
20
-5.16194
11
5.08452
21
-5.15206
0
LINE
8
BLACK
6
CONTINUOUS
10
5.08452
20
-5.15206
11
5.07677
21
-5.14046
0
LINE
8
BLACK
6
CONTINUOUS
10
5.07677
20
-5.14046
11
5.07142
21
-5.12756
0
LINE
8
BLACK
6
CONTINUOUS
10
5.07142
20
-5.12756
11
5.0687
21
-5.11387
0
LINE
8
BLACK
6
CONTINUOUS
10
5.0687
20
-5.11387
11
5.0687
21
-5.09991
0
LINE
8
BLACK
6
CONTINUOUS
10
5.0687
20
-5.09991
11
5.07142
21
-5.08622
0
LINE
8
BLACK
6
CONTINUOUS
10
5.07142
20
-5.08622
11
5.07677
21
-5.07332
0
LINE
8
BLACK
6
CONTINUOUS
10
5.07677
20
-5.07332
11
5.08452
21
-5.06172
0
LINE
8
BLACK
6
CONTINUOUS
10
5.08452
20
-5.06172
11
5.09439
21
-5.05184
0
LINE
8
BLACK
6
CONTINUOUS
10
5.09439
20
-5.05184
11
5.106
21
-5.04409
0
LINE
8
BLACK
6
CONTINUOUS
10
5.106
20
-5.04409
11
5.1189
21
-5.03875
0
LINE
8
BLACK
6
CONTINUOUS
10
5.1189
20
-5.03875
11
5.13259
21
-5.03602
0
LINE
8
BLACK
6
CONTINUOUS
10
5.13259
20
-5.03602
11
5.14655
21
-5.03602
0
LINE
8
BLACK
6
CONTINUOUS
10
5.14655
20
-5.03602
11
5.16024
21
-5.03875
0
LINE
8
BLACK
6
CONTINUOUS
10
5.83524
20
-5.03875
11
5.84813
21
-5.04409
0
LINE
8
BLACK
6
CONTINUOUS
10
5.84813
20
-5.04409
11
5.85974
21
-5.05184
0
LINE
8
BLACK
6
CONTINUOUS
10
5.85974
20
-5.05184
11
5.86961
21
-5.06172
0
LINE
8
BLACK
6
CONTINUOUS
10
5.86961
20
-5.06172
11
5.87737
21
-5.07332
0
LINE
8
BLACK
6
CONTINUOUS
10
5.87737
20
-5.07332
11
5.88271
21
-5.08622
0
LINE
8
BLACK
6
CONTINUOUS
10
5.88271
20
-5.08622
11
5.88543
21
-5.09991
0
LINE
8
BLACK
6
CONTINUOUS
10
5.88543
20
-5.09991
11
5.88543
21
-5.11387
0
LINE
8
BLACK
6
CONTINUOUS
10
5.88543
20
-5.11387
11
5.88271
21
-5.12756
0
LINE
8
BLACK
6
CONTINUOUS
10
5.88271
20
-5.12756
11
5.87737
21
-5.14046
0
LINE
8
BLACK
6
CONTINUOUS
10
5.87737
20
-5.14046
11
5.86961
21
-5.15206
0
LINE
8
BLACK
6
CONTINUOUS
10
5.86961
20
-5.15206
11
5.85974
21
-5.16194
0
LINE
8
BLACK
6
CONTINUOUS
10
5.85974
20
-5.16194
11
5.84813
21
-5.16969
0
LINE
8
BLACK
6
CONTINUOUS
10
5.84813
20
-5.16969
11
5.83524
21
-5.17503
0
LINE
8
BLACK
6
CONTINUOUS
10
5.83524
20
-5.17503
11
5.82155
21
-5.17776
0
LINE
8
BLACK
6
CONTINUOUS
10
5.82155
20
-5.17776
11
5.80759
21
-5.17776
0
LINE
8
BLACK
6
CONTINUOUS
10
5.80759
20
-5.17776
11
5.7939
21
-5.17503
0
LINE
8
BLACK
6
CONTINUOUS
10
5.7939
20
-5.17503
11
5.781
21
-5.16969
0
LINE
8
BLACK
6
CONTINUOUS
10
5.781
20
-5.16969
11
5.76939
21
-5.16194
0
LINE
8
BLACK
6
CONTINUOUS
10
5.76939
20
-5.16194
11
5.75952
21
-5.15206
0
LINE
8
BLACK
6
CONTINUOUS
10
5.75952
20
-5.15206
11
5.75177
21
-5.14046
0
LINE
8
BLACK
6
CONTINUOUS
10
5.75177
20
-5.14046
11
5.74642
21
-5.12756
0
LINE
8
BLACK
6
CONTINUOUS
10
5.74642
20
-5.12756
11
5.7437
21
-5.11387
0
LINE
8
BLACK
6
CONTINUOUS
10
5.7437
20
-5.11387
11
5.7437
21
-5.09991
0
LINE
8
BLACK
6
CONTINUOUS
10
5.7437
20
-5.09991
11
5.74642
21
-5.08622
0
LINE
8
BLACK
6
CONTINUOUS
10
5.74642
20
-5.08622
11
5.75177
21
-5.07332
0
LINE
8
BLACK
6
CONTINUOUS
10
5.75177
20
-5.07332
11
5.75952
21
-5.06172
0
LINE
8
BLACK
6
CONTINUOUS
10
5.75952
20
-5.06172
11
5.76939
21
-5.05184
0
LINE
8
BLACK
6
CONTINUOUS
10
5.76939
20
-5.05184
11
5.781
21
-5.04409
0
LINE
8
BLACK
6
CONTINUOUS
10
5.781
20
-5.04409
11
5.7939
21
-5.03875
0
LINE
8
BLACK
6
CONTINUOUS
10
5.7939
20
-5.03875
11
5.80759
21
-5.03602
0
LINE
8
BLACK
6
CONTINUOUS
10
5.80759
20
-5.03602
11
5.82155
21
-5.03602
0
LINE
8
BLACK
6
CONTINUOUS
10
5.82155
20
-5.03602
11
5.83524
21
-5.03875
0
LINE
8
BLACK
6
CONTINUOUS
10
6.51024
20
-5.03875
11
6.52313
21
-5.04409
0
LINE
8
BLACK
6
CONTINUOUS
10
6.52313
20
-5.04409
11
6.53474
21
-5.05184
0
LINE
8
BLACK
6
CONTINUOUS
10
6.53474
20
-5.05184
11
6.54461
21
-5.06172
0
LINE
8
BLACK
6
CONTINUOUS
10
6.54461
20
-5.06172
11
6.55237
21
-5.07332
0
LINE
8
BLACK
6
CONTINUOUS
10
6.55237
20
-5.07332
11
6.55771
21
-5.08622
0
LINE
8
BLACK
6
CONTINUOUS
10
6.55771
20
-5.08622
11
6.56043
21
-5.09991
0
LINE
8
BLACK
6
CONTINUOUS
10
6.56043
20
-5.09991
11
6.56043
21
-5.11387
0
LINE
8
BLACK
6
CONTINUOUS
10
6.56043
20
-5.11387
11
6.55771
21
-5.12756
0
LINE
8
BLACK
6
CONTINUOUS
10
6.55771
20
-5.12756
11
6.55237
21
-5.14046
0
LINE
8
BLACK
6
CONTINUOUS
10
6.55237
20
-5.14046
11
6.54461
21
-5.15206
0
LINE
8
BLACK
6
CONTINUOUS
10
6.54461
20
-5.15206
11
6.53474
21
-5.16194
0
LINE
8
BLACK
6
CONTINUOUS
10
6.53474
20
-5.16194
11
6.52313
21
-5.16969
0
LINE
8
BLACK
6
CONTINUOUS
10
6.52313
20
-5.16969
11
6.51024
21
-5.17503
0
LINE
8
BLACK
6
CONTINUOUS
10
6.51024
20
-5.17503
11
6.49655
21
-5.17776
0
LINE
8
BLACK
6
CONTINUOUS
10
6.49655
20
-5.17776
11
6.48259
21
-5.17776
0
LINE
8
BLACK
6
CONTINUOUS
10
6.48259
20
-5.17776
11
6.4689
21
-5.17503
0
LINE
8
BLACK
6
CONTINUOUS
10
6.4689
20
-5.17503
11
6.456
21
-5.16969
0
LINE
8
BLACK
6
CONTINUOUS
10
6.456
20
-5.16969
11
6.44439
21
-5.16194
0
LINE
8
BLACK
6
CONTINUOUS
10
6.44439
20
-5.16194
11
6.43452
21
-5.15206
0
LINE
8
BLACK
6
CONTINUOUS
10
6.43452
20
-5.15206
11
6.42677
21
-5.14046
0
LINE
8
BLACK
6
CONTINUOUS
10
6.42677
20
-5.14046
11
6.42142
21
-5.12756
0
LINE
8
BLACK
6
CONTINUOUS
10
6.42142
20
-5.12756
11
6.4187
21
-5.11387
0
LINE
8
BLACK
6
CONTINUOUS
10
6.4187
20
-5.11387
11
6.4187
21
-5.09991
0
LINE
8
BLACK
6
CONTINUOUS
10
6.4187
20
-5.09991
11
6.42142
21
-5.08622
0
LINE
8
BLACK
6
CONTINUOUS
10
6.42142
20
-5.08622
11
6.42677
21
-5.07332
0
LINE
8
BLACK
6
CONTINUOUS
10
6.42677
20
-5.07332
11
6.43452
21
-5.06172
0
LINE
8
BLACK
6
CONTINUOUS
10
6.43452
20
-5.06172
11
6.44439
21
-5.05184
0
LINE
8
BLACK
6
CONTINUOUS
10
6.44439
20
-5.05184
11
6.456
21
-5.04409
0
LINE
8
BLACK
6
CONTINUOUS
10
6.456
20
-5.04409
11
6.4689
21
-5.03875
0
LINE
8
BLACK
6
CONTINUOUS
10
6.4689
20
-5.03875
11
6.48259
21
-5.03602
0
LINE
8
BLACK
6
CONTINUOUS
10
6.48259
20
-5.03602
11
6.49655
21
-5.03602
0
LINE
8
BLACK
6
CONTINUOUS
10
6.49655
20
-5.03602
11
6.51024
21
-5.03875
0
LINE
8
BLACK
6
CONTINUOUS
10
7.18524
20
-5.03875
11
7.19813
21
-5.04409
0
LINE
8
BLACK
6
CONTINUOUS
10
7.19813
20
-5.04409
11
7.20974
21
-5.05184
0
LINE
8
BLACK
6
CONTINUOUS
10
7.20974
20
-5.05184
11
7.21961
21
-5.06172
0
LINE
8
BLACK
6
CONTINUOUS
10
7.21961
20
-5.06172
11
7.22737
21
-5.07332
0
LINE
8
BLACK
6
CONTINUOUS
10
7.22737
20
-5.07332
11
7.23271
21
-5.08622
0
LINE
8
BLACK
6
CONTINUOUS
10
7.23271
20
-5.08622
11
7.23543
21
-5.09991
0
LINE
8
BLACK
6
CONTINUOUS
10
7.23543
20
-5.09991
11
7.23543
21
-5.11387
0
LINE
8
BLACK
6
CONTINUOUS
10
7.23543
20
-5.11387
11
7.23271
21
-5.12756
0
LINE
8
BLACK
6
CONTINUOUS
10
7.23271
20
-5.12756
11
7.22737
21
-5.14046
0
LINE
8
BLACK
6
CONTINUOUS
10
7.22737
20
-5.14046
11
7.21961
21
-5.15206
0
LINE
8
BLACK
6
CONTINUOUS
10
7.21961
20
-5.15206
11
7.20974
21
-5.16194
0
LINE
8
BLACK
6
CONTINUOUS
10
7.20974
20
-5.16194
11
7.19813
21
-5.16969
0
LINE
8
BLACK
6
CONTINUOUS
10
7.19813
20
-5.16969
11
7.18524
21
-5.17503
0
LINE
8
BLACK
6
CONTINUOUS
10
7.18524
20
-5.17503
11
7.17155
21
-5.17776
0
LINE
8
BLACK
6
CONTINUOUS
10
7.17155
20
-5.17776
11
7.15759
21
-5.17776
0
LINE
8
BLACK
6
CONTINUOUS
10
7.15759
20
-5.17776
11
7.1439
21
-5.17503
0
LINE
8
BLACK
6
CONTINUOUS
10
7.1439
20
-5.17503
11
7.131
21
-5.16969
0
LINE
8
BLACK
6
CONTINUOUS
10
7.131
20
-5.16969
11
7.11939
21
-5.16194
0
LINE
8
BLACK
6
CONTINUOUS
10
7.11939
20
-5.16194
11
7.10952
21
-5.15206
0
LINE
8
BLACK
6
CONTINUOUS
10
7.10952
20
-5.15206
11
7.10177
21
-5.14046
0
LINE
8
BLACK
6
CONTINUOUS
10
7.10177
20
-5.14046
11
7.09642
21
-5.12756
0
LINE
8
BLACK
6
CONTINUOUS
10
7.09642
20
-5.12756
11
7.0937
21
-5.11387
0
LINE
8
BLACK
6
CONTINUOUS
10
7.0937
20
-5.11387
11
7.0937
21
-5.09991
0
LINE
8
BLACK
6
CONTINUOUS
10
7.0937
20
-5.09991
11
7.09642
21
-5.08622
0
LINE
8
BLACK
6
CONTINUOUS
10
7.09642
20
-5.08622
11
7.10177
21
-5.07332
0
LINE
8
BLACK
6
CONTINUOUS
10
7.10177
20
-5.07332
11
7.10952
21
-5.06172
0
LINE
8
BLACK
6
CONTINUOUS
10
7.10952
20
-5.06172
11
7.11939
21
-5.05184
0
LINE
8
BLACK
6
CONTINUOUS
10
7.11939
20
-5.05184
11
7.131
21
-5.04409
0
LINE
8
BLACK
6
CONTINUOUS
10
7.131
20
-5.04409
11
7.1439
21
-5.03875
0
LINE
8
BLACK
6
CONTINUOUS
10
7.1439
20
-5.03875
11
7.15759
21
-5.03602
0
LINE
8
BLACK
6
CONTINUOUS
10
7.15759
20
-5.03602
11
7.17155
21
-5.03602
0
LINE
8
BLACK
6
CONTINUOUS
10
7.17155
20
-5.03602
11
7.18524
21
-5.03875
0
LINE
8
BLACK
6
CONTINUOUS
10
7.86024
20
-5.03875
11
7.87313
21
-5.04409
0
LINE
8
BLACK
6
CONTINUOUS
10
7.87313
20
-5.04409
11
7.88474
21
-5.05184
0
LINE
8
BLACK
6
CONTINUOUS
10
7.88474
20
-5.05184
11
7.89461
21
-5.06172
0
LINE
8
BLACK
6
CONTINUOUS
10
7.89461
20
-5.06172
11
7.90237
21
-5.07332
0
LINE
8
BLACK
6
CONTINUOUS
10
7.90237
20
-5.07332
11
7.90771
21
-5.08622
0
LINE
8
BLACK
6
CONTINUOUS
10
7.90771
20
-5.08622
11
7.91043
21
-5.09991
0
LINE
8
BLACK
6
CONTINUOUS
10
7.91043
20
-5.09991
11
7.91043
21
-5.11387
0
LINE
8
BLACK
6
CONTINUOUS
10
7.91043
20
-5.11387
11
7.90771
21
-5.12756
0
LINE
8
BLACK
6
CONTINUOUS
10
7.90771
20
-5.12756
11
7.90237
21
-5.14046
0
LINE
8
BLACK
6
CONTINUOUS
10
7.90237
20
-5.14046
11
7.89461
21
-5.15206
0
LINE
8
BLACK
6
CONTINUOUS
10
7.89461
20
-5.15206
11
7.88474
21
-5.16194
0
LINE
8
BLACK
6
CONTINUOUS
10
7.88474
20
-5.16194
11
7.87313
21
-5.16969
0
LINE
8
BLACK
6
CONTINUOUS
10
7.87313
20
-5.16969
11
7.86024
21
-5.17503
0
LINE
8
BLACK
6
CONTINUOUS
10
7.86024
20
-5.17503
11
7.84655
21
-5.17776
0
LINE
8
BLACK
6
CONTINUOUS
10
7.84655
20
-5.17776
11
7.83259
21
-5.17776
0
LINE
8
BLACK
6
CONTINUOUS
10
7.83259
20
-5.17776
11
7.8189
21
-5.17503
0
LINE
8
BLACK
6
CONTINUOUS
10
7.8189
20
-5.17503
11
7.806
21
-5.16969
0
LINE
8
BLACK
6
CONTINUOUS
10
7.806
20
-5.16969
11
7.79439
21
-5.16194
0
LINE
8
BLACK
6
CONTINUOUS
10
7.79439
20
-5.16194
11
7.78452
21
-5.15206
0
LINE
8
BLACK
6
CONTINUOUS
10
7.78452
20
-5.15206
11
7.77677
21
-5.14046
0
LINE
8
BLACK
6
CONTINUOUS
10
7.77677
20
-5.14046
11
7.77142
21
-5.12756
0
LINE
8
BLACK
6
CONTINUOUS
10
7.77142
20
-5.12756
11
7.7687
21
-5.11387
0
LINE
8
BLACK
6
CONTINUOUS
10
7.7687
20
-5.11387
11
7.7687
21
-5.09991
0
LINE
8
BLACK
6
CONTINUOUS
10
7.7687
20
-5.09991
11
7.77142
21
-5.08622
0
LINE
8
BLACK
6
CONTINUOUS
10
7.77142
20
-5.08622
11
7.77677
21
-5.07332
0
LINE
8
BLACK
6
CONTINUOUS
10
7.77677
20
-5.07332
11
7.78452
21
-5.06172
0
LINE
8
BLACK
6
CONTINUOUS
10
7.78452
20
-5.06172
11
7.79439
21
-5.05184
0
LINE
8
BLACK
6
CONTINUOUS
10
7.79439
20
-5.05184
11
7.806
21
-5.04409
0
LINE
8
BLACK
6
CONTINUOUS
10
7.806
20
-5.04409
11
7.8189
21
-5.03875
0
LINE
8
BLACK
6
CONTINUOUS
10
7.8189
20
-5.03875
11
7.83259
21
-5.03602
0
LINE
8
BLACK
6
CONTINUOUS
10
7.83259
20
-5.03602
11
7.84655
21
-5.03602
0
LINE
8
BLACK
6
CONTINUOUS
10
7.84655
20
-5.03602
11
7.86024
21
-5.03875
0
LINE
8
BLACK
6
CONTINUOUS
10
8.53524
20
-5.03875
11
8.54813
21
-5.04409
0
LINE
8
BLACK
6
CONTINUOUS
10
8.54813
20
-5.04409
11
8.55974
21
-5.05184
0
LINE
8
BLACK
6
CONTINUOUS
10
8.55974
20
-5.05184
11
8.56961
21
-5.06172
0
LINE
8
BLACK
6
CONTINUOUS
10
8.56961
20
-5.06172
11
8.57737
21
-5.07332
0
LINE
8
BLACK
6
CONTINUOUS
10
8.57737
20
-5.07332
11
8.58271
21
-5.08622
0
LINE
8
BLACK
6
CONTINUOUS
10
8.58271
20
-5.08622
11
8.58543
21
-5.09991
0
LINE
8
BLACK
6
CONTINUOUS
10
8.58543
20
-5.09991
11
8.58543
21
-5.11387
0
LINE
8
BLACK
6
CONTINUOUS
10
8.58543
20
-5.11387
11
8.58271
21
-5.12756
0
LINE
8
BLACK
6
CONTINUOUS
10
8.58271
20
-5.12756
11
8.57737
21
-5.14046
0
LINE
8
BLACK
6
CONTINUOUS
10
8.57737
20
-5.14046
11
8.56961
21
-5.15206
0
LINE
8
BLACK
6
CONTINUOUS
10
8.56961
20
-5.15206
11
8.55974
21
-5.16194
0
LINE
8
BLACK
6
CONTINUOUS
10
8.55974
20
-5.16194
11
8.54813
21
-5.16969
0
LINE
8
BLACK
6
CONTINUOUS
10
8.54813
20
-5.16969
11
8.53524
21
-5.17503
0
LINE
8
BLACK
6
CONTINUOUS
10
8.53524
20
-5.17503
11
8.52155
21
-5.17776
0
LINE
8
BLACK
6
CONTINUOUS
10
8.52155
20
-5.17776
11
8.50759
21
-5.17776
0
LINE
8
BLACK
6
CONTINUOUS
10
8.50759
20
-5.17776
11
8.4939
21
-5.17503
0
LINE
8
BLACK
6
CONTINUOUS
10
8.4939
20
-5.17503
11
8.481
21
-5.16969
0
LINE
8
BLACK
6
CONTINUOUS
10
8.481
20
-5.16969
11
8.46939
21
-5.16194
0
LINE
8
BLACK
6
CONTINUOUS
10
8.46939
20
-5.16194
11
8.45952
21
-5.15206
0
LINE
8
BLACK
6
CONTINUOUS
10
8.45952
20
-5.15206
11
8.45177
21
-5.14046
0
LINE
8
BLACK
6
CONTINUOUS
10
8.45177
20
-5.14046
11
8.44642
21
-5.12756
0
LINE
8
BLACK
6
CONTINUOUS
10
8.44642
20
-5.12756
11
8.4437
21
-5.11387
0
LINE
8
BLACK
6
CONTINUOUS
10
8.4437
20
-5.11387
11
8.4437
21
-5.09991
0
LINE
8
BLACK
6
CONTINUOUS
10
8.4437
20
-5.09991
11
8.44642
21
-5.08622
0
LINE
8
BLACK
6
CONTINUOUS
10
8.44642
20
-5.08622
11
8.45177
21
-5.07332
0
LINE
8
BLACK
6
CONTINUOUS
10
8.45177
20
-5.07332
11
8.45952
21
-5.06172
0
LINE
8
BLACK
6
CONTINUOUS
10
8.45952
20
-5.06172
11
8.46939
21
-5.05184
0
LINE
8
BLACK
6
CONTINUOUS
10
8.46939
20
-5.05184
11
8.481
21
-5.04409
0
LINE
8
BLACK
6
CONTINUOUS
10
8.481
20
-5.04409
11
8.4939
21
-5.03875
0
LINE
8
BLACK
6
CONTINUOUS
10
8.4939
20
-5.03875
11
8.50759
21
-5.03602
0
LINE
8
BLACK
6
CONTINUOUS
10
8.50759
20
-5.03602
11
8.52155
21
-5.03602
0
LINE
8
BLACK
6
CONTINUOUS
10
8.52155
20
-5.03602
11
8.53524
21
-5.03875
0
LINE
8
BLACK
6
CONTINUOUS
10
7.84921
20
-4.23713
11
7.85849
21
-4.23994
0
LINE
8
BLACK
6
CONTINUOUS
10
7.85849
20
-4.23994
11
7.86704
21
-4.24451
0
LINE
8
BLACK
6
CONTINUOUS
10
7.86704
20
-4.24451
11
7.87453
21
-4.25066
0
LINE
8
BLACK
6
CONTINUOUS
10
7.87453
20
-4.25066
11
7.88068
21
-4.25816
0
LINE
8
BLACK
6
CONTINUOUS
10
7.88068
20
-4.25816
11
7.88525
21
-4.26671
0
LINE
8
BLACK
6
CONTINUOUS
10
7.88525
20
-4.26671
11
7.88807
21
-4.27598
0
LINE
8
BLACK
6
CONTINUOUS
10
7.88807
20
-4.27598
11
7.88878
21
-4.28321
0
LINE
8
BLACK
6
CONTINUOUS
10
7.88878
20
-4.28321
11
7.88878
21
-4.36679
0
LINE
8
BLACK
6
CONTINUOUS
10
7.88878
20
-4.36679
11
7.88807
21
-4.37402
0
LINE
8
BLACK
6
CONTINUOUS
10
7.88807
20
-4.37402
11
7.88525
21
-4.38329
0
LINE
8
BLACK
6
CONTINUOUS
10
7.88525
20
-4.38329
11
7.88068
21
-4.39184
0
LINE
8
BLACK
6
CONTINUOUS
10
7.88068
20
-4.39184
11
7.87453
21
-4.39934
0
LINE
8
BLACK
6
CONTINUOUS
10
7.87453
20
-4.39934
11
7.86704
21
-4.40549
0
LINE
8
BLACK
6
CONTINUOUS
10
7.86704
20
-4.40549
11
7.85849
21
-4.41006
0
LINE
8
BLACK
6
CONTINUOUS
10
7.85849
20
-4.41006
11
7.84921
21
-4.41287
0
LINE
8
BLACK
6
CONTINUOUS
10
7.84921
20
-4.41287
11
7.83957
21
-4.41382
0
LINE
8
BLACK
6
CONTINUOUS
10
7.83957
20
-4.41382
11
7.82992
21
-4.41287
0
LINE
8
BLACK
6
CONTINUOUS
10
7.82992
20
-4.41287
11
7.82064
21
-4.41006
0
LINE
8
BLACK
6
CONTINUOUS
10
7.82064
20
-4.41006
11
7.81209
21
-4.40549
0
LINE
8
BLACK
6
CONTINUOUS
10
7.81209
20
-4.40549
11
7.8046
21
-4.39934
0
LINE
8
BLACK
6
CONTINUOUS
10
7.8046
20
-4.39934
11
7.79845
21
-4.39184
0
LINE
8
BLACK
6
CONTINUOUS
10
7.79845
20
-4.39184
11
7.79388
21
-4.38329
0
LINE
8
BLACK
6
CONTINUOUS
10
7.79388
20
-4.38329
11
7.79107
21
-4.37402
0
LINE
8
BLACK
6
CONTINUOUS
10
7.79107
20
-4.37402
11
7.79035
21
-4.36679
0
LINE
8
BLACK
6
CONTINUOUS
10
7.79035
20
-4.36679
11
7.79035
21
-4.28321
0
LINE
8
BLACK
6
CONTINUOUS
10
7.79035
20
-4.28321
11
7.79107
21
-4.27598
0
LINE
8
BLACK
6
CONTINUOUS
10
7.79107
20
-4.27598
11
7.79388
21
-4.26671
0
LINE
8
BLACK
6
CONTINUOUS
10
7.79388
20
-4.26671
11
7.79845
21
-4.25816
0
LINE
8
BLACK
6
CONTINUOUS
10
7.79845
20
-4.25816
11
7.8046
21
-4.25066
0
LINE
8
BLACK
6
CONTINUOUS
10
7.8046
20
-4.25066
11
7.81209
21
-4.24451
0
LINE
8
BLACK
6
CONTINUOUS
10
7.81209
20
-4.24451
11
7.82064
21
-4.23994
0
LINE
8
BLACK
6
CONTINUOUS
10
7.82064
20
-4.23994
11
7.82992
21
-4.23713
0
LINE
8
BLACK
6
CONTINUOUS
10
7.82992
20
-4.23713
11
7.83957
21
-4.23618
0
LINE
8
BLACK
6
CONTINUOUS
10
7.83957
20
-4.23618
11
7.84921
21
-4.23713
0
LINE
8
BLACK
6
CONTINUOUS
10
2.44921
20
-4.23713
11
2.45849
21
-4.23994
0
LINE
8
BLACK
6
CONTINUOUS
10
2.45849
20
-4.23994
11
2.46704
21
-4.24451
0
LINE
8
BLACK
6
CONTINUOUS
10
2.46704
20
-4.24451
11
2.47453
21
-4.25066
0
LINE
8
BLACK
6
CONTINUOUS
10
2.47453
20
-4.25066
11
2.48068
21
-4.25816
0
LINE
8
BLACK
6
CONTINUOUS
10
2.48068
20
-4.25816
11
2.48525
21
-4.26671
0
LINE
8
BLACK
6
CONTINUOUS
10
2.48525
20
-4.26671
11
2.48807
21
-4.27598
0
LINE
8
BLACK
6
CONTINUOUS
10
2.48807
20
-4.27598
11
2.48878
21
-4.28321
0
LINE
8
BLACK
6
CONTINUOUS
10
2.48878
20
-4.28321
11
2.48878
21
-4.36679
0
LINE
8
BLACK
6
CONTINUOUS
10
2.48878
20
-4.36679
11
2.48807
21
-4.37402
0
LINE
8
BLACK
6
CONTINUOUS
10
2.48807
20
-4.37402
11
2.48525
21
-4.38329
0
LINE
8
BLACK
6
CONTINUOUS
10
2.48525
20
-4.38329
11
2.48068
21
-4.39184
0
LINE
8
BLACK
6
CONTINUOUS
10
2.48068
20
-4.39184
11
2.47453
21
-4.39934
0
LINE
8
BLACK
6
CONTINUOUS
10
2.47453
20
-4.39934
11
2.46704
21
-4.40549
0
LINE
8
BLACK
6
CONTINUOUS
10
2.46704
20
-4.40549
11
2.45849
21
-4.41006
0
LINE
8
BLACK
6
CONTINUOUS
10
2.45849
20
-4.41006
11
2.44921
21
-4.41287
0
LINE
8
BLACK
6
CONTINUOUS
10
2.44921
20
-4.41287
11
2.43957
21
-4.41382
0
LINE
8
BLACK
6
CONTINUOUS
10
2.43957
20
-4.41382
11
2.42992
21
-4.41287
0
LINE
8
BLACK
6
CONTINUOUS
10
2.42992
20
-4.41287
11
2.42064
21
-4.41006
0
LINE
8
BLACK
6
CONTINUOUS
10
2.42064
20
-4.41006
11
2.41209
21
-4.40549
0
LINE
8
BLACK
6
CONTINUOUS
10
2.41209
20
-4.40549
11
2.4046
21
-4.39934
0
LINE
8
BLACK
6
CONTINUOUS
10
2.4046
20
-4.39934
11
2.39845
21
-4.39184
0
LINE
8
BLACK
6
CONTINUOUS
10
2.39845
20
-4.39184
11
2.39388
21
-4.38329
0
LINE
8
BLACK
6
CONTINUOUS
10
2.39388
20
-4.38329
11
2.39107
21
-4.37402
0
LINE
8
BLACK
6
CONTINUOUS
10
2.39107
20
-4.37402
11
2.39035
21
-4.36679
0
LINE
8
BLACK
6
CONTINUOUS
10
2.39035
20
-4.36679
11
2.39035
21
-4.28321
0
LINE
8
BLACK
6
CONTINUOUS
10
2.39035
20
-4.28321
11
2.39107
21
-4.27598
0
LINE
8
BLACK
6
CONTINUOUS
10
2.39107
20
-4.27598
11
2.39388
21
-4.26671
0
LINE
8
BLACK
6
CONTINUOUS
10
2.39388
20
-4.26671
11
2.39845
21
-4.25816
0
LINE
8
BLACK
6
CONTINUOUS
10
2.39845
20
-4.25816
11
2.4046
21
-4.25066
0
LINE
8
BLACK
6
CONTINUOUS
10
2.4046
20
-4.25066
11
2.41209
21
-4.24451
0
LINE
8
BLACK
6
CONTINUOUS
10
2.41209
20
-4.24451
11
2.42064
21
-4.23994
0
LINE
8
BLACK
6
CONTINUOUS
10
2.42064
20
-4.23994
11
2.42992
21
-4.23713
0
LINE
8
BLACK
6
CONTINUOUS
10
2.42992
20
-4.23713
11
2.43957
21
-4.23618
0
LINE
8
BLACK
6
CONTINUOUS
10
2.43957
20
-4.23618
11
2.44921
21
-4.23713
0
LINE
8
BLACK
6
CONTINUOUS
10
2.66378
20
-4.23713
11
2.67306
21
-4.23994
0
LINE
8
BLACK
6
CONTINUOUS
10
2.67306
20
-4.23994
11
2.68161
21
-4.24451
0
LINE
8
BLACK
6
CONTINUOUS
10
2.68161
20
-4.24451
11
2.6891
21
-4.25066
0
LINE
8
BLACK
6
CONTINUOUS
10
2.6891
20
-4.25066
11
2.69525
21
-4.25816
0
LINE
8
BLACK
6
CONTINUOUS
10
2.69525
20
-4.25816
11
2.69982
21
-4.26671
0
LINE
8
BLACK
6
CONTINUOUS
10
2.69982
20
-4.26671
11
2.70263
21
-4.27598
0
LINE
8
BLACK
6
CONTINUOUS
10
2.70263
20
-4.27598
11
2.70335
21
-4.28321
0
LINE
8
BLACK
6
CONTINUOUS
10
2.70335
20
-4.28321
11
2.70335
21
-4.36679
0
LINE
8
BLACK
6
CONTINUOUS
10
2.70335
20
-4.36679
11
2.70263
21
-4.37402
0
LINE
8
BLACK
6
CONTINUOUS
10
2.70263
20
-4.37402
11
2.69982
21
-4.38329
0
LINE
8
BLACK
6
CONTINUOUS
10
2.69982
20
-4.38329
11
2.69525
21
-4.39184
0
LINE
8
BLACK
6
CONTINUOUS
10
2.69525
20
-4.39184
11
2.6891
21
-4.39934
0
LINE
8
BLACK
6
CONTINUOUS
10
2.6891
20
-4.39934
11
2.68161
21
-4.40549
0
LINE
8
BLACK
6
CONTINUOUS
10
2.68161
20
-4.40549
11
2.67306
21
-4.41006
0
LINE
8
BLACK
6
CONTINUOUS
10
2.67306
20
-4.41006
11
2.66378
21
-4.41287
0
LINE
8
BLACK
6
CONTINUOUS
10
2.66378
20
-4.41287
11
2.65413
21
-4.41382
0
LINE
8
BLACK
6
CONTINUOUS
10
2.65413
20
-4.41382
11
2.64449
21
-4.41287
0
LINE
8
BLACK
6
CONTINUOUS
10
2.64449
20
-4.41287
11
2.63521
21
-4.41006
0
LINE
8
BLACK
6
CONTINUOUS
10
2.63521
20
-4.41006
11
2.62666
21
-4.40549
0
LINE
8
BLACK
6
CONTINUOUS
10
2.62666
20
-4.40549
11
2.61917
21
-4.39934
0
LINE
8
BLACK
6
CONTINUOUS
10
2.61917
20
-4.39934
11
2.61302
21
-4.39184
0
LINE
8
BLACK
6
CONTINUOUS
10
2.61302
20
-4.39184
11
2.60845
21
-4.38329
0
LINE
8
BLACK
6
CONTINUOUS
10
2.60845
20
-4.38329
11
2.60563
21
-4.37402
0
LINE
8
BLACK
6
CONTINUOUS
10
2.60563
20
-4.37402
11
2.60492
21
-4.36679
0
LINE
8
BLACK
6
CONTINUOUS
10
2.60492
20
-4.36679
11
2.60492
21
-4.28321
0
LINE
8
BLACK
6
CONTINUOUS
10
2.60492
20
-4.28321
11
2.60563
21
-4.27598
0
LINE
8
BLACK
6
CONTINUOUS
10
2.60563
20
-4.27598
11
2.60845
21
-4.26671
0
LINE
8
BLACK
6
CONTINUOUS
10
2.60845
20
-4.26671
11
2.61302
21
-4.25816
0
LINE
8
BLACK
6
CONTINUOUS
10
2.61302
20
-4.25816
11
2.61917
21
-4.25066
0
LINE
8
BLACK
6
CONTINUOUS
10
2.61917
20
-4.25066
11
2.62666
21
-4.24451
0
LINE
8
BLACK
6
CONTINUOUS
10
2.62666
20
-4.24451
11
2.63521
21
-4.23994
0
LINE
8
BLACK
6
CONTINUOUS
10
2.63521
20
-4.23994
11
2.64449
21
-4.23713
0
LINE
8
BLACK
6
CONTINUOUS
10
2.64449
20
-4.23713
11
2.65413
21
-4.23618
0
LINE
8
BLACK
6
CONTINUOUS
10
2.65413
20
-4.23618
11
2.66378
21
-4.23713
0
LINE
8
BLACK
6
CONTINUOUS
10
8.52421
20
-4.23713
11
8.53349
21
-4.23994
0
LINE
8
BLACK
6
CONTINUOUS
10
8.53349
20
-4.23994
11
8.54204
21
-4.24451
0
LINE
8
BLACK
6
CONTINUOUS
10
8.54204
20
-4.24451
11
8.54953
21
-4.25066
0
LINE
8
BLACK
6
CONTINUOUS
10
8.54953
20
-4.25066
11
8.55568
21
-4.25816
0
LINE
8
BLACK
6
CONTINUOUS
10
8.55568
20
-4.25816
11
8.56025
21
-4.26671
0
LINE
8
BLACK
6
CONTINUOUS
10
8.56025
20
-4.26671
11
8.56307
21
-4.27598
0
LINE
8
BLACK
6
CONTINUOUS
10
8.56307
20
-4.27598
11
8.56378
21
-4.28321
0
LINE
8
BLACK
6
CONTINUOUS
10
8.56378
20
-4.28321
11
8.56378
21
-4.36679
0
LINE
8
BLACK
6
CONTINUOUS
10
8.56378
20
-4.36679
11
8.56307
21
-4.37402
0
LINE
8
BLACK
6
CONTINUOUS
10
8.56307
20
-4.37402
11
8.56025
21
-4.38329
0
LINE
8
BLACK
6
CONTINUOUS
10
8.56025
20
-4.38329
11
8.55568
21
-4.39184
0
LINE
8
BLACK
6
CONTINUOUS
10
8.55568
20
-4.39184
11
8.54953
21
-4.39934
0
LINE
8
BLACK
6
CONTINUOUS
10
8.54953
20
-4.39934
11
8.54204
21
-4.40549
0
LINE
8
BLACK
6
CONTINUOUS
10
8.54204
20
-4.40549
11
8.53349
21
-4.41006
0
LINE
8
BLACK
6
CONTINUOUS
10
8.53349
20
-4.41006
11
8.52421
21
-4.41287
0
LINE
8
BLACK
6
CONTINUOUS
10
8.52421
20
-4.41287
11
8.51457
21
-4.41382
0
LINE
8
BLACK
6
CONTINUOUS
10
8.51457
20
-4.41382
11
8.50492
21
-4.41287
0
LINE
8
BLACK
6
CONTINUOUS
10
8.50492
20
-4.41287
11
8.49564
21
-4.41006
0
LINE
8
BLACK
6
CONTINUOUS
10
8.49564
20
-4.41006
11
8.48709
21
-4.40549
0
LINE
8
BLACK
6
CONTINUOUS
10
8.48709
20
-4.40549
11
8.4796
21
-4.39934
0
LINE
8
BLACK
6
CONTINUOUS
10
8.4796
20
-4.39934
11
8.47345
21
-4.39184
0
LINE
8
BLACK
6
CONTINUOUS
10
8.47345
20
-4.39184
11
8.46888
21
-4.38329
0
LINE
8
BLACK
6
CONTINUOUS
10
8.46888
20
-4.38329
11
8.46607
21
-4.37402
0
LINE
8
BLACK
6
CONTINUOUS
10
8.46607
20
-4.37402
11
8.46535
21
-4.36679
0
LINE
8
BLACK
6
CONTINUOUS
10
8.46535
20
-4.36679
11
8.46535
21
-4.28321
0
LINE
8
BLACK
6
CONTINUOUS
10
8.46535
20
-4.28321
11
8.46607
21
-4.27598
0
LINE
8
BLACK
6
CONTINUOUS
10
8.46607
20
-4.27598
11
8.46888
21
-4.26671
0
LINE
8
BLACK
6
CONTINUOUS
10
8.46888
20
-4.26671
11
8.47345
21
-4.25816
0
LINE
8
BLACK
6
CONTINUOUS
10
8.47345
20
-4.25816
11
8.4796
21
-4.25066
0
LINE
8
BLACK
6
CONTINUOUS
10
8.4796
20
-4.25066
11
8.48709
21
-4.24451
0
LINE
8
BLACK
6
CONTINUOUS
10
8.48709
20
-4.24451
11
8.49564
21
-4.23994
0
LINE
8
BLACK
6
CONTINUOUS
10
8.49564
20
-4.23994
11
8.50492
21
-4.23713
0
LINE
8
BLACK
6
CONTINUOUS
10
8.50492
20
-4.23713
11
8.51457
21
-4.23618
0
LINE
8
BLACK
6
CONTINUOUS
10
8.51457
20
-4.23618
11
8.52421
21
-4.23713
0
LINE
8
BLACK
6
CONTINUOUS
10
1.98878
20
-4.23713
11
1.99806
21
-4.23994
0
LINE
8
BLACK
6
CONTINUOUS
10
1.99806
20
-4.23994
11
2.00661
21
-4.24451
0
LINE
8
BLACK
6
CONTINUOUS
10
2.00661
20
-4.24451
11
2.0141
21
-4.25066
0
LINE
8
BLACK
6
CONTINUOUS
10
2.0141
20
-4.25066
11
2.02025
21
-4.25816
0
LINE
8
BLACK
6
CONTINUOUS
10
2.02025
20
-4.25816
11
2.02482
21
-4.26671
0
LINE
8
BLACK
6
CONTINUOUS
10
2.02482
20
-4.26671
11
2.02763
21
-4.27598
0
LINE
8
BLACK
6
CONTINUOUS
10
2.02763
20
-4.27598
11
2.02835
21
-4.28321
0
LINE
8
BLACK
6
CONTINUOUS
10
2.02835
20
-4.28321
11
2.02835
21
-4.36679
0
LINE
8
BLACK
6
CONTINUOUS
10
2.02835
20
-4.36679
11
2.02763
21
-4.37402
0
LINE
8
BLACK
6
CONTINUOUS
10
2.02763
20
-4.37402
11
2.02482
21
-4.38329
0
LINE
8
BLACK
6
CONTINUOUS
10
2.02482
20
-4.38329
11
2.02025
21
-4.39184
0
LINE
8
BLACK
6
CONTINUOUS
10
2.02025
20
-4.39184
11
2.0141
21
-4.39934
0
LINE
8
BLACK
6
CONTINUOUS
10
2.0141
20
-4.39934
11
2.00661
21
-4.40549
0
LINE
8
BLACK
6
CONTINUOUS
10
2.00661
20
-4.40549
11
1.99806
21
-4.41006
0
LINE
8
BLACK
6
CONTINUOUS
10
1.99806
20
-4.41006
11
1.98878
21
-4.41287
0
LINE
8
BLACK
6
CONTINUOUS
10
1.98878
20
-4.41287
11
1.97913
21
-4.41382
0
LINE
8
BLACK
6
CONTINUOUS
10
1.97913
20
-4.41382
11
1.96949
21
-4.41287
0
LINE
8
BLACK
6
CONTINUOUS
10
1.96949
20
-4.41287
11
1.96021
21
-4.41006
0
LINE
8
BLACK
6
CONTINUOUS
10
1.96021
20
-4.41006
11
1.95166
21
-4.40549
0
LINE
8
BLACK
6
CONTINUOUS
10
1.95166
20
-4.40549
11
1.94417
21
-4.39934
0
LINE
8
BLACK
6
CONTINUOUS
10
1.94417
20
-4.39934
11
1.93802
21
-4.39184
0
LINE
8
BLACK
6
CONTINUOUS
10
1.93802
20
-4.39184
11
1.93345
21
-4.38329
0
LINE
8
BLACK
6
CONTINUOUS
10
1.93345
20
-4.38329
11
1.93063
21
-4.37402
0
LINE
8
BLACK
6
CONTINUOUS
10
1.93063
20
-4.37402
11
1.92992
21
-4.36679
0
LINE
8
BLACK
6
CONTINUOUS
10
1.92992
20
-4.36679
11
1.92992
21
-4.28321
0
LINE
8
BLACK
6
CONTINUOUS
10
1.92992
20
-4.28321
11
1.93063
21
-4.27598
0
LINE
8
BLACK
6
CONTINUOUS
10
1.93063
20
-4.27598
11
1.93345
21
-4.26671
0
LINE
8
BLACK
6
CONTINUOUS
10
1.93345
20
-4.26671
11
1.93802
21
-4.25816
0
LINE
8
BLACK
6
CONTINUOUS
10
1.93802
20
-4.25816
11
1.94417
21
-4.25066
0
LINE
8
BLACK
6
CONTINUOUS
10
1.94417
20
-4.25066
11
1.95166
21
-4.24451
0
LINE
8
BLACK
6
CONTINUOUS
10
1.95166
20
-4.24451
11
1.96021
21
-4.23994
0
LINE
8
BLACK
6
CONTINUOUS
10
1.96021
20
-4.23994
11
1.96949
21
-4.23713
0
LINE
8
BLACK
6
CONTINUOUS
10
1.96949
20
-4.23713
11
1.97913
21
-4.23618
0
LINE
8
BLACK
6
CONTINUOUS
10
1.97913
20
-4.23618
11
1.98878
21
-4.23713
0
LINE
8
BLACK
6
CONTINUOUS
10
3.12421
20
-4.23713
11
3.13349
21
-4.23994
0
LINE
8
BLACK
6
CONTINUOUS
10
3.13349
20
-4.23994
11
3.14204
21
-4.24451
0
LINE
8
BLACK
6
CONTINUOUS
10
3.14204
20
-4.24451
11
3.14953
21
-4.25066
0
LINE
8
BLACK
6
CONTINUOUS
10
3.14953
20
-4.25066
11
3.15568
21
-4.25816
0
LINE
8
BLACK
6
CONTINUOUS
10
3.15568
20
-4.25816
11
3.16025
21
-4.26671
0
LINE
8
BLACK
6
CONTINUOUS
10
3.16025
20
-4.26671
11
3.16307
21
-4.27598
0
LINE
8
BLACK
6
CONTINUOUS
10
3.16307
20
-4.27598
11
3.16378
21
-4.28321
0
LINE
8
BLACK
6
CONTINUOUS
10
3.16378
20
-4.28321
11
3.16378
21
-4.36679
0
LINE
8
BLACK
6
CONTINUOUS
10
3.16378
20
-4.36679
11
3.16307
21
-4.37402
0
LINE
8
BLACK
6
CONTINUOUS
10
3.16307
20
-4.37402
11
3.16025
21
-4.38329
0
LINE
8
BLACK
6
CONTINUOUS
10
3.16025
20
-4.38329
11
3.15568
21
-4.39184
0
LINE
8
BLACK
6
CONTINUOUS
10
3.15568
20
-4.39184
11
3.14953
21
-4.39934
0
LINE
8
BLACK
6
CONTINUOUS
10
3.14953
20
-4.39934
11
3.14204
21
-4.40549
0
LINE
8
BLACK
6
CONTINUOUS
10
3.14204
20
-4.40549
11
3.13349
21
-4.41006
0
LINE
8
BLACK
6
CONTINUOUS
10
3.13349
20
-4.41006
11
3.12421
21
-4.41287
0
LINE
8
BLACK
6
CONTINUOUS
10
3.12421
20
-4.41287
11
3.11457
21
-4.41382
0
LINE
8
BLACK
6
CONTINUOUS
10
3.11457
20
-4.41382
11
3.10492
21
-4.41287
0
LINE
8
BLACK
6
CONTINUOUS
10
3.10492
20
-4.41287
11
3.09564
21
-4.41006
0
LINE
8
BLACK
6
CONTINUOUS
10
3.09564
20
-4.41006
11
3.08709
21
-4.40549
0
LINE
8
BLACK
6
CONTINUOUS
10
3.08709
20
-4.40549
11
3.0796
21
-4.39934
0
LINE
8
BLACK
6
CONTINUOUS
10
3.0796
20
-4.39934
11
3.07345
21
-4.39184
0
LINE
8
BLACK
6
CONTINUOUS
10
3.07345
20
-4.39184
11
3.06888
21
-4.38329
0
LINE
8
BLACK
6
CONTINUOUS
10
3.06888
20
-4.38329
11
3.06607
21
-4.37402
0
LINE
8
BLACK
6
CONTINUOUS
10
3.06607
20
-4.37402
11
3.06535
21
-4.36679
0
LINE
8
BLACK
6
CONTINUOUS
10
3.06535
20
-4.36679
11
3.06535
21
-4.28321
0
LINE
8
BLACK
6
CONTINUOUS
10
3.06535
20
-4.28321
11
3.06607
21
-4.27598
0
LINE
8
BLACK
6
CONTINUOUS
10
3.06607
20
-4.27598
11
3.06888
21
-4.26671
0
LINE
8
BLACK
6
CONTINUOUS
10
3.06888
20
-4.26671
11
3.07345
21
-4.25816
0
LINE
8
BLACK
6
CONTINUOUS
10
3.07345
20
-4.25816
11
3.0796
21
-4.25066
0
LINE
8
BLACK
6
CONTINUOUS
10
3.0796
20
-4.25066
11
3.08709
21
-4.24451
0
LINE
8
BLACK
6
CONTINUOUS
10
3.08709
20
-4.24451
11
3.09564
21
-4.23994
0
LINE
8
BLACK
6
CONTINUOUS
10
3.09564
20
-4.23994
11
3.10492
21
-4.23713
0
LINE
8
BLACK
6
CONTINUOUS
10
3.10492
20
-4.23713
11
3.11457
21
-4.23618
0
LINE
8
BLACK
6
CONTINUOUS
10
3.11457
20
-4.23618
11
3.12421
21
-4.23713
0
LINE
8
BLACK
6
CONTINUOUS
10
3.33878
20
-4.23713
11
3.34806
21
-4.23994
0
LINE
8
BLACK
6
CONTINUOUS
10
3.34806
20
-4.23994
11
3.35661
21
-4.24451
0
LINE
8
BLACK
6
CONTINUOUS
10
3.35661
20
-4.24451
11
3.3641
21
-4.25066
0
LINE
8
BLACK
6
CONTINUOUS
10
3.3641
20
-4.25066
11
3.37025
21
-4.25816
0
LINE
8
BLACK
6
CONTINUOUS
10
3.37025
20
-4.25816
11
3.37482
21
-4.26671
0
LINE
8
BLACK
6
CONTINUOUS
10
3.37482
20
-4.26671
11
3.37763
21
-4.27598
0
LINE
8
BLACK
6
CONTINUOUS
10
3.37763
20
-4.27598
11
3.37835
21
-4.28321
0
LINE
8
BLACK
6
CONTINUOUS
10
3.37835
20
-4.28321
11
3.37835
21
-4.36679
0
LINE
8
BLACK
6
CONTINUOUS
10
3.37835
20
-4.36679
11
3.37763
21
-4.37402
0
LINE
8
BLACK
6
CONTINUOUS
10
3.37763
20
-4.37402
11
3.37482
21
-4.38329
0
LINE
8
BLACK
6
CONTINUOUS
10
3.37482
20
-4.38329
11
3.37025
21
-4.39184
0
LINE
8
BLACK
6
CONTINUOUS
10
3.37025
20
-4.39184
11
3.3641
21
-4.39934
0
LINE
8
BLACK
6
CONTINUOUS
10
3.3641
20
-4.39934
11
3.35661
21
-4.40549
0
LINE
8
BLACK
6
CONTINUOUS
10
3.35661
20
-4.40549
11
3.34806
21
-4.41006
0
LINE
8
BLACK
6
CONTINUOUS
10
3.34806
20
-4.41006
11
3.33878
21
-4.41287
0
LINE
8
BLACK
6
CONTINUOUS
10
3.33878
20
-4.41287
11
3.32913
21
-4.41382
0
LINE
8
BLACK
6
CONTINUOUS
10
3.32913
20
-4.41382
11
3.31949
21
-4.41287
0
LINE
8
BLACK
6
CONTINUOUS
10
3.31949
20
-4.41287
11
3.31021
21
-4.41006
0
LINE
8
BLACK
6
CONTINUOUS
10
3.31021
20
-4.41006
11
3.30166
21
-4.40549
0
LINE
8
BLACK
6
CONTINUOUS
10
3.30166
20
-4.40549
11
3.29417
21
-4.39934
0
LINE
8
BLACK
6
CONTINUOUS
10
3.29417
20
-4.39934
11
3.28802
21
-4.39184
0
LINE
8
BLACK
6
CONTINUOUS
10
3.28802
20
-4.39184
11
3.28345
21
-4.38329
0
LINE
8
BLACK
6
CONTINUOUS
10
3.28345
20
-4.38329
11
3.28063
21
-4.37402
0
LINE
8
BLACK
6
CONTINUOUS
10
3.28063
20
-4.37402
11
3.27992
21
-4.36679
0
LINE
8
BLACK
6
CONTINUOUS
10
3.27992
20
-4.36679
11
3.27992
21
-4.28321
0
LINE
8
BLACK
6
CONTINUOUS
10
3.27992
20
-4.28321
11
3.28063
21
-4.27598
0
LINE
8
BLACK
6
CONTINUOUS
10
3.28063
20
-4.27598
11
3.28345
21
-4.26671
0
LINE
8
BLACK
6
CONTINUOUS
10
3.28345
20
-4.26671
11
3.28802
21
-4.25816
0
LINE
8
BLACK
6
CONTINUOUS
10
3.28802
20
-4.25816
11
3.29417
21
-4.25066
0
LINE
8
BLACK
6
CONTINUOUS
10
3.29417
20
-4.25066
11
3.30166
21
-4.24451
0
LINE
8
BLACK
6
CONTINUOUS
10
3.30166
20
-4.24451
11
3.31021
21
-4.23994
0
LINE
8
BLACK
6
CONTINUOUS
10
3.31021
20
-4.23994
11
3.31949
21
-4.23713
0
LINE
8
BLACK
6
CONTINUOUS
10
3.31949
20
-4.23713
11
3.32913
21
-4.23618
0
LINE
8
BLACK
6
CONTINUOUS
10
3.32913
20
-4.23618
11
3.33878
21
-4.23713
0
LINE
8
BLACK
6
CONTINUOUS
10
1.77421
20
-4.23713
11
1.78349
21
-4.23994
0
LINE
8
BLACK
6
CONTINUOUS
10
1.78349
20
-4.23994
11
1.79204
21
-4.24451
0
LINE
8
BLACK
6
CONTINUOUS
10
1.79204
20
-4.24451
11
1.79953
21
-4.25066
0
LINE
8
BLACK
6
CONTINUOUS
10
1.79953
20
-4.25066
11
1.80568
21
-4.25816
0
LINE
8
BLACK
6
CONTINUOUS
10
1.80568
20
-4.25816
11
1.81025
21
-4.26671
0
LINE
8
BLACK
6
CONTINUOUS
10
1.81025
20
-4.26671
11
1.81307
21
-4.27598
0
LINE
8
BLACK
6
CONTINUOUS
10
1.81307
20
-4.27598
11
1.81378
21
-4.28321
0
LINE
8
BLACK
6
CONTINUOUS
10
1.81378
20
-4.28321
11
1.81378
21
-4.36679
0
LINE
8
BLACK
6
CONTINUOUS
10
1.81378
20
-4.36679
11
1.81307
21
-4.37402
0
LINE
8
BLACK
6
CONTINUOUS
10
1.81307
20
-4.37402
11
1.81025
21
-4.38329
0
LINE
8
BLACK
6
CONTINUOUS
10
1.81025
20
-4.38329
11
1.80568
21
-4.39184
0
LINE
8
BLACK
6
CONTINUOUS
10
1.80568
20
-4.39184
11
1.79953
21
-4.39934
0
LINE
8
BLACK
6
CONTINUOUS
10
1.79953
20
-4.39934
11
1.79204
21
-4.40549
0
LINE
8
BLACK
6
CONTINUOUS
10
1.79204
20
-4.40549
11
1.78349
21
-4.41006
0
LINE
8
BLACK
6
CONTINUOUS
10
1.78349
20
-4.41006
11
1.77421
21
-4.41287
0
LINE
8
BLACK
6
CONTINUOUS
10
1.77421
20
-4.41287
11
1.76457
21
-4.41382
0
LINE
8
BLACK
6
CONTINUOUS
10
1.76457
20
-4.41382
11
1.75492
21
-4.41287
0
LINE
8
BLACK
6
CONTINUOUS
10
1.75492
20
-4.41287
11
1.74564
21
-4.41006
0
LINE
8
BLACK
6
CONTINUOUS
10
1.74564
20
-4.41006
11
1.73709
21
-4.40549
0
LINE
8
BLACK
6
CONTINUOUS
10
1.73709
20
-4.40549
11
1.7296
21
-4.39934
0
LINE
8
BLACK
6
CONTINUOUS
10
1.7296
20
-4.39934
11
1.72345
21
-4.39184
0
LINE
8
BLACK
6
CONTINUOUS
10
1.72345
20
-4.39184
11
1.71888
21
-4.38329
0
LINE
8
BLACK
6
CONTINUOUS
10
1.71888
20
-4.38329
11
1.71607
21
-4.37402
0
LINE
8
BLACK
6
CONTINUOUS
10
1.71607
20
-4.37402
11
1.71535
21
-4.36679
0
LINE
8
BLACK
6
CONTINUOUS
10
1.71535
20
-4.36679
11
1.71535
21
-4.28321
0
LINE
8
BLACK
6
CONTINUOUS
10
1.71535
20
-4.28321
11
1.71607
21
-4.27598
0
LINE
8
BLACK
6
CONTINUOUS
10
1.71607
20
-4.27598
11
1.71888
21
-4.26671
0
LINE
8
BLACK
6
CONTINUOUS
10
1.71888
20
-4.26671
11
1.72345
21
-4.25816
0
LINE
8
BLACK
6
CONTINUOUS
10
1.72345
20
-4.25816
11
1.7296
21
-4.25066
0
LINE
8
BLACK
6
CONTINUOUS
10
1.7296
20
-4.25066
11
1.73709
21
-4.24451
0
LINE
8
BLACK
6
CONTINUOUS
10
1.73709
20
-4.24451
11
1.74564
21
-4.23994
0
LINE
8
BLACK
6
CONTINUOUS
10
1.74564
20
-4.23994
11
1.75492
21
-4.23713
0
LINE
8
BLACK
6
CONTINUOUS
10
1.75492
20
-4.23713
11
1.76457
21
-4.23618
0
LINE
8
BLACK
6
CONTINUOUS
10
1.76457
20
-4.23618
11
1.77421
21
-4.23713
0
LINE
8
BLACK
6
CONTINUOUS
10
3.79921
20
-4.23713
11
3.80849
21
-4.23994
0
LINE
8
BLACK
6
CONTINUOUS
10
3.80849
20
-4.23994
11
3.81704
21
-4.24451
0
LINE
8
BLACK
6
CONTINUOUS
10
3.81704
20
-4.24451
11
3.82453
21
-4.25066
0
LINE
8
BLACK
6
CONTINUOUS
10
3.82453
20
-4.25066
11
3.83068
21
-4.25816
0
LINE
8
BLACK
6
CONTINUOUS
10
3.83068
20
-4.25816
11
3.83525
21
-4.26671
0
LINE
8
BLACK
6
CONTINUOUS
10
3.83525
20
-4.26671
11
3.83807
21
-4.27598
0
LINE
8
BLACK
6
CONTINUOUS
10
3.83807
20
-4.27598
11
3.83878
21
-4.28321
0
LINE
8
BLACK
6
CONTINUOUS
10
3.83878
20
-4.28321
11
3.83878
21
-4.36679
0
LINE
8
BLACK
6
CONTINUOUS
10
3.83878
20
-4.36679
11
3.83807
21
-4.37402
0
LINE
8
BLACK
6
CONTINUOUS
10
3.83807
20
-4.37402
11
3.83525
21
-4.38329
0
LINE
8
BLACK
6
CONTINUOUS
10
3.83525
20
-4.38329
11
3.83068
21
-4.39184
0
LINE
8
BLACK
6
CONTINUOUS
10
3.83068
20
-4.39184
11
3.82453
21
-4.39934
0
LINE
8
BLACK
6
CONTINUOUS
10
3.82453
20
-4.39934
11
3.81704
21
-4.40549
0
LINE
8
BLACK
6
CONTINUOUS
10
3.81704
20
-4.40549
11
3.80849
21
-4.41006
0
LINE
8
BLACK
6
CONTINUOUS
10
3.80849
20
-4.41006
11
3.79921
21
-4.41287
0
LINE
8
BLACK
6
CONTINUOUS
10
3.79921
20
-4.41287
11
3.78957
21
-4.41382
0
LINE
8
BLACK
6
CONTINUOUS
10
3.78957
20
-4.41382
11
3.77992
21
-4.41287
0
LINE
8
BLACK
6
CONTINUOUS
10
3.77992
20
-4.41287
11
3.77064
21
-4.41006
0
LINE
8
BLACK
6
CONTINUOUS
10
3.77064
20
-4.41006
11
3.76209
21
-4.40549
0
LINE
8
BLACK
6
CONTINUOUS
10
3.76209
20
-4.40549
11
3.7546
21
-4.39934
0
LINE
8
BLACK
6
CONTINUOUS
10
3.7546
20
-4.39934
11
3.74845
21
-4.39184
0
LINE
8
BLACK
6
CONTINUOUS
10
3.74845
20
-4.39184
11
3.74388
21
-4.38329
0
LINE
8
BLACK
6
CONTINUOUS
10
3.74388
20
-4.38329
11
3.74107
21
-4.37402
0
LINE
8
BLACK
6
CONTINUOUS
10
3.74107
20
-4.37402
11
3.74035
21
-4.36679
0
LINE
8
BLACK
6
CONTINUOUS
10
3.74035
20
-4.36679
11
3.74035
21
-4.28321
0
LINE
8
BLACK
6
CONTINUOUS
10
3.74035
20
-4.28321
11
3.74107
21
-4.27598
0
LINE
8
BLACK
6
CONTINUOUS
10
3.74107
20
-4.27598
11
3.74388
21
-4.26671
0
LINE
8
BLACK
6
CONTINUOUS
10
3.74388
20
-4.26671
11
3.74845
21
-4.25816
0
LINE
8
BLACK
6
CONTINUOUS
10
3.74845
20
-4.25816
11
3.7546
21
-4.25066
0
LINE
8
BLACK
6
CONTINUOUS
10
3.7546
20
-4.25066
11
3.76209
21
-4.24451
0
LINE
8
BLACK
6
CONTINUOUS
10
3.76209
20
-4.24451
11
3.77064
21
-4.23994
0
LINE
8
BLACK
6
CONTINUOUS
10
3.77064
20
-4.23994
11
3.77992
21
-4.23713
0
LINE
8
BLACK
6
CONTINUOUS
10
3.77992
20
-4.23713
11
3.78957
21
-4.23618
0
LINE
8
BLACK
6
CONTINUOUS
10
3.78957
20
-4.23618
11
3.79921
21
-4.23713
0
LINE
8
BLACK
6
CONTINUOUS
10
4.01378
20
-4.23713
11
4.02306
21
-4.23994
0
LINE
8
BLACK
6
CONTINUOUS
10
4.02306
20
-4.23994
11
4.03161
21
-4.24451
0
LINE
8
BLACK
6
CONTINUOUS
10
4.03161
20
-4.24451
11
4.0391
21
-4.25066
0
LINE
8
BLACK
6
CONTINUOUS
10
4.0391
20
-4.25066
11
4.04525
21
-4.25816
0
LINE
8
BLACK
6
CONTINUOUS
10
4.04525
20
-4.25816
11
4.04982
21
-4.26671
0
LINE
8
BLACK
6
CONTINUOUS
10
4.04982
20
-4.26671
11
4.05263
21
-4.27598
0
LINE
8
BLACK
6
CONTINUOUS
10
4.05263
20
-4.27598
11
4.05335
21
-4.28321
0
LINE
8
BLACK
6
CONTINUOUS
10
4.05335
20
-4.28321
11
4.05335
21
-4.36679
0
LINE
8
BLACK
6
CONTINUOUS
10
4.05335
20
-4.36679
11
4.05263
21
-4.37402
0
LINE
8
BLACK
6
CONTINUOUS
10
4.05263
20
-4.37402
11
4.04982
21
-4.38329
0
LINE
8
BLACK
6
CONTINUOUS
10
4.04982
20
-4.38329
11
4.04525
21
-4.39184
0
LINE
8
BLACK
6
CONTINUOUS
10
4.04525
20
-4.39184
11
4.0391
21
-4.39934
0
LINE
8
BLACK
6
CONTINUOUS
10
4.0391
20
-4.39934
11
4.03161
21
-4.40549
0
LINE
8
BLACK
6
CONTINUOUS
10
4.03161
20
-4.40549
11
4.02306
21
-4.41006
0
LINE
8
BLACK
6
CONTINUOUS
10
4.02306
20
-4.41006
11
4.01378
21
-4.41287
0
LINE
8
BLACK
6
CONTINUOUS
10
4.01378
20
-4.41287
11
4.00413
21
-4.41382
0
LINE
8
BLACK
6
CONTINUOUS
10
4.00413
20
-4.41382
11
3.99449
21
-4.41287
0
LINE
8
BLACK
6
CONTINUOUS
10
3.99449
20
-4.41287
11
3.98521
21
-4.41006
0
LINE
8
BLACK
6
CONTINUOUS
10
3.98521
20
-4.41006
11
3.97666
21
-4.40549
0
LINE
8
BLACK
6
CONTINUOUS
10
3.97666
20
-4.40549
11
3.96917
21
-4.39934
0
LINE
8
BLACK
6
CONTINUOUS
10
3.96917
20
-4.39934
11
3.96302
21
-4.39184
0
LINE
8
BLACK
6
CONTINUOUS
10
3.96302
20
-4.39184
11
3.95845
21
-4.38329
0
LINE
8
BLACK
6
CONTINUOUS
10
3.95845
20
-4.38329
11
3.95563
21
-4.37402
0
LINE
8
BLACK
6
CONTINUOUS
10
3.95563
20
-4.37402
11
3.95492
21
-4.36679
0
LINE
8
BLACK
6
CONTINUOUS
10
3.95492
20
-4.36679
11
3.95492
21
-4.28321
0
LINE
8
BLACK
6
CONTINUOUS
10
3.95492
20
-4.28321
11
3.95563
21
-4.27598
0
LINE
8
BLACK
6
CONTINUOUS
10
3.95563
20
-4.27598
11
3.95845
21
-4.26671
0
LINE
8
BLACK
6
CONTINUOUS
10
3.95845
20
-4.26671
11
3.96302
21
-4.25816
0
LINE
8
BLACK
6
CONTINUOUS
10
3.96302
20
-4.25816
11
3.96917
21
-4.25066
0
LINE
8
BLACK
6
CONTINUOUS
10
3.96917
20
-4.25066
11
3.97666
21
-4.24451
0
LINE
8
BLACK
6
CONTINUOUS
10
3.97666
20
-4.24451
11
3.98521
21
-4.23994
0
LINE
8
BLACK
6
CONTINUOUS
10
3.98521
20
-4.23994
11
3.99449
21
-4.23713
0
LINE
8
BLACK
6
CONTINUOUS
10
3.99449
20
-4.23713
11
4.00413
21
-4.23618
0
LINE
8
BLACK
6
CONTINUOUS
10
4.00413
20
-4.23618
11
4.01378
21
-4.23713
0
LINE
8
BLACK
6
CONTINUOUS
10
8.06378
20
-4.23713
11
8.07306
21
-4.23994
0
LINE
8
BLACK
6
CONTINUOUS
10
8.07306
20
-4.23994
11
8.08161
21
-4.24451
0
LINE
8
BLACK
6
CONTINUOUS
10
8.08161
20
-4.24451
11
8.0891
21
-4.25066
0
LINE
8
BLACK
6
CONTINUOUS
10
8.0891
20
-4.25066
11
8.09525
21
-4.25816
0
LINE
8
BLACK
6
CONTINUOUS
10
8.09525
20
-4.25816
11
8.09982
21
-4.26671
0
LINE
8
BLACK
6
CONTINUOUS
10
8.09982
20
-4.26671
11
8.10263
21
-4.27598
0
LINE
8
BLACK
6
CONTINUOUS
10
8.10263
20
-4.27598
11
8.10335
21
-4.28321
0
LINE
8
BLACK
6
CONTINUOUS
10
8.10335
20
-4.28321
11
8.10335
21
-4.36679
0
LINE
8
BLACK
6
CONTINUOUS
10
8.10335
20
-4.36679
11
8.10263
21
-4.37402
0
LINE
8
BLACK
6
CONTINUOUS
10
8.10263
20
-4.37402
11
8.09982
21
-4.38329
0
LINE
8
BLACK
6
CONTINUOUS
10
8.09982
20
-4.38329
11
8.09525
21
-4.39184
0
LINE
8
BLACK
6
CONTINUOUS
10
8.09525
20
-4.39184
11
8.0891
21
-4.39934
0
LINE
8
BLACK
6
CONTINUOUS
10
8.0891
20
-4.39934
11
8.08161
21
-4.40549
0
LINE
8
BLACK
6
CONTINUOUS
10
8.08161
20
-4.40549
11
8.07306
21
-4.41006
0
LINE
8
BLACK
6
CONTINUOUS
10
8.07306
20
-4.41006
11
8.06378
21
-4.41287
0
LINE
8
BLACK
6
CONTINUOUS
10
8.06378
20
-4.41287
11
8.05413
21
-4.41382
0
LINE
8
BLACK
6
CONTINUOUS
10
8.05413
20
-4.41382
11
8.04449
21
-4.41287
0
LINE
8
BLACK
6
CONTINUOUS
10
8.04449
20
-4.41287
11
8.03521
21
-4.41006
0
LINE
8
BLACK
6
CONTINUOUS
10
8.03521
20
-4.41006
11
8.02666
21
-4.40549
0
LINE
8
BLACK
6
CONTINUOUS
10
8.02666
20
-4.40549
11
8.01917
21
-4.39934
0
LINE
8
BLACK
6
CONTINUOUS
10
8.01917
20
-4.39934
11
8.01302
21
-4.39184
0
LINE
8
BLACK
6
CONTINUOUS
10
8.01302
20
-4.39184
11
8.00845
21
-4.38329
0
LINE
8
BLACK
6
CONTINUOUS
10
8.00845
20
-4.38329
11
8.00563
21
-4.37402
0
LINE
8
BLACK
6
CONTINUOUS
10
8.00563
20
-4.37402
11
8.00492
21
-4.36679
0
LINE
8
BLACK
6
CONTINUOUS
10
8.00492
20
-4.36679
11
8.00492
21
-4.28321
0
LINE
8
BLACK
6
CONTINUOUS
10
8.00492
20
-4.28321
11
8.00563
21
-4.27598
0
LINE
8
BLACK
6
CONTINUOUS
10
8.00563
20
-4.27598
11
8.00845
21
-4.26671
0
LINE
8
BLACK
6
CONTINUOUS
10
8.00845
20
-4.26671
11
8.01302
21
-4.25816
0
LINE
8
BLACK
6
CONTINUOUS
10
8.01302
20
-4.25816
11
8.01917
21
-4.25066
0
LINE
8
BLACK
6
CONTINUOUS
10
8.01917
20
-4.25066
11
8.02666
21
-4.24451
0
LINE
8
BLACK
6
CONTINUOUS
10
8.02666
20
-4.24451
11
8.03521
21
-4.23994
0
LINE
8
BLACK
6
CONTINUOUS
10
8.03521
20
-4.23994
11
8.04449
21
-4.23713
0
LINE
8
BLACK
6
CONTINUOUS
10
8.04449
20
-4.23713
11
8.05413
21
-4.23618
0
LINE
8
BLACK
6
CONTINUOUS
10
8.05413
20
-4.23618
11
8.06378
21
-4.23713
0
LINE
8
BLACK
6
CONTINUOUS
10
4.47421
20
-4.23713
11
4.48349
21
-4.23994
0
LINE
8
BLACK
6
CONTINUOUS
10
4.48349
20
-4.23994
11
4.49204
21
-4.24451
0
LINE
8
BLACK
6
CONTINUOUS
10
4.49204
20
-4.24451
11
4.49953
21
-4.25066
0
LINE
8
BLACK
6
CONTINUOUS
10
4.49953
20
-4.25066
11
4.50568
21
-4.25816
0
LINE
8
BLACK
6
CONTINUOUS
10
4.50568
20
-4.25816
11
4.51025
21
-4.26671
0
LINE
8
BLACK
6
CONTINUOUS
10
4.51025
20
-4.26671
11
4.51307
21
-4.27598
0
LINE
8
BLACK
6
CONTINUOUS
10
4.51307
20
-4.27598
11
4.51378
21
-4.28321
0
LINE
8
BLACK
6
CONTINUOUS
10
4.51378
20
-4.28321
11
4.51378
21
-4.36679
0
LINE
8
BLACK
6
CONTINUOUS
10
4.51378
20
-4.36679
11
4.51307
21
-4.37402
0
LINE
8
BLACK
6
CONTINUOUS
10
4.51307
20
-4.37402
11
4.51025
21
-4.38329
0
LINE
8
BLACK
6
CONTINUOUS
10
4.51025
20
-4.38329
11
4.50568
21
-4.39184
0
LINE
8
BLACK
6
CONTINUOUS
10
4.50568
20
-4.39184
11
4.49953
21
-4.39934
0
LINE
8
BLACK
6
CONTINUOUS
10
4.49953
20
-4.39934
11
4.49204
21
-4.40549
0
LINE
8
BLACK
6
CONTINUOUS
10
4.49204
20
-4.40549
11
4.48349
21
-4.41006
0
LINE
8
BLACK
6
CONTINUOUS
10
4.48349
20
-4.41006
11
4.47421
21
-4.41287
0
LINE
8
BLACK
6
CONTINUOUS
10
4.47421
20
-4.41287
11
4.46457
21
-4.41382
0
LINE
8
BLACK
6
CONTINUOUS
10
4.46457
20
-4.41382
11
4.45492
21
-4.41287
0
LINE
8
BLACK
6
CONTINUOUS
10
4.45492
20
-4.41287
11
4.44564
21
-4.41006
0
LINE
8
BLACK
6
CONTINUOUS
10
4.44564
20
-4.41006
11
4.43709
21
-4.40549
0
LINE
8
BLACK
6
CONTINUOUS
10
4.43709
20
-4.40549
11
4.4296
21
-4.39934
0
LINE
8
BLACK
6
CONTINUOUS
10
4.4296
20
-4.39934
11
4.42345
21
-4.39184
0
LINE
8
BLACK
6
CONTINUOUS
10
4.42345
20
-4.39184
11
4.41888
21
-4.38329
0
LINE
8
BLACK
6
CONTINUOUS
10
4.41888
20
-4.38329
11
4.41607
21
-4.37402
0
LINE
8
BLACK
6
CONTINUOUS
10
4.41607
20
-4.37402
11
4.41535
21
-4.36679
0
LINE
8
BLACK
6
CONTINUOUS
10
4.41535
20
-4.36679
11
4.41535
21
-4.28321
0
LINE
8
BLACK
6
CONTINUOUS
10
4.41535
20
-4.28321
11
4.41607
21
-4.27598
0
LINE
8
BLACK
6
CONTINUOUS
10
4.41607
20
-4.27598
11
4.41888
21
-4.26671
0
LINE
8
BLACK
6
CONTINUOUS
10
4.41888
20
-4.26671
11
4.42345
21
-4.25816
0
LINE
8
BLACK
6
CONTINUOUS
10
4.42345
20
-4.25816
11
4.4296
21
-4.25066
0
LINE
8
BLACK
6
CONTINUOUS
10
4.4296
20
-4.25066
11
4.43709
21
-4.24451
0
LINE
8
BLACK
6
CONTINUOUS
10
4.43709
20
-4.24451
11
4.44564
21
-4.23994
0
LINE
8
BLACK
6
CONTINUOUS
10
4.44564
20
-4.23994
11
4.45492
21
-4.23713
0
LINE
8
BLACK
6
CONTINUOUS
10
4.45492
20
-4.23713
11
4.46457
21
-4.23618
0
LINE
8
BLACK
6
CONTINUOUS
10
4.46457
20
-4.23618
11
4.47421
21
-4.23713
0
LINE
8
BLACK
6
CONTINUOUS
10
4.68878
20
-4.23713
11
4.69806
21
-4.23994
0
LINE
8
BLACK
6
CONTINUOUS
10
4.69806
20
-4.23994
11
4.70661
21
-4.24451
0
LINE
8
BLACK
6
CONTINUOUS
10
4.70661
20
-4.24451
11
4.7141
21
-4.25066
0
LINE
8
BLACK
6
CONTINUOUS
10
4.7141
20
-4.25066
11
4.72025
21
-4.25816
0
LINE
8
BLACK
6
CONTINUOUS
10
4.72025
20
-4.25816
11
4.72482
21
-4.26671
0
LINE
8
BLACK
6
CONTINUOUS
10
4.72482
20
-4.26671
11
4.72763
21
-4.27598
0
LINE
8
BLACK
6
CONTINUOUS
10
4.72763
20
-4.27598
11
4.72835
21
-4.28321
0
LINE
8
BLACK
6
CONTINUOUS
10
4.72835
20
-4.28321
11
4.72835
21
-4.36679
0
LINE
8
BLACK
6
CONTINUOUS
10
4.72835
20
-4.36679
11
4.72763
21
-4.37402
0
LINE
8
BLACK
6
CONTINUOUS
10
4.72763
20
-4.37402
11
4.72482
21
-4.38329
0
LINE
8
BLACK
6
CONTINUOUS
10
4.72482
20
-4.38329
11
4.72025
21
-4.39184
0
LINE
8
BLACK
6
CONTINUOUS
10
4.72025
20
-4.39184
11
4.7141
21
-4.39934
0
LINE
8
BLACK
6
CONTINUOUS
10
4.7141
20
-4.39934
11
4.70661
21
-4.40549
0
LINE
8
BLACK
6
CONTINUOUS
10
4.70661
20
-4.40549
11
4.69806
21
-4.41006
0
LINE
8
BLACK
6
CONTINUOUS
10
4.69806
20
-4.41006
11
4.68878
21
-4.41287
0
LINE
8
BLACK
6
CONTINUOUS
10
4.68878
20
-4.41287
11
4.67913
21
-4.41382
0
LINE
8
BLACK
6
CONTINUOUS
10
4.67913
20
-4.41382
11
4.66949
21
-4.41287
0
LINE
8
BLACK
6
CONTINUOUS
10
4.66949
20
-4.41287
11
4.66021
21
-4.41006
0
LINE
8
BLACK
6
CONTINUOUS
10
4.66021
20
-4.41006
11
4.65166
21
-4.40549
0
LINE
8
BLACK
6
CONTINUOUS
10
4.65166
20
-4.40549
11
4.64417
21
-4.39934
0
LINE
8
BLACK
6
CONTINUOUS
10
4.64417
20
-4.39934
11
4.63802
21
-4.39184
0
LINE
8
BLACK
6
CONTINUOUS
10
4.63802
20
-4.39184
11
4.63345
21
-4.38329
0
LINE
8
BLACK
6
CONTINUOUS
10
4.63345
20
-4.38329
11
4.63063
21
-4.37402
0
LINE
8
BLACK
6
CONTINUOUS
10
4.63063
20
-4.37402
11
4.62992
21
-4.36679
0
LINE
8
BLACK
6
CONTINUOUS
10
4.62992
20
-4.36679
11
4.62992
21
-4.28321
0
LINE
8
BLACK
6
CONTINUOUS
10
4.62992
20
-4.28321
11
4.63063
21
-4.27598
0
LINE
8
BLACK
6
CONTINUOUS
10
4.63063
20
-4.27598
11
4.63345
21
-4.26671
0
LINE
8
BLACK
6
CONTINUOUS
10
4.63345
20
-4.26671
11
4.63802
21
-4.25816
0
LINE
8
BLACK
6
CONTINUOUS
10
4.63802
20
-4.25816
11
4.64417
21
-4.25066
0
LINE
8
BLACK
6
CONTINUOUS
10
4.64417
20
-4.25066
11
4.65166
21
-4.24451
0
LINE
8
BLACK
6
CONTINUOUS
10
4.65166
20
-4.24451
11
4.66021
21
-4.23994
0
LINE
8
BLACK
6
CONTINUOUS
10
4.66021
20
-4.23994
11
4.66949
21
-4.23713
0
LINE
8
BLACK
6
CONTINUOUS
10
4.66949
20
-4.23713
11
4.67913
21
-4.23618
0
LINE
8
BLACK
6
CONTINUOUS
10
4.67913
20
-4.23618
11
4.68878
21
-4.23713
0
LINE
8
BLACK
6
CONTINUOUS
10
8.73878
20
-4.23713
11
8.74806
21
-4.23994
0
LINE
8
BLACK
6
CONTINUOUS
10
8.74806
20
-4.23994
11
8.75661
21
-4.24451
0
LINE
8
BLACK
6
CONTINUOUS
10
8.75661
20
-4.24451
11
8.7641
21
-4.25066
0
LINE
8
BLACK
6
CONTINUOUS
10
8.7641
20
-4.25066
11
8.77025
21
-4.25816
0
LINE
8
BLACK
6
CONTINUOUS
10
8.77025
20
-4.25816
11
8.77482
21
-4.26671
0
LINE
8
BLACK
6
CONTINUOUS
10
8.77482
20
-4.26671
11
8.77763
21
-4.27598
0
LINE
8
BLACK
6
CONTINUOUS
10
8.77763
20
-4.27598
11
8.77835
21
-4.28321
0
LINE
8
BLACK
6
CONTINUOUS
10
8.77835
20
-4.28321
11
8.77835
21
-4.36679
0
LINE
8
BLACK
6
CONTINUOUS
10
8.77835
20
-4.36679
11
8.77763
21
-4.37402
0
LINE
8
BLACK
6
CONTINUOUS
10
8.77763
20
-4.37402
11
8.77482
21
-4.38329
0
LINE
8
BLACK
6
CONTINUOUS
10
8.77482
20
-4.38329
11
8.77025
21
-4.39184
0
LINE
8
BLACK
6
CONTINUOUS
10
8.77025
20
-4.39184
11
8.7641
21
-4.39934
0
LINE
8
BLACK
6
CONTINUOUS
10
8.7641
20
-4.39934
11
8.75661
21
-4.40549
0
LINE
8
BLACK
6
CONTINUOUS
10
8.75661
20
-4.40549
11
8.74806
21
-4.41006
0
LINE
8
BLACK
6
CONTINUOUS
10
8.74806
20
-4.41006
11
8.73878
21
-4.41287
0
LINE
8
BLACK
6
CONTINUOUS
10
8.73878
20
-4.41287
11
8.72913
21
-4.41382
0
LINE
8
BLACK
6
CONTINUOUS
10
8.72913
20
-4.41382
11
8.71949
21
-4.41287
0
LINE
8
BLACK
6
CONTINUOUS
10
8.71949
20
-4.41287
11
8.71021
21
-4.41006
0
LINE
8
BLACK
6
CONTINUOUS
10
8.71021
20
-4.41006
11
8.70166
21
-4.40549
0
LINE
8
BLACK
6
CONTINUOUS
10
8.70166
20
-4.40549
11
8.69417
21
-4.39934
0
LINE
8
BLACK
6
CONTINUOUS
10
8.69417
20
-4.39934
11
8.68802
21
-4.39184
0
LINE
8
BLACK
6
CONTINUOUS
10
8.68802
20
-4.39184
11
8.68345
21
-4.38329
0
LINE
8
BLACK
6
CONTINUOUS
10
8.68345
20
-4.38329
11
8.68063
21
-4.37402
0
LINE
8
BLACK
6
CONTINUOUS
10
8.68063
20
-4.37402
11
8.67992
21
-4.36679
0
LINE
8
BLACK
6
CONTINUOUS
10
8.67992
20
-4.36679
11
8.67992
21
-4.28321
0
LINE
8
BLACK
6
CONTINUOUS
10
8.67992
20
-4.28321
11
8.68063
21
-4.27598
0
LINE
8
BLACK
6
CONTINUOUS
10
8.68063
20
-4.27598
11
8.68345
21
-4.26671
0
LINE
8
BLACK
6
CONTINUOUS
10
8.68345
20
-4.26671
11
8.68802
21
-4.25816
0
LINE
8
BLACK
6
CONTINUOUS
10
8.68802
20
-4.25816
11
8.69417
21
-4.25066
0
LINE
8
BLACK
6
CONTINUOUS
10
8.69417
20
-4.25066
11
8.70166
21
-4.24451
0
LINE
8
BLACK
6
CONTINUOUS
10
8.70166
20
-4.24451
11
8.71021
21
-4.23994
0
LINE
8
BLACK
6
CONTINUOUS
10
8.71021
20
-4.23994
11
8.71949
21
-4.23713
0
LINE
8
BLACK
6
CONTINUOUS
10
8.71949
20
-4.23713
11
8.72913
21
-4.23618
0
LINE
8
BLACK
6
CONTINUOUS
10
8.72913
20
-4.23618
11
8.73878
21
-4.23713
0
LINE
8
BLACK
6
CONTINUOUS
10
5.14921
20
-4.23713
11
5.15849
21
-4.23994
0
LINE
8
BLACK
6
CONTINUOUS
10
5.15849
20
-4.23994
11
5.16704
21
-4.24451
0
LINE
8
BLACK
6
CONTINUOUS
10
5.16704
20
-4.24451
11
5.17453
21
-4.25066
0
LINE
8
BLACK
6
CONTINUOUS
10
5.17453
20
-4.25066
11
5.18068
21
-4.25816
0
LINE
8
BLACK
6
CONTINUOUS
10
5.18068
20
-4.25816
11
5.18525
21
-4.26671
0
LINE
8
BLACK
6
CONTINUOUS
10
5.18525
20
-4.26671
11
5.18807
21
-4.27598
0
LINE
8
BLACK
6
CONTINUOUS
10
5.18807
20
-4.27598
11
5.18878
21
-4.28321
0
LINE
8
BLACK
6
CONTINUOUS
10
5.18878
20
-4.28321
11
5.18878
21
-4.36679
0
LINE
8
BLACK
6
CONTINUOUS
10
5.18878
20
-4.36679
11
5.18807
21
-4.37402
0
LINE
8
BLACK
6
CONTINUOUS
10
5.18807
20
-4.37402
11
5.18525
21
-4.38329
0
LINE
8
BLACK
6
CONTINUOUS
10
5.18525
20
-4.38329
11
5.18068
21
-4.39184
0
LINE
8
BLACK
6
CONTINUOUS
10
5.18068
20
-4.39184
11
5.17453
21
-4.39934
0
LINE
8
BLACK
6
CONTINUOUS
10
5.17453
20
-4.39934
11
5.16704
21
-4.40549
0
LINE
8
BLACK
6
CONTINUOUS
10
5.16704
20
-4.40549
11
5.15849
21
-4.41006
0
LINE
8
BLACK
6
CONTINUOUS
10
5.15849
20
-4.41006
11
5.14921
21
-4.41287
0
LINE
8
BLACK
6
CONTINUOUS
10
5.14921
20
-4.41287
11
5.13957
21
-4.41382
0
LINE
8
BLACK
6
CONTINUOUS
10
5.13957
20
-4.41382
11
5.12992
21
-4.41287
0
LINE
8
BLACK
6
CONTINUOUS
10
5.12992
20
-4.41287
11
5.12064
21
-4.41006
0
LINE
8
BLACK
6
CONTINUOUS
10
5.12064
20
-4.41006
11
5.11209
21
-4.40549
0
LINE
8
BLACK
6
CONTINUOUS
10
5.11209
20
-4.40549
11
5.1046
21
-4.39934
0
LINE
8
BLACK
6
CONTINUOUS
10
5.1046
20
-4.39934
11
5.09845
21
-4.39184
0
LINE
8
BLACK
6
CONTINUOUS
10
5.09845
20
-4.39184
11
5.09388
21
-4.38329
0
LINE
8
BLACK
6
CONTINUOUS
10
5.09388
20
-4.38329
11
5.09107
21
-4.37402
0
LINE
8
BLACK
6
CONTINUOUS
10
5.09107
20
-4.37402
11
5.09035
21
-4.36679
0
LINE
8
BLACK
6
CONTINUOUS
10
5.09035
20
-4.36679
11
5.09035
21
-4.28321
0
LINE
8
BLACK
6
CONTINUOUS
10
5.09035
20
-4.28321
11
5.09107
21
-4.27598
0
LINE
8
BLACK
6
CONTINUOUS
10
5.09107
20
-4.27598
11
5.09388
21
-4.26671
0
LINE
8
BLACK
6
CONTINUOUS
10
5.09388
20
-4.26671
11
5.09845
21
-4.25816
0
LINE
8
BLACK
6
CONTINUOUS
10
5.09845
20
-4.25816
11
5.1046
21
-4.25066
0
LINE
8
BLACK
6
CONTINUOUS
10
5.1046
20
-4.25066
11
5.11209
21
-4.24451
0
LINE
8
BLACK
6
CONTINUOUS
10
5.11209
20
-4.24451
11
5.12064
21
-4.23994
0
LINE
8
BLACK
6
CONTINUOUS
10
5.12064
20
-4.23994
11
5.12992
21
-4.23713
0
LINE
8
BLACK
6
CONTINUOUS
10
5.12992
20
-4.23713
11
5.13957
21
-4.23618
0
LINE
8
BLACK
6
CONTINUOUS
10
5.13957
20
-4.23618
11
5.14921
21
-4.23713
0
LINE
8
BLACK
6
CONTINUOUS
10
5.36378
20
-4.23713
11
5.37306
21
-4.23994
0
LINE
8
BLACK
6
CONTINUOUS
10
5.37306
20
-4.23994
11
5.38161
21
-4.24451
0
LINE
8
BLACK
6
CONTINUOUS
10
5.38161
20
-4.24451
11
5.3891
21
-4.25066
0
LINE
8
BLACK
6
CONTINUOUS
10
5.3891
20
-4.25066
11
5.39525
21
-4.25816
0
LINE
8
BLACK
6
CONTINUOUS
10
5.39525
20
-4.25816
11
5.39982
21
-4.26671
0
LINE
8
BLACK
6
CONTINUOUS
10
5.39982
20
-4.26671
11
5.40263
21
-4.27598
0
LINE
8
BLACK
6
CONTINUOUS
10
5.40263
20
-4.27598
11
5.40335
21
-4.28321
0
LINE
8
BLACK
6
CONTINUOUS
10
5.40335
20
-4.28321
11
5.40335
21
-4.36679
0
LINE
8
BLACK
6
CONTINUOUS
10
5.40335
20
-4.36679
11
5.40263
21
-4.37402
0
LINE
8
BLACK
6
CONTINUOUS
10
5.40263
20
-4.37402
11
5.39982
21
-4.38329
0
LINE
8
BLACK
6
CONTINUOUS
10
5.39982
20
-4.38329
11
5.39525
21
-4.39184
0
LINE
8
BLACK
6
CONTINUOUS
10
5.39525
20
-4.39184
11
5.3891
21
-4.39934
0
LINE
8
BLACK
6
CONTINUOUS
10
5.3891
20
-4.39934
11
5.38161
21
-4.40549
0
LINE
8
BLACK
6
CONTINUOUS
10
5.38161
20
-4.40549
11
5.37306
21
-4.41006
0
LINE
8
BLACK
6
CONTINUOUS
10
5.37306
20
-4.41006
11
5.36378
21
-4.41287
0
LINE
8
BLACK
6
CONTINUOUS
10
5.36378
20
-4.41287
11
5.35413
21
-4.41382
0
LINE
8
BLACK
6
CONTINUOUS
10
5.35413
20
-4.41382
11
5.34449
21
-4.41287
0
LINE
8
BLACK
6
CONTINUOUS
10
5.34449
20
-4.41287
11
5.33521
21
-4.41006
0
LINE
8
BLACK
6
CONTINUOUS
10
5.33521
20
-4.41006
11
5.32666
21
-4.40549
0
LINE
8
BLACK
6
CONTINUOUS
10
5.32666
20
-4.40549
11
5.31917
21
-4.39934
0
LINE
8
BLACK
6
CONTINUOUS
10
5.31917
20
-4.39934
11
5.31302
21
-4.39184
0
LINE
8
BLACK
6
CONTINUOUS
10
5.31302
20
-4.39184
11
5.30845
21
-4.38329
0
LINE
8
BLACK
6
CONTINUOUS
10
5.30845
20
-4.38329
11
5.30563
21
-4.37402
0
LINE
8
BLACK
6
CONTINUOUS
10
5.30563
20
-4.37402
11
5.30492
21
-4.36679
0
LINE
8
BLACK
6
CONTINUOUS
10
5.30492
20
-4.36679
11
5.30492
21
-4.28321
0
LINE
8
BLACK
6
CONTINUOUS
10
5.30492
20
-4.28321
11
5.30563
21
-4.27598
0
LINE
8
BLACK
6
CONTINUOUS
10
5.30563
20
-4.27598
11
5.30845
21
-4.26671
0
LINE
8
BLACK
6
CONTINUOUS
10
5.30845
20
-4.26671
11
5.31302
21
-4.25816
0
LINE
8
BLACK
6
CONTINUOUS
10
5.31302
20
-4.25816
11
5.31917
21
-4.25066
0
LINE
8
BLACK
6
CONTINUOUS
10
5.31917
20
-4.25066
11
5.32666
21
-4.24451
0
LINE
8
BLACK
6
CONTINUOUS
10
5.32666
20
-4.24451
11
5.33521
21
-4.23994
0
LINE
8
BLACK
6
CONTINUOUS
10
5.33521
20
-4.23994
11
5.34449
21
-4.23713
0
LINE
8
BLACK
6
CONTINUOUS
10
5.34449
20
-4.23713
11
5.35413
21
-4.23618
0
LINE
8
BLACK
6
CONTINUOUS
10
5.35413
20
-4.23618
11
5.36378
21
-4.23713
0
LINE
8
BLACK
6
CONTINUOUS
10
1.31378
20
-4.23713
11
1.32306
21
-4.23994
0
LINE
8
BLACK
6
CONTINUOUS
10
1.32306
20
-4.23994
11
1.33161
21
-4.24451
0
LINE
8
BLACK
6
CONTINUOUS
10
1.33161
20
-4.24451
11
1.3391
21
-4.25066
0
LINE
8
BLACK
6
CONTINUOUS
10
1.3391
20
-4.25066
11
1.34525
21
-4.25816
0
LINE
8
BLACK
6
CONTINUOUS
10
1.34525
20
-4.25816
11
1.34982
21
-4.26671
0
LINE
8
BLACK
6
CONTINUOUS
10
1.34982
20
-4.26671
11
1.35263
21
-4.27598
0
LINE
8
BLACK
6
CONTINUOUS
10
1.35263
20
-4.27598
11
1.35335
21
-4.28321
0
LINE
8
BLACK
6
CONTINUOUS
10
1.35335
20
-4.28321
11
1.35335
21
-4.36679
0
LINE
8
BLACK
6
CONTINUOUS
10
1.35335
20
-4.36679
11
1.35263
21
-4.37402
0
LINE
8
BLACK
6
CONTINUOUS
10
1.35263
20
-4.37402
11
1.34982
21
-4.38329
0
LINE
8
BLACK
6
CONTINUOUS
10
1.34982
20
-4.38329
11
1.34525
21
-4.39184
0
LINE
8
BLACK
6
CONTINUOUS
10
1.34525
20
-4.39184
11
1.3391
21
-4.39934
0
LINE
8
BLACK
6
CONTINUOUS
10
1.3391
20
-4.39934
11
1.33161
21
-4.40549
0
LINE
8
BLACK
6
CONTINUOUS
10
1.33161
20
-4.40549
11
1.32306
21
-4.41006
0
LINE
8
BLACK
6
CONTINUOUS
10
1.32306
20
-4.41006
11
1.31378
21
-4.41287
0
LINE
8
BLACK
6
CONTINUOUS
10
1.31378
20
-4.41287
11
1.30413
21
-4.41382
0
LINE
8
BLACK
6
CONTINUOUS
10
1.30413
20
-4.41382
11
1.29449
21
-4.41287
0
LINE
8
BLACK
6
CONTINUOUS
10
1.29449
20
-4.41287
11
1.28521
21
-4.41006
0
LINE
8
BLACK
6
CONTINUOUS
10
1.28521
20
-4.41006
11
1.27666
21
-4.40549
0
LINE
8
BLACK
6
CONTINUOUS
10
1.27666
20
-4.40549
11
1.26917
21
-4.39934
0
LINE
8
BLACK
6
CONTINUOUS
10
1.26917
20
-4.39934
11
1.26302
21
-4.39184
0
LINE
8
BLACK
6
CONTINUOUS
10
1.26302
20
-4.39184
11
1.25845
21
-4.38329
0
LINE
8
BLACK
6
CONTINUOUS
10
1.25845
20
-4.38329
11
1.25563
21
-4.37402
0
LINE
8
BLACK
6
CONTINUOUS
10
1.25563
20
-4.37402
11
1.25492
21
-4.36679
0
LINE
8
BLACK
6
CONTINUOUS
10
1.25492
20
-4.36679
11
1.25492
21
-4.28321
0
LINE
8
BLACK
6
CONTINUOUS
10
1.25492
20
-4.28321
11
1.25563
21
-4.27598
0
LINE
8
BLACK
6
CONTINUOUS
10
1.25563
20
-4.27598
11
1.25845
21
-4.26671
0
LINE
8
BLACK
6
CONTINUOUS
10
1.25845
20
-4.26671
11
1.26302
21
-4.25816
0
LINE
8
BLACK
6
CONTINUOUS
10
1.26302
20
-4.25816
11
1.26917
21
-4.25066
0
LINE
8
BLACK
6
CONTINUOUS
10
1.26917
20
-4.25066
11
1.27666
21
-4.24451
0
LINE
8
BLACK
6
CONTINUOUS
10
1.27666
20
-4.24451
11
1.28521
21
-4.23994
0
LINE
8
BLACK
6
CONTINUOUS
10
1.28521
20
-4.23994
11
1.29449
21
-4.23713
0
LINE
8
BLACK
6
CONTINUOUS
10
1.29449
20
-4.23713
11
1.30413
21
-4.23618
0
LINE
8
BLACK
6
CONTINUOUS
10
1.30413
20
-4.23618
11
1.31378
21
-4.23713
0
LINE
8
BLACK
6
CONTINUOUS
10
1.09921
20
-4.23713
11
1.10849
21
-4.23994
0
LINE
8
BLACK
6
CONTINUOUS
10
1.10849
20
-4.23994
11
1.11704
21
-4.24451
0
LINE
8
BLACK
6
CONTINUOUS
10
1.11704
20
-4.24451
11
1.12453
21
-4.25066
0
LINE
8
BLACK
6
CONTINUOUS
10
1.12453
20
-4.25066
11
1.13068
21
-4.25816
0
LINE
8
BLACK
6
CONTINUOUS
10
1.13068
20
-4.25816
11
1.13525
21
-4.26671
0
LINE
8
BLACK
6
CONTINUOUS
10
1.13525
20
-4.26671
11
1.13807
21
-4.27598
0
LINE
8
BLACK
6
CONTINUOUS
10
1.13807
20
-4.27598
11
1.13878
21
-4.28321
0
LINE
8
BLACK
6
CONTINUOUS
10
1.13878
20
-4.28321
11
1.13878
21
-4.36679
0
LINE
8
BLACK
6
CONTINUOUS
10
1.13878
20
-4.36679
11
1.13807
21
-4.37402
0
LINE
8
BLACK
6
CONTINUOUS
10
1.13807
20
-4.37402
11
1.13525
21
-4.38329
0
LINE
8
BLACK
6
CONTINUOUS
10
1.13525
20
-4.38329
11
1.13068
21
-4.39184
0
LINE
8
BLACK
6
CONTINUOUS
10
1.13068
20
-4.39184
11
1.12453
21
-4.39934
0
LINE
8
BLACK
6
CONTINUOUS
10
1.12453
20
-4.39934
11
1.11704
21
-4.40549
0
LINE
8
BLACK
6
CONTINUOUS
10
1.11704
20
-4.40549
11
1.10849
21
-4.41006
0
LINE
8
BLACK
6
CONTINUOUS
10
1.10849
20
-4.41006
11
1.09921
21
-4.41287
0
LINE
8
BLACK
6
CONTINUOUS
10
1.09921
20
-4.41287
11
1.08957
21
-4.41382
0
LINE
8
BLACK
6
CONTINUOUS
10
1.08957
20
-4.41382
11
1.07992
21
-4.41287
0
LINE
8
BLACK
6
CONTINUOUS
10
1.07992
20
-4.41287
11
1.07064
21
-4.41006
0
LINE
8
BLACK
6
CONTINUOUS
10
1.07064
20
-4.41006
11
1.06209
21
-4.40549
0
LINE
8
BLACK
6
CONTINUOUS
10
1.06209
20
-4.40549
11
1.0546
21
-4.39934
0
LINE
8
BLACK
6
CONTINUOUS
10
1.0546
20
-4.39934
11
1.04845
21
-4.39184
0
LINE
8
BLACK
6
CONTINUOUS
10
1.04845
20
-4.39184
11
1.04388
21
-4.38329
0
LINE
8
BLACK
6
CONTINUOUS
10
1.04388
20
-4.38329
11
1.04107
21
-4.37402
0
LINE
8
BLACK
6
CONTINUOUS
10
1.04107
20
-4.37402
11
1.04035
21
-4.36679
0
LINE
8
BLACK
6
CONTINUOUS
10
1.04035
20
-4.36679
11
1.04035
21
-4.28321
0
LINE
8
BLACK
6
CONTINUOUS
10
1.04035
20
-4.28321
11
1.04107
21
-4.27598
0
LINE
8
BLACK
6
CONTINUOUS
10
1.04107
20
-4.27598
11
1.04388
21
-4.26671
0
LINE
8
BLACK
6
CONTINUOUS
10
1.04388
20
-4.26671
11
1.04845
21
-4.25816
0
LINE
8
BLACK
6
CONTINUOUS
10
1.04845
20
-4.25816
11
1.0546
21
-4.25066
0
LINE
8
BLACK
6
CONTINUOUS
10
1.0546
20
-4.25066
11
1.06209
21
-4.24451
0
LINE
8
BLACK
6
CONTINUOUS
10
1.06209
20
-4.24451
11
1.07064
21
-4.23994
0
LINE
8
BLACK
6
CONTINUOUS
10
1.07064
20
-4.23994
11
1.07992
21
-4.23713
0
LINE
8
BLACK
6
CONTINUOUS
10
1.07992
20
-4.23713
11
1.08957
21
-4.23618
0
LINE
8
BLACK
6
CONTINUOUS
10
1.08957
20
-4.23618
11
1.09921
21
-4.23713
0
LINE
8
BLACK
6
CONTINUOUS
10
5.82421
20
-4.23713
11
5.83349
21
-4.23994
0
LINE
8
BLACK
6
CONTINUOUS
10
5.83349
20
-4.23994
11
5.84204
21
-4.24451
0
LINE
8
BLACK
6
CONTINUOUS
10
5.84204
20
-4.24451
11
5.84953
21
-4.25066
0
LINE
8
BLACK
6
CONTINUOUS
10
5.84953
20
-4.25066
11
5.85568
21
-4.25816
0
LINE
8
BLACK
6
CONTINUOUS
10
5.85568
20
-4.25816
11
5.86025
21
-4.26671
0
LINE
8
BLACK
6
CONTINUOUS
10
5.86025
20
-4.26671
11
5.86307
21
-4.27598
0
LINE
8
BLACK
6
CONTINUOUS
10
5.86307
20
-4.27598
11
5.86378
21
-4.28321
0
LINE
8
BLACK
6
CONTINUOUS
10
5.86378
20
-4.28321
11
5.86378
21
-4.36679
0
LINE
8
BLACK
6
CONTINUOUS
10
5.86378
20
-4.36679
11
5.86307
21
-4.37402
0
LINE
8
BLACK
6
CONTINUOUS
10
5.86307
20
-4.37402
11
5.86025
21
-4.38329
0
LINE
8
BLACK
6
CONTINUOUS
10
5.86025
20
-4.38329
11
5.85568
21
-4.39184
0
LINE
8
BLACK
6
CONTINUOUS
10
5.85568
20
-4.39184
11
5.84953
21
-4.39934
0
LINE
8
BLACK
6
CONTINUOUS
10
5.84953
20
-4.39934
11
5.84204
21
-4.40549
0
LINE
8
BLACK
6
CONTINUOUS
10
5.84204
20
-4.40549
11
5.83349
21
-4.41006
0
LINE
8
BLACK
6
CONTINUOUS
10
5.83349
20
-4.41006
11
5.82421
21
-4.41287
0
LINE
8
BLACK
6
CONTINUOUS
10
5.82421
20
-4.41287
11
5.81457
21
-4.41382
0
LINE
8
BLACK
6
CONTINUOUS
10
5.81457
20
-4.41382
11
5.80492
21
-4.41287
0
LINE
8
BLACK
6
CONTINUOUS
10
5.80492
20
-4.41287
11
5.79564
21
-4.41006
0
LINE
8
BLACK
6
CONTINUOUS
10
5.79564
20
-4.41006
11
5.78709
21
-4.40549
0
LINE
8
BLACK
6
CONTINUOUS
10
5.78709
20
-4.40549
11
5.7796
21
-4.39934
0
LINE
8
BLACK
6
CONTINUOUS
10
5.7796
20
-4.39934
11
5.77345
21
-4.39184
0
LINE
8
BLACK
6
CONTINUOUS
10
5.77345
20
-4.39184
11
5.76888
21
-4.38329
0
LINE
8
BLACK
6
CONTINUOUS
10
5.76888
20
-4.38329
11
5.76607
21
-4.37402
0
LINE
8
BLACK
6
CONTINUOUS
10
5.76607
20
-4.37402
11
5.76535
21
-4.36679
0
LINE
8
BLACK
6
CONTINUOUS
10
5.76535
20
-4.36679
11
5.76535
21
-4.28321
0
LINE
8
BLACK
6
CONTINUOUS
10
5.76535
20
-4.28321
11
5.76607
21
-4.27598
0
LINE
8
BLACK
6
CONTINUOUS
10
5.76607
20
-4.27598
11
5.76888
21
-4.26671
0
LINE
8
BLACK
6
CONTINUOUS
10
5.76888
20
-4.26671
11
5.77345
21
-4.25816
0
LINE
8
BLACK
6
CONTINUOUS
10
5.77345
20
-4.25816
11
5.7796
21
-4.25066
0
LINE
8
BLACK
6
CONTINUOUS
10
5.7796
20
-4.25066
11
5.78709
21
-4.24451
0
LINE
8
BLACK
6
CONTINUOUS
10
5.78709
20
-4.24451
11
5.79564
21
-4.23994
0
LINE
8
BLACK
6
CONTINUOUS
10
5.79564
20
-4.23994
11
5.80492
21
-4.23713
0
LINE
8
BLACK
6
CONTINUOUS
10
5.80492
20
-4.23713
11
5.81457
21
-4.23618
0
LINE
8
BLACK
6
CONTINUOUS
10
5.81457
20
-4.23618
11
5.82421
21
-4.23713
0
LINE
8
BLACK
6
CONTINUOUS
10
6.03878
20
-4.23713
11
6.04806
21
-4.23994
0
LINE
8
BLACK
6
CONTINUOUS
10
6.04806
20
-4.23994
11
6.05661
21
-4.24451
0
LINE
8
BLACK
6
CONTINUOUS
10
6.05661
20
-4.24451
11
6.0641
21
-4.25066
0
LINE
8
BLACK
6
CONTINUOUS
10
6.0641
20
-4.25066
11
6.07025
21
-4.25816
0
LINE
8
BLACK
6
CONTINUOUS
10
6.07025
20
-4.25816
11
6.07482
21
-4.26671
0
LINE
8
BLACK
6
CONTINUOUS
10
6.07482
20
-4.26671
11
6.07763
21
-4.27598
0
LINE
8
BLACK
6
CONTINUOUS
10
6.07763
20
-4.27598
11
6.07835
21
-4.28321
0
LINE
8
BLACK
6
CONTINUOUS
10
6.07835
20
-4.28321
11
6.07835
21
-4.36679
0
LINE
8
BLACK
6
CONTINUOUS
10
6.07835
20
-4.36679
11
6.07763
21
-4.37402
0
LINE
8
BLACK
6
CONTINUOUS
10
6.07763
20
-4.37402
11
6.07482
21
-4.38329
0
LINE
8
BLACK
6
CONTINUOUS
10
6.07482
20
-4.38329
11
6.07025
21
-4.39184
0
LINE
8
BLACK
6
CONTINUOUS
10
6.07025
20
-4.39184
11
6.0641
21
-4.39934
0
LINE
8
BLACK
6
CONTINUOUS
10
6.0641
20
-4.39934
11
6.05661
21
-4.40549
0
LINE
8
BLACK
6
CONTINUOUS
10
6.05661
20
-4.40549
11
6.04806
21
-4.41006
0
LINE
8
BLACK
6
CONTINUOUS
10
6.04806
20
-4.41006
11
6.03878
21
-4.41287
0
LINE
8
BLACK
6
CONTINUOUS
10
6.03878
20
-4.41287
11
6.02913
21
-4.41382
0
LINE
8
BLACK
6
CONTINUOUS
10
6.02913
20
-4.41382
11
6.01949
21
-4.41287
0
LINE
8
BLACK
6
CONTINUOUS
10
6.01949
20
-4.41287
11
6.01021
21
-4.41006
0
LINE
8
BLACK
6
CONTINUOUS
10
6.01021
20
-4.41006
11
6.00166
21
-4.40549
0
LINE
8
BLACK
6
CONTINUOUS
10
6.00166
20
-4.40549
11
5.99417
21
-4.39934
0
LINE
8
BLACK
6
CONTINUOUS
10
5.99417
20
-4.39934
11
5.98802
21
-4.39184
0
LINE
8
BLACK
6
CONTINUOUS
10
5.98802
20
-4.39184
11
5.98345
21
-4.38329
0
LINE
8
BLACK
6
CONTINUOUS
10
5.98345
20
-4.38329
11
5.98063
21
-4.37402
0
LINE
8
BLACK
6
CONTINUOUS
10
5.98063
20
-4.37402
11
5.97992
21
-4.36679
0
LINE
8
BLACK
6
CONTINUOUS
10
5.97992
20
-4.36679
11
5.97992
21
-4.28321
0
LINE
8
BLACK
6
CONTINUOUS
10
5.97992
20
-4.28321
11
5.98063
21
-4.27598
0
LINE
8
BLACK
6
CONTINUOUS
10
5.98063
20
-4.27598
11
5.98345
21
-4.26671
0
LINE
8
BLACK
6
CONTINUOUS
10
5.98345
20
-4.26671
11
5.98802
21
-4.25816
0
LINE
8
BLACK
6
CONTINUOUS
10
5.98802
20
-4.25816
11
5.99417
21
-4.25066
0
LINE
8
BLACK
6
CONTINUOUS
10
5.99417
20
-4.25066
11
6.00166
21
-4.24451
0
LINE
8
BLACK
6
CONTINUOUS
10
6.00166
20
-4.24451
11
6.01021
21
-4.23994
0
LINE
8
BLACK
6
CONTINUOUS
10
6.01021
20
-4.23994
11
6.01949
21
-4.23713
0
LINE
8
BLACK
6
CONTINUOUS
10
6.01949
20
-4.23713
11
6.02913
21
-4.23618
0
LINE
8
BLACK
6
CONTINUOUS
10
6.02913
20
-4.23618
11
6.03878
21
-4.23713
0
LINE
8
BLACK
6
CONTINUOUS
10
6.49921
20
-4.23713
11
6.50849
21
-4.23994
0
LINE
8
BLACK
6
CONTINUOUS
10
6.50849
20
-4.23994
11
6.51704
21
-4.24451
0
LINE
8
BLACK
6
CONTINUOUS
10
6.51704
20
-4.24451
11
6.52453
21
-4.25066
0
LINE
8
BLACK
6
CONTINUOUS
10
6.52453
20
-4.25066
11
6.53068
21
-4.25816
0
LINE
8
BLACK
6
CONTINUOUS
10
6.53068
20
-4.25816
11
6.53525
21
-4.26671
0
LINE
8
BLACK
6
CONTINUOUS
10
6.53525
20
-4.26671
11
6.53807
21
-4.27598
0
LINE
8
BLACK
6
CONTINUOUS
10
6.53807
20
-4.27598
11
6.53878
21
-4.28321
0
LINE
8
BLACK
6
CONTINUOUS
10
6.53878
20
-4.28321
11
6.53878
21
-4.36679
0
LINE
8
BLACK
6
CONTINUOUS
10
6.53878
20
-4.36679
11
6.53807
21
-4.37402
0
LINE
8
BLACK
6
CONTINUOUS
10
6.53807
20
-4.37402
11
6.53525
21
-4.38329
0
LINE
8
BLACK
6
CONTINUOUS
10
6.53525
20
-4.38329
11
6.53068
21
-4.39184
0
LINE
8
BLACK
6
CONTINUOUS
10
6.53068
20
-4.39184
11
6.52453
21
-4.39934
0
LINE
8
BLACK
6
CONTINUOUS
10
6.52453
20
-4.39934
11
6.51704
21
-4.40549
0
LINE
8
BLACK
6
CONTINUOUS
10
6.51704
20
-4.40549
11
6.50849
21
-4.41006
0
LINE
8
BLACK
6
CONTINUOUS
10
6.50849
20
-4.41006
11
6.49921
21
-4.41287
0
LINE
8
BLACK
6
CONTINUOUS
10
6.49921
20
-4.41287
11
6.48957
21
-4.41382
0
LINE
8
BLACK
6
CONTINUOUS
10
6.48957
20
-4.41382
11
6.47992
21
-4.41287
0
LINE
8
BLACK
6
CONTINUOUS
10
6.47992
20
-4.41287
11
6.47064
21
-4.41006
0
LINE
8
BLACK
6
CONTINUOUS
10
6.47064
20
-4.41006
11
6.46209
21
-4.40549
0
LINE
8
BLACK
6
CONTINUOUS
10
6.46209
20
-4.40549
11
6.4546
21
-4.39934
0
LINE
8
BLACK
6
CONTINUOUS
10
6.4546
20
-4.39934
11
6.44845
21
-4.39184
0
LINE
8
BLACK
6
CONTINUOUS
10
6.44845
20
-4.39184
11
6.44388
21
-4.38329
0
LINE
8
BLACK
6
CONTINUOUS
10
6.44388
20
-4.38329
11
6.44107
21
-4.37402
0
LINE
8
BLACK
6
CONTINUOUS
10
6.44107
20
-4.37402
11
6.44035
21
-4.36679
0
LINE
8
BLACK
6
CONTINUOUS
10
6.44035
20
-4.36679
11
6.44035
21
-4.28321
0
LINE
8
BLACK
6
CONTINUOUS
10
6.44035
20
-4.28321
11
6.44107
21
-4.27598
0
LINE
8
BLACK
6
CONTINUOUS
10
6.44107
20
-4.27598
11
6.44388
21
-4.26671
0
LINE
8
BLACK
6
CONTINUOUS
10
6.44388
20
-4.26671
11
6.44845
21
-4.25816
0
LINE
8
BLACK
6
CONTINUOUS
10
6.44845
20
-4.25816
11
6.4546
21
-4.25066
0
LINE
8
BLACK
6
CONTINUOUS
10
6.4546
20
-4.25066
11
6.46209
21
-4.24451
0
LINE
8
BLACK
6
CONTINUOUS
10
6.46209
20
-4.24451
11
6.47064
21
-4.23994
0
LINE
8
BLACK
6
CONTINUOUS
10
6.47064
20
-4.23994
11
6.47992
21
-4.23713
0
LINE
8
BLACK
6
CONTINUOUS
10
6.47992
20
-4.23713
11
6.48957
21
-4.23618
0
LINE
8
BLACK
6
CONTINUOUS
10
6.48957
20
-4.23618
11
6.49921
21
-4.23713
0
LINE
8
BLACK
6
CONTINUOUS
10
6.71378
20
-4.23713
11
6.72306
21
-4.23994
0
LINE
8
BLACK
6
CONTINUOUS
10
6.72306
20
-4.23994
11
6.73161
21
-4.24451
0
LINE
8
BLACK
6
CONTINUOUS
10
6.73161
20
-4.24451
11
6.7391
21
-4.25066
0
LINE
8
BLACK
6
CONTINUOUS
10
6.7391
20
-4.25066
11
6.74525
21
-4.25816
0
LINE
8
BLACK
6
CONTINUOUS
10
6.74525
20
-4.25816
11
6.74982
21
-4.26671
0
LINE
8
BLACK
6
CONTINUOUS
10
6.74982
20
-4.26671
11
6.75263
21
-4.27598
0
LINE
8
BLACK
6
CONTINUOUS
10
6.75263
20
-4.27598
11
6.75335
21
-4.28321
0
LINE
8
BLACK
6
CONTINUOUS
10
6.75335
20
-4.28321
11
6.75335
21
-4.36679
0
LINE
8
BLACK
6
CONTINUOUS
10
6.75335
20
-4.36679
11
6.75263
21
-4.37402
0
LINE
8
BLACK
6
CONTINUOUS
10
6.75263
20
-4.37402
11
6.74982
21
-4.38329
0
LINE
8
BLACK
6
CONTINUOUS
10
6.74982
20
-4.38329
11
6.74525
21
-4.39184
0
LINE
8
BLACK
6
CONTINUOUS
10
6.74525
20
-4.39184
11
6.7391
21
-4.39934
0
LINE
8
BLACK
6
CONTINUOUS
10
6.7391
20
-4.39934
11
6.73161
21
-4.40549
0
LINE
8
BLACK
6
CONTINUOUS
10
6.73161
20
-4.40549
11
6.72306
21
-4.41006
0
LINE
8
BLACK
6
CONTINUOUS
10
6.72306
20
-4.41006
11
6.71378
21
-4.41287
0
LINE
8
BLACK
6
CONTINUOUS
10
6.71378
20
-4.41287
11
6.70413
21
-4.41382
0
LINE
8
BLACK
6
CONTINUOUS
10
6.70413
20
-4.41382
11
6.69449
21
-4.41287
0
LINE
8
BLACK
6
CONTINUOUS
10
6.69449
20
-4.41287
11
6.68521
21
-4.41006
0
LINE
8
BLACK
6
CONTINUOUS
10
6.68521
20
-4.41006
11
6.67666
21
-4.40549
0
LINE
8
BLACK
6
CONTINUOUS
10
6.67666
20
-4.40549
11
6.66917
21
-4.39934
0
LINE
8
BLACK
6
CONTINUOUS
10
6.66917
20
-4.39934
11
6.66302
21
-4.39184
0
LINE
8
BLACK
6
CONTINUOUS
10
6.66302
20
-4.39184
11
6.65845
21
-4.38329
0
LINE
8
BLACK
6
CONTINUOUS
10
6.65845
20
-4.38329
11
6.65563
21
-4.37402
0
LINE
8
BLACK
6
CONTINUOUS
10
6.65563
20
-4.37402
11
6.65492
21
-4.36679
0
LINE
8
BLACK
6
CONTINUOUS
10
6.65492
20
-4.36679
11
6.65492
21
-4.28321
0
LINE
8
BLACK
6
CONTINUOUS
10
6.65492
20
-4.28321
11
6.65563
21
-4.27598
0
LINE
8
BLACK
6
CONTINUOUS
10
6.65563
20
-4.27598
11
6.65845
21
-4.26671
0
LINE
8
BLACK
6
CONTINUOUS
10
6.65845
20
-4.26671
11
6.66302
21
-4.25816
0
LINE
8
BLACK
6
CONTINUOUS
10
6.66302
20
-4.25816
11
6.66917
21
-4.25066
0
LINE
8
BLACK
6
CONTINUOUS
10
6.66917
20
-4.25066
11
6.67666
21
-4.24451
0
LINE
8
BLACK
6
CONTINUOUS
10
6.67666
20
-4.24451
11
6.68521
21
-4.23994
0
LINE
8
BLACK
6
CONTINUOUS
10
6.68521
20
-4.23994
11
6.69449
21
-4.23713
0
LINE
8
BLACK
6
CONTINUOUS
10
6.69449
20
-4.23713
11
6.70413
21
-4.23618
0
LINE
8
BLACK
6
CONTINUOUS
10
6.70413
20
-4.23618
11
6.71378
21
-4.23713
0
LINE
8
BLACK
6
CONTINUOUS
10
7.38878
20
-4.23713
11
7.39806
21
-4.23994
0
LINE
8
BLACK
6
CONTINUOUS
10
7.39806
20
-4.23994
11
7.40661
21
-4.24451
0
LINE
8
BLACK
6
CONTINUOUS
10
7.40661
20
-4.24451
11
7.4141
21
-4.25066
0
LINE
8
BLACK
6
CONTINUOUS
10
7.4141
20
-4.25066
11
7.42025
21
-4.25816
0
LINE
8
BLACK
6
CONTINUOUS
10
7.42025
20
-4.25816
11
7.42482
21
-4.26671
0
LINE
8
BLACK
6
CONTINUOUS
10
7.42482
20
-4.26671
11
7.42763
21
-4.27598
0
LINE
8
BLACK
6
CONTINUOUS
10
7.42763
20
-4.27598
11
7.42835
21
-4.28321
0
LINE
8
BLACK
6
CONTINUOUS
10
7.42835
20
-4.28321
11
7.42835
21
-4.36679
0
LINE
8
BLACK
6
CONTINUOUS
10
7.42835
20
-4.36679
11
7.42763
21
-4.37402
0
LINE
8
BLACK
6
CONTINUOUS
10
7.42763
20
-4.37402
11
7.42482
21
-4.38329
0
LINE
8
BLACK
6
CONTINUOUS
10
7.42482
20
-4.38329
11
7.42025
21
-4.39184
0
LINE
8
BLACK
6
CONTINUOUS
10
7.42025
20
-4.39184
11
7.4141
21
-4.39934
0
LINE
8
BLACK
6
CONTINUOUS
10
7.4141
20
-4.39934
11
7.40661
21
-4.40549
0
LINE
8
BLACK
6
CONTINUOUS
10
7.40661
20
-4.40549
11
7.39806
21
-4.41006
0
LINE
8
BLACK
6
CONTINUOUS
10
7.39806
20
-4.41006
11
7.38878
21
-4.41287
0
LINE
8
BLACK
6
CONTINUOUS
10
7.38878
20
-4.41287
11
7.37913
21
-4.41382
0
LINE
8
BLACK
6
CONTINUOUS
10
7.37913
20
-4.41382
11
7.36949
21
-4.41287
0
LINE
8
BLACK
6
CONTINUOUS
10
7.36949
20
-4.41287
11
7.36021
21
-4.41006
0
LINE
8
BLACK
6
CONTINUOUS
10
7.36021
20
-4.41006
11
7.35166
21
-4.40549
0
LINE
8
BLACK
6
CONTINUOUS
10
7.35166
20
-4.40549
11
7.34417
21
-4.39934
0
LINE
8
BLACK
6
CONTINUOUS
10
7.34417
20
-4.39934
11
7.33802
21
-4.39184
0
LINE
8
BLACK
6
CONTINUOUS
10
7.33802
20
-4.39184
11
7.33345
21
-4.38329
0
LINE
8
BLACK
6
CONTINUOUS
10
7.33345
20
-4.38329
11
7.33063
21
-4.37402
0
LINE
8
BLACK
6
CONTINUOUS
10
7.33063
20
-4.37402
11
7.32992
21
-4.36679
0
LINE
8
BLACK
6
CONTINUOUS
10
7.32992
20
-4.36679
11
7.32992
21
-4.28321
0
LINE
8
BLACK
6
CONTINUOUS
10
7.32992
20
-4.28321
11
7.33063
21
-4.27598
0
LINE
8
BLACK
6
CONTINUOUS
10
7.33063
20
-4.27598
11
7.33345
21
-4.26671
0
LINE
8
BLACK
6
CONTINUOUS
10
7.33345
20
-4.26671
11
7.33802
21
-4.25816
0
LINE
8
BLACK
6
CONTINUOUS
10
7.33802
20
-4.25816
11
7.34417
21
-4.25066
0
LINE
8
BLACK
6
CONTINUOUS
10
7.34417
20
-4.25066
11
7.35166
21
-4.24451
0
LINE
8
BLACK
6
CONTINUOUS
10
7.35166
20
-4.24451
11
7.36021
21
-4.23994
0
LINE
8
BLACK
6
CONTINUOUS
10
7.36021
20
-4.23994
11
7.36949
21
-4.23713
0
LINE
8
BLACK
6
CONTINUOUS
10
7.36949
20
-4.23713
11
7.37913
21
-4.23618
0
LINE
8
BLACK
6
CONTINUOUS
10
7.37913
20
-4.23618
11
7.38878
21
-4.23713
0
LINE
8
BLACK
6
CONTINUOUS
10
7.17421
20
-4.23713
11
7.18349
21
-4.23994
0
LINE
8
BLACK
6
CONTINUOUS
10
7.18349
20
-4.23994
11
7.19204
21
-4.24451
0
LINE
8
BLACK
6
CONTINUOUS
10
7.19204
20
-4.24451
11
7.19953
21
-4.25066
0
LINE
8
BLACK
6
CONTINUOUS
10
7.19953
20
-4.25066
11
7.20568
21
-4.25816
0
LINE
8
BLACK
6
CONTINUOUS
10
7.20568
20
-4.25816
11
7.21025
21
-4.26671
0
LINE
8
BLACK
6
CONTINUOUS
10
7.21025
20
-4.26671
11
7.21307
21
-4.27598
0
LINE
8
BLACK
6
CONTINUOUS
10
7.21307
20
-4.27598
11
7.21378
21
-4.28321
0
LINE
8
BLACK
6
CONTINUOUS
10
7.21378
20
-4.28321
11
7.21378
21
-4.36679
0
LINE
8
BLACK
6
CONTINUOUS
10
7.21378
20
-4.36679
11
7.21307
21
-4.37402
0
LINE
8
BLACK
6
CONTINUOUS
10
7.21307
20
-4.37402
11
7.21025
21
-4.38329
0
LINE
8
BLACK
6
CONTINUOUS
10
7.21025
20
-4.38329
11
7.20568
21
-4.39184
0
LINE
8
BLACK
6
CONTINUOUS
10
7.20568
20
-4.39184
11
7.19953
21
-4.39934
0
LINE
8
BLACK
6
CONTINUOUS
10
7.19953
20
-4.39934
11
7.19204
21
-4.40549
0
LINE
8
BLACK
6
CONTINUOUS
10
7.19204
20
-4.40549
11
7.18349
21
-4.41006
0
LINE
8
BLACK
6
CONTINUOUS
10
7.18349
20
-4.41006
11
7.17421
21
-4.41287
0
LINE
8
BLACK
6
CONTINUOUS
10
7.17421
20
-4.41287
11
7.16457
21
-4.41382
0
LINE
8
BLACK
6
CONTINUOUS
10
7.16457
20
-4.41382
11
7.15492
21
-4.41287
0
LINE
8
BLACK
6
CONTINUOUS
10
7.15492
20
-4.41287
11
7.14564
21
-4.41006
0
LINE
8
BLACK
6
CONTINUOUS
10
7.14564
20
-4.41006
11
7.13709
21
-4.40549
0
LINE
8
BLACK
6
CONTINUOUS
10
7.13709
20
-4.40549
11
7.1296
21
-4.39934
0
LINE
8
BLACK
6
CONTINUOUS
10
7.1296
20
-4.39934
11
7.12345
21
-4.39184
0
LINE
8
BLACK
6
CONTINUOUS
10
7.12345
20
-4.39184
11
7.11888
21
-4.38329
0
LINE
8
BLACK
6
CONTINUOUS
10
7.11888
20
-4.38329
11
7.11607
21
-4.37402
0
LINE
8
BLACK
6
CONTINUOUS
10
7.11607
20
-4.37402
11
7.11535
21
-4.36679
0
LINE
8
BLACK
6
CONTINUOUS
10
7.11535
20
-4.36679
11
7.11535
21
-4.28321
0
LINE
8
BLACK
6
CONTINUOUS
10
7.11535
20
-4.28321
11
7.11607
21
-4.27598
0
LINE
8
BLACK
6
CONTINUOUS
10
7.11607
20
-4.27598
11
7.11888
21
-4.26671
0
LINE
8
BLACK
6
CONTINUOUS
10
7.11888
20
-4.26671
11
7.12345
21
-4.25816
0
LINE
8
BLACK
6
CONTINUOUS
10
7.12345
20
-4.25816
11
7.1296
21
-4.25066
0
LINE
8
BLACK
6
CONTINUOUS
10
7.1296
20
-4.25066
11
7.13709
21
-4.24451
0
LINE
8
BLACK
6
CONTINUOUS
10
7.13709
20
-4.24451
11
7.14564
21
-4.23994
0
LINE
8
BLACK
6
CONTINUOUS
10
7.14564
20
-4.23994
11
7.15492
21
-4.23713
0
LINE
8
BLACK
6
CONTINUOUS
10
7.15492
20
-4.23713
11
7.16457
21
-4.23618
0
LINE
8
BLACK
6
CONTINUOUS
10
7.16457
20
-4.23618
11
7.17421
21
-4.23713
0
LINE
8
BLACK
6
CONTINUOUS
10
6.99921
20
-4.41358
11
6.90079
21
-4.41358
0
LINE
8
BLACK
6
CONTINUOUS
10
6.90079
20
-4.41358
11
6.90079
21
-4.23642
0
LINE
8
BLACK
6
CONTINUOUS
10
6.90079
20
-4.23642
11
6.99921
21
-4.23642
0
LINE
8
BLACK
6
CONTINUOUS
10
6.99921
20
-4.23642
11
6.99921
21
-4.41358
0
LINE
8
BLACK
6
CONTINUOUS
10
1.59921
20
-4.41358
11
1.50079
21
-4.41358
0
LINE
8
BLACK
6
CONTINUOUS
10
1.50079
20
-4.41358
11
1.50079
21
-4.23642
0
LINE
8
BLACK
6
CONTINUOUS
10
1.50079
20
-4.23642
11
1.59921
21
-4.23642
0
LINE
8
BLACK
6
CONTINUOUS
10
1.59921
20
-4.23642
11
1.59921
21
-4.41358
0
LINE
8
BLACK
6
CONTINUOUS
10
0.924213
20
-4.41358
11
0.825787
21
-4.41358
0
LINE
8
BLACK
6
CONTINUOUS
10
0.825787
20
-4.41358
11
0.825787
21
-4.23642
0
LINE
8
BLACK
6
CONTINUOUS
10
0.825787
20
-4.23642
11
0.924213
21
-4.23642
0
LINE
8
BLACK
6
CONTINUOUS
10
0.924213
20
-4.23642
11
0.924213
21
-4.41358
0
LINE
8
BLACK
6
CONTINUOUS
10
8.34921
20
-4.41358
11
8.25079
21
-4.41358
0
LINE
8
BLACK
6
CONTINUOUS
10
8.25079
20
-4.41358
11
8.25079
21
-4.23642
0
LINE
8
BLACK
6
CONTINUOUS
10
8.25079
20
-4.23642
11
8.34921
21
-4.23642
0
LINE
8
BLACK
6
CONTINUOUS
10
8.34921
20
-4.23642
11
8.34921
21
-4.41358
0
LINE
8
BLACK
6
CONTINUOUS
10
2.27421
20
-4.41358
11
2.17579
21
-4.41358
0
LINE
8
BLACK
6
CONTINUOUS
10
2.17579
20
-4.41358
11
2.17579
21
-4.23642
0
LINE
8
BLACK
6
CONTINUOUS
10
2.17579
20
-4.23642
11
2.27421
21
-4.23642
0
LINE
8
BLACK
6
CONTINUOUS
10
2.27421
20
-4.23642
11
2.27421
21
-4.41358
0
LINE
8
BLACK
6
CONTINUOUS
10
6.32421
20
-4.41358
11
6.22579
21
-4.41358
0
LINE
8
BLACK
6
CONTINUOUS
10
6.22579
20
-4.41358
11
6.22579
21
-4.23642
0
LINE
8
BLACK
6
CONTINUOUS
10
6.22579
20
-4.23642
11
6.32421
21
-4.23642
0
LINE
8
BLACK
6
CONTINUOUS
10
6.32421
20
-4.23642
11
6.32421
21
-4.41358
0
LINE
8
BLACK
6
CONTINUOUS
10
5.64921
20
-4.41358
11
5.55079
21
-4.41358
0
LINE
8
BLACK
6
CONTINUOUS
10
5.55079
20
-4.41358
11
5.55079
21
-4.23642
0
LINE
8
BLACK
6
CONTINUOUS
10
5.55079
20
-4.23642
11
5.64921
21
-4.23642
0
LINE
8
BLACK
6
CONTINUOUS
10
5.64921
20
-4.23642
11
5.64921
21
-4.41358
0
LINE
8
BLACK
6
CONTINUOUS
10
7.67421
20
-4.41358
11
7.57579
21
-4.41358
0
LINE
8
BLACK
6
CONTINUOUS
10
7.57579
20
-4.41358
11
7.57579
21
-4.23642
0
LINE
8
BLACK
6
CONTINUOUS
10
7.57579
20
-4.23642
11
7.67421
21
-4.23642
0
LINE
8
BLACK
6
CONTINUOUS
10
7.67421
20
-4.23642
11
7.67421
21
-4.41358
0
LINE
8
BLACK
6
CONTINUOUS
10
4.97421
20
-4.41358
11
4.87579
21
-4.41358
0
LINE
8
BLACK
6
CONTINUOUS
10
4.87579
20
-4.41358
11
4.87579
21
-4.23642
0
LINE
8
BLACK
6
CONTINUOUS
10
4.87579
20
-4.23642
11
4.97421
21
-4.23642
0
LINE
8
BLACK
6
CONTINUOUS
10
4.97421
20
-4.23642
11
4.97421
21
-4.41358
0
LINE
8
BLACK
6
CONTINUOUS
10
4.29921
20
-4.41358
11
4.20079
21
-4.41358
0
LINE
8
BLACK
6
CONTINUOUS
10
4.20079
20
-4.41358
11
4.20079
21
-4.23642
0
LINE
8
BLACK
6
CONTINUOUS
10
4.20079
20
-4.23642
11
4.29921
21
-4.23642
0
LINE
8
BLACK
6
CONTINUOUS
10
4.29921
20
-4.23642
11
4.29921
21
-4.41358
0
LINE
8
BLACK
6
CONTINUOUS
10
3.62421
20
-4.41358
11
3.52579
21
-4.41358
0
LINE
8
BLACK
6
CONTINUOUS
10
3.52579
20
-4.41358
11
3.52579
21
-4.23642
0
LINE
8
BLACK
6
CONTINUOUS
10
3.52579
20
-4.23642
11
3.62421
21
-4.23642
0
LINE
8
BLACK
6
CONTINUOUS
10
3.62421
20
-4.23642
11
3.62421
21
-4.41358
0
LINE
8
BLACK
6
CONTINUOUS
10
2.94921
20
-4.41358
11
2.85079
21
-4.41358
0
LINE
8
BLACK
6
CONTINUOUS
10
2.85079
20
-4.41358
11
2.85079
21
-4.23642
0
LINE
8
BLACK
6
CONTINUOUS
10
2.85079
20
-4.23642
11
2.94921
21
-4.23642
0
LINE
8
BLACK
6
CONTINUOUS
10
2.94921
20
-4.23642
11
2.94921
21
-4.41358
0
LINE
8
BLACK
6
CONTINUOUS
10
5.60551
20
-3.18713
11
5.61479
21
-3.18994
0
LINE
8
BLACK
6
CONTINUOUS
10
5.61479
20
-3.18994
11
5.62334
21
-3.19451
0
LINE
8
BLACK
6
CONTINUOUS
10
5.62334
20
-3.19451
11
5.63083
21
-3.20066
0
LINE
8
BLACK
6
CONTINUOUS
10
5.63083
20
-3.20066
11
5.63698
21
-3.20816
0
LINE
8
BLACK
6
CONTINUOUS
10
5.63698
20
-3.20816
11
5.64155
21
-3.21671
0
LINE
8
BLACK
6
CONTINUOUS
10
5.64155
20
-3.21671
11
5.64437
21
-3.22598
0
LINE
8
BLACK
6
CONTINUOUS
10
5.64437
20
-3.22598
11
5.64508
21
-3.23321
0
LINE
8
BLACK
6
CONTINUOUS
10
5.64508
20
-3.23321
11
5.64508
21
-3.31679
0
LINE
8
BLACK
6
CONTINUOUS
10
5.64508
20
-3.31679
11
5.64437
21
-3.32402
0
LINE
8
BLACK
6
CONTINUOUS
10
5.64437
20
-3.32402
11
5.64155
21
-3.33329
0
LINE
8
BLACK
6
CONTINUOUS
10
5.64155
20
-3.33329
11
5.63698
21
-3.34184
0
LINE
8
BLACK
6
CONTINUOUS
10
5.63698
20
-3.34184
11
5.63083
21
-3.34934
0
LINE
8
BLACK
6
CONTINUOUS
10
5.63083
20
-3.34934
11
5.62334
21
-3.35549
0
LINE
8
BLACK
6
CONTINUOUS
10
5.62334
20
-3.35549
11
5.61479
21
-3.36006
0
LINE
8
BLACK
6
CONTINUOUS
10
5.61479
20
-3.36006
11
5.60551
21
-3.36287
0
LINE
8
BLACK
6
CONTINUOUS
10
5.60551
20
-3.36287
11
5.59587
21
-3.36382
0
LINE
8
BLACK
6
CONTINUOUS
10
5.59587
20
-3.36382
11
5.58622
21
-3.36287
0
LINE
8
BLACK
6
CONTINUOUS
10
5.58622
20
-3.36287
11
5.57694
21
-3.36006
0
LINE
8
BLACK
6
CONTINUOUS
10
5.57694
20
-3.36006
11
5.56839
21
-3.35549
0
LINE
8
BLACK
6
CONTINUOUS
10
5.56839
20
-3.35549
11
5.5609
21
-3.34934
0
LINE
8
BLACK
6
CONTINUOUS
10
5.5609
20
-3.34934
11
5.55475
21
-3.34184
0
LINE
8
BLACK
6
CONTINUOUS
10
5.55475
20
-3.34184
11
5.55018
21
-3.33329
0
LINE
8
BLACK
6
CONTINUOUS
10
5.55018
20
-3.33329
11
5.54737
21
-3.32402
0
LINE
8
BLACK
6
CONTINUOUS
10
5.54737
20
-3.32402
11
5.54665
21
-3.31679
0
LINE
8
BLACK
6
CONTINUOUS
10
5.54665
20
-3.31679
11
5.54665
21
-3.23321
0
LINE
8
BLACK
6
CONTINUOUS
10
5.54665
20
-3.23321
11
5.54737
21
-3.22598
0
LINE
8
BLACK
6
CONTINUOUS
10
5.54737
20
-3.22598
11
5.55018
21
-3.21671
0
LINE
8
BLACK
6
CONTINUOUS
10
5.55018
20
-3.21671
11
5.55475
21
-3.20816
0
LINE
8
BLACK
6
CONTINUOUS
10
5.55475
20
-3.20816
11
5.5609
21
-3.20066
0
LINE
8
BLACK
6
CONTINUOUS
10
5.5609
20
-3.20066
11
5.56839
21
-3.19451
0
LINE
8
BLACK
6
CONTINUOUS
10
5.56839
20
-3.19451
11
5.57694
21
-3.18994
0
LINE
8
BLACK
6
CONTINUOUS
10
5.57694
20
-3.18994
11
5.58622
21
-3.18713
0
LINE
8
BLACK
6
CONTINUOUS
10
5.58622
20
-3.18713
11
5.59587
21
-3.18618
0
LINE
8
BLACK
6
CONTINUOUS
10
5.59587
20
-3.18618
11
5.60551
21
-3.18713
0
LINE
8
BLACK
6
CONTINUOUS
10
5.82008
20
-3.18713
11
5.82936
21
-3.18994
0
LINE
8
BLACK
6
CONTINUOUS
10
5.82936
20
-3.18994
11
5.83791
21
-3.19451
0
LINE
8
BLACK
6
CONTINUOUS
10
5.83791
20
-3.19451
11
5.8454
21
-3.20066
0
LINE
8
BLACK
6
CONTINUOUS
10
5.8454
20
-3.20066
11
5.85155
21
-3.20816
0
LINE
8
BLACK
6
CONTINUOUS
10
5.85155
20
-3.20816
11
5.85612
21
-3.21671
0
LINE
8
BLACK
6
CONTINUOUS
10
5.85612
20
-3.21671
11
5.85893
21
-3.22598
0
LINE
8
BLACK
6
CONTINUOUS
10
5.85893
20
-3.22598
11
5.85965
21
-3.23321
0
LINE
8
BLACK
6
CONTINUOUS
10
5.85965
20
-3.23321
11
5.85965
21
-3.31679
0
LINE
8
BLACK
6
CONTINUOUS
10
5.85965
20
-3.31679
11
5.85893
21
-3.32402
0
LINE
8
BLACK
6
CONTINUOUS
10
5.85893
20
-3.32402
11
5.85612
21
-3.33329
0
LINE
8
BLACK
6
CONTINUOUS
10
5.85612
20
-3.33329
11
5.85155
21
-3.34184
0
LINE
8
BLACK
6
CONTINUOUS
10
5.85155
20
-3.34184
11
5.8454
21
-3.34934
0
LINE
8
BLACK
6
CONTINUOUS
10
5.8454
20
-3.34934
11
5.83791
21
-3.35549
0
LINE
8
BLACK
6
CONTINUOUS
10
5.83791
20
-3.35549
11
5.82936
21
-3.36006
0
LINE
8
BLACK
6
CONTINUOUS
10
5.82936
20
-3.36006
11
5.82008
21
-3.36287
0
LINE
8
BLACK
6
CONTINUOUS
10
5.82008
20
-3.36287
11
5.81043
21
-3.36382
0
LINE
8
BLACK
6
CONTINUOUS
10
5.81043
20
-3.36382
11
5.80079
21
-3.36287
0
LINE
8
BLACK
6
CONTINUOUS
10
5.80079
20
-3.36287
11
5.79151
21
-3.36006
0
LINE
8
BLACK
6
CONTINUOUS
10
5.79151
20
-3.36006
11
5.78296
21
-3.35549
0
LINE
8
BLACK
6
CONTINUOUS
10
5.78296
20
-3.35549
11
5.77547
21
-3.34934
0
LINE
8
BLACK
6
CONTINUOUS
10
5.77547
20
-3.34934
11
5.76932
21
-3.34184
0
LINE
8
BLACK
6
CONTINUOUS
10
5.76932
20
-3.34184
11
5.76475
21
-3.33329
0
LINE
8
BLACK
6
CONTINUOUS
10
5.76475
20
-3.33329
11
5.76193
21
-3.32402
0
LINE
8
BLACK
6
CONTINUOUS
10
5.76193
20
-3.32402
11
5.76122
21
-3.31679
0
LINE
8
BLACK
6
CONTINUOUS
10
5.76122
20
-3.31679
11
5.76122
21
-3.23321
0
LINE
8
BLACK
6
CONTINUOUS
10
5.76122
20
-3.23321
11
5.76193
21
-3.22598
0
LINE
8
BLACK
6
CONTINUOUS
10
5.76193
20
-3.22598
11
5.76475
21
-3.21671
0
LINE
8
BLACK
6
CONTINUOUS
10
5.76475
20
-3.21671
11
5.76932
21
-3.20816
0
LINE
8
BLACK
6
CONTINUOUS
10
5.76932
20
-3.20816
11
5.77547
21
-3.20066
0
LINE
8
BLACK
6
CONTINUOUS
10
5.77547
20
-3.20066
11
5.78296
21
-3.19451
0
LINE
8
BLACK
6
CONTINUOUS
10
5.78296
20
-3.19451
11
5.79151
21
-3.18994
0
LINE
8
BLACK
6
CONTINUOUS
10
5.79151
20
-3.18994
11
5.80079
21
-3.18713
0
LINE
8
BLACK
6
CONTINUOUS
10
5.80079
20
-3.18713
11
5.81043
21
-3.18618
0
LINE
8
BLACK
6
CONTINUOUS
10
5.81043
20
-3.18618
11
5.82008
21
-3.18713
0
LINE
8
BLACK
6
CONTINUOUS
10
4.93051
20
-3.18713
11
4.93979
21
-3.18994
0
LINE
8
BLACK
6
CONTINUOUS
10
4.93979
20
-3.18994
11
4.94834
21
-3.19451
0
LINE
8
BLACK
6
CONTINUOUS
10
4.94834
20
-3.19451
11
4.95583
21
-3.20066
0
LINE
8
BLACK
6
CONTINUOUS
10
4.95583
20
-3.20066
11
4.96198
21
-3.20816
0
LINE
8
BLACK
6
CONTINUOUS
10
4.96198
20
-3.20816
11
4.96655
21
-3.21671
0
LINE
8
BLACK
6
CONTINUOUS
10
4.96655
20
-3.21671
11
4.96937
21
-3.22598
0
LINE
8
BLACK
6
CONTINUOUS
10
4.96937
20
-3.22598
11
4.97008
21
-3.23321
0
LINE
8
BLACK
6
CONTINUOUS
10
4.97008
20
-3.23321
11
4.97008
21
-3.31679
0
LINE
8
BLACK
6
CONTINUOUS
10
4.97008
20
-3.31679
11
4.96937
21
-3.32402
0
LINE
8
BLACK
6
CONTINUOUS
10
4.96937
20
-3.32402
11
4.96655
21
-3.33329
0
LINE
8
BLACK
6
CONTINUOUS
10
4.96655
20
-3.33329
11
4.96198
21
-3.34184
0
LINE
8
BLACK
6
CONTINUOUS
10
4.96198
20
-3.34184
11
4.95583
21
-3.34934
0
LINE
8
BLACK
6
CONTINUOUS
10
4.95583
20
-3.34934
11
4.94834
21
-3.35549
0
LINE
8
BLACK
6
CONTINUOUS
10
4.94834
20
-3.35549
11
4.93979
21
-3.36006
0
LINE
8
BLACK
6
CONTINUOUS
10
4.93979
20
-3.36006
11
4.93051
21
-3.36287
0
LINE
8
BLACK
6
CONTINUOUS
10
4.93051
20
-3.36287
11
4.92087
21
-3.36382
0
LINE
8
BLACK
6
CONTINUOUS
10
4.92087
20
-3.36382
11
4.91122
21
-3.36287
0
LINE
8
BLACK
6
CONTINUOUS
10
4.91122
20
-3.36287
11
4.90194
21
-3.36006
0
LINE
8
BLACK
6
CONTINUOUS
10
4.90194
20
-3.36006
11
4.89339
21
-3.35549
0
LINE
8
BLACK
6
CONTINUOUS
10
4.89339
20
-3.35549
11
4.8859
21
-3.34934
0
LINE
8
BLACK
6
CONTINUOUS
10
4.8859
20
-3.34934
11
4.87975
21
-3.34184
0
LINE
8
BLACK
6
CONTINUOUS
10
4.87975
20
-3.34184
11
4.87518
21
-3.33329
0
LINE
8
BLACK
6
CONTINUOUS
10
4.87518
20
-3.33329
11
4.87237
21
-3.32402
0
LINE
8
BLACK
6
CONTINUOUS
10
4.87237
20
-3.32402
11
4.87165
21
-3.31679
0
LINE
8
BLACK
6
CONTINUOUS
10
4.87165
20
-3.31679
11
4.87165
21
-3.23321
0
LINE
8
BLACK
6
CONTINUOUS
10
4.87165
20
-3.23321
11
4.87237
21
-3.22598
0
LINE
8
BLACK
6
CONTINUOUS
10
4.87237
20
-3.22598
11
4.87518
21
-3.21671
0
LINE
8
BLACK
6
CONTINUOUS
10
4.87518
20
-3.21671
11
4.87975
21
-3.20816
0
LINE
8
BLACK
6
CONTINUOUS
10
4.87975
20
-3.20816
11
4.8859
21
-3.20066
0
LINE
8
BLACK
6
CONTINUOUS
10
4.8859
20
-3.20066
11
4.89339
21
-3.19451
0
LINE
8
BLACK
6
CONTINUOUS
10
4.89339
20
-3.19451
11
4.90194
21
-3.18994
0
LINE
8
BLACK
6
CONTINUOUS
10
4.90194
20
-3.18994
11
4.91122
21
-3.18713
0
LINE
8
BLACK
6
CONTINUOUS
10
4.91122
20
-3.18713
11
4.92087
21
-3.18618
0
LINE
8
BLACK
6
CONTINUOUS
10
4.92087
20
-3.18618
11
4.93051
21
-3.18713
0
LINE
8
BLACK
6
CONTINUOUS
10
5.14508
20
-3.18713
11
5.15436
21
-3.18994
0
LINE
8
BLACK
6
CONTINUOUS
10
5.15436
20
-3.18994
11
5.16291
21
-3.19451
0
LINE
8
BLACK
6
CONTINUOUS
10
5.16291
20
-3.19451
11
5.1704
21
-3.20066
0
LINE
8
BLACK
6
CONTINUOUS
10
5.1704
20
-3.20066
11
5.17655
21
-3.20816
0
LINE
8
BLACK
6
CONTINUOUS
10
5.17655
20
-3.20816
11
5.18112
21
-3.21671
0
LINE
8
BLACK
6
CONTINUOUS
10
5.18112
20
-3.21671
11
5.18393
21
-3.22598
0
LINE
8
BLACK
6
CONTINUOUS
10
5.18393
20
-3.22598
11
5.18465
21
-3.23321
0
LINE
8
BLACK
6
CONTINUOUS
10
5.18465
20
-3.23321
11
5.18465
21
-3.31679
0
LINE
8
BLACK
6
CONTINUOUS
10
5.18465
20
-3.31679
11
5.18393
21
-3.32402
0
LINE
8
BLACK
6
CONTINUOUS
10
5.18393
20
-3.32402
11
5.18112
21
-3.33329
0
LINE
8
BLACK
6
CONTINUOUS
10
5.18112
20
-3.33329
11
5.17655
21
-3.34184
0
LINE
8
BLACK
6
CONTINUOUS
10
5.17655
20
-3.34184
11
5.1704
21
-3.34934
0
LINE
8
BLACK
6
CONTINUOUS
10
5.1704
20
-3.34934
11
5.16291
21
-3.35549
0
LINE
8
BLACK
6
CONTINUOUS
10
5.16291
20
-3.35549
11
5.15436
21
-3.36006
0
LINE
8
BLACK
6
CONTINUOUS
10
5.15436
20
-3.36006
11
5.14508
21
-3.36287
0
LINE
8
BLACK
6
CONTINUOUS
10
5.14508
20
-3.36287
11
5.13543
21
-3.36382
0
LINE
8
BLACK
6
CONTINUOUS
10
5.13543
20
-3.36382
11
5.12579
21
-3.36287
0
LINE
8
BLACK
6
CONTINUOUS
10
5.12579
20
-3.36287
11
5.11651
21
-3.36006
0
LINE
8
BLACK
6
CONTINUOUS
10
5.11651
20
-3.36006
11
5.10796
21
-3.35549
0
LINE
8
BLACK
6
CONTINUOUS
10
5.10796
20
-3.35549
11
5.10047
21
-3.34934
0
LINE
8
BLACK
6
CONTINUOUS
10
5.10047
20
-3.34934
11
5.09432
21
-3.34184
0
LINE
8
BLACK
6
CONTINUOUS
10
5.09432
20
-3.34184
11
5.08975
21
-3.33329
0
LINE
8
BLACK
6
CONTINUOUS
10
5.08975
20
-3.33329
11
5.08693
21
-3.32402
0
LINE
8
BLACK
6
CONTINUOUS
10
5.08693
20
-3.32402
11
5.08622
21
-3.31679
0
LINE
8
BLACK
6
CONTINUOUS
10
5.08622
20
-3.31679
11
5.08622
21
-3.23321
0
LINE
8
BLACK
6
CONTINUOUS
10
5.08622
20
-3.23321
11
5.08693
21
-3.22598
0
LINE
8
BLACK
6
CONTINUOUS
10
5.08693
20
-3.22598
11
5.08975
21
-3.21671
0
LINE
8
BLACK
6
CONTINUOUS
10
5.08975
20
-3.21671
11
5.09432
21
-3.20816
0
LINE
8
BLACK
6
CONTINUOUS
10
5.09432
20
-3.20816
11
5.10047
21
-3.20066
0
LINE
8
BLACK
6
CONTINUOUS
10
5.10047
20
-3.20066
11
5.10796
21
-3.19451
0
LINE
8
BLACK
6
CONTINUOUS
10
5.10796
20
-3.19451
11
5.11651
21
-3.18994
0
LINE
8
BLACK
6
CONTINUOUS
10
5.11651
20
-3.18994
11
5.12579
21
-3.18713
0
LINE
8
BLACK
6
CONTINUOUS
10
5.12579
20
-3.18713
11
5.13543
21
-3.18618
0
LINE
8
BLACK
6
CONTINUOUS
10
5.13543
20
-3.18618
11
5.14508
21
-3.18713
0
LINE
8
BLACK
6
CONTINUOUS
10
4.25551
20
-3.18713
11
4.26479
21
-3.18994
0
LINE
8
BLACK
6
CONTINUOUS
10
4.26479
20
-3.18994
11
4.27334
21
-3.19451
0
LINE
8
BLACK
6
CONTINUOUS
10
4.27334
20
-3.19451
11
4.28083
21
-3.20066
0
LINE
8
BLACK
6
CONTINUOUS
10
4.28083
20
-3.20066
11
4.28698
21
-3.20816
0
LINE
8
BLACK
6
CONTINUOUS
10
4.28698
20
-3.20816
11
4.29155
21
-3.21671
0
LINE
8
BLACK
6
CONTINUOUS
10
4.29155
20
-3.21671
11
4.29437
21
-3.22598
0
LINE
8
BLACK
6
CONTINUOUS
10
4.29437
20
-3.22598
11
4.29508
21
-3.23321
0
LINE
8
BLACK
6
CONTINUOUS
10
4.29508
20
-3.23321
11
4.29508
21
-3.31679
0
LINE
8
BLACK
6
CONTINUOUS
10
4.29508
20
-3.31679
11
4.29437
21
-3.32402
0
LINE
8
BLACK
6
CONTINUOUS
10
4.29437
20
-3.32402
11
4.29155
21
-3.33329
0
LINE
8
BLACK
6
CONTINUOUS
10
4.29155
20
-3.33329
11
4.28698
21
-3.34184
0
LINE
8
BLACK
6
CONTINUOUS
10
4.28698
20
-3.34184
11
4.28083
21
-3.34934
0
LINE
8
BLACK
6
CONTINUOUS
10
4.28083
20
-3.34934
11
4.27334
21
-3.35549
0
LINE
8
BLACK
6
CONTINUOUS
10
4.27334
20
-3.35549
11
4.26479
21
-3.36006
0
LINE
8
BLACK
6
CONTINUOUS
10
4.26479
20
-3.36006
11
4.25551
21
-3.36287
0
LINE
8
BLACK
6
CONTINUOUS
10
4.25551
20
-3.36287
11
4.24587
21
-3.36382
0
LINE
8
BLACK
6
CONTINUOUS
10
4.24587
20
-3.36382
11
4.23622
21
-3.36287
0
LINE
8
BLACK
6
CONTINUOUS
10
4.23622
20
-3.36287
11
4.22694
21
-3.36006
0
LINE
8
BLACK
6
CONTINUOUS
10
4.22694
20
-3.36006
11
4.21839
21
-3.35549
0
LINE
8
BLACK
6
CONTINUOUS
10
4.21839
20
-3.35549
11
4.2109
21
-3.34934
0
LINE
8
BLACK
6
CONTINUOUS
10
4.2109
20
-3.34934
11
4.20475
21
-3.34184
0
LINE
8
BLACK
6
CONTINUOUS
10
4.20475
20
-3.34184
11
4.20018
21
-3.33329
0
LINE
8
BLACK
6
CONTINUOUS
10
4.20018
20
-3.33329
11
4.19737
21
-3.32402
0
LINE
8
BLACK
6
CONTINUOUS
10
4.19737
20
-3.32402
11
4.19665
21
-3.31679
0
LINE
8
BLACK
6
CONTINUOUS
10
4.19665
20
-3.31679
11
4.19665
21
-3.23321
0
LINE
8
BLACK
6
CONTINUOUS
10
4.19665
20
-3.23321
11
4.19737
21
-3.22598
0
LINE
8
BLACK
6
CONTINUOUS
10
4.19737
20
-3.22598
11
4.20018
21
-3.21671
0
LINE
8
BLACK
6
CONTINUOUS
10
4.20018
20
-3.21671
11
4.20475
21
-3.20816
0
LINE
8
BLACK
6
CONTINUOUS
10
4.20475
20
-3.20816
11
4.2109
21
-3.20066
0
LINE
8
BLACK
6
CONTINUOUS
10
4.2109
20
-3.20066
11
4.21839
21
-3.19451
0
LINE
8
BLACK
6
CONTINUOUS
10
4.21839
20
-3.19451
11
4.22694
21
-3.18994
0
LINE
8
BLACK
6
CONTINUOUS
10
4.22694
20
-3.18994
11
4.23622
21
-3.18713
0
LINE
8
BLACK
6
CONTINUOUS
10
4.23622
20
-3.18713
11
4.24587
21
-3.18618
0
LINE
8
BLACK
6
CONTINUOUS
10
4.24587
20
-3.18618
11
4.25551
21
-3.18713
0
LINE
8
BLACK
6
CONTINUOUS
10
4.47008
20
-3.18713
11
4.47936
21
-3.18994
0
LINE
8
BLACK
6
CONTINUOUS
10
4.47936
20
-3.18994
11
4.48791
21
-3.19451
0
LINE
8
BLACK
6
CONTINUOUS
10
4.48791
20
-3.19451
11
4.4954
21
-3.20066
0
LINE
8
BLACK
6
CONTINUOUS
10
4.4954
20
-3.20066
11
4.50155
21
-3.20816
0
LINE
8
BLACK
6
CONTINUOUS
10
4.50155
20
-3.20816
11
4.50612
21
-3.21671
0
LINE
8
BLACK
6
CONTINUOUS
10
4.50612
20
-3.21671
11
4.50893
21
-3.22598
0
LINE
8
BLACK
6
CONTINUOUS
10
4.50893
20
-3.22598
11
4.50965
21
-3.23321
0
LINE
8
BLACK
6
CONTINUOUS
10
4.50965
20
-3.23321
11
4.50965
21
-3.31679
0
LINE
8
BLACK
6
CONTINUOUS
10
4.50965
20
-3.31679
11
4.50893
21
-3.32402
0
LINE
8
BLACK
6
CONTINUOUS
10
4.50893
20
-3.32402
11
4.50612
21
-3.33329
0
LINE
8
BLACK
6
CONTINUOUS
10
4.50612
20
-3.33329
11
4.50155
21
-3.34184
0
LINE
8
BLACK
6
CONTINUOUS
10
4.50155
20
-3.34184
11
4.4954
21
-3.34934
0
LINE
8
BLACK
6
CONTINUOUS
10
4.4954
20
-3.34934
11
4.48791
21
-3.35549
0
LINE
8
BLACK
6
CONTINUOUS
10
4.48791
20
-3.35549
11
4.47936
21
-3.36006
0
LINE
8
BLACK
6
CONTINUOUS
10
4.47936
20
-3.36006
11
4.47008
21
-3.36287
0
LINE
8
BLACK
6
CONTINUOUS
10
4.47008
20
-3.36287
11
4.46043
21
-3.36382
0
LINE
8
BLACK
6
CONTINUOUS
10
4.46043
20
-3.36382
11
4.45079
21
-3.36287
0
LINE
8
BLACK
6
CONTINUOUS
10
4.45079
20
-3.36287
11
4.44151
21
-3.36006
0
LINE
8
BLACK
6
CONTINUOUS
10
4.44151
20
-3.36006
11
4.43296
21
-3.35549
0
LINE
8
BLACK
6
CONTINUOUS
10
4.43296
20
-3.35549
11
4.42547
21
-3.34934
0
LINE
8
BLACK
6
CONTINUOUS
10
4.42547
20
-3.34934
11
4.41932
21
-3.34184
0
LINE
8
BLACK
6
CONTINUOUS
10
4.41932
20
-3.34184
11
4.41475
21
-3.33329
0
LINE
8
BLACK
6
CONTINUOUS
10
4.41475
20
-3.33329
11
4.41193
21
-3.32402
0
LINE
8
BLACK
6
CONTINUOUS
10
4.41193
20
-3.32402
11
4.41122
21
-3.31679
0
LINE
8
BLACK
6
CONTINUOUS
10
4.41122
20
-3.31679
11
4.41122
21
-3.23321
0
LINE
8
BLACK
6
CONTINUOUS
10
4.41122
20
-3.23321
11
4.41193
21
-3.22598
0
LINE
8
BLACK
6
CONTINUOUS
10
4.41193
20
-3.22598
11
4.41475
21
-3.21671
0
LINE
8
BLACK
6
CONTINUOUS
10
4.41475
20
-3.21671
11
4.41932
21
-3.20816
0
LINE
8
BLACK
6
CONTINUOUS
10
4.41932
20
-3.20816
11
4.42547
21
-3.20066
0
LINE
8
BLACK
6
CONTINUOUS
10
4.42547
20
-3.20066
11
4.43296
21
-3.19451
0
LINE
8
BLACK
6
CONTINUOUS
10
4.43296
20
-3.19451
11
4.44151
21
-3.18994
0
LINE
8
BLACK
6
CONTINUOUS
10
4.44151
20
-3.18994
11
4.45079
21
-3.18713
0
LINE
8
BLACK
6
CONTINUOUS
10
4.45079
20
-3.18713
11
4.46043
21
-3.18618
0
LINE
8
BLACK
6
CONTINUOUS
10
4.46043
20
-3.18618
11
4.47008
21
-3.18713
0
LINE
8
BLACK
6
CONTINUOUS
10
3.58051
20
-3.18713
11
3.58979
21
-3.18994
0
LINE
8
BLACK
6
CONTINUOUS
10
3.58979
20
-3.18994
11
3.59834
21
-3.19451
0
LINE
8
BLACK
6
CONTINUOUS
10
3.59834
20
-3.19451
11
3.60583
21
-3.20066
0
LINE
8
BLACK
6
CONTINUOUS
10
3.60583
20
-3.20066
11
3.61198
21
-3.20816
0
LINE
8
BLACK
6
CONTINUOUS
10
3.61198
20
-3.20816
11
3.61655
21
-3.21671
0
LINE
8
BLACK
6
CONTINUOUS
10
3.61655
20
-3.21671
11
3.61937
21
-3.22598
0
LINE
8
BLACK
6
CONTINUOUS
10
3.61937
20
-3.22598
11
3.62008
21
-3.23321
0
LINE
8
BLACK
6
CONTINUOUS
10
3.62008
20
-3.23321
11
3.62008
21
-3.31679
0
LINE
8
BLACK
6
CONTINUOUS
10
3.62008
20
-3.31679
11
3.61937
21
-3.32402
0
LINE
8
BLACK
6
CONTINUOUS
10
3.61937
20
-3.32402
11
3.61655
21
-3.33329
0
LINE
8
BLACK
6
CONTINUOUS
10
3.61655
20
-3.33329
11
3.61198
21
-3.34184
0
LINE
8
BLACK
6
CONTINUOUS
10
3.61198
20
-3.34184
11
3.60583
21
-3.34934
0
LINE
8
BLACK
6
CONTINUOUS
10
3.60583
20
-3.34934
11
3.59834
21
-3.35549
0
LINE
8
BLACK
6
CONTINUOUS
10
3.59834
20
-3.35549
11
3.58979
21
-3.36006
0
LINE
8
BLACK
6
CONTINUOUS
10
3.58979
20
-3.36006
11
3.58051
21
-3.36287
0
LINE
8
BLACK
6
CONTINUOUS
10
3.58051
20
-3.36287
11
3.57087
21
-3.36382
0
LINE
8
BLACK
6
CONTINUOUS
10
3.57087
20
-3.36382
11
3.56122
21
-3.36287
0
LINE
8
BLACK
6
CONTINUOUS
10
3.56122
20
-3.36287
11
3.55194
21
-3.36006
0
LINE
8
BLACK
6
CONTINUOUS
10
3.55194
20
-3.36006
11
3.54339
21
-3.35549
0
LINE
8
BLACK
6
CONTINUOUS
10
3.54339
20
-3.35549
11
3.5359
21
-3.34934
0
LINE
8
BLACK
6
CONTINUOUS
10
3.5359
20
-3.34934
11
3.52975
21
-3.34184
0
LINE
8
BLACK
6
CONTINUOUS
10
3.52975
20
-3.34184
11
3.52518
21
-3.33329
0
LINE
8
BLACK
6
CONTINUOUS
10
3.52518
20
-3.33329
11
3.52237
21
-3.32402
0
LINE
8
BLACK
6
CONTINUOUS
10
3.52237
20
-3.32402
11
3.52165
21
-3.31679
0
LINE
8
BLACK
6
CONTINUOUS
10
3.52165
20
-3.31679
11
3.52165
21
-3.23321
0
LINE
8
BLACK
6
CONTINUOUS
10
3.52165
20
-3.23321
11
3.52237
21
-3.22598
0
LINE
8
BLACK
6
CONTINUOUS
10
3.52237
20
-3.22598
11
3.52518
21
-3.21671
0
LINE
8
BLACK
6
CONTINUOUS
10
3.52518
20
-3.21671
11
3.52975
21
-3.20816
0
LINE
8
BLACK
6
CONTINUOUS
10
3.52975
20
-3.20816
11
3.5359
21
-3.20066
0
LINE
8
BLACK
6
CONTINUOUS
10
3.5359
20
-3.20066
11
3.54339
21
-3.19451
0
LINE
8
BLACK
6
CONTINUOUS
10
3.54339
20
-3.19451
11
3.55194
21
-3.18994
0
LINE
8
BLACK
6
CONTINUOUS
10
3.55194
20
-3.18994
11
3.56122
21
-3.18713
0
LINE
8
BLACK
6
CONTINUOUS
10
3.56122
20
-3.18713
11
3.57087
21
-3.18618
0
LINE
8
BLACK
6
CONTINUOUS
10
3.57087
20
-3.18618
11
3.58051
21
-3.18713
0
LINE
8
BLACK
6
CONTINUOUS
10
3.79508
20
-3.18713
11
3.80436
21
-3.18994
0
LINE
8
BLACK
6
CONTINUOUS
10
3.80436
20
-3.18994
11
3.81291
21
-3.19451
0
LINE
8
BLACK
6
CONTINUOUS
10
3.81291
20
-3.19451
11
3.8204
21
-3.20066
0
LINE
8
BLACK
6
CONTINUOUS
10
3.8204
20
-3.20066
11
3.82655
21
-3.20816
0
LINE
8
BLACK
6
CONTINUOUS
10
3.82655
20
-3.20816
11
3.83112
21
-3.21671
0
LINE
8
BLACK
6
CONTINUOUS
10
3.83112
20
-3.21671
11
3.83393
21
-3.22598
0
LINE
8
BLACK
6
CONTINUOUS
10
3.83393
20
-3.22598
11
3.83465
21
-3.23321
0
LINE
8
BLACK
6
CONTINUOUS
10
3.83465
20
-3.23321
11
3.83465
21
-3.31679
0
LINE
8
BLACK
6
CONTINUOUS
10
3.83465
20
-3.31679
11
3.83393
21
-3.32402
0
LINE
8
BLACK
6
CONTINUOUS
10
3.83393
20
-3.32402
11
3.83112
21
-3.33329
0
LINE
8
BLACK
6
CONTINUOUS
10
3.83112
20
-3.33329
11
3.82655
21
-3.34184
0
LINE
8
BLACK
6
CONTINUOUS
10
3.82655
20
-3.34184
11
3.8204
21
-3.34934
0
LINE
8
BLACK
6
CONTINUOUS
10
3.8204
20
-3.34934
11
3.81291
21
-3.35549
0
LINE
8
BLACK
6
CONTINUOUS
10
3.81291
20
-3.35549
11
3.80436
21
-3.36006
0
LINE
8
BLACK
6
CONTINUOUS
10
3.80436
20
-3.36006
11
3.79508
21
-3.36287
0
LINE
8
BLACK
6
CONTINUOUS
10
3.79508
20
-3.36287
11
3.78543
21
-3.36382
0
LINE
8
BLACK
6
CONTINUOUS
10
3.78543
20
-3.36382
11
3.77579
21
-3.36287
0
LINE
8
BLACK
6
CONTINUOUS
10
3.77579
20
-3.36287
11
3.76651
21
-3.36006
0
LINE
8
BLACK
6
CONTINUOUS
10
3.76651
20
-3.36006
11
3.75796
21
-3.35549
0
LINE
8
BLACK
6
CONTINUOUS
10
3.75796
20
-3.35549
11
3.75047
21
-3.34934
0
LINE
8
BLACK
6
CONTINUOUS
10
3.75047
20
-3.34934
11
3.74432
21
-3.34184
0
LINE
8
BLACK
6
CONTINUOUS
10
3.74432
20
-3.34184
11
3.73975
21
-3.33329
0
LINE
8
BLACK
6
CONTINUOUS
10
3.73975
20
-3.33329
11
3.73693
21
-3.32402
0
LINE
8
BLACK
6
CONTINUOUS
10
3.73693
20
-3.32402
11
3.73622
21
-3.31679
0
LINE
8
BLACK
6
CONTINUOUS
10
3.73622
20
-3.31679
11
3.73622
21
-3.23321
0
LINE
8
BLACK
6
CONTINUOUS
10
3.73622
20
-3.23321
11
3.73693
21
-3.22598
0
LINE
8
BLACK
6
CONTINUOUS
10
3.73693
20
-3.22598
11
3.73975
21
-3.21671
0
LINE
8
BLACK
6
CONTINUOUS
10
3.73975
20
-3.21671
11
3.74432
21
-3.20816
0
LINE
8
BLACK
6
CONTINUOUS
10
3.74432
20
-3.20816
11
3.75047
21
-3.20066
0
LINE
8
BLACK
6
CONTINUOUS
10
3.75047
20
-3.20066
11
3.75796
21
-3.19451
0
LINE
8
BLACK
6
CONTINUOUS
10
3.75796
20
-3.19451
11
3.76651
21
-3.18994
0
LINE
8
BLACK
6
CONTINUOUS
10
3.76651
20
-3.18994
11
3.77579
21
-3.18713
0
LINE
8
BLACK
6
CONTINUOUS
10
3.77579
20
-3.18713
11
3.78543
21
-3.18618
0
LINE
8
BLACK
6
CONTINUOUS
10
3.78543
20
-3.18618
11
3.79508
21
-3.18713
0
LINE
8
BLACK
6
CONTINUOUS
10
2.90551
20
-3.18713
11
2.91479
21
-3.18994
0
LINE
8
BLACK
6
CONTINUOUS
10
2.91479
20
-3.18994
11
2.92334
21
-3.19451
0
LINE
8
BLACK
6
CONTINUOUS
10
2.92334
20
-3.19451
11
2.93083
21
-3.20066
0
LINE
8
BLACK
6
CONTINUOUS
10
2.93083
20
-3.20066
11
2.93698
21
-3.20816
0
LINE
8
BLACK
6
CONTINUOUS
10
2.93698
20
-3.20816
11
2.94155
21
-3.21671
0
LINE
8
BLACK
6
CONTINUOUS
10
2.94155
20
-3.21671
11
2.94437
21
-3.22598
0
LINE
8
BLACK
6
CONTINUOUS
10
2.94437
20
-3.22598
11
2.94508
21
-3.23321
0
LINE
8
BLACK
6
CONTINUOUS
10
2.94508
20
-3.23321
11
2.94508
21
-3.31679
0
LINE
8
BLACK
6
CONTINUOUS
10
2.94508
20
-3.31679
11
2.94437
21
-3.32402
0
LINE
8
BLACK
6
CONTINUOUS
10
2.94437
20
-3.32402
11
2.94155
21
-3.33329
0
LINE
8
BLACK
6
CONTINUOUS
10
2.94155
20
-3.33329
11
2.93698
21
-3.34184
0
LINE
8
BLACK
6
CONTINUOUS
10
2.93698
20
-3.34184
11
2.93083
21
-3.34934
0
LINE
8
BLACK
6
CONTINUOUS
10
2.93083
20
-3.34934
11
2.92334
21
-3.35549
0
LINE
8
BLACK
6
CONTINUOUS
10
2.92334
20
-3.35549
11
2.91479
21
-3.36006
0
LINE
8
BLACK
6
CONTINUOUS
10
2.91479
20
-3.36006
11
2.90551
21
-3.36287
0
LINE
8
BLACK
6
CONTINUOUS
10
2.90551
20
-3.36287
11
2.89587
21
-3.36382
0
LINE
8
BLACK
6
CONTINUOUS
10
2.89587
20
-3.36382
11
2.88622
21
-3.36287
0
LINE
8
BLACK
6
CONTINUOUS
10
2.88622
20
-3.36287
11
2.87694
21
-3.36006
0
LINE
8
BLACK
6
CONTINUOUS
10
2.87694
20
-3.36006
11
2.86839
21
-3.35549
0
LINE
8
BLACK
6
CONTINUOUS
10
2.86839
20
-3.35549
11
2.8609
21
-3.34934
0
LINE
8
BLACK
6
CONTINUOUS
10
2.8609
20
-3.34934
11
2.85475
21
-3.34184
0
LINE
8
BLACK
6
CONTINUOUS
10
2.85475
20
-3.34184
11
2.85018
21
-3.33329
0
LINE
8
BLACK
6
CONTINUOUS
10
2.85018
20
-3.33329
11
2.84737
21
-3.32402
0
LINE
8
BLACK
6
CONTINUOUS
10
2.84737
20
-3.32402
11
2.84665
21
-3.31679
0
LINE
8
BLACK
6
CONTINUOUS
10
2.84665
20
-3.31679
11
2.84665
21
-3.23321
0
LINE
8
BLACK
6
CONTINUOUS
10
2.84665
20
-3.23321
11
2.84737
21
-3.22598
0
LINE
8
BLACK
6
CONTINUOUS
10
2.84737
20
-3.22598
11
2.85018
21
-3.21671
0
LINE
8
BLACK
6
CONTINUOUS
10
2.85018
20
-3.21671
11
2.85475
21
-3.20816
0
LINE
8
BLACK
6
CONTINUOUS
10
2.85475
20
-3.20816
11
2.8609
21
-3.20066
0
LINE
8
BLACK
6
CONTINUOUS
10
2.8609
20
-3.20066
11
2.86839
21
-3.19451
0
LINE
8
BLACK
6
CONTINUOUS
10
2.86839
20
-3.19451
11
2.87694
21
-3.18994
0
LINE
8
BLACK
6
CONTINUOUS
10
2.87694
20
-3.18994
11
2.88622
21
-3.18713
0
LINE
8
BLACK
6
CONTINUOUS
10
2.88622
20
-3.18713
11
2.89587
21
-3.18618
0
LINE
8
BLACK
6
CONTINUOUS
10
2.89587
20
-3.18618
11
2.90551
21
-3.18713
0
LINE
8
BLACK
6
CONTINUOUS
10
3.12008
20
-3.18713
11
3.12936
21
-3.18994
0
LINE
8
BLACK
6
CONTINUOUS
10
3.12936
20
-3.18994
11
3.13791
21
-3.19451
0
LINE
8
BLACK
6
CONTINUOUS
10
3.13791
20
-3.19451
11
3.1454
21
-3.20066
0
LINE
8
BLACK
6
CONTINUOUS
10
3.1454
20
-3.20066
11
3.15155
21
-3.20816
0
LINE
8
BLACK
6
CONTINUOUS
10
3.15155
20
-3.20816
11
3.15612
21
-3.21671
0
LINE
8
BLACK
6
CONTINUOUS
10
3.15612
20
-3.21671
11
3.15893
21
-3.22598
0
LINE
8
BLACK
6
CONTINUOUS
10
3.15893
20
-3.22598
11
3.15965
21
-3.23321
0
LINE
8
BLACK
6
CONTINUOUS
10
3.15965
20
-3.23321
11
3.15965
21
-3.31679
0
LINE
8
BLACK
6
CONTINUOUS
10
3.15965
20
-3.31679
11
3.15893
21
-3.32402
0
LINE
8
BLACK
6
CONTINUOUS
10
3.15893
20
-3.32402
11
3.15612
21
-3.33329
0
LINE
8
BLACK
6
CONTINUOUS
10
3.15612
20
-3.33329
11
3.15155
21
-3.34184
0
LINE
8
BLACK
6
CONTINUOUS
10
3.15155
20
-3.34184
11
3.1454
21
-3.34934
0
LINE
8
BLACK
6
CONTINUOUS
10
3.1454
20
-3.34934
11
3.13791
21
-3.35549
0
LINE
8
BLACK
6
CONTINUOUS
10
3.13791
20
-3.35549
11
3.12936
21
-3.36006
0
LINE
8
BLACK
6
CONTINUOUS
10
3.12936
20
-3.36006
11
3.12008
21
-3.36287
0
LINE
8
BLACK
6
CONTINUOUS
10
3.12008
20
-3.36287
11
3.11043
21
-3.36382
0
LINE
8
BLACK
6
CONTINUOUS
10
3.11043
20
-3.36382
11
3.10079
21
-3.36287
0
LINE
8
BLACK
6
CONTINUOUS
10
3.10079
20
-3.36287
11
3.09151
21
-3.36006
0
LINE
8
BLACK
6
CONTINUOUS
10
3.09151
20
-3.36006
11
3.08296
21
-3.35549
0
LINE
8
BLACK
6
CONTINUOUS
10
3.08296
20
-3.35549
11
3.07547
21
-3.34934
0
LINE
8
BLACK
6
CONTINUOUS
10
3.07547
20
-3.34934
11
3.06932
21
-3.34184
0
LINE
8
BLACK
6
CONTINUOUS
10
3.06932
20
-3.34184
11
3.06475
21
-3.33329
0
LINE
8
BLACK
6
CONTINUOUS
10
3.06475
20
-3.33329
11
3.06193
21
-3.32402
0
LINE
8
BLACK
6
CONTINUOUS
10
3.06193
20
-3.32402
11
3.06122
21
-3.31679
0
LINE
8
BLACK
6
CONTINUOUS
10
3.06122
20
-3.31679
11
3.06122
21
-3.23321
0
LINE
8
BLACK
6
CONTINUOUS
10
3.06122
20
-3.23321
11
3.06193
21
-3.22598
0
LINE
8
BLACK
6
CONTINUOUS
10
3.06193
20
-3.22598
11
3.06475
21
-3.21671
0
LINE
8
BLACK
6
CONTINUOUS
10
3.06475
20
-3.21671
11
3.06932
21
-3.20816
0
LINE
8
BLACK
6
CONTINUOUS
10
3.06932
20
-3.20816
11
3.07547
21
-3.20066
0
LINE
8
BLACK
6
CONTINUOUS
10
3.07547
20
-3.20066
11
3.08296
21
-3.19451
0
LINE
8
BLACK
6
CONTINUOUS
10
3.08296
20
-3.19451
11
3.09151
21
-3.18994
0
LINE
8
BLACK
6
CONTINUOUS
10
3.09151
20
-3.18994
11
3.10079
21
-3.18713
0
LINE
8
BLACK
6
CONTINUOUS
10
3.10079
20
-3.18713
11
3.11043
21
-3.18618
0
LINE
8
BLACK
6
CONTINUOUS
10
3.11043
20
-3.18618
11
3.12008
21
-3.18713
0
LINE
8
BLACK
6
CONTINUOUS
10
2.23051
20
-3.18713
11
2.23979
21
-3.18994
0
LINE
8
BLACK
6
CONTINUOUS
10
2.23979
20
-3.18994
11
2.24834
21
-3.19451
0
LINE
8
BLACK
6
CONTINUOUS
10
2.24834
20
-3.19451
11
2.25583
21
-3.20066
0
LINE
8
BLACK
6
CONTINUOUS
10
2.25583
20
-3.20066
11
2.26198
21
-3.20816
0
LINE
8
BLACK
6
CONTINUOUS
10
2.26198
20
-3.20816
11
2.26655
21
-3.21671
0
LINE
8
BLACK
6
CONTINUOUS
10
2.26655
20
-3.21671
11
2.26937
21
-3.22598
0
LINE
8
BLACK
6
CONTINUOUS
10
2.26937
20
-3.22598
11
2.27008
21
-3.23321
0
LINE
8
BLACK
6
CONTINUOUS
10
2.27008
20
-3.23321
11
2.27008
21
-3.31679
0
LINE
8
BLACK
6
CONTINUOUS
10
2.27008
20
-3.31679
11
2.26937
21
-3.32402
0
LINE
8
BLACK
6
CONTINUOUS
10
2.26937
20
-3.32402
11
2.26655
21
-3.33329
0
LINE
8
BLACK
6
CONTINUOUS
10
2.26655
20
-3.33329
11
2.26198
21
-3.34184
0
LINE
8
BLACK
6
CONTINUOUS
10
2.26198
20
-3.34184
11
2.25583
21
-3.34934
0
LINE
8
BLACK
6
CONTINUOUS
10
2.25583
20
-3.34934
11
2.24834
21
-3.35549
0
LINE
8
BLACK
6
CONTINUOUS
10
2.24834
20
-3.35549
11
2.23979
21
-3.36006
0
LINE
8
BLACK
6
CONTINUOUS
10
2.23979
20
-3.36006
11
2.23051
21
-3.36287
0
LINE
8
BLACK
6
CONTINUOUS
10
2.23051
20
-3.36287
11
2.22087
21
-3.36382
0
LINE
8
BLACK
6
CONTINUOUS
10
2.22087
20
-3.36382
11
2.21122
21
-3.36287
0
LINE
8
BLACK
6
CONTINUOUS
10
2.21122
20
-3.36287
11
2.20194
21
-3.36006
0
LINE
8
BLACK
6
CONTINUOUS
10
2.20194
20
-3.36006
11
2.19339
21
-3.35549
0
LINE
8
BLACK
6
CONTINUOUS
10
2.19339
20
-3.35549
11
2.1859
21
-3.34934
0
LINE
8
BLACK
6
CONTINUOUS
10
2.1859
20
-3.34934
11
2.17975
21
-3.34184
0
LINE
8
BLACK
6
CONTINUOUS
10
2.17975
20
-3.34184
11
2.17518
21
-3.33329
0
LINE
8
BLACK
6
CONTINUOUS
10
2.17518
20
-3.33329
11
2.17237
21
-3.32402
0
LINE
8
BLACK
6
CONTINUOUS
10
2.17237
20
-3.32402
11
2.17165
21
-3.31679
0
LINE
8
BLACK
6
CONTINUOUS
10
2.17165
20
-3.31679
11
2.17165
21
-3.23321
0
LINE
8
BLACK
6
CONTINUOUS
10
2.17165
20
-3.23321
11
2.17237
21
-3.22598
0
LINE
8
BLACK
6
CONTINUOUS
10
2.17237
20
-3.22598
11
2.17518
21
-3.21671
0
LINE
8
BLACK
6
CONTINUOUS
10
2.17518
20
-3.21671
11
2.17975
21
-3.20816
0
LINE
8
BLACK
6
CONTINUOUS
10
2.17975
20
-3.20816
11
2.1859
21
-3.20066
0
LINE
8
BLACK
6
CONTINUOUS
10
2.1859
20
-3.20066
11
2.19339
21
-3.19451
0
LINE
8
BLACK
6
CONTINUOUS
10
2.19339
20
-3.19451
11
2.20194
21
-3.18994
0
LINE
8
BLACK
6
CONTINUOUS
10
2.20194
20
-3.18994
11
2.21122
21
-3.18713
0
LINE
8
BLACK
6
CONTINUOUS
10
2.21122
20
-3.18713
11
2.22087
21
-3.18618
0
LINE
8
BLACK
6
CONTINUOUS
10
2.22087
20
-3.18618
11
2.23051
21
-3.18713
0
LINE
8
BLACK
6
CONTINUOUS
10
7.63051
20
-3.18713
11
7.63979
21
-3.18994
0
LINE
8
BLACK
6
CONTINUOUS
10
7.63979
20
-3.18994
11
7.64834
21
-3.19451
0
LINE
8
BLACK
6
CONTINUOUS
10
7.64834
20
-3.19451
11
7.65583
21
-3.20066
0
LINE
8
BLACK
6
CONTINUOUS
10
7.65583
20
-3.20066
11
7.66198
21
-3.20816
0
LINE
8
BLACK
6
CONTINUOUS
10
7.66198
20
-3.20816
11
7.66655
21
-3.21671
0
LINE
8
BLACK
6
CONTINUOUS
10
7.66655
20
-3.21671
11
7.66937
21
-3.22598
0
LINE
8
BLACK
6
CONTINUOUS
10
7.66937
20
-3.22598
11
7.67008
21
-3.23321
0
LINE
8
BLACK
6
CONTINUOUS
10
7.67008
20
-3.23321
11
7.67008
21
-3.31679
0
LINE
8
BLACK
6
CONTINUOUS
10
7.67008
20
-3.31679
11
7.66937
21
-3.32402
0
LINE
8
BLACK
6
CONTINUOUS
10
7.66937
20
-3.32402
11
7.66655
21
-3.33329
0
LINE
8
BLACK
6
CONTINUOUS
10
7.66655
20
-3.33329
11
7.66198
21
-3.34184
0
LINE
8
BLACK
6
CONTINUOUS
10
7.66198
20
-3.34184
11
7.65583
21
-3.34934
0
LINE
8
BLACK
6
CONTINUOUS
10
7.65583
20
-3.34934
11
7.64834
21
-3.35549
0
LINE
8
BLACK
6
CONTINUOUS
10
7.64834
20
-3.35549
11
7.63979
21
-3.36006
0
LINE
8
BLACK
6
CONTINUOUS
10
7.63979
20
-3.36006
11
7.63051
21
-3.36287
0
LINE
8
BLACK
6
CONTINUOUS
10
7.63051
20
-3.36287
11
7.62087
21
-3.36382
0
LINE
8
BLACK
6
CONTINUOUS
10
7.62087
20
-3.36382
11
7.61122
21
-3.36287
0
LINE
8
BLACK
6
CONTINUOUS
10
7.61122
20
-3.36287
11
7.60194
21
-3.36006
0
LINE
8
BLACK
6
CONTINUOUS
10
7.60194
20
-3.36006
11
7.59339
21
-3.35549
0
LINE
8
BLACK
6
CONTINUOUS
10
7.59339
20
-3.35549
11
7.5859
21
-3.34934
0
LINE
8
BLACK
6
CONTINUOUS
10
7.5859
20
-3.34934
11
7.57975
21
-3.34184
0
LINE
8
BLACK
6
CONTINUOUS
10
7.57975
20
-3.34184
11
7.57518
21
-3.33329
0
LINE
8
BLACK
6
CONTINUOUS
10
7.57518
20
-3.33329
11
7.57237
21
-3.32402
0
LINE
8
BLACK
6
CONTINUOUS
10
7.57237
20
-3.32402
11
7.57165
21
-3.31679
0
LINE
8
BLACK
6
CONTINUOUS
10
7.57165
20
-3.31679
11
7.57165
21
-3.23321
0
LINE
8
BLACK
6
CONTINUOUS
10
7.57165
20
-3.23321
11
7.57237
21
-3.22598
0
LINE
8
BLACK
6
CONTINUOUS
10
7.57237
20
-3.22598
11
7.57518
21
-3.21671
0
LINE
8
BLACK
6
CONTINUOUS
10
7.57518
20
-3.21671
11
7.57975
21
-3.20816
0
LINE
8
BLACK
6
CONTINUOUS
10
7.57975
20
-3.20816
11
7.5859
21
-3.20066
0
LINE
8
BLACK
6
CONTINUOUS
10
7.5859
20
-3.20066
11
7.59339
21
-3.19451
0
LINE
8
BLACK
6
CONTINUOUS
10
7.59339
20
-3.19451
11
7.60194
21
-3.18994
0
LINE
8
BLACK
6
CONTINUOUS
10
7.60194
20
-3.18994
11
7.61122
21
-3.18713
0
LINE
8
BLACK
6
CONTINUOUS
10
7.61122
20
-3.18713
11
7.62087
21
-3.18618
0
LINE
8
BLACK
6
CONTINUOUS
10
7.62087
20
-3.18618
11
7.63051
21
-3.18713
0
LINE
8
BLACK
6
CONTINUOUS
10
2.44508
20
-3.18713
11
2.45436
21
-3.18994
0
LINE
8
BLACK
6
CONTINUOUS
10
2.45436
20
-3.18994
11
2.46291
21
-3.19451
0
LINE
8
BLACK
6
CONTINUOUS
10
2.46291
20
-3.19451
11
2.4704
21
-3.20066
0
LINE
8
BLACK
6
CONTINUOUS
10
2.4704
20
-3.20066
11
2.47655
21
-3.20816
0
LINE
8
BLACK
6
CONTINUOUS
10
2.47655
20
-3.20816
11
2.48112
21
-3.21671
0
LINE
8
BLACK
6
CONTINUOUS
10
2.48112
20
-3.21671
11
2.48393
21
-3.22598
0
LINE
8
BLACK
6
CONTINUOUS
10
2.48393
20
-3.22598
11
2.48465
21
-3.23321
0
LINE
8
BLACK
6
CONTINUOUS
10
2.48465
20
-3.23321
11
2.48465
21
-3.31679
0
LINE
8
BLACK
6
CONTINUOUS
10
2.48465
20
-3.31679
11
2.48393
21
-3.32402
0
LINE
8
BLACK
6
CONTINUOUS
10
2.48393
20
-3.32402
11
2.48112
21
-3.33329
0
LINE
8
BLACK
6
CONTINUOUS
10
2.48112
20
-3.33329
11
2.47655
21
-3.34184
0
LINE
8
BLACK
6
CONTINUOUS
10
2.47655
20
-3.34184
11
2.4704
21
-3.34934
0
LINE
8
BLACK
6
CONTINUOUS
10
2.4704
20
-3.34934
11
2.46291
21
-3.35549
0
LINE
8
BLACK
6
CONTINUOUS
10
2.46291
20
-3.35549
11
2.45436
21
-3.36006
0
LINE
8
BLACK
6
CONTINUOUS
10
2.45436
20
-3.36006
11
2.44508
21
-3.36287
0
LINE
8
BLACK
6
CONTINUOUS
10
2.44508
20
-3.36287
11
2.43543
21
-3.36382
0
LINE
8
BLACK
6
CONTINUOUS
10
2.43543
20
-3.36382
11
2.42579
21
-3.36287
0
LINE
8
BLACK
6
CONTINUOUS
10
2.42579
20
-3.36287
11
2.41651
21
-3.36006
0
LINE
8
BLACK
6
CONTINUOUS
10
2.41651
20
-3.36006
11
2.40796
21
-3.35549
0
LINE
8
BLACK
6
CONTINUOUS
10
2.40796
20
-3.35549
11
2.40047
21
-3.34934
0
LINE
8
BLACK
6
CONTINUOUS
10
2.40047
20
-3.34934
11
2.39432
21
-3.34184
0
LINE
8
BLACK
6
CONTINUOUS
10
2.39432
20
-3.34184
11
2.38975
21
-3.33329
0
LINE
8
BLACK
6
CONTINUOUS
10
2.38975
20
-3.33329
11
2.38693
21
-3.32402
0
LINE
8
BLACK
6
CONTINUOUS
10
2.38693
20
-3.32402
11
2.38622
21
-3.31679
0
LINE
8
BLACK
6
CONTINUOUS
10
2.38622
20
-3.31679
11
2.38622
21
-3.23321
0
LINE
8
BLACK
6
CONTINUOUS
10
2.38622
20
-3.23321
11
2.38693
21
-3.22598
0
LINE
8
BLACK
6
CONTINUOUS
10
2.38693
20
-3.22598
11
2.38975
21
-3.21671
0
LINE
8
BLACK
6
CONTINUOUS
10
2.38975
20
-3.21671
11
2.39432
21
-3.20816
0
LINE
8
BLACK
6
CONTINUOUS
10
2.39432
20
-3.20816
11
2.40047
21
-3.20066
0
LINE
8
BLACK
6
CONTINUOUS
10
2.40047
20
-3.20066
11
2.40796
21
-3.19451
0
LINE
8
BLACK
6
CONTINUOUS
10
2.40796
20
-3.19451
11
2.41651
21
-3.18994
0
LINE
8
BLACK
6
CONTINUOUS
10
2.41651
20
-3.18994
11
2.42579
21
-3.18713
0
LINE
8
BLACK
6
CONTINUOUS
10
2.42579
20
-3.18713
11
2.43543
21
-3.18618
0
LINE
8
BLACK
6
CONTINUOUS
10
2.43543
20
-3.18618
11
2.44508
21
-3.18713
0
LINE
8
BLACK
6
CONTINUOUS
10
1.55551
20
-3.18713
11
1.56479
21
-3.18994
0
LINE
8
BLACK
6
CONTINUOUS
10
1.56479
20
-3.18994
11
1.57334
21
-3.19451
0
LINE
8
BLACK
6
CONTINUOUS
10
1.57334
20
-3.19451
11
1.58083
21
-3.20066
0
LINE
8
BLACK
6
CONTINUOUS
10
1.58083
20
-3.20066
11
1.58698
21
-3.20816
0
LINE
8
BLACK
6
CONTINUOUS
10
1.58698
20
-3.20816
11
1.59155
21
-3.21671
0
LINE
8
BLACK
6
CONTINUOUS
10
1.59155
20
-3.21671
11
1.59437
21
-3.22598
0
LINE
8
BLACK
6
CONTINUOUS
10
1.59437
20
-3.22598
11
1.59508
21
-3.23321
0
LINE
8
BLACK
6
CONTINUOUS
10
1.59508
20
-3.23321
11
1.59508
21
-3.31679
0
LINE
8
BLACK
6
CONTINUOUS
10
1.59508
20
-3.31679
11
1.59437
21
-3.32402
0
LINE
8
BLACK
6
CONTINUOUS
10
1.59437
20
-3.32402
11
1.59155
21
-3.33329
0
LINE
8
BLACK
6
CONTINUOUS
10
1.59155
20
-3.33329
11
1.58698
21
-3.34184
0
LINE
8
BLACK
6
CONTINUOUS
10
1.58698
20
-3.34184
11
1.58083
21
-3.34934
0
LINE
8
BLACK
6
CONTINUOUS
10
1.58083
20
-3.34934
11
1.57334
21
-3.35549
0
LINE
8
BLACK
6
CONTINUOUS
10
1.57334
20
-3.35549
11
1.56479
21
-3.36006
0
LINE
8
BLACK
6
CONTINUOUS
10
1.56479
20
-3.36006
11
1.55551
21
-3.36287
0
LINE
8
BLACK
6
CONTINUOUS
10
1.55551
20
-3.36287
11
1.54587
21
-3.36382
0
LINE
8
BLACK
6
CONTINUOUS
10
1.54587
20
-3.36382
11
1.53622
21
-3.36287
0
LINE
8
BLACK
6
CONTINUOUS
10
1.53622
20
-3.36287
11
1.52694
21
-3.36006
0
LINE
8
BLACK
6
CONTINUOUS
10
1.52694
20
-3.36006
11
1.51839
21
-3.35549
0
LINE
8
BLACK
6
CONTINUOUS
10
1.51839
20
-3.35549
11
1.5109
21
-3.34934
0
LINE
8
BLACK
6
CONTINUOUS
10
1.5109
20
-3.34934
11
1.50475
21
-3.34184
0
LINE
8
BLACK
6
CONTINUOUS
10
1.50475
20
-3.34184
11
1.50018
21
-3.33329
0
LINE
8
BLACK
6
CONTINUOUS
10
1.50018
20
-3.33329
11
1.49737
21
-3.32402
0
LINE
8
BLACK
6
CONTINUOUS
10
1.49737
20
-3.32402
11
1.49665
21
-3.31679
0
LINE
8
BLACK
6
CONTINUOUS
10
1.49665
20
-3.31679
11
1.49665
21
-3.23321
0
LINE
8
BLACK
6
CONTINUOUS
10
1.49665
20
-3.23321
11
1.49737
21
-3.22598
0
LINE
8
BLACK
6
CONTINUOUS
10
1.49737
20
-3.22598
11
1.50018
21
-3.21671
0
LINE
8
BLACK
6
CONTINUOUS
10
1.50018
20
-3.21671
11
1.50475
21
-3.20816
0
LINE
8
BLACK
6
CONTINUOUS
10
1.50475
20
-3.20816
11
1.5109
21
-3.20066
0
LINE
8
BLACK
6
CONTINUOUS
10
1.5109
20
-3.20066
11
1.51839
21
-3.19451
0
LINE
8
BLACK
6
CONTINUOUS
10
1.51839
20
-3.19451
11
1.52694
21
-3.18994
0
LINE
8
BLACK
6
CONTINUOUS
10
1.52694
20
-3.18994
11
1.53622
21
-3.18713
0
LINE
8
BLACK
6
CONTINUOUS
10
1.53622
20
-3.18713
11
1.54587
21
-3.18618
0
LINE
8
BLACK
6
CONTINUOUS
10
1.54587
20
-3.18618
11
1.55551
21
-3.18713
0
LINE
8
BLACK
6
CONTINUOUS
10
1.77008
20
-3.18713
11
1.77936
21
-3.18994
0
LINE
8
BLACK
6
CONTINUOUS
10
1.77936
20
-3.18994
11
1.78791
21
-3.19451
0
LINE
8
BLACK
6
CONTINUOUS
10
1.78791
20
-3.19451
11
1.7954
21
-3.20066
0
LINE
8
BLACK
6
CONTINUOUS
10
1.7954
20
-3.20066
11
1.80155
21
-3.20816
0
LINE
8
BLACK
6
CONTINUOUS
10
1.80155
20
-3.20816
11
1.80612
21
-3.21671
0
LINE
8
BLACK
6
CONTINUOUS
10
1.80612
20
-3.21671
11
1.80893
21
-3.22598
0
LINE
8
BLACK
6
CONTINUOUS
10
1.80893
20
-3.22598
11
1.80965
21
-3.23321
0
LINE
8
BLACK
6
CONTINUOUS
10
1.80965
20
-3.23321
11
1.80965
21
-3.31679
0
LINE
8
BLACK
6
CONTINUOUS
10
1.80965
20
-3.31679
11
1.80893
21
-3.32402
0
LINE
8
BLACK
6
CONTINUOUS
10
1.80893
20
-3.32402
11
1.80612
21
-3.33329
0
LINE
8
BLACK
6
CONTINUOUS
10
1.80612
20
-3.33329
11
1.80155
21
-3.34184
0
LINE
8
BLACK
6
CONTINUOUS
10
1.80155
20
-3.34184
11
1.7954
21
-3.34934
0
LINE
8
BLACK
6
CONTINUOUS
10
1.7954
20
-3.34934
11
1.78791
21
-3.35549
0
LINE
8
BLACK
6
CONTINUOUS
10
1.78791
20
-3.35549
11
1.77936
21
-3.36006
0
LINE
8
BLACK
6
CONTINUOUS
10
1.77936
20
-3.36006
11
1.77008
21
-3.36287
0
LINE
8
BLACK
6
CONTINUOUS
10
1.77008
20
-3.36287
11
1.76043
21
-3.36382
0
LINE
8
BLACK
6
CONTINUOUS
10
1.76043
20
-3.36382
11
1.75079
21
-3.36287
0
LINE
8
BLACK
6
CONTINUOUS
10
1.75079
20
-3.36287
11
1.74151
21
-3.36006
0
LINE
8
BLACK
6
CONTINUOUS
10
1.74151
20
-3.36006
11
1.73296
21
-3.35549
0
LINE
8
BLACK
6
CONTINUOUS
10
1.73296
20
-3.35549
11
1.72547
21
-3.34934
0
LINE
8
BLACK
6
CONTINUOUS
10
1.72547
20
-3.34934
11
1.71932
21
-3.34184
0
LINE
8
BLACK
6
CONTINUOUS
10
1.71932
20
-3.34184
11
1.71475
21
-3.33329
0
LINE
8
BLACK
6
CONTINUOUS
10
1.71475
20
-3.33329
11
1.71193
21
-3.32402
0
LINE
8
BLACK
6
CONTINUOUS
10
1.71193
20
-3.32402
11
1.71122
21
-3.31679
0
LINE
8
BLACK
6
CONTINUOUS
10
1.71122
20
-3.31679
11
1.71122
21
-3.23321
0
LINE
8
BLACK
6
CONTINUOUS
10
1.71122
20
-3.23321
11
1.71193
21
-3.22598
0
LINE
8
BLACK
6
CONTINUOUS
10
1.71193
20
-3.22598
11
1.71475
21
-3.21671
0
LINE
8
BLACK
6
CONTINUOUS
10
1.71475
20
-3.21671
11
1.71932
21
-3.20816
0
LINE
8
BLACK
6
CONTINUOUS
10
1.71932
20
-3.20816
11
1.72547
21
-3.20066
0
LINE
8
BLACK
6
CONTINUOUS
10
1.72547
20
-3.20066
11
1.73296
21
-3.19451
0
LINE
8
BLACK
6
CONTINUOUS
10
1.73296
20
-3.19451
11
1.74151
21
-3.18994
0
LINE
8
BLACK
6
CONTINUOUS
10
1.74151
20
-3.18994
11
1.75079
21
-3.18713
0
LINE
8
BLACK
6
CONTINUOUS
10
1.75079
20
-3.18713
11
1.76043
21
-3.18618
0
LINE
8
BLACK
6
CONTINUOUS
10
1.76043
20
-3.18618
11
1.77008
21
-3.18713
0
LINE
8
BLACK
6
CONTINUOUS
10
0.880514
20
-3.18713
11
0.88979
21
-3.18994
0
LINE
8
BLACK
6
CONTINUOUS
10
0.88979
20
-3.18994
11
0.898339
21
-3.19451
0
LINE
8
BLACK
6
CONTINUOUS
10
0.898339
20
-3.19451
11
0.905833
21
-3.20066
0
LINE
8
BLACK
6
CONTINUOUS
10
0.905833
20
-3.20066
11
0.911983
21
-3.20816
0
LINE
8
BLACK
6
CONTINUOUS
10
0.911983
20
-3.20816
11
0.916553
21
-3.21671
0
LINE
8
BLACK
6
CONTINUOUS
10
0.916553
20
-3.21671
11
0.919367
21
-3.22598
0
LINE
8
BLACK
6
CONTINUOUS
10
0.919367
20
-3.22598
11
0.920079
21
-3.23321
0
LINE
8
BLACK
6
CONTINUOUS
10
0.920079
20
-3.23321
11
0.920079
21
-3.31679
0
LINE
8
BLACK
6
CONTINUOUS
10
0.920079
20
-3.31679
11
0.919367
21
-3.32402
0
LINE
8
BLACK
6
CONTINUOUS
10
0.919367
20
-3.32402
11
0.916553
21
-3.33329
0
LINE
8
BLACK
6
CONTINUOUS
10
0.916553
20
-3.33329
11
0.911983
21
-3.34184
0
LINE
8
BLACK
6
CONTINUOUS
10
0.911983
20
-3.34184
11
0.905833
21
-3.34934
0
LINE
8
BLACK
6
CONTINUOUS
10
0.905833
20
-3.34934
11
0.898339
21
-3.35549
0
LINE
8
BLACK
6
CONTINUOUS
10
0.898339
20
-3.35549
11
0.88979
21
-3.36006
0
LINE
8
BLACK
6
CONTINUOUS
10
0.88979
20
-3.36006
11
0.880513
21
-3.36287
0
LINE
8
BLACK
6
CONTINUOUS
10
0.880513
20
-3.36287
11
0.870866
21
-3.36382
0
LINE
8
BLACK
6
CONTINUOUS
10
0.870866
20
-3.36382
11
0.861219
21
-3.36287
0
LINE
8
BLACK
6
CONTINUOUS
10
0.861219
20
-3.36287
11
0.851942
21
-3.36006
0
LINE
8
BLACK
6
CONTINUOUS
10
0.851942
20
-3.36006
11
0.843393
21
-3.35549
0
LINE
8
BLACK
6
CONTINUOUS
10
0.843393
20
-3.35549
11
0.835899
21
-3.34934
0
LINE
8
BLACK
6
CONTINUOUS
10
0.835899
20
-3.34934
11
0.829749
21
-3.34184
0
LINE
8
BLACK
6
CONTINUOUS
10
0.829749
20
-3.34184
11
0.82518
21
-3.33329
0
LINE
8
BLACK
6
CONTINUOUS
10
0.82518
20
-3.33329
11
0.822366
21
-3.32402
0
LINE
8
BLACK
6
CONTINUOUS
10
0.822366
20
-3.32402
11
0.821654
21
-3.31679
0
LINE
8
BLACK
6
CONTINUOUS
10
0.821654
20
-3.31679
11
0.821654
21
-3.23321
0
LINE
8
BLACK
6
CONTINUOUS
10
0.821654
20
-3.23321
11
0.822366
21
-3.22598
0
LINE
8
BLACK
6
CONTINUOUS
10
0.822366
20
-3.22598
11
0.82518
21
-3.21671
0
LINE
8
BLACK
6
CONTINUOUS
10
0.82518
20
-3.21671
11
0.829749
21
-3.20816
0
LINE
8
BLACK
6
CONTINUOUS
10
0.829749
20
-3.20816
11
0.835899
21
-3.20066
0
LINE
8
BLACK
6
CONTINUOUS
10
0.835899
20
-3.20066
11
0.843393
21
-3.19451
0
LINE
8
BLACK
6
CONTINUOUS
10
0.843393
20
-3.19451
11
0.851942
21
-3.18994
0
LINE
8
BLACK
6
CONTINUOUS
10
0.851942
20
-3.18994
11
0.861219
21
-3.18713
0
LINE
8
BLACK
6
CONTINUOUS
10
0.861219
20
-3.18713
11
0.870866
21
-3.18618
0
LINE
8
BLACK
6
CONTINUOUS
10
0.870866
20
-3.18618
11
0.880514
21
-3.18713
0
LINE
8
BLACK
6
CONTINUOUS
10
1.09508
20
-3.18713
11
1.10436
21
-3.18994
0
LINE
8
BLACK
6
CONTINUOUS
10
1.10436
20
-3.18994
11
1.11291
21
-3.19451
0
LINE
8
BLACK
6
CONTINUOUS
10
1.11291
20
-3.19451
11
1.1204
21
-3.20066
0
LINE
8
BLACK
6
CONTINUOUS
10
1.1204
20
-3.20066
11
1.12655
21
-3.20816
0
LINE
8
BLACK
6
CONTINUOUS
10
1.12655
20
-3.20816
11
1.13112
21
-3.21671
0
LINE
8
BLACK
6
CONTINUOUS
10
1.13112
20
-3.21671
11
1.13393
21
-3.22598
0
LINE
8
BLACK
6
CONTINUOUS
10
1.13393
20
-3.22598
11
1.13465
21
-3.23321
0
LINE
8
BLACK
6
CONTINUOUS
10
1.13465
20
-3.23321
11
1.13465
21
-3.31679
0
LINE
8
BLACK
6
CONTINUOUS
10
1.13465
20
-3.31679
11
1.13393
21
-3.32402
0
LINE
8
BLACK
6
CONTINUOUS
10
1.13393
20
-3.32402
11
1.13112
21
-3.33329
0
LINE
8
BLACK
6
CONTINUOUS
10
1.13112
20
-3.33329
11
1.12655
21
-3.34184
0
LINE
8
BLACK
6
CONTINUOUS
10
1.12655
20
-3.34184
11
1.1204
21
-3.34934
0
LINE
8
BLACK
6
CONTINUOUS
10
1.1204
20
-3.34934
11
1.11291
21
-3.35549
0
LINE
8
BLACK
6
CONTINUOUS
10
1.11291
20
-3.35549
11
1.10436
21
-3.36006
0
LINE
8
BLACK
6
CONTINUOUS
10
1.10436
20
-3.36006
11
1.09508
21
-3.36287
0
LINE
8
BLACK
6
CONTINUOUS
10
1.09508
20
-3.36287
11
1.08543
21
-3.36382
0
LINE
8
BLACK
6
CONTINUOUS
10
1.08543
20
-3.36382
11
1.07579
21
-3.36287
0
LINE
8
BLACK
6
CONTINUOUS
10
1.07579
20
-3.36287
11
1.06651
21
-3.36006
0
LINE
8
BLACK
6
CONTINUOUS
10
1.06651
20
-3.36006
11
1.05796
21
-3.35549
0
LINE
8
BLACK
6
CONTINUOUS
10
1.05796
20
-3.35549
11
1.05047
21
-3.34934
0
LINE
8
BLACK
6
CONTINUOUS
10
1.05047
20
-3.34934
11
1.04432
21
-3.34184
0
LINE
8
BLACK
6
CONTINUOUS
10
1.04432
20
-3.34184
11
1.03975
21
-3.33329
0
LINE
8
BLACK
6
CONTINUOUS
10
1.03975
20
-3.33329
11
1.03693
21
-3.32402
0
LINE
8
BLACK
6
CONTINUOUS
10
1.03693
20
-3.32402
11
1.03622
21
-3.31679
0
LINE
8
BLACK
6
CONTINUOUS
10
1.03622
20
-3.31679
11
1.03622
21
-3.23321
0
LINE
8
BLACK
6
CONTINUOUS
10
1.03622
20
-3.23321
11
1.03693
21
-3.22598
0
LINE
8
BLACK
6
CONTINUOUS
10
1.03693
20
-3.22598
11
1.03975
21
-3.21671
0
LINE
8
BLACK
6
CONTINUOUS
10
1.03975
20
-3.21671
11
1.04432
21
-3.20816
0
LINE
8
BLACK
6
CONTINUOUS
10
1.04432
20
-3.20816
11
1.05047
21
-3.20066
0
LINE
8
BLACK
6
CONTINUOUS
10
1.05047
20
-3.20066
11
1.05796
21
-3.19451
0
LINE
8
BLACK
6
CONTINUOUS
10
1.05796
20
-3.19451
11
1.06651
21
-3.18994
0
LINE
8
BLACK
6
CONTINUOUS
10
1.06651
20
-3.18994
11
1.07579
21
-3.18713
0
LINE
8
BLACK
6
CONTINUOUS
10
1.07579
20
-3.18713
11
1.08543
21
-3.18618
0
LINE
8
BLACK
6
CONTINUOUS
10
1.08543
20
-3.18618
11
1.09508
21
-3.18713
0
LINE
8
BLACK
6
CONTINUOUS
10
7.84508
20
-3.18713
11
7.85436
21
-3.18994
0
LINE
8
BLACK
6
CONTINUOUS
10
7.85436
20
-3.18994
11
7.86291
21
-3.19451
0
LINE
8
BLACK
6
CONTINUOUS
10
7.86291
20
-3.19451
11
7.8704
21
-3.20066
0
LINE
8
BLACK
6
CONTINUOUS
10
7.8704
20
-3.20066
11
7.87655
21
-3.20816
0
LINE
8
BLACK
6
CONTINUOUS
10
7.87655
20
-3.20816
11
7.88112
21
-3.21671
0
LINE
8
BLACK
6
CONTINUOUS
10
7.88112
20
-3.21671
11
7.88393
21
-3.22598
0
LINE
8
BLACK
6
CONTINUOUS
10
7.88393
20
-3.22598
11
7.88465
21
-3.23321
0
LINE
8
BLACK
6
CONTINUOUS
10
7.88465
20
-3.23321
11
7.88465
21
-3.31679
0
LINE
8
BLACK
6
CONTINUOUS
10
7.88465
20
-3.31679
11
7.88393
21
-3.32402
0
LINE
8
BLACK
6
CONTINUOUS
10
7.88393
20
-3.32402
11
7.88112
21
-3.33329
0
LINE
8
BLACK
6
CONTINUOUS
10
7.88112
20
-3.33329
11
7.87655
21
-3.34184
0
LINE
8
BLACK
6
CONTINUOUS
10
7.87655
20
-3.34184
11
7.8704
21
-3.34934
0
LINE
8
BLACK
6
CONTINUOUS
10
7.8704
20
-3.34934
11
7.86291
21
-3.35549
0
LINE
8
BLACK
6
CONTINUOUS
10
7.86291
20
-3.35549
11
7.85436
21
-3.36006
0
LINE
8
BLACK
6
CONTINUOUS
10
7.85436
20
-3.36006
11
7.84508
21
-3.36287
0
LINE
8
BLACK
6
CONTINUOUS
10
7.84508
20
-3.36287
11
7.83543
21
-3.36382
0
LINE
8
BLACK
6
CONTINUOUS
10
7.83543
20
-3.36382
11
7.82579
21
-3.36287
0
LINE
8
BLACK
6
CONTINUOUS
10
7.82579
20
-3.36287
11
7.81651
21
-3.36006
0
LINE
8
BLACK
6
CONTINUOUS
10
7.81651
20
-3.36006
11
7.80796
21
-3.35549
0
LINE
8
BLACK
6
CONTINUOUS
10
7.80796
20
-3.35549
11
7.80047
21
-3.34934
0
LINE
8
BLACK
6
CONTINUOUS
10
7.80047
20
-3.34934
11
7.79432
21
-3.34184
0
LINE
8
BLACK
6
CONTINUOUS
10
7.79432
20
-3.34184
11
7.78975
21
-3.33329
0
LINE
8
BLACK
6
CONTINUOUS
10
7.78975
20
-3.33329
11
7.78693
21
-3.32402
0
LINE
8
BLACK
6
CONTINUOUS
10
7.78693
20
-3.32402
11
7.78622
21
-3.31679
0
LINE
8
BLACK
6
CONTINUOUS
10
7.78622
20
-3.31679
11
7.78622
21
-3.23321
0
LINE
8
BLACK
6
CONTINUOUS
10
7.78622
20
-3.23321
11
7.78693
21
-3.22598
0
LINE
8
BLACK
6
CONTINUOUS
10
7.78693
20
-3.22598
11
7.78975
21
-3.21671
0
LINE
8
BLACK
6
CONTINUOUS
10
7.78975
20
-3.21671
11
7.79432
21
-3.20816
0
LINE
8
BLACK
6
CONTINUOUS
10
7.79432
20
-3.20816
11
7.80047
21
-3.20066
0
LINE
8
BLACK
6
CONTINUOUS
10
7.80047
20
-3.20066
11
7.80796
21
-3.19451
0
LINE
8
BLACK
6
CONTINUOUS
10
7.80796
20
-3.19451
11
7.81651
21
-3.18994
0
LINE
8
BLACK
6
CONTINUOUS
10
7.81651
20
-3.18994
11
7.82579
21
-3.18713
0
LINE
8
BLACK
6
CONTINUOUS
10
7.82579
20
-3.18713
11
7.83543
21
-3.18618
0
LINE
8
BLACK
6
CONTINUOUS
10
7.83543
20
-3.18618
11
7.84508
21
-3.18713
0
LINE
8
BLACK
6
CONTINUOUS
10
8.52008
20
-3.18713
11
8.52936
21
-3.18994
0
LINE
8
BLACK
6
CONTINUOUS
10
8.52936
20
-3.18994
11
8.53791
21
-3.19451
0
LINE
8
BLACK
6
CONTINUOUS
10
8.53791
20
-3.19451
11
8.5454
21
-3.20066
0
LINE
8
BLACK
6
CONTINUOUS
10
8.5454
20
-3.20066
11
8.55155
21
-3.20816
0
LINE
8
BLACK
6
CONTINUOUS
10
8.55155
20
-3.20816
11
8.55612
21
-3.21671
0
LINE
8
BLACK
6
CONTINUOUS
10
8.55612
20
-3.21671
11
8.55893
21
-3.22598
0
LINE
8
BLACK
6
CONTINUOUS
10
8.55893
20
-3.22598
11
8.55965
21
-3.23321
0
LINE
8
BLACK
6
CONTINUOUS
10
8.55965
20
-3.23321
11
8.55965
21
-3.31679
0
LINE
8
BLACK
6
CONTINUOUS
10
8.55965
20
-3.31679
11
8.55893
21
-3.32402
0
LINE
8
BLACK
6
CONTINUOUS
10
8.55893
20
-3.32402
11
8.55612
21
-3.33329
0
LINE
8
BLACK
6
CONTINUOUS
10
8.55612
20
-3.33329
11
8.55155
21
-3.34184
0
LINE
8
BLACK
6
CONTINUOUS
10
8.55155
20
-3.34184
11
8.5454
21
-3.34934
0
LINE
8
BLACK
6
CONTINUOUS
10
8.5454
20
-3.34934
11
8.53791
21
-3.35549
0
LINE
8
BLACK
6
CONTINUOUS
10
8.53791
20
-3.35549
11
8.52936
21
-3.36006
0
LINE
8
BLACK
6
CONTINUOUS
10
8.52936
20
-3.36006
11
8.52008
21
-3.36287
0
LINE
8
BLACK
6
CONTINUOUS
10
8.52008
20
-3.36287
11
8.51043
21
-3.36382
0
LINE
8
BLACK
6
CONTINUOUS
10
8.51043
20
-3.36382
11
8.50079
21
-3.36287
0
LINE
8
BLACK
6
CONTINUOUS
10
8.50079
20
-3.36287
11
8.49151
21
-3.36006
0
LINE
8
BLACK
6
CONTINUOUS
10
8.49151
20
-3.36006
11
8.48296
21
-3.35549
0
LINE
8
BLACK
6
CONTINUOUS
10
8.48296
20
-3.35549
11
8.47547
21
-3.34934
0
LINE
8
BLACK
6
CONTINUOUS
10
8.47547
20
-3.34934
11
8.46932
21
-3.34184
0
LINE
8
BLACK
6
CONTINUOUS
10
8.46932
20
-3.34184
11
8.46475
21
-3.33329
0
LINE
8
BLACK
6
CONTINUOUS
10
8.46475
20
-3.33329
11
8.46193
21
-3.32402
0
LINE
8
BLACK
6
CONTINUOUS
10
8.46193
20
-3.32402
11
8.46122
21
-3.31679
0
LINE
8
BLACK
6
CONTINUOUS
10
8.46122
20
-3.31679
11
8.46122
21
-3.23321
0
LINE
8
BLACK
6
CONTINUOUS
10
8.46122
20
-3.23321
11
8.46193
21
-3.22598
0
LINE
8
BLACK
6
CONTINUOUS
10
8.46193
20
-3.22598
11
8.46475
21
-3.21671
0
LINE
8
BLACK
6
CONTINUOUS
10
8.46475
20
-3.21671
11
8.46932
21
-3.20816
0
LINE
8
BLACK
6
CONTINUOUS
10
8.46932
20
-3.20816
11
8.47547
21
-3.20066
0
LINE
8
BLACK
6
CONTINUOUS
10
8.47547
20
-3.20066
11
8.48296
21
-3.19451
0
LINE
8
BLACK
6
CONTINUOUS
10
8.48296
20
-3.19451
11
8.49151
21
-3.18994
0
LINE
8
BLACK
6
CONTINUOUS
10
8.49151
20
-3.18994
11
8.50079
21
-3.18713
0
LINE
8
BLACK
6
CONTINUOUS
10
8.50079
20
-3.18713
11
8.51043
21
-3.18618
0
LINE
8
BLACK
6
CONTINUOUS
10
8.51043
20
-3.18618
11
8.52008
21
-3.18713
0
LINE
8
BLACK
6
CONTINUOUS
10
6.49508
20
-3.18713
11
6.50436
21
-3.18994
0
LINE
8
BLACK
6
CONTINUOUS
10
6.50436
20
-3.18994
11
6.51291
21
-3.19451
0
LINE
8
BLACK
6
CONTINUOUS
10
6.51291
20
-3.19451
11
6.5204
21
-3.20066
0
LINE
8
BLACK
6
CONTINUOUS
10
6.5204
20
-3.20066
11
6.52655
21
-3.20816
0
LINE
8
BLACK
6
CONTINUOUS
10
6.52655
20
-3.20816
11
6.53112
21
-3.21671
0
LINE
8
BLACK
6
CONTINUOUS
10
6.53112
20
-3.21671
11
6.53393
21
-3.22598
0
LINE
8
BLACK
6
CONTINUOUS
10
6.53393
20
-3.22598
11
6.53465
21
-3.23321
0
LINE
8
BLACK
6
CONTINUOUS
10
6.53465
20
-3.23321
11
6.53465
21
-3.31679
0
LINE
8
BLACK
6
CONTINUOUS
10
6.53465
20
-3.31679
11
6.53393
21
-3.32402
0
LINE
8
BLACK
6
CONTINUOUS
10
6.53393
20
-3.32402
11
6.53112
21
-3.33329
0
LINE
8
BLACK
6
CONTINUOUS
10
6.53112
20
-3.33329
11
6.52655
21
-3.34184
0
LINE
8
BLACK
6
CONTINUOUS
10
6.52655
20
-3.34184
11
6.5204
21
-3.34934
0
LINE
8
BLACK
6
CONTINUOUS
10
6.5204
20
-3.34934
11
6.51291
21
-3.35549
0
LINE
8
BLACK
6
CONTINUOUS
10
6.51291
20
-3.35549
11
6.50436
21
-3.36006
0
LINE
8
BLACK
6
CONTINUOUS
10
6.50436
20
-3.36006
11
6.49508
21
-3.36287
0
LINE
8
BLACK
6
CONTINUOUS
10
6.49508
20
-3.36287
11
6.48543
21
-3.36382
0
LINE
8
BLACK
6
CONTINUOUS
10
6.48543
20
-3.36382
11
6.47579
21
-3.36287
0
LINE
8
BLACK
6
CONTINUOUS
10
6.47579
20
-3.36287
11
6.46651
21
-3.36006
0
LINE
8
BLACK
6
CONTINUOUS
10
6.46651
20
-3.36006
11
6.45796
21
-3.35549
0
LINE
8
BLACK
6
CONTINUOUS
10
6.45796
20
-3.35549
11
6.45047
21
-3.34934
0
LINE
8
BLACK
6
CONTINUOUS
10
6.45047
20
-3.34934
11
6.44432
21
-3.34184
0
LINE
8
BLACK
6
CONTINUOUS
10
6.44432
20
-3.34184
11
6.43975
21
-3.33329
0
LINE
8
BLACK
6
CONTINUOUS
10
6.43975
20
-3.33329
11
6.43693
21
-3.32402
0
LINE
8
BLACK
6
CONTINUOUS
10
6.43693
20
-3.32402
11
6.43622
21
-3.31679
0
LINE
8
BLACK
6
CONTINUOUS
10
6.43622
20
-3.31679
11
6.43622
21
-3.23321
0
LINE
8
BLACK
6
CONTINUOUS
10
6.43622
20
-3.23321
11
6.43693
21
-3.22598
0
LINE
8
BLACK
6
CONTINUOUS
10
6.43693
20
-3.22598
11
6.43975
21
-3.21671
0
LINE
8
BLACK
6
CONTINUOUS
10
6.43975
20
-3.21671
11
6.44432
21
-3.20816
0
LINE
8
BLACK
6
CONTINUOUS
10
6.44432
20
-3.20816
11
6.45047
21
-3.20066
0
LINE
8
BLACK
6
CONTINUOUS
10
6.45047
20
-3.20066
11
6.45796
21
-3.19451
0
LINE
8
BLACK
6
CONTINUOUS
10
6.45796
20
-3.19451
11
6.46651
21
-3.18994
0
LINE
8
BLACK
6
CONTINUOUS
10
6.46651
20
-3.18994
11
6.47579
21
-3.18713
0
LINE
8
BLACK
6
CONTINUOUS
10
6.47579
20
-3.18713
11
6.48543
21
-3.18618
0
LINE
8
BLACK
6
CONTINUOUS
10
6.48543
20
-3.18618
11
6.49508
21
-3.18713
0
LINE
8
BLACK
6
CONTINUOUS
10
6.28051
20
-3.18713
11
6.28979
21
-3.18994
0
LINE
8
BLACK
6
CONTINUOUS
10
6.28979
20
-3.18994
11
6.29834
21
-3.19451
0
LINE
8
BLACK
6
CONTINUOUS
10
6.29834
20
-3.19451
11
6.30583
21
-3.20066
0
LINE
8
BLACK
6
CONTINUOUS
10
6.30583
20
-3.20066
11
6.31198
21
-3.20816
0
LINE
8
BLACK
6
CONTINUOUS
10
6.31198
20
-3.20816
11
6.31655
21
-3.21671
0
LINE
8
BLACK
6
CONTINUOUS
10
6.31655
20
-3.21671
11
6.31937
21
-3.22598
0
LINE
8
BLACK
6
CONTINUOUS
10
6.31937
20
-3.22598
11
6.32008
21
-3.23321
0
LINE
8
BLACK
6
CONTINUOUS
10
6.32008
20
-3.23321
11
6.32008
21
-3.31679
0
LINE
8
BLACK
6
CONTINUOUS
10
6.32008
20
-3.31679
11
6.31937
21
-3.32402
0
LINE
8
BLACK
6
CONTINUOUS
10
6.31937
20
-3.32402
11
6.31655
21
-3.33329
0
LINE
8
BLACK
6
CONTINUOUS
10
6.31655
20
-3.33329
11
6.31198
21
-3.34184
0
LINE
8
BLACK
6
CONTINUOUS
10
6.31198
20
-3.34184
11
6.30583
21
-3.34934
0
LINE
8
BLACK
6
CONTINUOUS
10
6.30583
20
-3.34934
11
6.29834
21
-3.35549
0
LINE
8
BLACK
6
CONTINUOUS
10
6.29834
20
-3.35549
11
6.28979
21
-3.36006
0
LINE
8
BLACK
6
CONTINUOUS
10
6.28979
20
-3.36006
11
6.28051
21
-3.36287
0
LINE
8
BLACK
6
CONTINUOUS
10
6.28051
20
-3.36287
11
6.27087
21
-3.36382
0
LINE
8
BLACK
6
CONTINUOUS
10
6.27087
20
-3.36382
11
6.26122
21
-3.36287
0
LINE
8
BLACK
6
CONTINUOUS
10
6.26122
20
-3.36287
11
6.25194
21
-3.36006
0
LINE
8
BLACK
6
CONTINUOUS
10
6.25194
20
-3.36006
11
6.24339
21
-3.35549
0
LINE
8
BLACK
6
CONTINUOUS
10
6.24339
20
-3.35549
11
6.2359
21
-3.34934
0
LINE
8
BLACK
6
CONTINUOUS
10
6.2359
20
-3.34934
11
6.22975
21
-3.34184
0
LINE
8
BLACK
6
CONTINUOUS
10
6.22975
20
-3.34184
11
6.22518
21
-3.33329
0
LINE
8
BLACK
6
CONTINUOUS
10
6.22518
20
-3.33329
11
6.22237
21
-3.32402
0
LINE
8
BLACK
6
CONTINUOUS
10
6.22237
20
-3.32402
11
6.22165
21
-3.31679
0
LINE
8
BLACK
6
CONTINUOUS
10
6.22165
20
-3.31679
11
6.22165
21
-3.23321
0
LINE
8
BLACK
6
CONTINUOUS
10
6.22165
20
-3.23321
11
6.22237
21
-3.22598
0
LINE
8
BLACK
6
CONTINUOUS
10
6.22237
20
-3.22598
11
6.22518
21
-3.21671
0
LINE
8
BLACK
6
CONTINUOUS
10
6.22518
20
-3.21671
11
6.22975
21
-3.20816
0
LINE
8
BLACK
6
CONTINUOUS
10
6.22975
20
-3.20816
11
6.2359
21
-3.20066
0
LINE
8
BLACK
6
CONTINUOUS
10
6.2359
20
-3.20066
11
6.24339
21
-3.19451
0
LINE
8
BLACK
6
CONTINUOUS
10
6.24339
20
-3.19451
11
6.25194
21
-3.18994
0
LINE
8
BLACK
6
CONTINUOUS
10
6.25194
20
-3.18994
11
6.26122
21
-3.18713
0
LINE
8
BLACK
6
CONTINUOUS
10
6.26122
20
-3.18713
11
6.27087
21
-3.18618
0
LINE
8
BLACK
6
CONTINUOUS
10
6.27087
20
-3.18618
11
6.28051
21
-3.18713
0
LINE
8
BLACK
6
CONTINUOUS
10
6.95551
20
-3.18713
11
6.96479
21
-3.18994
0
LINE
8
BLACK
6
CONTINUOUS
10
6.96479
20
-3.18994
11
6.97334
21
-3.19451
0
LINE
8
BLACK
6
CONTINUOUS
10
6.97334
20
-3.19451
11
6.98083
21
-3.20066
0
LINE
8
BLACK
6
CONTINUOUS
10
6.98083
20
-3.20066
11
6.98698
21
-3.20816
0
LINE
8
BLACK
6
CONTINUOUS
10
6.98698
20
-3.20816
11
6.99155
21
-3.21671
0
LINE
8
BLACK
6
CONTINUOUS
10
6.99155
20
-3.21671
11
6.99437
21
-3.22598
0
LINE
8
BLACK
6
CONTINUOUS
10
6.99437
20
-3.22598
11
6.99508
21
-3.23321
0
LINE
8
BLACK
6
CONTINUOUS
10
6.99508
20
-3.23321
11
6.99508
21
-3.31679
0
LINE
8
BLACK
6
CONTINUOUS
10
6.99508
20
-3.31679
11
6.99437
21
-3.32402
0
LINE
8
BLACK
6
CONTINUOUS
10
6.99437
20
-3.32402
11
6.99155
21
-3.33329
0
LINE
8
BLACK
6
CONTINUOUS
10
6.99155
20
-3.33329
11
6.98698
21
-3.34184
0
LINE
8
BLACK
6
CONTINUOUS
10
6.98698
20
-3.34184
11
6.98083
21
-3.34934
0
LINE
8
BLACK
6
CONTINUOUS
10
6.98083
20
-3.34934
11
6.97334
21
-3.35549
0
LINE
8
BLACK
6
CONTINUOUS
10
6.97334
20
-3.35549
11
6.96479
21
-3.36006
0
LINE
8
BLACK
6
CONTINUOUS
10
6.96479
20
-3.36006
11
6.95551
21
-3.36287
0
LINE
8
BLACK
6
CONTINUOUS
10
6.95551
20
-3.36287
11
6.94587
21
-3.36382
0
LINE
8
BLACK
6
CONTINUOUS
10
6.94587
20
-3.36382
11
6.93622
21
-3.36287
0
LINE
8
BLACK
6
CONTINUOUS
10
6.93622
20
-3.36287
11
6.92694
21
-3.36006
0
LINE
8
BLACK
6
CONTINUOUS
10
6.92694
20
-3.36006
11
6.91839
21
-3.35549
0
LINE
8
BLACK
6
CONTINUOUS
10
6.91839
20
-3.35549
11
6.9109
21
-3.34934
0
LINE
8
BLACK
6
CONTINUOUS
10
6.9109
20
-3.34934
11
6.90475
21
-3.34184
0
LINE
8
BLACK
6
CONTINUOUS
10
6.90475
20
-3.34184
11
6.90018
21
-3.33329
0
LINE
8
BLACK
6
CONTINUOUS
10
6.90018
20
-3.33329
11
6.89737
21
-3.32402
0
LINE
8
BLACK
6
CONTINUOUS
10
6.89737
20
-3.32402
11
6.89665
21
-3.31679
0
LINE
8
BLACK
6
CONTINUOUS
10
6.89665
20
-3.31679
11
6.89665
21
-3.23321
0
LINE
8
BLACK
6
CONTINUOUS
10
6.89665
20
-3.23321
11
6.89737
21
-3.22598
0
LINE
8
BLACK
6
CONTINUOUS
10
6.89737
20
-3.22598
11
6.90018
21
-3.21671
0
LINE
8
BLACK
6
CONTINUOUS
10
6.90018
20
-3.21671
11
6.90475
21
-3.20816
0
LINE
8
BLACK
6
CONTINUOUS
10
6.90475
20
-3.20816
11
6.9109
21
-3.20066
0
LINE
8
BLACK
6
CONTINUOUS
10
6.9109
20
-3.20066
11
6.91839
21
-3.19451
0
LINE
8
BLACK
6
CONTINUOUS
10
6.91839
20
-3.19451
11
6.92694
21
-3.18994
0
LINE
8
BLACK
6
CONTINUOUS
10
6.92694
20
-3.18994
11
6.93622
21
-3.18713
0
LINE
8
BLACK
6
CONTINUOUS
10
6.93622
20
-3.18713
11
6.94587
21
-3.18618
0
LINE
8
BLACK
6
CONTINUOUS
10
6.94587
20
-3.18618
11
6.95551
21
-3.18713
0
LINE
8
BLACK
6
CONTINUOUS
10
8.30551
20
-3.18713
11
8.31479
21
-3.18994
0
LINE
8
BLACK
6
CONTINUOUS
10
8.31479
20
-3.18994
11
8.32334
21
-3.19451
0
LINE
8
BLACK
6
CONTINUOUS
10
8.32334
20
-3.19451
11
8.33083
21
-3.20066
0
LINE
8
BLACK
6
CONTINUOUS
10
8.33083
20
-3.20066
11
8.33698
21
-3.20816
0
LINE
8
BLACK
6
CONTINUOUS
10
8.33698
20
-3.20816
11
8.34155
21
-3.21671
0
LINE
8
BLACK
6
CONTINUOUS
10
8.34155
20
-3.21671
11
8.34437
21
-3.22598
0
LINE
8
BLACK
6
CONTINUOUS
10
8.34437
20
-3.22598
11
8.34508
21
-3.23321
0
LINE
8
BLACK
6
CONTINUOUS
10
8.34508
20
-3.23321
11
8.34508
21
-3.31679
0
LINE
8
BLACK
6
CONTINUOUS
10
8.34508
20
-3.31679
11
8.34437
21
-3.32402
0
LINE
8
BLACK
6
CONTINUOUS
10
8.34437
20
-3.32402
11
8.34155
21
-3.33329
0
LINE
8
BLACK
6
CONTINUOUS
10
8.34155
20
-3.33329
11
8.33698
21
-3.34184
0
LINE
8
BLACK
6
CONTINUOUS
10
8.33698
20
-3.34184
11
8.33083
21
-3.34934
0
LINE
8
BLACK
6
CONTINUOUS
10
8.33083
20
-3.34934
11
8.32334
21
-3.35549
0
LINE
8
BLACK
6
CONTINUOUS
10
8.32334
20
-3.35549
11
8.31479
21
-3.36006
0
LINE
8
BLACK
6
CONTINUOUS
10
8.31479
20
-3.36006
11
8.30551
21
-3.36287
0
LINE
8
BLACK
6
CONTINUOUS
10
8.30551
20
-3.36287
11
8.29587
21
-3.36382
0
LINE
8
BLACK
6
CONTINUOUS
10
8.29587
20
-3.36382
11
8.28622
21
-3.36287
0
LINE
8
BLACK
6
CONTINUOUS
10
8.28622
20
-3.36287
11
8.27694
21
-3.36006
0
LINE
8
BLACK
6
CONTINUOUS
10
8.27694
20
-3.36006
11
8.26839
21
-3.35549
0
LINE
8
BLACK
6
CONTINUOUS
10
8.26839
20
-3.35549
11
8.2609
21
-3.34934
0
LINE
8
BLACK
6
CONTINUOUS
10
8.2609
20
-3.34934
11
8.25475
21
-3.34184
0
LINE
8
BLACK
6
CONTINUOUS
10
8.25475
20
-3.34184
11
8.25018
21
-3.33329
0
LINE
8
BLACK
6
CONTINUOUS
10
8.25018
20
-3.33329
11
8.24737
21
-3.32402
0
LINE
8
BLACK
6
CONTINUOUS
10
8.24737
20
-3.32402
11
8.24665
21
-3.31679
0
LINE
8
BLACK
6
CONTINUOUS
10
8.24665
20
-3.31679
11
8.24665
21
-3.23321
0
LINE
8
BLACK
6
CONTINUOUS
10
8.24665
20
-3.23321
11
8.24737
21
-3.22598
0
LINE
8
BLACK
6
CONTINUOUS
10
8.24737
20
-3.22598
11
8.25018
21
-3.21671
0
LINE
8
BLACK
6
CONTINUOUS
10
8.25018
20
-3.21671
11
8.25475
21
-3.20816
0
LINE
8
BLACK
6
CONTINUOUS
10
8.25475
20
-3.20816
11
8.2609
21
-3.20066
0
LINE
8
BLACK
6
CONTINUOUS
10
8.2609
20
-3.20066
11
8.26839
21
-3.19451
0
LINE
8
BLACK
6
CONTINUOUS
10
8.26839
20
-3.19451
11
8.27694
21
-3.18994
0
LINE
8
BLACK
6
CONTINUOUS
10
8.27694
20
-3.18994
11
8.28622
21
-3.18713
0
LINE
8
BLACK
6
CONTINUOUS
10
8.28622
20
-3.18713
11
8.29587
21
-3.18618
0
LINE
8
BLACK
6
CONTINUOUS
10
8.29587
20
-3.18618
11
8.30551
21
-3.18713
0
LINE
8
BLACK
6
CONTINUOUS
10
7.17008
20
-3.18713
11
7.17936
21
-3.18994
0
LINE
8
BLACK
6
CONTINUOUS
10
7.17936
20
-3.18994
11
7.18791
21
-3.19451
0
LINE
8
BLACK
6
CONTINUOUS
10
7.18791
20
-3.19451
11
7.1954
21
-3.20066
0
LINE
8
BLACK
6
CONTINUOUS
10
7.1954
20
-3.20066
11
7.20155
21
-3.20816
0
LINE
8
BLACK
6
CONTINUOUS
10
7.20155
20
-3.20816
11
7.20612
21
-3.21671
0
LINE
8
BLACK
6
CONTINUOUS
10
7.20612
20
-3.21671
11
7.20893
21
-3.22598
0
LINE
8
BLACK
6
CONTINUOUS
10
7.20893
20
-3.22598
11
7.20965
21
-3.23321
0
LINE
8
BLACK
6
CONTINUOUS
10
7.20965
20
-3.23321
11
7.20965
21
-3.31679
0
LINE
8
BLACK
6
CONTINUOUS
10
7.20965
20
-3.31679
11
7.20893
21
-3.32402
0
LINE
8
BLACK
6
CONTINUOUS
10
7.20893
20
-3.32402
11
7.20612
21
-3.33329
0
LINE
8
BLACK
6
CONTINUOUS
10
7.20612
20
-3.33329
11
7.20155
21
-3.34184
0
LINE
8
BLACK
6
CONTINUOUS
10
7.20155
20
-3.34184
11
7.1954
21
-3.34934
0
LINE
8
BLACK
6
CONTINUOUS
10
7.1954
20
-3.34934
11
7.18791
21
-3.35549
0
LINE
8
BLACK
6
CONTINUOUS
10
7.18791
20
-3.35549
11
7.17936
21
-3.36006
0
LINE
8
BLACK
6
CONTINUOUS
10
7.17936
20
-3.36006
11
7.17008
21
-3.36287
0
LINE
8
BLACK
6
CONTINUOUS
10
7.17008
20
-3.36287
11
7.16043
21
-3.36382
0
LINE
8
BLACK
6
CONTINUOUS
10
7.16043
20
-3.36382
11
7.15079
21
-3.36287
0
LINE
8
BLACK
6
CONTINUOUS
10
7.15079
20
-3.36287
11
7.14151
21
-3.36006
0
LINE
8
BLACK
6
CONTINUOUS
10
7.14151
20
-3.36006
11
7.13296
21
-3.35549
0
LINE
8
BLACK
6
CONTINUOUS
10
7.13296
20
-3.35549
11
7.12547
21
-3.34934
0
LINE
8
BLACK
6
CONTINUOUS
10
7.12547
20
-3.34934
11
7.11932
21
-3.34184
0
LINE
8
BLACK
6
CONTINUOUS
10
7.11932
20
-3.34184
11
7.11475
21
-3.33329
0
LINE
8
BLACK
6
CONTINUOUS
10
7.11475
20
-3.33329
11
7.11193
21
-3.32402
0
LINE
8
BLACK
6
CONTINUOUS
10
7.11193
20
-3.32402
11
7.11122
21
-3.31679
0
LINE
8
BLACK
6
CONTINUOUS
10
7.11122
20
-3.31679
11
7.11122
21
-3.23321
0
LINE
8
BLACK
6
CONTINUOUS
10
7.11122
20
-3.23321
11
7.11193
21
-3.22598
0
LINE
8
BLACK
6
CONTINUOUS
10
7.11193
20
-3.22598
11
7.11475
21
-3.21671
0
LINE
8
BLACK
6
CONTINUOUS
10
7.11475
20
-3.21671
11
7.11932
21
-3.20816
0
LINE
8
BLACK
6
CONTINUOUS
10
7.11932
20
-3.20816
11
7.12547
21
-3.20066
0
LINE
8
BLACK
6
CONTINUOUS
10
7.12547
20
-3.20066
11
7.13296
21
-3.19451
0
LINE
8
BLACK
6
CONTINUOUS
10
7.13296
20
-3.19451
11
7.14151
21
-3.18994
0
LINE
8
BLACK
6
CONTINUOUS
10
7.14151
20
-3.18994
11
7.15079
21
-3.18713
0
LINE
8
BLACK
6
CONTINUOUS
10
7.15079
20
-3.18713
11
7.16043
21
-3.18618
0
LINE
8
BLACK
6
CONTINUOUS
10
7.16043
20
-3.18618
11
7.17008
21
-3.18713
0
LINE
8
BLACK
6
CONTINUOUS
10
2.69921
20
-3.36358
11
2.60079
21
-3.36358
0
LINE
8
BLACK
6
CONTINUOUS
10
2.60079
20
-3.36358
11
2.60079
21
-3.18642
0
LINE
8
BLACK
6
CONTINUOUS
10
2.60079
20
-3.18642
11
2.69921
21
-3.18642
0
LINE
8
BLACK
6
CONTINUOUS
10
2.69921
20
-3.18642
11
2.69921
21
-3.36358
0
LINE
8
BLACK
6
CONTINUOUS
10
8.77421
20
-3.36358
11
8.67579
21
-3.36358
0
LINE
8
BLACK
6
CONTINUOUS
10
8.67579
20
-3.36358
11
8.67579
21
-3.18642
0
LINE
8
BLACK
6
CONTINUOUS
10
8.67579
20
-3.18642
11
8.77421
21
-3.18642
0
LINE
8
BLACK
6
CONTINUOUS
10
8.77421
20
-3.18642
11
8.77421
21
-3.36358
0
LINE
8
BLACK
6
CONTINUOUS
10
3.37421
20
-3.36358
11
3.27579
21
-3.36358
0
LINE
8
BLACK
6
CONTINUOUS
10
3.27579
20
-3.36358
11
3.27579
21
-3.18642
0
LINE
8
BLACK
6
CONTINUOUS
10
3.27579
20
-3.18642
11
3.37421
21
-3.18642
0
LINE
8
BLACK
6
CONTINUOUS
10
3.37421
20
-3.18642
11
3.37421
21
-3.36358
0
LINE
8
BLACK
6
CONTINUOUS
10
8.09921
20
-3.36358
11
8.00079
21
-3.36358
0
LINE
8
BLACK
6
CONTINUOUS
10
8.00079
20
-3.36358
11
8.00079
21
-3.18642
0
LINE
8
BLACK
6
CONTINUOUS
10
8.00079
20
-3.18642
11
8.09921
21
-3.18642
0
LINE
8
BLACK
6
CONTINUOUS
10
8.09921
20
-3.18642
11
8.09921
21
-3.36358
0
LINE
8
BLACK
6
CONTINUOUS
10
2.02421
20
-3.36358
11
1.92579
21
-3.36358
0
LINE
8
BLACK
6
CONTINUOUS
10
1.92579
20
-3.36358
11
1.92579
21
-3.18642
0
LINE
8
BLACK
6
CONTINUOUS
10
1.92579
20
-3.18642
11
2.02421
21
-3.18642
0
LINE
8
BLACK
6
CONTINUOUS
10
2.02421
20
-3.18642
11
2.02421
21
-3.36358
0
LINE
8
BLACK
6
CONTINUOUS
10
4.04921
20
-3.36358
11
3.95079
21
-3.36358
0
LINE
8
BLACK
6
CONTINUOUS
10
3.95079
20
-3.36358
11
3.95079
21
-3.18642
0
LINE
8
BLACK
6
CONTINUOUS
10
3.95079
20
-3.18642
11
4.04921
21
-3.18642
0
LINE
8
BLACK
6
CONTINUOUS
10
4.04921
20
-3.18642
11
4.04921
21
-3.36358
0
LINE
8
BLACK
6
CONTINUOUS
10
4.72421
20
-3.36358
11
4.62579
21
-3.36358
0
LINE
8
BLACK
6
CONTINUOUS
10
4.62579
20
-3.36358
11
4.62579
21
-3.18642
0
LINE
8
BLACK
6
CONTINUOUS
10
4.62579
20
-3.18642
11
4.72421
21
-3.18642
0
LINE
8
BLACK
6
CONTINUOUS
10
4.72421
20
-3.18642
11
4.72421
21
-3.36358
0
LINE
8
BLACK
6
CONTINUOUS
10
7.42421
20
-3.36358
11
7.32579
21
-3.36358
0
LINE
8
BLACK
6
CONTINUOUS
10
7.32579
20
-3.36358
11
7.32579
21
-3.18642
0
LINE
8
BLACK
6
CONTINUOUS
10
7.32579
20
-3.18642
11
7.42421
21
-3.18642
0
LINE
8
BLACK
6
CONTINUOUS
10
7.42421
20
-3.18642
11
7.42421
21
-3.36358
0
LINE
8
BLACK
6
CONTINUOUS
10
1.34921
20
-3.36358
11
1.25079
21
-3.36358
0
LINE
8
BLACK
6
CONTINUOUS
10
1.25079
20
-3.36358
11
1.25079
21
-3.18642
0
LINE
8
BLACK
6
CONTINUOUS
10
1.25079
20
-3.18642
11
1.34921
21
-3.18642
0
LINE
8
BLACK
6
CONTINUOUS
10
1.34921
20
-3.18642
11
1.34921
21
-3.36358
0
LINE
8
BLACK
6
CONTINUOUS
10
5.39921
20
-3.36358
11
5.30079
21
-3.36358
0
LINE
8
BLACK
6
CONTINUOUS
10
5.30079
20
-3.36358
11
5.30079
21
-3.18642
0
LINE
8
BLACK
6
CONTINUOUS
10
5.30079
20
-3.18642
11
5.39921
21
-3.18642
0
LINE
8
BLACK
6
CONTINUOUS
10
5.39921
20
-3.18642
11
5.39921
21
-3.36358
0
LINE
8
BLACK
6
CONTINUOUS
10
6.07421
20
-3.36358
11
5.97579
21
-3.36358
0
LINE
8
BLACK
6
CONTINUOUS
10
5.97579
20
-3.36358
11
5.97579
21
-3.18642
0
LINE
8
BLACK
6
CONTINUOUS
10
5.97579
20
-3.18642
11
6.07421
21
-3.18642
0
LINE
8
BLACK
6
CONTINUOUS
10
6.07421
20
-3.18642
11
6.07421
21
-3.36358
0
LINE
8
BLACK
6
CONTINUOUS
10
6.74921
20
-3.36358
11
6.65079
21
-3.36358
0
LINE
8
BLACK
6
CONTINUOUS
10
6.65079
20
-3.36358
11
6.65079
21
-3.18642
0
LINE
8
BLACK
6
CONTINUOUS
10
6.65079
20
-3.18642
11
6.74921
21
-3.18642
0
LINE
8
BLACK
6
CONTINUOUS
10
6.74921
20
-3.18642
11
6.74921
21
-3.36358
0
LINE
8
BLACK
6
CONTINUOUS
10
9.54646
20
-2.432
11
9.60665
21
-2.45693
0
LINE
8
BLACK
6
CONTINUOUS
10
9.60665
20
-2.45693
11
9.66081
21
-2.49312
0
LINE
8
BLACK
6
CONTINUOUS
10
9.66081
20
-2.49312
11
9.70688
21
-2.53919
0
LINE
8
BLACK
6
CONTINUOUS
10
9.70688
20
-2.53919
11
9.74307
21
-2.59335
0
LINE
8
BLACK
6
CONTINUOUS
10
9.74307
20
-2.59335
11
9.768
21
-2.65354
0
LINE
8
BLACK
6
CONTINUOUS
10
9.768
20
-2.65354
11
9.78071
21
-2.71743
0
LINE
8
BLACK
6
CONTINUOUS
10
9.78071
20
-2.71743
11
9.78071
21
-2.78257
0
LINE
8
BLACK
6
CONTINUOUS
10
9.78071
20
-2.78257
11
9.768
21
-2.84646
0
LINE
8
BLACK
6
CONTINUOUS
10
9.768
20
-2.84646
11
9.74307
21
-2.90665
0
LINE
8
BLACK
6
CONTINUOUS
10
9.74307
20
-2.90665
11
9.70688
21
-2.96081
0
LINE
8
BLACK
6
CONTINUOUS
10
9.70688
20
-2.96081
11
9.66081
21
-3.00688
0
LINE
8
BLACK
6
CONTINUOUS
10
9.66081
20
-3.00688
11
9.60665
21
-3.04307
0
LINE
8
BLACK
6
CONTINUOUS
10
9.60665
20
-3.04307
11
9.54646
21
-3.068
0
LINE
8
BLACK
6
CONTINUOUS
10
9.54646
20
-3.068
11
9.48257
21
-3.08071
0
LINE
8
BLACK
6
CONTINUOUS
10
9.48257
20
-3.08071
11
9.41743
21
-3.08071
0
LINE
8
BLACK
6
CONTINUOUS
10
9.41743
20
-3.08071
11
9.35354
21
-3.068
0
LINE
8
BLACK
6
CONTINUOUS
10
9.35354
20
-3.068
11
9.29335
21
-3.04307
0
LINE
8
BLACK
6
CONTINUOUS
10
9.29335
20
-3.04307
11
9.23919
21
-3.00688
0
LINE
8
BLACK
6
CONTINUOUS
10
9.23919
20
-3.00688
11
9.19312
21
-2.96081
0
LINE
8
BLACK
6
CONTINUOUS
10
9.19312
20
-2.96081
11
9.15693
21
-2.90665
0
LINE
8
BLACK
6
CONTINUOUS
10
9.15693
20
-2.90665
11
9.132
21
-2.84646
0
LINE
8
BLACK
6
CONTINUOUS
10
9.132
20
-2.84646
11
9.11929
21
-2.78257
0
LINE
8
BLACK
6
CONTINUOUS
10
9.11929
20
-2.78257
11
9.11929
21
-2.71743
0
LINE
8
BLACK
6
CONTINUOUS
10
9.11929
20
-2.71743
11
9.132
21
-2.65354
0
LINE
8
BLACK
6
CONTINUOUS
10
9.132
20
-2.65354
11
9.15693
21
-2.59335
0
LINE
8
BLACK
6
CONTINUOUS
10
9.15693
20
-2.59335
11
9.19312
21
-2.53919
0
LINE
8
BLACK
6
CONTINUOUS
10
9.19312
20
-2.53919
11
9.23919
21
-2.49312
0
LINE
8
BLACK
6
CONTINUOUS
10
9.23919
20
-2.49312
11
9.29335
21
-2.45693
0
LINE
8
BLACK
6
CONTINUOUS
10
9.29335
20
-2.45693
11
9.35354
21
-2.432
0
LINE
8
BLACK
6
CONTINUOUS
10
9.35354
20
-2.432
11
9.41743
21
-2.41929
0
LINE
8
BLACK
6
CONTINUOUS
10
9.41743
20
-2.41929
11
9.48257
21
-2.41929
0
LINE
8
BLACK
6
CONTINUOUS
10
9.48257
20
-2.41929
11
9.54646
21
-2.432
0
LINE
8
BLACK
6
CONTINUOUS
10
1.7811
20
-2.42497
11
1.794
21
-2.43031
0
LINE
8
BLACK
6
CONTINUOUS
10
1.794
20
-2.43031
11
1.80561
21
-2.43806
0
LINE
8
BLACK
6
CONTINUOUS
10
1.80561
20
-2.43806
11
1.81548
21
-2.44794
0
LINE
8
BLACK
6
CONTINUOUS
10
1.81548
20
-2.44794
11
1.82323
21
-2.45954
0
LINE
8
BLACK
6
CONTINUOUS
10
1.82323
20
-2.45954
11
1.82858
21
-2.47244
0
LINE
8
BLACK
6
CONTINUOUS
10
1.82858
20
-2.47244
11
1.8313
21
-2.48613
0
LINE
8
BLACK
6
CONTINUOUS
10
1.8313
20
-2.48613
11
1.8313
21
-2.50009
0
LINE
8
BLACK
6
CONTINUOUS
10
1.8313
20
-2.50009
11
1.82858
21
-2.51378
0
LINE
8
BLACK
6
CONTINUOUS
10
1.82858
20
-2.51378
11
1.82323
21
-2.52668
0
LINE
8
BLACK
6
CONTINUOUS
10
1.82323
20
-2.52668
11
1.81548
21
-2.53828
0
LINE
8
BLACK
6
CONTINUOUS
10
1.81548
20
-2.53828
11
1.80561
21
-2.54816
0
LINE
8
BLACK
6
CONTINUOUS
10
1.80561
20
-2.54816
11
1.794
21
-2.55591
0
LINE
8
BLACK
6
CONTINUOUS
10
1.794
20
-2.55591
11
1.7811
21
-2.56125
0
LINE
8
BLACK
6
CONTINUOUS
10
1.7811
20
-2.56125
11
1.76741
21
-2.56398
0
LINE
8
BLACK
6
CONTINUOUS
10
1.76741
20
-2.56398
11
1.75345
21
-2.56398
0
LINE
8
BLACK
6
CONTINUOUS
10
1.75345
20
-2.56398
11
1.73976
21
-2.56125
0
LINE
8
BLACK
6
CONTINUOUS
10
1.73976
20
-2.56125
11
1.72687
21
-2.55591
0
LINE
8
BLACK
6
CONTINUOUS
10
1.72687
20
-2.55591
11
1.71526
21
-2.54816
0
LINE
8
BLACK
6
CONTINUOUS
10
1.71526
20
-2.54816
11
1.70539
21
-2.53828
0
LINE
8
BLACK
6
CONTINUOUS
10
1.70539
20
-2.53828
11
1.69763
21
-2.52668
0
LINE
8
BLACK
6
CONTINUOUS
10
1.69763
20
-2.52668
11
1.69229
21
-2.51378
0
LINE
8
BLACK
6
CONTINUOUS
10
1.69229
20
-2.51378
11
1.68957
21
-2.50009
0
LINE
8
BLACK
6
CONTINUOUS
10
1.68957
20
-2.50009
11
1.68957
21
-2.48613
0
LINE
8
BLACK
6
CONTINUOUS
10
1.68957
20
-2.48613
11
1.69229
21
-2.47244
0
LINE
8
BLACK
6
CONTINUOUS
10
1.69229
20
-2.47244
11
1.69763
21
-2.45954
0
LINE
8
BLACK
6
CONTINUOUS
10
1.69763
20
-2.45954
11
1.70539
21
-2.44794
0
LINE
8
BLACK
6
CONTINUOUS
10
1.70539
20
-2.44794
11
1.71526
21
-2.43806
0
LINE
8
BLACK
6
CONTINUOUS
10
1.71526
20
-2.43806
11
1.72687
21
-2.43031
0
LINE
8
BLACK
6
CONTINUOUS
10
1.72687
20
-2.43031
11
1.73976
21
-2.42497
0
LINE
8
BLACK
6
CONTINUOUS
10
1.73976
20
-2.42497
11
1.75345
21
-2.42224
0
LINE
8
BLACK
6
CONTINUOUS
10
1.75345
20
-2.42224
11
1.76741
21
-2.42224
0
LINE
8
BLACK
6
CONTINUOUS
10
1.76741
20
-2.42224
11
1.7811
21
-2.42497
0
LINE
8
BLACK
6
CONTINUOUS
10
6.5061
20
-2.42497
11
6.519
21
-2.43031
0
LINE
8
BLACK
6
CONTINUOUS
10
6.519
20
-2.43031
11
6.53061
21
-2.43806
0
LINE
8
BLACK
6
CONTINUOUS
10
6.53061
20
-2.43806
11
6.54048
21
-2.44794
0
LINE
8
BLACK
6
CONTINUOUS
10
6.54048
20
-2.44794
11
6.54823
21
-2.45954
0
LINE
8
BLACK
6
CONTINUOUS
10
6.54823
20
-2.45954
11
6.55358
21
-2.47244
0
LINE
8
BLACK
6
CONTINUOUS
10
6.55358
20
-2.47244
11
6.5563
21
-2.48613
0
LINE
8
BLACK
6
CONTINUOUS
10
6.5563
20
-2.48613
11
6.5563
21
-2.50009
0
LINE
8
BLACK
6
CONTINUOUS
10
6.5563
20
-2.50009
11
6.55358
21
-2.51378
0
LINE
8
BLACK
6
CONTINUOUS
10
6.55358
20
-2.51378
11
6.54823
21
-2.52668
0
LINE
8
BLACK
6
CONTINUOUS
10
6.54823
20
-2.52668
11
6.54048
21
-2.53828
0
LINE
8
BLACK
6
CONTINUOUS
10
6.54048
20
-2.53828
11
6.53061
21
-2.54816
0
LINE
8
BLACK
6
CONTINUOUS
10
6.53061
20
-2.54816
11
6.519
21
-2.55591
0
LINE
8
BLACK
6
CONTINUOUS
10
6.519
20
-2.55591
11
6.5061
21
-2.56125
0
LINE
8
BLACK
6
CONTINUOUS
10
6.5061
20
-2.56125
11
6.49241
21
-2.56398
0
LINE
8
BLACK
6
CONTINUOUS
10
6.49241
20
-2.56398
11
6.47845
21
-2.56398
0
LINE
8
BLACK
6
CONTINUOUS
10
6.47845
20
-2.56398
11
6.46476
21
-2.56125
0
LINE
8
BLACK
6
CONTINUOUS
10
6.46476
20
-2.56125
11
6.45187
21
-2.55591
0
LINE
8
BLACK
6
CONTINUOUS
10
6.45187
20
-2.55591
11
6.44026
21
-2.54816
0
LINE
8
BLACK
6
CONTINUOUS
10
6.44026
20
-2.54816
11
6.43039
21
-2.53828
0
LINE
8
BLACK
6
CONTINUOUS
10
6.43039
20
-2.53828
11
6.42263
21
-2.52668
0
LINE
8
BLACK
6
CONTINUOUS
10
6.42263
20
-2.52668
11
6.41729
21
-2.51378
0
LINE
8
BLACK
6
CONTINUOUS
10
6.41729
20
-2.51378
11
6.41457
21
-2.50009
0
LINE
8
BLACK
6
CONTINUOUS
10
6.41457
20
-2.50009
11
6.41457
21
-2.48613
0
LINE
8
BLACK
6
CONTINUOUS
10
6.41457
20
-2.48613
11
6.41729
21
-2.47244
0
LINE
8
BLACK
6
CONTINUOUS
10
6.41729
20
-2.47244
11
6.42263
21
-2.45954
0
LINE
8
BLACK
6
CONTINUOUS
10
6.42263
20
-2.45954
11
6.43039
21
-2.44794
0
LINE
8
BLACK
6
CONTINUOUS
10
6.43039
20
-2.44794
11
6.44026
21
-2.43806
0
LINE
8
BLACK
6
CONTINUOUS
10
6.44026
20
-2.43806
11
6.45187
21
-2.43031
0
LINE
8
BLACK
6
CONTINUOUS
10
6.45187
20
-2.43031
11
6.46476
21
-2.42497
0
LINE
8
BLACK
6
CONTINUOUS
10
6.46476
20
-2.42497
11
6.47845
21
-2.42224
0
LINE
8
BLACK
6
CONTINUOUS
10
6.47845
20
-2.42224
11
6.49241
21
-2.42224
0
LINE
8
BLACK
6
CONTINUOUS
10
6.49241
20
-2.42224
11
6.5061
21
-2.42497
0
LINE
8
BLACK
6
CONTINUOUS
10
1.1061
20
-2.42497
11
1.119
21
-2.43031
0
LINE
8
BLACK
6
CONTINUOUS
10
1.119
20
-2.43031
11
1.13061
21
-2.43806
0
LINE
8
BLACK
6
CONTINUOUS
10
1.13061
20
-2.43806
11
1.14048
21
-2.44794
0
LINE
8
BLACK
6
CONTINUOUS
10
1.14048
20
-2.44794
11
1.14823
21
-2.45954
0
LINE
8
BLACK
6
CONTINUOUS
10
1.14823
20
-2.45954
11
1.15358
21
-2.47244
0
LINE
8
BLACK
6
CONTINUOUS
10
1.15358
20
-2.47244
11
1.1563
21
-2.48613
0
LINE
8
BLACK
6
CONTINUOUS
10
1.1563
20
-2.48613
11
1.1563
21
-2.50009
0
LINE
8
BLACK
6
CONTINUOUS
10
1.1563
20
-2.50009
11
1.15358
21
-2.51378
0
LINE
8
BLACK
6
CONTINUOUS
10
1.15358
20
-2.51378
11
1.14823
21
-2.52668
0
LINE
8
BLACK
6
CONTINUOUS
10
1.14823
20
-2.52668
11
1.14048
21
-2.53828
0
LINE
8
BLACK
6
CONTINUOUS
10
1.14048
20
-2.53828
11
1.13061
21
-2.54816
0
LINE
8
BLACK
6
CONTINUOUS
10
1.13061
20
-2.54816
11
1.119
21
-2.55591
0
LINE
8
BLACK
6
CONTINUOUS
10
1.119
20
-2.55591
11
1.1061
21
-2.56125
0
LINE
8
BLACK
6
CONTINUOUS
10
1.1061
20
-2.56125
11
1.09241
21
-2.56398
0
LINE
8
BLACK
6
CONTINUOUS
10
1.09241
20
-2.56398
11
1.07845
21
-2.56398
0
LINE
8
BLACK
6
CONTINUOUS
10
1.07845
20
-2.56398
11
1.06476
21
-2.56125
0
LINE
8
BLACK
6
CONTINUOUS
10
1.06476
20
-2.56125
11
1.05187
21
-2.55591
0
LINE
8
BLACK
6
CONTINUOUS
10
1.05187
20
-2.55591
11
1.04026
21
-2.54816
0
LINE
8
BLACK
6
CONTINUOUS
10
1.04026
20
-2.54816
11
1.03039
21
-2.53828
0
LINE
8
BLACK
6
CONTINUOUS
10
1.03039
20
-2.53828
11
1.02263
21
-2.52668
0
LINE
8
BLACK
6
CONTINUOUS
10
1.02263
20
-2.52668
11
1.01729
21
-2.51378
0
LINE
8
BLACK
6
CONTINUOUS
10
1.01729
20
-2.51378
11
1.01457
21
-2.50009
0
LINE
8
BLACK
6
CONTINUOUS
10
1.01457
20
-2.50009
11
1.01457
21
-2.48613
0
LINE
8
BLACK
6
CONTINUOUS
10
1.01457
20
-2.48613
11
1.01729
21
-2.47244
0
LINE
8
BLACK
6
CONTINUOUS
10
1.01729
20
-2.47244
11
1.02263
21
-2.45954
0
LINE
8
BLACK
6
CONTINUOUS
10
1.02263
20
-2.45954
11
1.03039
21
-2.44794
0
LINE
8
BLACK
6
CONTINUOUS
10
1.03039
20
-2.44794
11
1.04026
21
-2.43806
0
LINE
8
BLACK
6
CONTINUOUS
10
1.04026
20
-2.43806
11
1.05187
21
-2.43031
0
LINE
8
BLACK
6
CONTINUOUS
10
1.05187
20
-2.43031
11
1.06476
21
-2.42497
0
LINE
8
BLACK
6
CONTINUOUS
10
1.06476
20
-2.42497
11
1.07845
21
-2.42224
0
LINE
8
BLACK
6
CONTINUOUS
10
1.07845
20
-2.42224
11
1.09241
21
-2.42224
0
LINE
8
BLACK
6
CONTINUOUS
10
1.09241
20
-2.42224
11
1.1061
21
-2.42497
0
LINE
8
BLACK
6
CONTINUOUS
10
2.4561
20
-2.42497
11
2.469
21
-2.43031
0
LINE
8
BLACK
6
CONTINUOUS
10
2.469
20
-2.43031
11
2.48061
21
-2.43806
0
LINE
8
BLACK
6
CONTINUOUS
10
2.48061
20
-2.43806
11
2.49048
21
-2.44794
0
LINE
8
BLACK
6
CONTINUOUS
10
2.49048
20
-2.44794
11
2.49823
21
-2.45954
0
LINE
8
BLACK
6
CONTINUOUS
10
2.49823
20
-2.45954
11
2.50358
21
-2.47244
0
LINE
8
BLACK
6
CONTINUOUS
10
2.50358
20
-2.47244
11
2.5063
21
-2.48613
0
LINE
8
BLACK
6
CONTINUOUS
10
2.5063
20
-2.48613
11
2.5063
21
-2.50009
0
LINE
8
BLACK
6
CONTINUOUS
10
2.5063
20
-2.50009
11
2.50358
21
-2.51378
0
LINE
8
BLACK
6
CONTINUOUS
10
2.50358
20
-2.51378
11
2.49823
21
-2.52668
0
LINE
8
BLACK
6
CONTINUOUS
10
2.49823
20
-2.52668
11
2.49048
21
-2.53828
0
LINE
8
BLACK
6
CONTINUOUS
10
2.49048
20
-2.53828
11
2.48061
21
-2.54816
0
LINE
8
BLACK
6
CONTINUOUS
10
2.48061
20
-2.54816
11
2.469
21
-2.55591
0
LINE
8
BLACK
6
CONTINUOUS
10
2.469
20
-2.55591
11
2.4561
21
-2.56125
0
LINE
8
BLACK
6
CONTINUOUS
10
2.4561
20
-2.56125
11
2.44241
21
-2.56398
0
LINE
8
BLACK
6
CONTINUOUS
10
2.44241
20
-2.56398
11
2.42845
21
-2.56398
0
LINE
8
BLACK
6
CONTINUOUS
10
2.42845
20
-2.56398
11
2.41476
21
-2.56125
0
LINE
8
BLACK
6
CONTINUOUS
10
2.41476
20
-2.56125
11
2.40187
21
-2.55591
0
LINE
8
BLACK
6
CONTINUOUS
10
2.40187
20
-2.55591
11
2.39026
21
-2.54816
0
LINE
8
BLACK
6
CONTINUOUS
10
2.39026
20
-2.54816
11
2.38039
21
-2.53828
0
LINE
8
BLACK
6
CONTINUOUS
10
2.38039
20
-2.53828
11
2.37263
21
-2.52668
0
LINE
8
BLACK
6
CONTINUOUS
10
2.37263
20
-2.52668
11
2.36729
21
-2.51378
0
LINE
8
BLACK
6
CONTINUOUS
10
2.36729
20
-2.51378
11
2.36457
21
-2.50009
0
LINE
8
BLACK
6
CONTINUOUS
10
2.36457
20
-2.50009
11
2.36457
21
-2.48613
0
LINE
8
BLACK
6
CONTINUOUS
10
2.36457
20
-2.48613
11
2.36729
21
-2.47244
0
LINE
8
BLACK
6
CONTINUOUS
10
2.36729
20
-2.47244
11
2.37263
21
-2.45954
0
LINE
8
BLACK
6
CONTINUOUS
10
2.37263
20
-2.45954
11
2.38039
21
-2.44794
0
LINE
8
BLACK
6
CONTINUOUS
10
2.38039
20
-2.44794
11
2.39026
21
-2.43806
0
LINE
8
BLACK
6
CONTINUOUS
10
2.39026
20
-2.43806
11
2.40187
21
-2.43031
0
LINE
8
BLACK
6
CONTINUOUS
10
2.40187
20
-2.43031
11
2.41476
21
-2.42497
0
LINE
8
BLACK
6
CONTINUOUS
10
2.41476
20
-2.42497
11
2.42845
21
-2.42224
0
LINE
8
BLACK
6
CONTINUOUS
10
2.42845
20
-2.42224
11
2.44241
21
-2.42224
0
LINE
8
BLACK
6
CONTINUOUS
10
2.44241
20
-2.42224
11
2.4561
21
-2.42497
0
LINE
8
BLACK
6
CONTINUOUS
10
8.5311
20
-2.42497
11
8.544
21
-2.43031
0
LINE
8
BLACK
6
CONTINUOUS
10
8.544
20
-2.43031
11
8.55561
21
-2.43806
0
LINE
8
BLACK
6
CONTINUOUS
10
8.55561
20
-2.43806
11
8.56548
21
-2.44794
0
LINE
8
BLACK
6
CONTINUOUS
10
8.56548
20
-2.44794
11
8.57323
21
-2.45954
0
LINE
8
BLACK
6
CONTINUOUS
10
8.57323
20
-2.45954
11
8.57858
21
-2.47244
0
LINE
8
BLACK
6
CONTINUOUS
10
8.57858
20
-2.47244
11
8.5813
21
-2.48613
0
LINE
8
BLACK
6
CONTINUOUS
10
8.5813
20
-2.48613
11
8.5813
21
-2.50009
0
LINE
8
BLACK
6
CONTINUOUS
10
8.5813
20
-2.50009
11
8.57858
21
-2.51378
0
LINE
8
BLACK
6
CONTINUOUS
10
8.57858
20
-2.51378
11
8.57323
21
-2.52668
0
LINE
8
BLACK
6
CONTINUOUS
10
8.57323
20
-2.52668
11
8.56548
21
-2.53828
0
LINE
8
BLACK
6
CONTINUOUS
10
8.56548
20
-2.53828
11
8.55561
21
-2.54816
0
LINE
8
BLACK
6
CONTINUOUS
10
8.55561
20
-2.54816
11
8.544
21
-2.55591
0
LINE
8
BLACK
6
CONTINUOUS
10
8.544
20
-2.55591
11
8.5311
21
-2.56125
0
LINE
8
BLACK
6
CONTINUOUS
10
8.5311
20
-2.56125
11
8.51741
21
-2.56398
0
LINE
8
BLACK
6
CONTINUOUS
10
8.51741
20
-2.56398
11
8.50345
21
-2.56398
0
LINE
8
BLACK
6
CONTINUOUS
10
8.50345
20
-2.56398
11
8.48976
21
-2.56125
0
LINE
8
BLACK
6
CONTINUOUS
10
8.48976
20
-2.56125
11
8.47687
21
-2.55591
0
LINE
8
BLACK
6
CONTINUOUS
10
8.47687
20
-2.55591
11
8.46526
21
-2.54816
0
LINE
8
BLACK
6
CONTINUOUS
10
8.46526
20
-2.54816
11
8.45539
21
-2.53828
0
LINE
8
BLACK
6
CONTINUOUS
10
8.45539
20
-2.53828
11
8.44763
21
-2.52668
0
LINE
8
BLACK
6
CONTINUOUS
10
8.44763
20
-2.52668
11
8.44229
21
-2.51378
0
LINE
8
BLACK
6
CONTINUOUS
10
8.44229
20
-2.51378
11
8.43957
21
-2.50009
0
LINE
8
BLACK
6
CONTINUOUS
10
8.43957
20
-2.50009
11
8.43957
21
-2.48613
0
LINE
8
BLACK
6
CONTINUOUS
10
8.43957
20
-2.48613
11
8.44229
21
-2.47244
0
LINE
8
BLACK
6
CONTINUOUS
10
8.44229
20
-2.47244
11
8.44763
21
-2.45954
0
LINE
8
BLACK
6
CONTINUOUS
10
8.44763
20
-2.45954
11
8.45539
21
-2.44794
0
LINE
8
BLACK
6
CONTINUOUS
10
8.45539
20
-2.44794
11
8.46526
21
-2.43806
0
LINE
8
BLACK
6
CONTINUOUS
10
8.46526
20
-2.43806
11
8.47687
21
-2.43031
0
LINE
8
BLACK
6
CONTINUOUS
10
8.47687
20
-2.43031
11
8.48976
21
-2.42497
0
LINE
8
BLACK
6
CONTINUOUS
10
8.48976
20
-2.42497
11
8.50345
21
-2.42224
0
LINE
8
BLACK
6
CONTINUOUS
10
8.50345
20
-2.42224
11
8.51741
21
-2.42224
0
LINE
8
BLACK
6
CONTINUOUS
10
8.51741
20
-2.42224
11
8.5311
21
-2.42497
0
LINE
8
BLACK
6
CONTINUOUS
10
3.1311
20
-2.42497
11
3.144
21
-2.43031
0
LINE
8
BLACK
6
CONTINUOUS
10
3.144
20
-2.43031
11
3.15561
21
-2.43806
0
LINE
8
BLACK
6
CONTINUOUS
10
3.15561
20
-2.43806
11
3.16548
21
-2.44794
0
LINE
8
BLACK
6
CONTINUOUS
10
3.16548
20
-2.44794
11
3.17323
21
-2.45954
0
LINE
8
BLACK
6
CONTINUOUS
10
3.17323
20
-2.45954
11
3.17858
21
-2.47244
0
LINE
8
BLACK
6
CONTINUOUS
10
3.17858
20
-2.47244
11
3.1813
21
-2.48613
0
LINE
8
BLACK
6
CONTINUOUS
10
3.1813
20
-2.48613
11
3.1813
21
-2.50009
0
LINE
8
BLACK
6
CONTINUOUS
10
3.1813
20
-2.50009
11
3.17858
21
-2.51378
0
LINE
8
BLACK
6
CONTINUOUS
10
3.17858
20
-2.51378
11
3.17323
21
-2.52668
0
LINE
8
BLACK
6
CONTINUOUS
10
3.17323
20
-2.52668
11
3.16548
21
-2.53828
0
LINE
8
BLACK
6
CONTINUOUS
10
3.16548
20
-2.53828
11
3.15561
21
-2.54816
0
LINE
8
BLACK
6
CONTINUOUS
10
3.15561
20
-2.54816
11
3.144
21
-2.55591
0
LINE
8
BLACK
6
CONTINUOUS
10
3.144
20
-2.55591
11
3.1311
21
-2.56125
0
LINE
8
BLACK
6
CONTINUOUS
10
3.1311
20
-2.56125
11
3.11741
21
-2.56398
0
LINE
8
BLACK
6
CONTINUOUS
10
3.11741
20
-2.56398
11
3.10345
21
-2.56398
0
LINE
8
BLACK
6
CONTINUOUS
10
3.10345
20
-2.56398
11
3.08976
21
-2.56125
0
LINE
8
BLACK
6
CONTINUOUS
10
3.08976
20
-2.56125
11
3.07687
21
-2.55591
0
LINE
8
BLACK
6
CONTINUOUS
10
3.07687
20
-2.55591
11
3.06526
21
-2.54816
0
LINE
8
BLACK
6
CONTINUOUS
10
3.06526
20
-2.54816
11
3.05539
21
-2.53828
0
LINE
8
BLACK
6
CONTINUOUS
10
3.05539
20
-2.53828
11
3.04763
21
-2.52668
0
LINE
8
BLACK
6
CONTINUOUS
10
3.04763
20
-2.52668
11
3.04229
21
-2.51378
0
LINE
8
BLACK
6
CONTINUOUS
10
3.04229
20
-2.51378
11
3.03957
21
-2.50009
0
LINE
8
BLACK
6
CONTINUOUS
10
3.03957
20
-2.50009
11
3.03957
21
-2.48613
0
LINE
8
BLACK
6
CONTINUOUS
10
3.03957
20
-2.48613
11
3.04229
21
-2.47244
0
LINE
8
BLACK
6
CONTINUOUS
10
3.04229
20
-2.47244
11
3.04763
21
-2.45954
0
LINE
8
BLACK
6
CONTINUOUS
10
3.04763
20
-2.45954
11
3.05539
21
-2.44794
0
LINE
8
BLACK
6
CONTINUOUS
10
3.05539
20
-2.44794
11
3.06526
21
-2.43806
0
LINE
8
BLACK
6
CONTINUOUS
10
3.06526
20
-2.43806
11
3.07687
21
-2.43031
0
LINE
8
BLACK
6
CONTINUOUS
10
3.07687
20
-2.43031
11
3.08976
21
-2.42497
0
LINE
8
BLACK
6
CONTINUOUS
10
3.08976
20
-2.42497
11
3.10345
21
-2.42224
0
LINE
8
BLACK
6
CONTINUOUS
10
3.10345
20
-2.42224
11
3.11741
21
-2.42224
0
LINE
8
BLACK
6
CONTINUOUS
10
3.11741
20
-2.42224
11
3.1311
21
-2.42497
0
LINE
8
BLACK
6
CONTINUOUS
10
7.8561
20
-2.42497
11
7.869
21
-2.43031
0
LINE
8
BLACK
6
CONTINUOUS
10
7.869
20
-2.43031
11
7.88061
21
-2.43806
0
LINE
8
BLACK
6
CONTINUOUS
10
7.88061
20
-2.43806
11
7.89048
21
-2.44794
0
LINE
8
BLACK
6
CONTINUOUS
10
7.89048
20
-2.44794
11
7.89823
21
-2.45954
0
LINE
8
BLACK
6
CONTINUOUS
10
7.89823
20
-2.45954
11
7.90358
21
-2.47244
0
LINE
8
BLACK
6
CONTINUOUS
10
7.90358
20
-2.47244
11
7.9063
21
-2.48613
0
LINE
8
BLACK
6
CONTINUOUS
10
7.9063
20
-2.48613
11
7.9063
21
-2.50009
0
LINE
8
BLACK
6
CONTINUOUS
10
7.9063
20
-2.50009
11
7.90358
21
-2.51378
0
LINE
8
BLACK
6
CONTINUOUS
10
7.90358
20
-2.51378
11
7.89823
21
-2.52668
0
LINE
8
BLACK
6
CONTINUOUS
10
7.89823
20
-2.52668
11
7.89048
21
-2.53828
0
LINE
8
BLACK
6
CONTINUOUS
10
7.89048
20
-2.53828
11
7.88061
21
-2.54816
0
LINE
8
BLACK
6
CONTINUOUS
10
7.88061
20
-2.54816
11
7.869
21
-2.55591
0
LINE
8
BLACK
6
CONTINUOUS
10
7.869
20
-2.55591
11
7.8561
21
-2.56125
0
LINE
8
BLACK
6
CONTINUOUS
10
7.8561
20
-2.56125
11
7.84241
21
-2.56398
0
LINE
8
BLACK
6
CONTINUOUS
10
7.84241
20
-2.56398
11
7.82845
21
-2.56398
0
LINE
8
BLACK
6
CONTINUOUS
10
7.82845
20
-2.56398
11
7.81476
21
-2.56125
0
LINE
8
BLACK
6
CONTINUOUS
10
7.81476
20
-2.56125
11
7.80187
21
-2.55591
0
LINE
8
BLACK
6
CONTINUOUS
10
7.80187
20
-2.55591
11
7.79026
21
-2.54816
0
LINE
8
BLACK
6
CONTINUOUS
10
7.79026
20
-2.54816
11
7.78039
21
-2.53828
0
LINE
8
BLACK
6
CONTINUOUS
10
7.78039
20
-2.53828
11
7.77263
21
-2.52668
0
LINE
8
BLACK
6
CONTINUOUS
10
7.77263
20
-2.52668
11
7.76729
21
-2.51378
0
LINE
8
BLACK
6
CONTINUOUS
10
7.76729
20
-2.51378
11
7.76457
21
-2.50009
0
LINE
8
BLACK
6
CONTINUOUS
10
7.76457
20
-2.50009
11
7.76457
21
-2.48613
0
LINE
8
BLACK
6
CONTINUOUS
10
7.76457
20
-2.48613
11
7.76729
21
-2.47244
0
LINE
8
BLACK
6
CONTINUOUS
10
7.76729
20
-2.47244
11
7.77263
21
-2.45954
0
LINE
8
BLACK
6
CONTINUOUS
10
7.77263
20
-2.45954
11
7.78039
21
-2.44794
0
LINE
8
BLACK
6
CONTINUOUS
10
7.78039
20
-2.44794
11
7.79026
21
-2.43806
0
LINE
8
BLACK
6
CONTINUOUS
10
7.79026
20
-2.43806
11
7.80187
21
-2.43031
0
LINE
8
BLACK
6
CONTINUOUS
10
7.80187
20
-2.43031
11
7.81476
21
-2.42497
0
LINE
8
BLACK
6
CONTINUOUS
10
7.81476
20
-2.42497
11
7.82845
21
-2.42224
0
LINE
8
BLACK
6
CONTINUOUS
10
7.82845
20
-2.42224
11
7.84241
21
-2.42224
0
LINE
8
BLACK
6
CONTINUOUS
10
7.84241
20
-2.42224
11
7.8561
21
-2.42497
0
LINE
8
BLACK
6
CONTINUOUS
10
3.8061
20
-2.42497
11
3.819
21
-2.43031
0
LINE
8
BLACK
6
CONTINUOUS
10
3.819
20
-2.43031
11
3.83061
21
-2.43806
0
LINE
8
BLACK
6
CONTINUOUS
10
3.83061
20
-2.43806
11
3.84048
21
-2.44794
0
LINE
8
BLACK
6
CONTINUOUS
10
3.84048
20
-2.44794
11
3.84823
21
-2.45954
0
LINE
8
BLACK
6
CONTINUOUS
10
3.84823
20
-2.45954
11
3.85358
21
-2.47244
0
LINE
8
BLACK
6
CONTINUOUS
10
3.85358
20
-2.47244
11
3.8563
21
-2.48613
0
LINE
8
BLACK
6
CONTINUOUS
10
3.8563
20
-2.48613
11
3.8563
21
-2.50009
0
LINE
8
BLACK
6
CONTINUOUS
10
3.8563
20
-2.50009
11
3.85358
21
-2.51378
0
LINE
8
BLACK
6
CONTINUOUS
10
3.85358
20
-2.51378
11
3.84823
21
-2.52668
0
LINE
8
BLACK
6
CONTINUOUS
10
3.84823
20
-2.52668
11
3.84048
21
-2.53828
0
LINE
8
BLACK
6
CONTINUOUS
10
3.84048
20
-2.53828
11
3.83061
21
-2.54816
0
LINE
8
BLACK
6
CONTINUOUS
10
3.83061
20
-2.54816
11
3.819
21
-2.55591
0
LINE
8
BLACK
6
CONTINUOUS
10
3.819
20
-2.55591
11
3.8061
21
-2.56125
0
LINE
8
BLACK
6
CONTINUOUS
10
3.8061
20
-2.56125
11
3.79241
21
-2.56398
0
LINE
8
BLACK
6
CONTINUOUS
10
3.79241
20
-2.56398
11
3.77845
21
-2.56398
0
LINE
8
BLACK
6
CONTINUOUS
10
3.77845
20
-2.56398
11
3.76476
21
-2.56125
0
LINE
8
BLACK
6
CONTINUOUS
10
3.76476
20
-2.56125
11
3.75187
21
-2.55591
0
LINE
8
BLACK
6
CONTINUOUS
10
3.75187
20
-2.55591
11
3.74026
21
-2.54816
0
LINE
8
BLACK
6
CONTINUOUS
10
3.74026
20
-2.54816
11
3.73039
21
-2.53828
0
LINE
8
BLACK
6
CONTINUOUS
10
3.73039
20
-2.53828
11
3.72263
21
-2.52668
0
LINE
8
BLACK
6
CONTINUOUS
10
3.72263
20
-2.52668
11
3.71729
21
-2.51378
0
LINE
8
BLACK
6
CONTINUOUS
10
3.71729
20
-2.51378
11
3.71457
21
-2.50009
0
LINE
8
BLACK
6
CONTINUOUS
10
3.71457
20
-2.50009
11
3.71457
21
-2.48613
0
LINE
8
BLACK
6
CONTINUOUS
10
3.71457
20
-2.48613
11
3.71729
21
-2.47244
0
LINE
8
BLACK
6
CONTINUOUS
10
3.71729
20
-2.47244
11
3.72263
21
-2.45954
0
LINE
8
BLACK
6
CONTINUOUS
10
3.72263
20
-2.45954
11
3.73039
21
-2.44794
0
LINE
8
BLACK
6
CONTINUOUS
10
3.73039
20
-2.44794
11
3.74026
21
-2.43806
0
LINE
8
BLACK
6
CONTINUOUS
10
3.74026
20
-2.43806
11
3.75187
21
-2.43031
0
LINE
8
BLACK
6
CONTINUOUS
10
3.75187
20
-2.43031
11
3.76476
21
-2.42497
0
LINE
8
BLACK
6
CONTINUOUS
10
3.76476
20
-2.42497
11
3.77845
21
-2.42224
0
LINE
8
BLACK
6
CONTINUOUS
10
3.77845
20
-2.42224
11
3.79241
21
-2.42224
0
LINE
8
BLACK
6
CONTINUOUS
10
3.79241
20
-2.42224
11
3.8061
21
-2.42497
0
LINE
8
BLACK
6
CONTINUOUS
10
4.4811
20
-2.42497
11
4.494
21
-2.43031
0
LINE
8
BLACK
6
CONTINUOUS
10
4.494
20
-2.43031
11
4.50561
21
-2.43806
0
LINE
8
BLACK
6
CONTINUOUS
10
4.50561
20
-2.43806
11
4.51548
21
-2.44794
0
LINE
8
BLACK
6
CONTINUOUS
10
4.51548
20
-2.44794
11
4.52323
21
-2.45954
0
LINE
8
BLACK
6
CONTINUOUS
10
4.52323
20
-2.45954
11
4.52858
21
-2.47244
0
LINE
8
BLACK
6
CONTINUOUS
10
4.52858
20
-2.47244
11
4.5313
21
-2.48613
0
LINE
8
BLACK
6
CONTINUOUS
10
4.5313
20
-2.48613
11
4.5313
21
-2.50009
0
LINE
8
BLACK
6
CONTINUOUS
10
4.5313
20
-2.50009
11
4.52858
21
-2.51378
0
LINE
8
BLACK
6
CONTINUOUS
10
4.52858
20
-2.51378
11
4.52323
21
-2.52668
0
LINE
8
BLACK
6
CONTINUOUS
10
4.52323
20
-2.52668
11
4.51548
21
-2.53828
0
LINE
8
BLACK
6
CONTINUOUS
10
4.51548
20
-2.53828
11
4.50561
21
-2.54816
0
LINE
8
BLACK
6
CONTINUOUS
10
4.50561
20
-2.54816
11
4.494
21
-2.55591
0
LINE
8
BLACK
6
CONTINUOUS
10
4.494
20
-2.55591
11
4.4811
21
-2.56125
0
LINE
8
BLACK
6
CONTINUOUS
10
4.4811
20
-2.56125
11
4.46741
21
-2.56398
0
LINE
8
BLACK
6
CONTINUOUS
10
4.46741
20
-2.56398
11
4.45345
21
-2.56398
0
LINE
8
BLACK
6
CONTINUOUS
10
4.45345
20
-2.56398
11
4.43976
21
-2.56125
0
LINE
8
BLACK
6
CONTINUOUS
10
4.43976
20
-2.56125
11
4.42687
21
-2.55591
0
LINE
8
BLACK
6
CONTINUOUS
10
4.42687
20
-2.55591
11
4.41526
21
-2.54816
0
LINE
8
BLACK
6
CONTINUOUS
10
4.41526
20
-2.54816
11
4.40539
21
-2.53828
0
LINE
8
BLACK
6
CONTINUOUS
10
4.40539
20
-2.53828
11
4.39763
21
-2.52668
0
LINE
8
BLACK
6
CONTINUOUS
10
4.39763
20
-2.52668
11
4.39229
21
-2.51378
0
LINE
8
BLACK
6
CONTINUOUS
10
4.39229
20
-2.51378
11
4.38957
21
-2.50009
0
LINE
8
BLACK
6
CONTINUOUS
10
4.38957
20
-2.50009
11
4.38957
21
-2.48613
0
LINE
8
BLACK
6
CONTINUOUS
10
4.38957
20
-2.48613
11
4.39229
21
-2.47244
0
LINE
8
BLACK
6
CONTINUOUS
10
4.39229
20
-2.47244
11
4.39763
21
-2.45954
0
LINE
8
BLACK
6
CONTINUOUS
10
4.39763
20
-2.45954
11
4.40539
21
-2.44794
0
LINE
8
BLACK
6
CONTINUOUS
10
4.40539
20
-2.44794
11
4.41526
21
-2.43806
0
LINE
8
BLACK
6
CONTINUOUS
10
4.41526
20
-2.43806
11
4.42687
21
-2.43031
0
LINE
8
BLACK
6
CONTINUOUS
10
4.42687
20
-2.43031
11
4.43976
21
-2.42497
0
LINE
8
BLACK
6
CONTINUOUS
10
4.43976
20
-2.42497
11
4.45345
21
-2.42224
0
LINE
8
BLACK
6
CONTINUOUS
10
4.45345
20
-2.42224
11
4.46741
21
-2.42224
0
LINE
8
BLACK
6
CONTINUOUS
10
4.46741
20
-2.42224
11
4.4811
21
-2.42497
0
LINE
8
BLACK
6
CONTINUOUS
10
7.1811
20
-2.42497
11
7.194
21
-2.43031
0
LINE
8
BLACK
6
CONTINUOUS
10
7.194
20
-2.43031
11
7.20561
21
-2.43806
0
LINE
8
BLACK
6
CONTINUOUS
10
7.20561
20
-2.43806
11
7.21548
21
-2.44794
0
LINE
8
BLACK
6
CONTINUOUS
10
7.21548
20
-2.44794
11
7.22323
21
-2.45954
0
LINE
8
BLACK
6
CONTINUOUS
10
7.22323
20
-2.45954
11
7.22858
21
-2.47244
0
LINE
8
BLACK
6
CONTINUOUS
10
7.22858
20
-2.47244
11
7.2313
21
-2.48613
0
LINE
8
BLACK
6
CONTINUOUS
10
7.2313
20
-2.48613
11
7.2313
21
-2.50009
0
LINE
8
BLACK
6
CONTINUOUS
10
7.2313
20
-2.50009
11
7.22858
21
-2.51378
0
LINE
8
BLACK
6
CONTINUOUS
10
7.22858
20
-2.51378
11
7.22323
21
-2.52668
0
LINE
8
BLACK
6
CONTINUOUS
10
7.22323
20
-2.52668
11
7.21548
21
-2.53828
0
LINE
8
BLACK
6
CONTINUOUS
10
7.21548
20
-2.53828
11
7.20561
21
-2.54816
0
LINE
8
BLACK
6
CONTINUOUS
10
7.20561
20
-2.54816
11
7.194
21
-2.55591
0
LINE
8
BLACK
6
CONTINUOUS
10
7.194
20
-2.55591
11
7.1811
21
-2.56125
0
LINE
8
BLACK
6
CONTINUOUS
10
7.1811
20
-2.56125
11
7.16741
21
-2.56398
0
LINE
8
BLACK
6
CONTINUOUS
10
7.16741
20
-2.56398
11
7.15345
21
-2.56398
0
LINE
8
BLACK
6
CONTINUOUS
10
7.15345
20
-2.56398
11
7.13976
21
-2.56125
0
LINE
8
BLACK
6
CONTINUOUS
10
7.13976
20
-2.56125
11
7.12687
21
-2.55591
0
LINE
8
BLACK
6
CONTINUOUS
10
7.12687
20
-2.55591
11
7.11526
21
-2.54816
0
LINE
8
BLACK
6
CONTINUOUS
10
7.11526
20
-2.54816
11
7.10539
21
-2.53828
0
LINE
8
BLACK
6
CONTINUOUS
10
7.10539
20
-2.53828
11
7.09763
21
-2.52668
0
LINE
8
BLACK
6
CONTINUOUS
10
7.09763
20
-2.52668
11
7.09229
21
-2.51378
0
LINE
8
BLACK
6
CONTINUOUS
10
7.09229
20
-2.51378
11
7.08957
21
-2.50009
0
LINE
8
BLACK
6
CONTINUOUS
10
7.08957
20
-2.50009
11
7.08957
21
-2.48613
0
LINE
8
BLACK
6
CONTINUOUS
10
7.08957
20
-2.48613
11
7.09229
21
-2.47244
0
LINE
8
BLACK
6
CONTINUOUS
10
7.09229
20
-2.47244
11
7.09763
21
-2.45954
0
LINE
8
BLACK
6
CONTINUOUS
10
7.09763
20
-2.45954
11
7.10539
21
-2.44794
0
LINE
8
BLACK
6
CONTINUOUS
10
7.10539
20
-2.44794
11
7.11526
21
-2.43806
0
LINE
8
BLACK
6
CONTINUOUS
10
7.11526
20
-2.43806
11
7.12687
21
-2.43031
0
LINE
8
BLACK
6
CONTINUOUS
10
7.12687
20
-2.43031
11
7.13976
21
-2.42497
0
LINE
8
BLACK
6
CONTINUOUS
10
7.13976
20
-2.42497
11
7.15345
21
-2.42224
0
LINE
8
BLACK
6
CONTINUOUS
10
7.15345
20
-2.42224
11
7.16741
21
-2.42224
0
LINE
8
BLACK
6
CONTINUOUS
10
7.16741
20
-2.42224
11
7.1811
21
-2.42497
0
LINE
8
BLACK
6
CONTINUOUS
10
5.1561
20
-2.42497
11
5.169
21
-2.43031
0
LINE
8
BLACK
6
CONTINUOUS
10
5.169
20
-2.43031
11
5.18061
21
-2.43806
0
LINE
8
BLACK
6
CONTINUOUS
10
5.18061
20
-2.43806
11
5.19048
21
-2.44794
0
LINE
8
BLACK
6
CONTINUOUS
10
5.19048
20
-2.44794
11
5.19823
21
-2.45954
0
LINE
8
BLACK
6
CONTINUOUS
10
5.19823
20
-2.45954
11
5.20358
21
-2.47244
0
LINE
8
BLACK
6
CONTINUOUS
10
5.20358
20
-2.47244
11
5.2063
21
-2.48613
0
LINE
8
BLACK
6
CONTINUOUS
10
5.2063
20
-2.48613
11
5.2063
21
-2.50009
0
LINE
8
BLACK
6
CONTINUOUS
10
5.2063
20
-2.50009
11
5.20358
21
-2.51378
0
LINE
8
BLACK
6
CONTINUOUS
10
5.20358
20
-2.51378
11
5.19823
21
-2.52668
0
LINE
8
BLACK
6
CONTINUOUS
10
5.19823
20
-2.52668
11
5.19048
21
-2.53828
0
LINE
8
BLACK
6
CONTINUOUS
10
5.19048
20
-2.53828
11
5.18061
21
-2.54816
0
LINE
8
BLACK
6
CONTINUOUS
10
5.18061
20
-2.54816
11
5.169
21
-2.55591
0
LINE
8
BLACK
6
CONTINUOUS
10
5.169
20
-2.55591
11
5.1561
21
-2.56125
0
LINE
8
BLACK
6
CONTINUOUS
10
5.1561
20
-2.56125
11
5.14241
21
-2.56398
0
LINE
8
BLACK
6
CONTINUOUS
10
5.14241
20
-2.56398
11
5.12845
21
-2.56398
0
LINE
8
BLACK
6
CONTINUOUS
10
5.12845
20
-2.56398
11
5.11476
21
-2.56125
0
LINE
8
BLACK
6
CONTINUOUS
10
5.11476
20
-2.56125
11
5.10187
21
-2.55591
0
LINE
8
BLACK
6
CONTINUOUS
10
5.10187
20
-2.55591
11
5.09026
21
-2.54816
0
LINE
8
BLACK
6
CONTINUOUS
10
5.09026
20
-2.54816
11
5.08039
21
-2.53828
0
LINE
8
BLACK
6
CONTINUOUS
10
5.08039
20
-2.53828
11
5.07263
21
-2.52668
0
LINE
8
BLACK
6
CONTINUOUS
10
5.07263
20
-2.52668
11
5.06729
21
-2.51378
0
LINE
8
BLACK
6
CONTINUOUS
10
5.06729
20
-2.51378
11
5.06457
21
-2.50009
0
LINE
8
BLACK
6
CONTINUOUS
10
5.06457
20
-2.50009
11
5.06457
21
-2.48613
0
LINE
8
BLACK
6
CONTINUOUS
10
5.06457
20
-2.48613
11
5.06729
21
-2.47244
0
LINE
8
BLACK
6
CONTINUOUS
10
5.06729
20
-2.47244
11
5.07263
21
-2.45954
0
LINE
8
BLACK
6
CONTINUOUS
10
5.07263
20
-2.45954
11
5.08039
21
-2.44794
0
LINE
8
BLACK
6
CONTINUOUS
10
5.08039
20
-2.44794
11
5.09026
21
-2.43806
0
LINE
8
BLACK
6
CONTINUOUS
10
5.09026
20
-2.43806
11
5.10187
21
-2.43031
0
LINE
8
BLACK
6
CONTINUOUS
10
5.10187
20
-2.43031
11
5.11476
21
-2.42497
0
LINE
8
BLACK
6
CONTINUOUS
10
5.11476
20
-2.42497
11
5.12845
21
-2.42224
0
LINE
8
BLACK
6
CONTINUOUS
10
5.12845
20
-2.42224
11
5.14241
21
-2.42224
0
LINE
8
BLACK
6
CONTINUOUS
10
5.14241
20
-2.42224
11
5.1561
21
-2.42497
0
LINE
8
BLACK
6
CONTINUOUS
10
5.8311
20
-2.42497
11
5.844
21
-2.43031
0
LINE
8
BLACK
6
CONTINUOUS
10
5.844
20
-2.43031
11
5.85561
21
-2.43806
0
LINE
8
BLACK
6
CONTINUOUS
10
5.85561
20
-2.43806
11
5.86548
21
-2.44794
0
LINE
8
BLACK
6
CONTINUOUS
10
5.86548
20
-2.44794
11
5.87323
21
-2.45954
0
LINE
8
BLACK
6
CONTINUOUS
10
5.87323
20
-2.45954
11
5.87858
21
-2.47244
0
LINE
8
BLACK
6
CONTINUOUS
10
5.87858
20
-2.47244
11
5.8813
21
-2.48613
0
LINE
8
BLACK
6
CONTINUOUS
10
5.8813
20
-2.48613
11
5.8813
21
-2.50009
0
LINE
8
BLACK
6
CONTINUOUS
10
5.8813
20
-2.50009
11
5.87858
21
-2.51378
0
LINE
8
BLACK
6
CONTINUOUS
10
5.87858
20
-2.51378
11
5.87323
21
-2.52668
0
LINE
8
BLACK
6
CONTINUOUS
10
5.87323
20
-2.52668
11
5.86548
21
-2.53828
0
LINE
8
BLACK
6
CONTINUOUS
10
5.86548
20
-2.53828
11
5.85561
21
-2.54816
0
LINE
8
BLACK
6
CONTINUOUS
10
5.85561
20
-2.54816
11
5.844
21
-2.55591
0
LINE
8
BLACK
6
CONTINUOUS
10
5.844
20
-2.55591
11
5.8311
21
-2.56125
0
LINE
8
BLACK
6
CONTINUOUS
10
5.8311
20
-2.56125
11
5.81741
21
-2.56398
0
LINE
8
BLACK
6
CONTINUOUS
10
5.81741
20
-2.56398
11
5.80345
21
-2.56398
0
LINE
8
BLACK
6
CONTINUOUS
10
5.80345
20
-2.56398
11
5.78976
21
-2.56125
0
LINE
8
BLACK
6
CONTINUOUS
10
5.78976
20
-2.56125
11
5.77687
21
-2.55591
0
LINE
8
BLACK
6
CONTINUOUS
10
5.77687
20
-2.55591
11
5.76526
21
-2.54816
0
LINE
8
BLACK
6
CONTINUOUS
10
5.76526
20
-2.54816
11
5.75539
21
-2.53828
0
LINE
8
BLACK
6
CONTINUOUS
10
5.75539
20
-2.53828
11
5.74763
21
-2.52668
0
LINE
8
BLACK
6
CONTINUOUS
10
5.74763
20
-2.52668
11
5.74229
21
-2.51378
0
LINE
8
BLACK
6
CONTINUOUS
10
5.74229
20
-2.51378
11
5.73957
21
-2.50009
0
LINE
8
BLACK
6
CONTINUOUS
10
5.73957
20
-2.50009
11
5.73957
21
-2.48613
0
LINE
8
BLACK
6
CONTINUOUS
10
5.73957
20
-2.48613
11
5.74229
21
-2.47244
0
LINE
8
BLACK
6
CONTINUOUS
10
5.74229
20
-2.47244
11
5.74763
21
-2.45954
0
LINE
8
BLACK
6
CONTINUOUS
10
5.74763
20
-2.45954
11
5.75539
21
-2.44794
0
LINE
8
BLACK
6
CONTINUOUS
10
5.75539
20
-2.44794
11
5.76526
21
-2.43806
0
LINE
8
BLACK
6
CONTINUOUS
10
5.76526
20
-2.43806
11
5.77687
21
-2.43031
0
LINE
8
BLACK
6
CONTINUOUS
10
5.77687
20
-2.43031
11
5.78976
21
-2.42497
0
LINE
8
BLACK
6
CONTINUOUS
10
5.78976
20
-2.42497
11
5.80345
21
-2.42224
0
LINE
8
BLACK
6
CONTINUOUS
10
5.80345
20
-2.42224
11
5.81741
21
-2.42224
0
LINE
8
BLACK
6
CONTINUOUS
10
5.81741
20
-2.42224
11
5.8311
21
-2.42497
0
CIRCLE
8
BLACK
10
9.45
20
-2.75
40
0.165354
0
CIRCLE
8
BLACK
10
9.45
20
-4.85
40
0.165354
0
CIRCLE
8
BLACK
10
8.72913
20
-4.325
40
0.0295276
0
CIRCLE
8
BLACK
10
8.51457
20
-4.325
40
0.0295276
0
CIRCLE
8
BLACK
10
8.3
20
-4.325
40
0.0295276
0
CIRCLE
8
BLACK
10
8.51457
20
-5.10689
40
0.0708661
0
CIRCLE
8
BLACK
10
8.05413
20
-4.325
40
0.0295276
0
CIRCLE
8
BLACK
10
7.83957
20
-4.325
40
0.0295276
0
CIRCLE
8
BLACK
10
7.625
20
-4.325
40
0.0295276
0
CIRCLE
8
BLACK
10
7.83957
20
-5.10689
40
0.0708661
0
CIRCLE
8
BLACK
10
7.37913
20
-4.325
40
0.0295276
0
CIRCLE
8
BLACK
10
7.16457
20
-4.325
40
0.0295276
0
CIRCLE
8
BLACK
10
6.95
20
-4.325
40
0.0295276
0
CIRCLE
8
BLACK
10
7.16457
20
-5.10689
40
0.0708661
0
CIRCLE
8
BLACK
10
6.70413
20
-4.325
40
0.0295276
0
CIRCLE
8
BLACK
10
6.48957
20
-4.325
40
0.0295276
0
CIRCLE
8
BLACK
10
6.275
20
-4.325
40
0.0295276
0
CIRCLE
8
BLACK
10
6.48957
20
-5.10689
40
0.0708661
0
CIRCLE
8
BLACK
10
6.02913
20
-4.325
40
0.0295276
0
CIRCLE
8
BLACK
10
5.81457
20
-4.325
40
0.0295276
0
CIRCLE
8
BLACK
10
5.6
20
-4.325
40
0.0295276
0
CIRCLE
8
BLACK
10
5.81457
20
-5.10689
40
0.0708661
0
CIRCLE
8
BLACK
10
5.35413
20
-4.325
40
0.0295276
0
CIRCLE
8
BLACK
10
5.13957
20
-4.325
40
0.0295276
0
CIRCLE
8
BLACK
10
4.925
20
-4.325
40
0.0295276
0
CIRCLE
8
BLACK
10
5.13957
20
-5.10689
40
0.0708661
0
CIRCLE
8
BLACK
10
4.67913
20
-4.325
40
0.0295276
0
CIRCLE
8
BLACK
10
4.46457
20
-4.325
40
0.0295276
0
CIRCLE
8
BLACK
10
4.25
20
-4.325
40
0.0295276
0
CIRCLE
8
BLACK
10
4.46457
20
-5.10689
40
0.0708661
0
CIRCLE
8
BLACK
10
4.00413
20
-4.325
40
0.0295276
0
CIRCLE
8
BLACK
10
3.78957
20
-4.325
40
0.0295276
0
CIRCLE
8
BLACK
10
3.575
20
-4.325
40
0.0295276
0
CIRCLE
8
BLACK
10
3.78957
20
-5.10689
40
0.0708661
0
CIRCLE
8
BLACK
10
3.32913
20
-4.325
40
0.0295276
0
CIRCLE
8
BLACK
10
3.11457
20
-4.325
40
0.0295276
0
CIRCLE
8
BLACK
10
2.9
20
-4.325
40
0.0295276
0
CIRCLE
8
BLACK
10
3.11457
20
-5.10689
40
0.0708661
0
CIRCLE
8
BLACK
10
2.65413
20
-4.325
40
0.0295276
0
CIRCLE
8
BLACK
10
2.43957
20
-4.325
40
0.0295276
0
CIRCLE
8
BLACK
10
2.225
20
-4.325
40
0.0295276
0
CIRCLE
8
BLACK
10
2.43957
20
-5.10689
40
0.0708661
0
CIRCLE
8
BLACK
10
1.97913
20
-4.325
40
0.0295276
0
CIRCLE
8
BLACK
10
1.76457
20
-4.325
40
0.0295276
0
CIRCLE
8
BLACK
10
1.55
20
-4.325
40
0.0295276
0
CIRCLE
8
BLACK
10
1.76457
20
-5.10689
40
0.0708661
0
CIRCLE
8
BLACK
10
1.30413
20
-4.325
40
0.0295276
0
CIRCLE
8
BLACK
10
1.08957
20
-4.325
40
0.0295276
0
CIRCLE
8
BLACK
10
0.875
20
-4.325
40
0.0295276
0
CIRCLE
8
BLACK
10
1.08957
20
-5.10689
40
0.0708661
0
CIRCLE
8
BLACK
10
8.29587
20
-3.275
40
0.0295276
0
CIRCLE
8
BLACK
10
8.51043
20
-3.275
40
0.0295276
0
CIRCLE
8
BLACK
10
8.725
20
-3.275
40
0.0295276
0
CIRCLE
8
BLACK
10
8.51043
20
-2.49311
40
0.0708661
0
CIRCLE
8
BLACK
10
7.62087
20
-3.275
40
0.0295276
0
CIRCLE
8
BLACK
10
7.83543
20
-3.275
40
0.0295276
0
CIRCLE
8
BLACK
10
8.05
20
-3.275
40
0.0295276
0
CIRCLE
8
BLACK
10
7.83543
20
-2.49311
40
0.0708661
0
CIRCLE
8
BLACK
10
6.94587
20
-3.275
40
0.0295276
0
CIRCLE
8
BLACK
10
7.16043
20
-3.275
40
0.0295276
0
CIRCLE
8
BLACK
10
7.375
20
-3.275
40
0.0295276
0
CIRCLE
8
BLACK
10
7.16043
20
-2.49311
40
0.0708661
0
CIRCLE
8
BLACK
10
6.27087
20
-3.275
40
0.0295276
0
CIRCLE
8
BLACK
10
6.48543
20
-3.275
40
0.0295276
0
CIRCLE
8
BLACK
10
6.7
20
-3.275
40
0.0295276
0
CIRCLE
8
BLACK
10
6.48543
20
-2.49311
40
0.0708661
0
CIRCLE
8
BLACK
10
5.59587
20
-3.275
40
0.0295276
0
CIRCLE
8
BLACK
10
5.81043
20
-3.275
40
0.0295276
0
CIRCLE
8
BLACK
10
6.025
20
-3.275
40
0.0295276
0
CIRCLE
8
BLACK
10
5.81043
20
-2.49311
40
0.0708661
0
CIRCLE
8
BLACK
10
4.92087
20
-3.275
40
0.0295276
0
CIRCLE
8
BLACK
10
5.13543
20
-3.275
40
0.0295276
0
CIRCLE
8
BLACK
10
5.35
20
-3.275
40
0.0295276
0
CIRCLE
8
BLACK
10
5.13543
20
-2.49311
40
0.0708661
0
CIRCLE
8
BLACK
10
4.24587
20
-3.275
40
0.0295276
0
CIRCLE
8
BLACK
10
4.46043
20
-3.275
40
0.0295276
0
CIRCLE
8
BLACK
10
4.675
20
-3.275
40
0.0295276
0
CIRCLE
8
BLACK
10
4.46043
20
-2.49311
40
0.0708661
0
CIRCLE
8
BLACK
10
3.57087
20
-3.275
40
0.0295276
0
CIRCLE
8
BLACK
10
3.78543
20
-3.275
40
0.0295276
0
CIRCLE
8
BLACK
10
4
20
-3.275
40
0.0295276
0
CIRCLE
8
BLACK
10
3.78543
20
-2.49311
40
0.0708661
0
CIRCLE
8
BLACK
10
2.89587
20
-3.275
40
0.0295276
0
CIRCLE
8
BLACK
10
3.11043
20
-3.275
40
0.0295276
0
CIRCLE
8
BLACK
10
3.325
20
-3.275
40
0.0295276
0
CIRCLE
8
BLACK
10
3.11043
20
-2.49311
40
0.0708661
0
CIRCLE
8
BLACK
10
2.22087
20
-3.275
40
0.0295276
0
CIRCLE
8
BLACK
10
2.43543
20
-3.275
40
0.0295276
0
CIRCLE
8
BLACK
10
2.65
20
-3.275
40
0.0295276
0
CIRCLE
8
BLACK
10
2.43543
20
-2.49311
40
0.0708661
0
CIRCLE
8
BLACK
10
1.54587
20
-3.275
40
0.0295276
0
CIRCLE
8
BLACK
10
1.76043
20
-3.275
40
0.0295276
0
CIRCLE
8
BLACK
10
1.975
20
-3.275
40
0.0295276
0
CIRCLE
8
BLACK
10
1.76043
20
-2.49311
40
0.0708661
0
CIRCLE
8
BLACK
10
0.870866
20
-3.275
40
0.0295276
0
CIRCLE
8
BLACK
10
1.08543
20
-3.275
40
0.0295276
0
CIRCLE
8
BLACK
10
1.3
20
-3.275
40
0.0295276
0
CIRCLE
8
BLACK
10
1.08543
20
-2.49311
40
0.0708661
  0
ENDSEC
  0
EOF
